<?xml version="1.0" encoding="utf-8" standalone="no"?>
<!DOCTYPE svg PUBLIC "-//W3C//DTD SVG 1.1//EN"
  "http://www.w3.org/Graphics/SVG/1.1/DTD/svg11.dtd">
<svg height="323.972121pt" version="1.1" viewBox="0 0 702.275812 323.972121" width="702.275812pt" xmlns="http://www.w3.org/2000/svg" xmlns:xlink="http://www.w3.org/1999/xlink">
 <metadata>
  <rdf:RDF xmlns:cc="http://creativecommons.org/ns#" xmlns:dc="http://purl.org/dc/elements/1.1/" xmlns:rdf="http://www.w3.org/1999/02/22-rdf-syntax-ns#">
   <cc:Work>
    <dc:type rdf:resource="http://purl.org/dc/dcmitype/StillImage"/>
    <dc:date>2021-10-09T19:08:20.063168</dc:date>
    <dc:format>image/svg+xml</dc:format>
    <dc:creator>
     <cc:Agent>
      <dc:title>Matplotlib v3.4.3, https://matplotlib.org/</dc:title>
     </cc:Agent>
    </dc:creator>
   </cc:Work>
  </rdf:RDF>
 </metadata>
 <defs>
  <style type="text/css">*{stroke-linecap:butt;stroke-linejoin:round;}</style>
 </defs>
 <g id="figure_1">
  <g id="patch_1">
   <path d="M 0 323.972121 
L 702.275812 323.972121 
L 702.275812 0 
L 0 0 
z
" style="fill:#ffffff;stroke:#ffffff;stroke-linejoin:miter;"/>
  </g>
  <g id="axes_1">
   <g id="patch_2">
    <path d="M 43.992937 303.305371 
L 601.992938 303.305371 
L 601.992938 26.105371 
L 43.992937 26.105371 
z
" style="fill:#ffffff;stroke:#7f7f7f;stroke-linejoin:miter;"/>
   </g>
   <g id="matplotlib.axis_1">
    <g id="xtick_1">
     <g id="line2d_1">
      <path clip-path="url(#p7f5edbc5c3)" d="M 69.356574 303.305371 
L 69.356574 26.105371 
" style="fill:none;stroke:#e5e5e5;stroke-width:0.8;"/>
     </g>
     <g id="line2d_2">
      <path d="M 69.356574 303.305371 
" style="fill:none;stroke:#333333;stroke-width:1.5;"/>
      <defs>
       <path d="M 0 0 
L 0 2.75 
" id="mef001dcc13" style="stroke:#000000;"/>
      </defs>
      <g>
       <use style="fill:#333333;stroke:#000000;" x="69.356574" xlink:href="#mef001dcc13" y="303.305371"/>
      </g>
     </g>
     <g id="text_1">
      <!-- 2021-08-01 -->
      <g style="fill:#4d4d4d;" transform="translate(43.785699 314.941996)scale(0.088 -0.088)">
       <defs>
        <path d="M 1228 531 
L 3431 531 
L 3431 0 
L 469 0 
L 469 531 
Q 828 903 1448 1529 
Q 2069 2156 2228 2338 
Q 2531 2678 2651 2914 
Q 2772 3150 2772 3378 
Q 2772 3750 2511 3984 
Q 2250 4219 1831 4219 
Q 1534 4219 1204 4116 
Q 875 4013 500 3803 
L 500 4441 
Q 881 4594 1212 4672 
Q 1544 4750 1819 4750 
Q 2544 4750 2975 4387 
Q 3406 4025 3406 3419 
Q 3406 3131 3298 2873 
Q 3191 2616 2906 2266 
Q 2828 2175 2409 1742 
Q 1991 1309 1228 531 
z
" id="DejaVuSans-32" transform="scale(0.015625)"/>
        <path d="M 2034 4250 
Q 1547 4250 1301 3770 
Q 1056 3291 1056 2328 
Q 1056 1369 1301 889 
Q 1547 409 2034 409 
Q 2525 409 2770 889 
Q 3016 1369 3016 2328 
Q 3016 3291 2770 3770 
Q 2525 4250 2034 4250 
z
M 2034 4750 
Q 2819 4750 3233 4129 
Q 3647 3509 3647 2328 
Q 3647 1150 3233 529 
Q 2819 -91 2034 -91 
Q 1250 -91 836 529 
Q 422 1150 422 2328 
Q 422 3509 836 4129 
Q 1250 4750 2034 4750 
z
" id="DejaVuSans-30" transform="scale(0.015625)"/>
        <path d="M 794 531 
L 1825 531 
L 1825 4091 
L 703 3866 
L 703 4441 
L 1819 4666 
L 2450 4666 
L 2450 531 
L 3481 531 
L 3481 0 
L 794 0 
L 794 531 
z
" id="DejaVuSans-31" transform="scale(0.015625)"/>
        <path d="M 313 2009 
L 1997 2009 
L 1997 1497 
L 313 1497 
L 313 2009 
z
" id="DejaVuSans-2d" transform="scale(0.015625)"/>
        <path d="M 2034 2216 
Q 1584 2216 1326 1975 
Q 1069 1734 1069 1313 
Q 1069 891 1326 650 
Q 1584 409 2034 409 
Q 2484 409 2743 651 
Q 3003 894 3003 1313 
Q 3003 1734 2745 1975 
Q 2488 2216 2034 2216 
z
M 1403 2484 
Q 997 2584 770 2862 
Q 544 3141 544 3541 
Q 544 4100 942 4425 
Q 1341 4750 2034 4750 
Q 2731 4750 3128 4425 
Q 3525 4100 3525 3541 
Q 3525 3141 3298 2862 
Q 3072 2584 2669 2484 
Q 3125 2378 3379 2068 
Q 3634 1759 3634 1313 
Q 3634 634 3220 271 
Q 2806 -91 2034 -91 
Q 1263 -91 848 271 
Q 434 634 434 1313 
Q 434 1759 690 2068 
Q 947 2378 1403 2484 
z
M 1172 3481 
Q 1172 3119 1398 2916 
Q 1625 2713 2034 2713 
Q 2441 2713 2670 2916 
Q 2900 3119 2900 3481 
Q 2900 3844 2670 4047 
Q 2441 4250 2034 4250 
Q 1625 4250 1398 4047 
Q 1172 3844 1172 3481 
z
" id="DejaVuSans-38" transform="scale(0.015625)"/>
       </defs>
       <use xlink:href="#DejaVuSans-32"/>
       <use x="63.623047" xlink:href="#DejaVuSans-30"/>
       <use x="127.246094" xlink:href="#DejaVuSans-32"/>
       <use x="190.869141" xlink:href="#DejaVuSans-31"/>
       <use x="254.492188" xlink:href="#DejaVuSans-2d"/>
       <use x="290.576172" xlink:href="#DejaVuSans-30"/>
       <use x="354.199219" xlink:href="#DejaVuSans-38"/>
       <use x="417.822266" xlink:href="#DejaVuSans-2d"/>
       <use x="453.90625" xlink:href="#DejaVuSans-30"/>
       <use x="517.529297" xlink:href="#DejaVuSans-31"/>
      </g>
     </g>
    </g>
    <g id="xtick_2">
     <g id="line2d_3">
      <path clip-path="url(#p7f5edbc5c3)" d="M 171.357553 303.305371 
L 171.357553 26.105371 
" style="fill:none;stroke:#e5e5e5;stroke-width:0.8;"/>
     </g>
     <g id="line2d_4">
      <path d="M 171.357553 303.305371 
" style="fill:none;stroke:#333333;stroke-width:1.5;"/>
      <g>
       <use style="fill:#333333;stroke:#000000;" x="171.357553" xlink:href="#mef001dcc13" y="303.305371"/>
      </g>
     </g>
     <g id="text_2">
      <!-- 2021-08-15 -->
      <g style="fill:#4d4d4d;" transform="translate(145.786678 314.941996)scale(0.088 -0.088)">
       <defs>
        <path d="M 691 4666 
L 3169 4666 
L 3169 4134 
L 1269 4134 
L 1269 2991 
Q 1406 3038 1543 3061 
Q 1681 3084 1819 3084 
Q 2600 3084 3056 2656 
Q 3513 2228 3513 1497 
Q 3513 744 3044 326 
Q 2575 -91 1722 -91 
Q 1428 -91 1123 -41 
Q 819 9 494 109 
L 494 744 
Q 775 591 1075 516 
Q 1375 441 1709 441 
Q 2250 441 2565 725 
Q 2881 1009 2881 1497 
Q 2881 1984 2565 2268 
Q 2250 2553 1709 2553 
Q 1456 2553 1204 2497 
Q 953 2441 691 2322 
L 691 4666 
z
" id="DejaVuSans-35" transform="scale(0.015625)"/>
       </defs>
       <use xlink:href="#DejaVuSans-32"/>
       <use x="63.623047" xlink:href="#DejaVuSans-30"/>
       <use x="127.246094" xlink:href="#DejaVuSans-32"/>
       <use x="190.869141" xlink:href="#DejaVuSans-31"/>
       <use x="254.492188" xlink:href="#DejaVuSans-2d"/>
       <use x="290.576172" xlink:href="#DejaVuSans-30"/>
       <use x="354.199219" xlink:href="#DejaVuSans-38"/>
       <use x="417.822266" xlink:href="#DejaVuSans-2d"/>
       <use x="453.90625" xlink:href="#DejaVuSans-31"/>
       <use x="517.529297" xlink:href="#DejaVuSans-35"/>
      </g>
     </g>
    </g>
    <g id="xtick_3">
     <g id="line2d_5">
      <path clip-path="url(#p7f5edbc5c3)" d="M 295.215885 303.305371 
L 295.215885 26.105371 
" style="fill:none;stroke:#e5e5e5;stroke-width:0.8;"/>
     </g>
     <g id="line2d_6">
      <path d="M 295.215885 303.305371 
" style="fill:none;stroke:#333333;stroke-width:1.5;"/>
      <g>
       <use style="fill:#333333;stroke:#000000;" x="295.215885" xlink:href="#mef001dcc13" y="303.305371"/>
      </g>
     </g>
     <g id="text_3">
      <!-- 2021-09-01 -->
      <g style="fill:#4d4d4d;" transform="translate(269.64501 314.941996)scale(0.088 -0.088)">
       <defs>
        <path d="M 703 97 
L 703 672 
Q 941 559 1184 500 
Q 1428 441 1663 441 
Q 2288 441 2617 861 
Q 2947 1281 2994 2138 
Q 2813 1869 2534 1725 
Q 2256 1581 1919 1581 
Q 1219 1581 811 2004 
Q 403 2428 403 3163 
Q 403 3881 828 4315 
Q 1253 4750 1959 4750 
Q 2769 4750 3195 4129 
Q 3622 3509 3622 2328 
Q 3622 1225 3098 567 
Q 2575 -91 1691 -91 
Q 1453 -91 1209 -44 
Q 966 3 703 97 
z
M 1959 2075 
Q 2384 2075 2632 2365 
Q 2881 2656 2881 3163 
Q 2881 3666 2632 3958 
Q 2384 4250 1959 4250 
Q 1534 4250 1286 3958 
Q 1038 3666 1038 3163 
Q 1038 2656 1286 2365 
Q 1534 2075 1959 2075 
z
" id="DejaVuSans-39" transform="scale(0.015625)"/>
       </defs>
       <use xlink:href="#DejaVuSans-32"/>
       <use x="63.623047" xlink:href="#DejaVuSans-30"/>
       <use x="127.246094" xlink:href="#DejaVuSans-32"/>
       <use x="190.869141" xlink:href="#DejaVuSans-31"/>
       <use x="254.492188" xlink:href="#DejaVuSans-2d"/>
       <use x="290.576172" xlink:href="#DejaVuSans-30"/>
       <use x="354.199219" xlink:href="#DejaVuSans-39"/>
       <use x="417.822266" xlink:href="#DejaVuSans-2d"/>
       <use x="453.90625" xlink:href="#DejaVuSans-30"/>
       <use x="517.529297" xlink:href="#DejaVuSans-31"/>
      </g>
     </g>
    </g>
    <g id="xtick_4">
     <g id="line2d_7">
      <path clip-path="url(#p7f5edbc5c3)" d="M 397.216864 303.305371 
L 397.216864 26.105371 
" style="fill:none;stroke:#e5e5e5;stroke-width:0.8;"/>
     </g>
     <g id="line2d_8">
      <path d="M 397.216864 303.305371 
" style="fill:none;stroke:#333333;stroke-width:1.5;"/>
      <g>
       <use style="fill:#333333;stroke:#000000;" x="397.216864" xlink:href="#mef001dcc13" y="303.305371"/>
      </g>
     </g>
     <g id="text_4">
      <!-- 2021-09-15 -->
      <g style="fill:#4d4d4d;" transform="translate(371.645989 314.941996)scale(0.088 -0.088)">
       <use xlink:href="#DejaVuSans-32"/>
       <use x="63.623047" xlink:href="#DejaVuSans-30"/>
       <use x="127.246094" xlink:href="#DejaVuSans-32"/>
       <use x="190.869141" xlink:href="#DejaVuSans-31"/>
       <use x="254.492188" xlink:href="#DejaVuSans-2d"/>
       <use x="290.576172" xlink:href="#DejaVuSans-30"/>
       <use x="354.199219" xlink:href="#DejaVuSans-39"/>
       <use x="417.822266" xlink:href="#DejaVuSans-2d"/>
       <use x="453.90625" xlink:href="#DejaVuSans-31"/>
       <use x="517.529297" xlink:href="#DejaVuSans-35"/>
      </g>
     </g>
    </g>
    <g id="xtick_5">
     <g id="line2d_9">
      <path clip-path="url(#p7f5edbc5c3)" d="M 513.789412 303.305371 
L 513.789412 26.105371 
" style="fill:none;stroke:#e5e5e5;stroke-width:0.8;"/>
     </g>
     <g id="line2d_10">
      <path d="M 513.789412 303.305371 
" style="fill:none;stroke:#333333;stroke-width:1.5;"/>
      <g>
       <use style="fill:#333333;stroke:#000000;" x="513.789412" xlink:href="#mef001dcc13" y="303.305371"/>
      </g>
     </g>
     <g id="text_5">
      <!-- 2021-10-01 -->
      <g style="fill:#4d4d4d;" transform="translate(488.218537 314.941996)scale(0.088 -0.088)">
       <use xlink:href="#DejaVuSans-32"/>
       <use x="63.623047" xlink:href="#DejaVuSans-30"/>
       <use x="127.246094" xlink:href="#DejaVuSans-32"/>
       <use x="190.869141" xlink:href="#DejaVuSans-31"/>
       <use x="254.492188" xlink:href="#DejaVuSans-2d"/>
       <use x="290.576172" xlink:href="#DejaVuSans-31"/>
       <use x="354.199219" xlink:href="#DejaVuSans-30"/>
       <use x="417.822266" xlink:href="#DejaVuSans-2d"/>
       <use x="453.90625" xlink:href="#DejaVuSans-30"/>
       <use x="517.529297" xlink:href="#DejaVuSans-31"/>
      </g>
     </g>
    </g>
    <g id="xtick_6">
     <g id="line2d_11">
      <path clip-path="url(#p7f5edbc5c3)" d="M 120.357063 303.305371 
L 120.357063 26.105371 
" style="fill:none;stroke:#fafafa;"/>
     </g>
    </g>
    <g id="xtick_7">
     <g id="line2d_12">
      <path clip-path="url(#p7f5edbc5c3)" d="M 233.286719 303.305371 
L 233.286719 26.105371 
" style="fill:none;stroke:#fafafa;"/>
     </g>
    </g>
    <g id="xtick_8">
     <g id="line2d_13">
      <path clip-path="url(#p7f5edbc5c3)" d="M 346.216375 303.305371 
L 346.216375 26.105371 
" style="fill:none;stroke:#fafafa;"/>
     </g>
    </g>
    <g id="xtick_9">
     <g id="line2d_14">
      <path clip-path="url(#p7f5edbc5c3)" d="M 455.503138 303.305371 
L 455.503138 26.105371 
" style="fill:none;stroke:#fafafa;"/>
     </g>
    </g>
   </g>
   <g id="matplotlib.axis_2">
    <g id="ytick_1">
     <g id="line2d_15">
      <path clip-path="url(#p7f5edbc5c3)" d="M 43.992937 230.960161 
L 601.992938 230.960161 
" style="fill:none;stroke:#e5e5e5;stroke-width:0.8;"/>
     </g>
     <g id="line2d_16">
      <path d="M 43.992937 230.960161 
" style="fill:none;stroke:#333333;stroke-width:1.5;"/>
      <defs>
       <path d="M 0 0 
L -2.75 0 
" id="m18723e6d6e" style="stroke:#000000;"/>
      </defs>
      <g>
       <use style="fill:#333333;stroke:#000000;" x="43.992937" xlink:href="#m18723e6d6e" y="230.960161"/>
      </g>
     </g>
     <g id="text_6">
      <!-- 100 -->
      <g style="fill:#4d4d4d;" transform="translate(22.245937 233.388411)scale(0.088 -0.088)">
       <use xlink:href="#DejaVuSans-31"/>
       <use x="63.623047" xlink:href="#DejaVuSans-30"/>
       <use x="127.246094" xlink:href="#DejaVuSans-30"/>
      </g>
     </g>
    </g>
    <g id="ytick_2">
     <g id="line2d_17">
      <path clip-path="url(#p7f5edbc5c3)" d="M 43.992937 138.447118 
L 601.992938 138.447118 
" style="fill:none;stroke:#e5e5e5;stroke-width:0.8;"/>
     </g>
     <g id="line2d_18">
      <path d="M 43.992937 138.447118 
" style="fill:none;stroke:#333333;stroke-width:1.5;"/>
      <g>
       <use style="fill:#333333;stroke:#000000;" x="43.992937" xlink:href="#m18723e6d6e" y="138.447118"/>
      </g>
     </g>
     <g id="text_7">
      <!-- 200 -->
      <g style="fill:#4d4d4d;" transform="translate(22.245937 140.875368)scale(0.088 -0.088)">
       <use xlink:href="#DejaVuSans-32"/>
       <use x="63.623047" xlink:href="#DejaVuSans-30"/>
       <use x="127.246094" xlink:href="#DejaVuSans-30"/>
      </g>
     </g>
    </g>
    <g id="ytick_3">
     <g id="line2d_19">
      <path clip-path="url(#p7f5edbc5c3)" d="M 43.992937 45.934074 
L 601.992938 45.934074 
" style="fill:none;stroke:#e5e5e5;stroke-width:0.8;"/>
     </g>
     <g id="line2d_20">
      <path d="M 43.992937 45.934074 
" style="fill:none;stroke:#333333;stroke-width:1.5;"/>
      <g>
       <use style="fill:#333333;stroke:#000000;" x="43.992937" xlink:href="#m18723e6d6e" y="45.934074"/>
      </g>
     </g>
     <g id="text_8">
      <!-- 300 -->
      <g style="fill:#4d4d4d;" transform="translate(22.245937 48.362324)scale(0.088 -0.088)">
       <defs>
        <path d="M 2597 2516 
Q 3050 2419 3304 2112 
Q 3559 1806 3559 1356 
Q 3559 666 3084 287 
Q 2609 -91 1734 -91 
Q 1441 -91 1130 -33 
Q 819 25 488 141 
L 488 750 
Q 750 597 1062 519 
Q 1375 441 1716 441 
Q 2309 441 2620 675 
Q 2931 909 2931 1356 
Q 2931 1769 2642 2001 
Q 2353 2234 1838 2234 
L 1294 2234 
L 1294 2753 
L 1863 2753 
Q 2328 2753 2575 2939 
Q 2822 3125 2822 3475 
Q 2822 3834 2567 4026 
Q 2313 4219 1838 4219 
Q 1578 4219 1281 4162 
Q 984 4106 628 3988 
L 628 4550 
Q 988 4650 1302 4700 
Q 1616 4750 1894 4750 
Q 2613 4750 3031 4423 
Q 3450 4097 3450 3541 
Q 3450 3153 3228 2886 
Q 3006 2619 2597 2516 
z
" id="DejaVuSans-33" transform="scale(0.015625)"/>
       </defs>
       <use xlink:href="#DejaVuSans-33"/>
       <use x="63.623047" xlink:href="#DejaVuSans-30"/>
       <use x="127.246094" xlink:href="#DejaVuSans-30"/>
      </g>
     </g>
    </g>
    <g id="ytick_4">
     <g id="line2d_21">
      <path clip-path="url(#p7f5edbc5c3)" d="M 43.992937 277.216683 
L 601.992938 277.216683 
" style="fill:none;stroke:#fafafa;"/>
     </g>
    </g>
    <g id="ytick_5">
     <g id="line2d_22">
      <path clip-path="url(#p7f5edbc5c3)" d="M 43.992937 184.703639 
L 601.992938 184.703639 
" style="fill:none;stroke:#fafafa;"/>
     </g>
    </g>
    <g id="ytick_6">
     <g id="line2d_23">
      <path clip-path="url(#p7f5edbc5c3)" d="M 43.992937 92.190596 
L 601.992938 92.190596 
" style="fill:none;stroke:#fafafa;"/>
     </g>
    </g>
    <g id="text_9">
     <!-- Download Speed (mbits) -->
     <g transform="translate(15.558281 230.673964)rotate(-90)scale(0.11 -0.11)">
      <defs>
       <path d="M 1259 4147 
L 1259 519 
L 2022 519 
Q 2988 519 3436 956 
Q 3884 1394 3884 2338 
Q 3884 3275 3436 3711 
Q 2988 4147 2022 4147 
L 1259 4147 
z
M 628 4666 
L 1925 4666 
Q 3281 4666 3915 4102 
Q 4550 3538 4550 2338 
Q 4550 1131 3912 565 
Q 3275 0 1925 0 
L 628 0 
L 628 4666 
z
" id="DejaVuSans-44" transform="scale(0.015625)"/>
       <path d="M 1959 3097 
Q 1497 3097 1228 2736 
Q 959 2375 959 1747 
Q 959 1119 1226 758 
Q 1494 397 1959 397 
Q 2419 397 2687 759 
Q 2956 1122 2956 1747 
Q 2956 2369 2687 2733 
Q 2419 3097 1959 3097 
z
M 1959 3584 
Q 2709 3584 3137 3096 
Q 3566 2609 3566 1747 
Q 3566 888 3137 398 
Q 2709 -91 1959 -91 
Q 1206 -91 779 398 
Q 353 888 353 1747 
Q 353 2609 779 3096 
Q 1206 3584 1959 3584 
z
" id="DejaVuSans-6f" transform="scale(0.015625)"/>
       <path d="M 269 3500 
L 844 3500 
L 1563 769 
L 2278 3500 
L 2956 3500 
L 3675 769 
L 4391 3500 
L 4966 3500 
L 4050 0 
L 3372 0 
L 2619 2869 
L 1863 0 
L 1184 0 
L 269 3500 
z
" id="DejaVuSans-77" transform="scale(0.015625)"/>
       <path d="M 3513 2113 
L 3513 0 
L 2938 0 
L 2938 2094 
Q 2938 2591 2744 2837 
Q 2550 3084 2163 3084 
Q 1697 3084 1428 2787 
Q 1159 2491 1159 1978 
L 1159 0 
L 581 0 
L 581 3500 
L 1159 3500 
L 1159 2956 
Q 1366 3272 1645 3428 
Q 1925 3584 2291 3584 
Q 2894 3584 3203 3211 
Q 3513 2838 3513 2113 
z
" id="DejaVuSans-6e" transform="scale(0.015625)"/>
       <path d="M 603 4863 
L 1178 4863 
L 1178 0 
L 603 0 
L 603 4863 
z
" id="DejaVuSans-6c" transform="scale(0.015625)"/>
       <path d="M 2194 1759 
Q 1497 1759 1228 1600 
Q 959 1441 959 1056 
Q 959 750 1161 570 
Q 1363 391 1709 391 
Q 2188 391 2477 730 
Q 2766 1069 2766 1631 
L 2766 1759 
L 2194 1759 
z
M 3341 1997 
L 3341 0 
L 2766 0 
L 2766 531 
Q 2569 213 2275 61 
Q 1981 -91 1556 -91 
Q 1019 -91 701 211 
Q 384 513 384 1019 
Q 384 1609 779 1909 
Q 1175 2209 1959 2209 
L 2766 2209 
L 2766 2266 
Q 2766 2663 2505 2880 
Q 2244 3097 1772 3097 
Q 1472 3097 1187 3025 
Q 903 2953 641 2809 
L 641 3341 
Q 956 3463 1253 3523 
Q 1550 3584 1831 3584 
Q 2591 3584 2966 3190 
Q 3341 2797 3341 1997 
z
" id="DejaVuSans-61" transform="scale(0.015625)"/>
       <path d="M 2906 2969 
L 2906 4863 
L 3481 4863 
L 3481 0 
L 2906 0 
L 2906 525 
Q 2725 213 2448 61 
Q 2172 -91 1784 -91 
Q 1150 -91 751 415 
Q 353 922 353 1747 
Q 353 2572 751 3078 
Q 1150 3584 1784 3584 
Q 2172 3584 2448 3432 
Q 2725 3281 2906 2969 
z
M 947 1747 
Q 947 1113 1208 752 
Q 1469 391 1925 391 
Q 2381 391 2643 752 
Q 2906 1113 2906 1747 
Q 2906 2381 2643 2742 
Q 2381 3103 1925 3103 
Q 1469 3103 1208 2742 
Q 947 2381 947 1747 
z
" id="DejaVuSans-64" transform="scale(0.015625)"/>
       <path id="DejaVuSans-20" transform="scale(0.015625)"/>
       <path d="M 3425 4513 
L 3425 3897 
Q 3066 4069 2747 4153 
Q 2428 4238 2131 4238 
Q 1616 4238 1336 4038 
Q 1056 3838 1056 3469 
Q 1056 3159 1242 3001 
Q 1428 2844 1947 2747 
L 2328 2669 
Q 3034 2534 3370 2195 
Q 3706 1856 3706 1288 
Q 3706 609 3251 259 
Q 2797 -91 1919 -91 
Q 1588 -91 1214 -16 
Q 841 59 441 206 
L 441 856 
Q 825 641 1194 531 
Q 1563 422 1919 422 
Q 2459 422 2753 634 
Q 3047 847 3047 1241 
Q 3047 1584 2836 1778 
Q 2625 1972 2144 2069 
L 1759 2144 
Q 1053 2284 737 2584 
Q 422 2884 422 3419 
Q 422 4038 858 4394 
Q 1294 4750 2059 4750 
Q 2388 4750 2728 4690 
Q 3069 4631 3425 4513 
z
" id="DejaVuSans-53" transform="scale(0.015625)"/>
       <path d="M 1159 525 
L 1159 -1331 
L 581 -1331 
L 581 3500 
L 1159 3500 
L 1159 2969 
Q 1341 3281 1617 3432 
Q 1894 3584 2278 3584 
Q 2916 3584 3314 3078 
Q 3713 2572 3713 1747 
Q 3713 922 3314 415 
Q 2916 -91 2278 -91 
Q 1894 -91 1617 61 
Q 1341 213 1159 525 
z
M 3116 1747 
Q 3116 2381 2855 2742 
Q 2594 3103 2138 3103 
Q 1681 3103 1420 2742 
Q 1159 2381 1159 1747 
Q 1159 1113 1420 752 
Q 1681 391 2138 391 
Q 2594 391 2855 752 
Q 3116 1113 3116 1747 
z
" id="DejaVuSans-70" transform="scale(0.015625)"/>
       <path d="M 3597 1894 
L 3597 1613 
L 953 1613 
Q 991 1019 1311 708 
Q 1631 397 2203 397 
Q 2534 397 2845 478 
Q 3156 559 3463 722 
L 3463 178 
Q 3153 47 2828 -22 
Q 2503 -91 2169 -91 
Q 1331 -91 842 396 
Q 353 884 353 1716 
Q 353 2575 817 3079 
Q 1281 3584 2069 3584 
Q 2775 3584 3186 3129 
Q 3597 2675 3597 1894 
z
M 3022 2063 
Q 3016 2534 2758 2815 
Q 2500 3097 2075 3097 
Q 1594 3097 1305 2825 
Q 1016 2553 972 2059 
L 3022 2063 
z
" id="DejaVuSans-65" transform="scale(0.015625)"/>
       <path d="M 1984 4856 
Q 1566 4138 1362 3434 
Q 1159 2731 1159 2009 
Q 1159 1288 1364 580 
Q 1569 -128 1984 -844 
L 1484 -844 
Q 1016 -109 783 600 
Q 550 1309 550 2009 
Q 550 2706 781 3412 
Q 1013 4119 1484 4856 
L 1984 4856 
z
" id="DejaVuSans-28" transform="scale(0.015625)"/>
       <path d="M 3328 2828 
Q 3544 3216 3844 3400 
Q 4144 3584 4550 3584 
Q 5097 3584 5394 3201 
Q 5691 2819 5691 2113 
L 5691 0 
L 5113 0 
L 5113 2094 
Q 5113 2597 4934 2840 
Q 4756 3084 4391 3084 
Q 3944 3084 3684 2787 
Q 3425 2491 3425 1978 
L 3425 0 
L 2847 0 
L 2847 2094 
Q 2847 2600 2669 2842 
Q 2491 3084 2119 3084 
Q 1678 3084 1418 2786 
Q 1159 2488 1159 1978 
L 1159 0 
L 581 0 
L 581 3500 
L 1159 3500 
L 1159 2956 
Q 1356 3278 1631 3431 
Q 1906 3584 2284 3584 
Q 2666 3584 2933 3390 
Q 3200 3197 3328 2828 
z
" id="DejaVuSans-6d" transform="scale(0.015625)"/>
       <path d="M 3116 1747 
Q 3116 2381 2855 2742 
Q 2594 3103 2138 3103 
Q 1681 3103 1420 2742 
Q 1159 2381 1159 1747 
Q 1159 1113 1420 752 
Q 1681 391 2138 391 
Q 2594 391 2855 752 
Q 3116 1113 3116 1747 
z
M 1159 2969 
Q 1341 3281 1617 3432 
Q 1894 3584 2278 3584 
Q 2916 3584 3314 3078 
Q 3713 2572 3713 1747 
Q 3713 922 3314 415 
Q 2916 -91 2278 -91 
Q 1894 -91 1617 61 
Q 1341 213 1159 525 
L 1159 0 
L 581 0 
L 581 4863 
L 1159 4863 
L 1159 2969 
z
" id="DejaVuSans-62" transform="scale(0.015625)"/>
       <path d="M 603 3500 
L 1178 3500 
L 1178 0 
L 603 0 
L 603 3500 
z
M 603 4863 
L 1178 4863 
L 1178 4134 
L 603 4134 
L 603 4863 
z
" id="DejaVuSans-69" transform="scale(0.015625)"/>
       <path d="M 1172 4494 
L 1172 3500 
L 2356 3500 
L 2356 3053 
L 1172 3053 
L 1172 1153 
Q 1172 725 1289 603 
Q 1406 481 1766 481 
L 2356 481 
L 2356 0 
L 1766 0 
Q 1100 0 847 248 
Q 594 497 594 1153 
L 594 3053 
L 172 3053 
L 172 3500 
L 594 3500 
L 594 4494 
L 1172 4494 
z
" id="DejaVuSans-74" transform="scale(0.015625)"/>
       <path d="M 2834 3397 
L 2834 2853 
Q 2591 2978 2328 3040 
Q 2066 3103 1784 3103 
Q 1356 3103 1142 2972 
Q 928 2841 928 2578 
Q 928 2378 1081 2264 
Q 1234 2150 1697 2047 
L 1894 2003 
Q 2506 1872 2764 1633 
Q 3022 1394 3022 966 
Q 3022 478 2636 193 
Q 2250 -91 1575 -91 
Q 1294 -91 989 -36 
Q 684 19 347 128 
L 347 722 
Q 666 556 975 473 
Q 1284 391 1588 391 
Q 1994 391 2212 530 
Q 2431 669 2431 922 
Q 2431 1156 2273 1281 
Q 2116 1406 1581 1522 
L 1381 1569 
Q 847 1681 609 1914 
Q 372 2147 372 2553 
Q 372 3047 722 3315 
Q 1072 3584 1716 3584 
Q 2034 3584 2315 3537 
Q 2597 3491 2834 3397 
z
" id="DejaVuSans-73" transform="scale(0.015625)"/>
       <path d="M 513 4856 
L 1013 4856 
Q 1481 4119 1714 3412 
Q 1947 2706 1947 2009 
Q 1947 1309 1714 600 
Q 1481 -109 1013 -844 
L 513 -844 
Q 928 -128 1133 580 
Q 1338 1288 1338 2009 
Q 1338 2731 1133 3434 
Q 928 4138 513 4856 
z
" id="DejaVuSans-29" transform="scale(0.015625)"/>
      </defs>
      <use xlink:href="#DejaVuSans-44"/>
      <use x="77.001953" xlink:href="#DejaVuSans-6f"/>
      <use x="138.183594" xlink:href="#DejaVuSans-77"/>
      <use x="219.970703" xlink:href="#DejaVuSans-6e"/>
      <use x="283.349609" xlink:href="#DejaVuSans-6c"/>
      <use x="311.132812" xlink:href="#DejaVuSans-6f"/>
      <use x="372.314453" xlink:href="#DejaVuSans-61"/>
      <use x="433.59375" xlink:href="#DejaVuSans-64"/>
      <use x="497.070312" xlink:href="#DejaVuSans-20"/>
      <use x="528.857422" xlink:href="#DejaVuSans-53"/>
      <use x="592.333984" xlink:href="#DejaVuSans-70"/>
      <use x="655.810547" xlink:href="#DejaVuSans-65"/>
      <use x="717.333984" xlink:href="#DejaVuSans-65"/>
      <use x="778.857422" xlink:href="#DejaVuSans-64"/>
      <use x="842.333984" xlink:href="#DejaVuSans-20"/>
      <use x="874.121094" xlink:href="#DejaVuSans-28"/>
      <use x="913.134766" xlink:href="#DejaVuSans-6d"/>
      <use x="1010.546875" xlink:href="#DejaVuSans-62"/>
      <use x="1074.023438" xlink:href="#DejaVuSans-69"/>
      <use x="1101.806641" xlink:href="#DejaVuSans-74"/>
      <use x="1141.015625" xlink:href="#DejaVuSans-73"/>
      <use x="1193.115234" xlink:href="#DejaVuSans-29"/>
     </g>
    </g>
   </g>
   <g id="line2d_24">
    <path clip-path="url(#p7f5edbc5c3)" d="M 69.356574 138.447118 
L 343.484206 138.447118 
L 343.78778 45.934074 
L 576.629301 45.934074 
L 576.629301 45.934074 
" style="fill:none;stroke:#000000;stroke-dasharray:3.27904,1.417963;stroke-dashoffset:0;stroke-width:0.886227;"/>
   </g>
   <g id="line2d_25">
    <path clip-path="url(#p7f5edbc5c3)" d="M 343.78778 76.824022 
L 344.091354 41.088226 
L 344.394929 46.096888 
L 344.698503 79.825189 
L 345.002077 47.745985 
L 345.305652 42.349186 
L 345.9128 94.094232 
L 346.216375 88.461083 
L 346.519949 116.151412 
L 347.127098 45.636113 
L 347.430672 65.188013 
L 347.734246 44.542487 
L 348.037821 39.151189 
L 348.341395 46.086708 
L 348.644969 41.896112 
L 349.252118 77.180226 
L 349.555693 43.45312 
L 349.859267 41.648208 
L 350.162841 48.716979 
L 350.466416 64.836905 
L 350.76999 40.329345 
L 351.073564 41.994002 
L 351.377139 79.160232 
L 351.680713 79.199692 
L 351.984287 99.24239 
L 352.287862 244.771338 
L 352.591436 126.904731 
L 353.198585 39.585558 
L 353.502159 75.436935 
L 353.805733 68.021808 
L 354.109308 39.241064 
L 354.412882 40.580174 
L 354.716456 72.227453 
L 355.020031 79.569789 
L 355.627179 50.572898 
L 355.930754 111.568074 
L 356.234328 41.853352 
L 356.537902 77.641375 
L 356.841477 40.720508 
L 357.145051 74.247969 
L 357.448625 41.700465 
L 357.7522 41.581253 
L 358.055774 48.302261 
L 358.359348 40.909547 
L 358.662923 109.626695 
L 359.270071 47.751858 
L 359.573646 136.64352 
L 359.87722 158.973268 
L 360.180795 152.343212 
L 361.091518 44.24623 
L 361.395092 41.493577 
L 361.698666 52.373864 
L 362.002241 42.161421 
L 362.305815 74.189079 
L 362.609389 75.320833 
L 363.216538 45.193577 
L 363.520112 80.776214 
L 363.823687 43.348465 
L 364.127261 48.233656 
L 364.430835 46.046522 
L 364.73441 41.815132 
L 365.037984 64.416767 
L 365.341558 46.150255 
L 365.645133 79.495143 
L 365.948707 75.581021 
L 366.252281 43.056724 
L 366.555856 46.586192 
L 367.163004 50.426211 
L 367.466579 43.594208 
L 367.770153 50.489992 
L 368.073727 41.669839 
L 368.377302 49.692181 
L 368.98445 156.746445 
L 369.288025 116.886169 
L 369.591599 107.746334 
L 369.895174 40.996053 
L 370.198748 40.583687 
L 370.502322 119.136999 
L 370.805897 128.195362 
L 371.109471 123.207077 
L 371.71662 47.766693 
L 372.323768 86.708018 
L 372.627343 155.322267 
L 373.234491 47.584415 
L 373.538066 56.318976 
L 373.84164 46.682016 
L 374.145214 60.994781 
L 374.448789 42.444221 
L 374.752363 70.434337 
L 375.055937 67.033563 
L 375.359512 49.484336 
L 375.663086 45.208213 
L 375.96666 117.792689 
L 376.270235 112.238877 
L 376.573809 119.967719 
L 376.877383 54.607673 
L 377.180958 41.324517 
L 377.484532 49.147435 
L 377.788106 42.48126 
L 378.395255 38.753425 
L 379.002404 49.179246 
L 379.305978 59.208173 
L 379.609552 47.43426 
L 379.913127 40.47353 
L 380.216701 50.818575 
L 380.520276 51.801139 
L 380.82385 47.738206 
L 381.127424 47.134076 
L 381.430999 42.530014 
L 381.734573 48.671246 
L 382.038147 43.633803 
L 382.341722 41.767258 
L 382.645296 93.915849 
L 382.94887 41.494487 
L 383.252445 44.041822 
L 383.556019 48.492291 
L 383.859593 43.336339 
L 384.466742 40.206078 
L 384.770316 40.12141 
L 385.073891 41.951186 
L 385.377465 42.323998 
L 385.681039 45.499696 
L 385.984614 66.273872 
L 386.288188 44.829476 
L 386.591762 39.76039 
L 386.895337 42.840661 
L 387.198911 43.564371 
L 387.502485 46.410381 
L 387.80606 50.572282 
L 388.109634 43.881954 
L 388.413208 81.61226 
L 388.716783 40.331373 
L 389.020357 42.710342 
L 389.323931 49.145426 
L 389.627506 39.281497 
L 389.93108 39.113477 
L 390.234654 40.493405 
L 390.538229 46.121677 
L 390.841803 60.080965 
L 391.145378 44.742634 
L 391.448952 44.288952 
L 391.752526 77.936405 
L 392.056101 96.917608 
L 392.359675 54.460353 
L 392.663249 49.41994 
L 392.966824 48.293823 
L 393.270398 45.733873 
L 393.573972 46.007661 
L 393.877547 42.521907 
L 394.181121 58.52207 
L 394.484695 57.138475 
L 394.78827 43.102009 
L 395.091844 64.200646 
L 395.395418 44.010976 
L 395.698993 76.913855 
L 396.002567 40.025961 
L 396.306141 44.884509 
L 396.609716 45.987294 
L 396.91329 40.661903 
L 397.216864 42.734939 
L 397.520439 74.568102 
L 397.824013 41.607473 
L 398.127587 42.196712 
L 398.431162 44.171576 
L 398.734736 40.780557 
L 399.03831 42.923531 
L 399.645459 80.864841 
L 399.949033 44.775201 
L 400.252608 45.831064 
L 400.556182 40.713891 
L 400.859756 41.753603 
L 401.163331 77.015475 
L 401.466905 76.158884 
L 401.77048 40.16747 
L 402.074054 44.661154 
L 402.377628 42.998866 
L 402.681203 151.828967 
L 402.984777 81.375836 
L 403.288351 76.169201 
L 403.591926 46.21362 
L 403.8955 41.423669 
L 404.199074 74.95067 
L 404.502649 40.365575 
L 404.806223 41.43949 
L 405.109797 41.585447 
L 405.413372 41.109403 
L 405.716946 39.263266 
L 406.02052 43.635635 
L 406.324095 76.239081 
L 406.627669 73.890144 
L 406.931243 127.628114 
L 407.234818 136.844138 
L 407.538392 125.886694 
L 407.841966 74.122318 
L 408.145541 75.932623 
L 408.449115 50.60349 
L 408.752689 44.489537 
L 409.056264 43.385562 
L 409.359838 79.45104 
L 409.663412 39.688052 
L 409.966987 85.184415 
L 410.270561 78.733594 
L 410.574135 107.449197 
L 410.87771 177.196077 
L 411.181284 84.295971 
L 411.484859 73.603284 
L 411.788433 41.589362 
L 412.092007 40.318424 
L 412.395582 52.243812 
L 412.699156 44.870351 
L 413.00273 40.554434 
L 413.306305 49.008346 
L 413.609879 74.947466 
L 413.913453 41.362945 
L 414.217028 75.078317 
L 414.520602 41.026438 
L 414.824176 79.354526 
L 415.127751 143.41063 
L 416.038474 59.678564 
L 416.342048 74.466648 
L 416.645622 43.463151 
L 416.949197 74.407981 
L 417.252771 44.197846 
L 417.556345 40.614351 
L 417.85992 42.093822 
L 418.163494 41.321098 
L 418.467068 44.74479 
L 418.770643 72.093109 
L 419.074217 39.60254 
L 419.377791 41.270632 
L 419.98494 40.318397 
L 420.288514 47.220443 
L 420.592089 42.953239 
L 420.895663 40.644973 
L 421.199237 47.730596 
L 421.502812 89.61746 
L 421.806386 83.048292 
L 422.413535 63.168005 
L 422.717109 78.360815 
L 423.020684 115.782365 
L 423.324258 59.229737 
L 423.627832 93.794191 
L 423.931407 41.704904 
L 424.234981 85.630471 
L 424.538555 42.506994 
L 424.84213 76.504995 
L 425.145704 46.658625 
L 425.449278 91.380951 
L 425.752853 77.350108 
L 426.056427 42.951039 
L 426.663576 41.749188 
L 426.96715 38.705371 
L 427.270724 42.025841 
L 427.574299 39.456376 
L 427.877873 43.832156 
L 428.181447 99.794974 
L 428.485022 42.664183 
L 428.788596 75.91226 
L 429.09217 41.726326 
L 429.395745 39.889513 
L 429.699319 39.918295 
L 430.002893 73.910319 
L 430.306468 40.444303 
L 430.610042 75.942029 
L 430.913616 41.754701 
L 431.217191 76.186896 
L 431.520765 45.794985 
L 431.824339 52.342393 
L 432.127914 45.095066 
L 432.431488 44.49982 
L 432.735063 78.021104 
L 433.038637 42.769595 
L 433.342211 54.414078 
L 433.645786 55.243937 
L 433.94936 39.491969 
L 434.252934 42.252132 
L 434.556509 41.756564 
L 434.860083 42.962341 
L 435.163657 42.130234 
L 435.467232 42.108962 
L 435.770806 78.217634 
L 436.07438 45.179683 
L 436.377955 41.532378 
L 436.681529 42.820934 
L 436.985103 74.057703 
L 437.288678 87.699687 
L 437.895826 43.428227 
L 438.199401 39.971112 
L 438.502975 92.21499 
L 438.806549 95.537037 
L 439.110124 75.69336 
L 439.413698 146.494963 
L 439.717272 120.04663 
L 440.020847 68.464765 
L 440.324421 51.789332 
L 440.627995 47.837144 
L 440.93157 51.918666 
L 441.538718 41.902913 
L 441.842293 51.936878 
L 442.145867 40.991633 
L 442.449441 41.696753 
L 442.753016 57.507462 
L 443.05659 100.443629 
L 443.360165 60.33787 
L 443.663739 119.689492 
L 443.967313 68.800962 
L 444.270888 47.814565 
L 444.574462 48.769382 
L 445.181611 49.311712 
L 445.485185 47.398558 
L 445.788759 42.494517 
L 446.092334 94.383876 
L 446.395908 76.940042 
L 446.699482 90.583177 
L 447.003057 54.622556 
L 447.306631 75.051172 
L 447.610205 48.193109 
L 447.91378 45.303254 
L 448.217354 52.835573 
L 448.520928 42.20161 
L 448.824503 76.706526 
L 449.128077 39.461572 
L 449.431651 41.893954 
L 449.735226 39.011095 
L 450.0388 52.481005 
L 450.342374 39.643004 
L 450.645949 77.066668 
L 450.949523 72.866211 
L 451.253097 44.42767 
L 451.556672 92.77556 
L 451.860246 76.83456 
L 452.16382 46.791871 
L 452.467395 82.281294 
L 452.770969 86.601394 
L 453.074544 109.732227 
L 453.378118 50.195501 
L 453.681692 48.385856 
L 453.985267 42.89303 
L 454.288841 41.565884 
L 454.592415 66.645836 
L 454.89599 42.690414 
L 455.199564 79.343004 
L 455.503138 57.388814 
L 455.806713 85.317964 
L 456.110287 58.232436 
L 456.413861 50.003268 
L 457.02101 41.569088 
L 457.324584 42.621994 
L 457.628159 41.091801 
L 457.931733 184.07295 
L 458.235307 162.795812 
L 458.538882 100.135835 
L 458.842456 89.64593 
L 459.14603 42.425738 
L 459.449605 41.335501 
L 459.753179 70.250757 
L 460.056753 70.54342 
L 460.360328 39.093146 
L 460.663902 74.399543 
L 460.967476 78.513009 
L 461.574625 39.889517 
L 461.878199 74.809949 
L 462.181774 85.173901 
L 462.485348 56.986502 
L 462.788922 77.314848 
L 463.092497 44.947508 
L 463.396071 82.265562 
L 463.699646 43.73574 
L 464.00322 50.299537 
L 464.306794 62.423886 
L 464.610369 44.335481 
L 464.913943 42.731309 
L 465.217517 73.266807 
L 465.521092 42.276781 
L 465.824666 45.119521 
L 466.12824 108.765174 
L 466.431815 116.453265 
L 466.735389 95.782904 
L 467.038963 59.246191 
L 467.342538 53.658363 
L 467.646112 55.109103 
L 467.949686 40.451846 
L 468.253261 82.894718 
L 468.556835 77.183336 
L 468.860409 43.69341 
L 469.163984 57.240003 
L 469.467558 136.182168 
L 469.771132 50.817274 
L 470.074707 42.559637 
L 470.378281 40.118998 
L 470.681855 39.730764 
L 470.98543 40.825149 
L 471.289004 39.622191 
L 471.592578 39.609487 
L 471.896153 41.4312 
L 472.199727 40.446843 
L 473.11045 49.41024 
L 473.414024 41.697106 
L 473.717599 41.083339 
L 474.021173 39.318759 
L 474.324748 40.578876 
L 474.628322 44.07405 
L 474.931896 41.775492 
L 475.235471 75.725439 
L 475.539045 75.845512 
L 475.842619 45.35987 
L 476.146194 74.807708 
L 476.449768 47.373079 
L 476.753342 90.414024 
L 477.056917 44.527313 
L 477.360491 49.605811 
L 477.664065 80.334773 
L 477.96764 43.937053 
L 478.271214 51.388004 
L 478.574788 42.141881 
L 478.878363 43.282335 
L 479.485511 40.638713 
L 479.789086 135.612057 
L 480.09266 134.300582 
L 480.396234 144.954135 
L 480.699809 87.684283 
L 481.003383 113.748782 
L 481.306957 50.835666 
L 481.610532 113.116057 
L 481.914106 119.192499 
L 482.521255 59.071034 
L 482.824829 39.569825 
L 483.128403 74.607663 
L 483.431978 39.879624 
L 483.735552 46.267618 
L 484.039126 41.574638 
L 484.342701 91.054286 
L 484.646275 46.103757 
L 484.94985 44.019153 
L 485.253424 39.331754 
L 485.556998 48.168533 
L 485.860573 42.003549 
L 486.164147 55.088992 
L 486.467721 101.18589 
L 486.771296 67.633356 
L 487.378444 127.411402 
L 487.682019 113.964732 
L 487.985593 52.544039 
L 488.289167 114.658265 
L 488.592742 41.654652 
L 488.896316 39.597317 
L 489.19989 40.459185 
L 489.503465 39.637885 
L 489.807039 117.534652 
L 490.110613 117.076189 
L 490.414188 115.470982 
L 490.717762 54.454169 
L 491.021336 43.905272 
L 491.324911 44.739236 
L 491.628485 79.344462 
L 491.932059 41.613542 
L 492.235634 45.30117 
L 492.539208 40.975541 
L 492.842782 41.728801 
L 493.146357 40.686738 
L 493.449931 48.524841 
L 493.753505 73.218442 
L 494.360654 40.632413 
L 494.967803 88.430813 
L 495.271377 72.5048 
L 495.574952 42.110256 
L 495.878526 42.76735 
L 496.1821 40.691987 
L 496.485675 54.602839 
L 496.789249 62.255055 
L 497.092823 48.694047 
L 497.396398 46.947957 
L 497.699972 43.023464 
L 498.003546 76.293514 
L 498.307121 74.628206 
L 498.610695 77.286012 
L 498.914269 42.495566 
L 499.217844 64.945733 
L 499.521418 58.042808 
L 499.824992 41.048329 
L 500.128567 42.671313 
L 500.432141 75.091085 
L 500.735715 42.968833 
L 501.03929 49.119678 
L 501.342864 47.036542 
L 501.646438 55.709258 
L 502.253587 44.583201 
L 502.557161 89.581761 
L 502.860736 48.120013 
L 503.16431 78.638009 
L 503.467884 75.842338 
L 503.771459 42.527877 
L 504.075033 39.374496 
L 504.378607 46.11038 
L 504.682182 44.993857 
L 504.985756 67.826658 
L 505.289331 75.942842 
L 505.592905 47.775728 
L 505.896479 47.422581 
L 506.200054 49.886209 
L 506.503628 42.232501 
L 506.807202 53.541556 
L 507.110777 42.986885 
L 507.414351 42.823022 
L 507.717925 44.481873 
L 508.0215 39.705944 
L 508.325074 43.24858 
L 508.628648 108.937008 
L 508.932223 63.926563 
L 509.235797 54.402667 
L 509.539371 40.909982 
L 509.842946 49.309856 
L 510.14652 65.119227 
L 510.450094 48.455132 
L 510.753669 41.658487 
L 511.057243 54.60047 
L 511.360817 44.367824 
L 511.664392 78.192842 
L 511.967966 55.321331 
L 512.27154 104.001695 
L 512.575115 43.995293 
L 512.878689 49.749776 
L 513.485838 42.894511 
L 513.789412 77.104745 
L 514.092986 40.779777 
L 514.396561 45.964017 
L 514.700135 98.878127 
L 515.003709 50.250712 
L 515.307284 195.383242 
L 515.610858 228.174786 
L 515.914433 244.414066 
L 516.218007 87.649859 
L 516.521581 74.607373 
L 516.825156 40.143189 
L 517.12873 40.327264 
L 517.432304 76.093427 
L 517.735879 69.751033 
L 518.039453 74.954077 
L 518.343027 39.259448 
L 518.646602 40.275822 
L 518.950176 71.883517 
L 519.25375 74.081585 
L 519.557325 131.334109 
L 519.860899 39.867215 
L 520.164473 42.455524 
L 520.468048 39.530433 
L 520.771622 41.550299 
L 521.075196 41.214959 
L 521.378771 41.835959 
L 521.682345 84.026276 
L 521.985919 43.523084 
L 522.289494 136.966558 
L 522.593068 40.406868 
L 523.200217 46.595883 
L 523.503791 75.685657 
L 523.807365 45.165911 
L 524.11094 47.224317 
L 524.414514 43.225143 
L 524.718088 41.98591 
L 525.021663 53.539139 
L 525.325237 41.711664 
L 525.628812 39.591241 
L 525.932386 40.509433 
L 526.23596 43.092155 
L 526.539535 78.730293 
L 526.843109 78.68453 
L 527.146683 44.708695 
L 527.450258 46.245873 
L 527.753832 42.203899 
L 528.057406 40.218404 
L 528.360981 41.059583 
L 528.664555 90.066645 
L 528.968129 41.200209 
L 529.271704 42.06662 
L 529.575278 44.836999 
L 529.878852 40.463122 
L 530.182427 43.621802 
L 530.486001 43.409136 
L 530.789575 41.865205 
L 531.09315 41.444761 
L 531.396724 71.881148 
L 531.700298 39.499709 
L 532.003873 40.664702 
L 532.307447 39.114832 
L 532.611021 75.364932 
L 532.914596 95.110894 
L 533.521744 40.860747 
L 533.825319 75.690939 
L 534.128893 42.308259 
L 534.432467 44.099642 
L 535.039616 41.492761 
L 535.34319 70.029229 
L 535.646765 42.010489 
L 535.950339 74.154941 
L 536.253914 75.60658 
L 536.557488 41.532215 
L 536.861062 47.069207 
L 537.164637 50.408845 
L 537.468211 40.843796 
L 537.771785 42.156966 
L 538.378934 40.225864 
L 538.682508 41.789151 
L 538.986083 44.015699 
L 539.289657 47.805999 
L 539.593231 41.669426 
L 539.896806 83.035815 
L 540.20038 44.462157 
L 540.503954 68.117254 
L 540.807529 40.155617 
L 541.111103 41.135138 
L 541.414677 47.491356 
L 541.718252 76.255328 
L 542.021826 43.43318 
L 542.3254 73.92611 
L 542.628975 74.045771 
L 542.932549 40.918591 
L 543.236123 40.047887 
L 543.539698 69.996051 
L 543.843272 112.929262 
L 544.146846 41.05325 
L 544.450421 117.832576 
L 544.753995 148.785345 
L 545.057569 120.737321 
L 545.361144 55.176536 
L 545.664718 46.869747 
L 545.968292 47.289215 
L 546.575441 181.108515 
L 547.18259 59.015877 
L 547.486164 40.679329 
L 547.789739 44.56329 
L 548.093313 45.582266 
L 548.396887 82.404212 
L 549.004036 42.14743 
L 549.30761 101.960973 
L 549.611185 43.594017 
L 549.914759 43.988988 
L 550.218333 74.439735 
L 550.521908 88.631355 
L 550.825482 126.009396 
L 551.129056 125.147211 
L 551.432631 143.160936 
L 551.736205 56.262462 
L 552.039779 51.665023 
L 552.343354 59.572717 
L 552.646928 71.493858 
L 552.950502 42.061393 
L 553.254077 42.686451 
L 553.557651 41.847926 
L 553.861225 107.854264 
L 554.1648 47.470256 
L 554.468374 72.534131 
L 554.771948 48.144542 
L 555.075523 41.530754 
L 555.379097 46.118903 
L 555.986246 122.183561 
L 556.28982 72.363672 
L 556.593394 80.445802 
L 556.896969 95.416675 
L 557.200543 39.408954 
L 557.504118 65.627773 
L 557.807692 43.792161 
L 558.111266 42.532074 
L 558.414841 43.491541 
L 558.718415 43.808183 
L 559.021989 39.291653 
L 559.325564 39.581346 
L 559.629138 39.525536 
L 559.932712 39.989739 
L 560.236287 46.107377 
L 560.539861 47.336875 
L 560.843435 71.702709 
L 561.14701 76.597959 
L 561.450584 118.445789 
L 561.754158 56.39344 
L 562.361307 72.664602 
L 562.664881 40.376673 
L 562.968456 42.012886 
L 563.575604 143.642792 
L 563.879179 106.528599 
L 564.182753 182.669172 
L 564.486327 67.874511 
L 564.789902 39.661781 
L 565.093476 51.723974 
L 565.39705 50.62409 
L 565.700625 66.526914 
L 566.004199 41.04964 
L 566.307773 73.240773 
L 566.611348 46.750894 
L 566.914922 80.155903 
L 567.218497 43.482746 
L 567.522071 43.978621 
L 567.825645 56.920787 
L 568.12922 94.403886 
L 568.432794 42.524568 
L 568.736368 74.62424 
L 569.039943 39.377726 
L 569.343517 42.237194 
L 569.647091 46.513318 
L 569.950666 41.857701 
L 570.25424 43.742416 
L 570.557814 40.699082 
L 570.861389 43.602265 
L 571.164963 49.831184 
L 571.468537 52.023133 
L 571.772112 48.322497 
L 572.075686 43.024371 
L 572.37926 45.278618 
L 572.682835 79.516913 
L 572.986409 40.539731 
L 573.289983 75.215888 
L 573.593558 40.421989 
L 573.897132 75.215817 
L 574.200706 77.049258 
L 574.504281 43.75342 
L 575.111429 42.13282 
L 575.415004 44.556528 
L 576.022152 41.977318 
L 576.325727 69.342116 
L 576.629301 42.619341 
L 576.629301 42.619341 
" style="fill:none;stroke:#db5f57;stroke-width:0.886227;"/>
   </g>
   <g id="line2d_26">
    <path clip-path="url(#p7f5edbc5c3)" d="M 69.356574 130.735236 
L 69.660148 118.78705 
L 69.963723 128.967421 
L 70.267297 129.19559 
L 70.570871 134.263906 
L 70.874446 120.192323 
L 71.17802 123.412318 
L 71.481594 123.513413 
L 71.785169 143.615394 
L 72.088743 126.813613 
L 72.392317 129.124427 
L 72.695892 138.63392 
L 73.30304 120.0541 
L 73.606615 151.671509 
L 73.910189 124.444737 
L 74.213763 130.666869 
L 74.517338 126.158442 
L 74.820912 137.86261 
L 75.124486 167.158709 
L 75.428061 132.345827 
L 75.731635 137.897689 
L 76.035209 132.107359 
L 76.338784 139.953616 
L 76.642358 137.582098 
L 76.945932 139.037251 
L 77.249507 127.431339 
L 77.553081 132.033671 
L 77.856655 131.443695 
L 78.16023 129.875766 
L 78.463804 144.810031 
L 78.767378 126.200425 
L 79.070953 123.232599 
L 79.374527 129.974856 
L 79.678102 215.930134 
L 79.981676 268.397125 
L 80.28525 275.549676 
L 80.588825 172.182649 
L 80.892399 138.937785 
L 81.803122 171.164808 
L 82.106696 138.926923 
L 82.713845 154.563849 
L 83.017419 154.462882 
L 83.320994 155.339281 
L 83.624568 149.751358 
L 83.928142 129.626142 
L 84.231717 132.410931 
L 84.535291 130.9203 
L 84.838865 140.42109 
L 85.14244 236.532045 
L 85.446014 276.892073 
L 85.749588 279.848777 
L 86.053163 248.548856 
L 86.356737 239.729331 
L 86.660311 240.075032 
L 86.963886 249.054922 
L 87.26746 240.477872 
L 87.571034 239.803579 
L 87.874609 240.133598 
L 88.178183 241.546914 
L 88.481757 240.076171 
L 88.785332 240.435532 
L 89.088906 261.509115 
L 89.392481 290.705371 
L 89.696055 252.449289 
L 89.999629 240.247589 
L 90.303204 239.636649 
L 90.606778 245.304022 
L 90.910352 244.766768 
L 91.213927 240.691491 
L 91.517501 246.279327 
L 92.12465 242.672493 
L 92.428224 245.125739 
L 92.731798 147.875084 
L 93.035373 132.251256 
L 93.338947 228.835099 
L 93.642521 271.393167 
L 93.946096 269.2458 
L 94.24967 165.753428 
L 94.553244 124.834411 
L 94.856819 126.943461 
L 95.160393 123.28054 
L 95.463967 135.6316 
L 95.767542 133.517774 
L 96.071116 143.137539 
L 96.37469 118.071729 
L 96.678265 138.418978 
L 96.981839 125.263308 
L 97.285413 124.177246 
L 97.588988 154.279267 
L 97.892562 129.282661 
L 98.196136 133.479785 
L 98.499711 135.440165 
L 98.803285 235.16344 
L 99.106859 264.788587 
L 99.410434 271.401202 
L 99.714008 161.229137 
L 100.017583 130.485116 
L 100.321157 139.567514 
L 100.624731 130.175397 
L 100.928306 141.448119 
L 101.23188 142.15941 
L 101.535454 130.453194 
L 101.839029 142.462845 
L 102.142603 130.489561 
L 102.446177 137.584871 
L 102.749752 131.847251 
L 103.053326 134.43368 
L 103.3569 131.179383 
L 103.660475 142.164393 
L 103.964049 128.689196 
L 104.267623 144.919586 
L 104.571198 129.921613 
L 104.874772 133.358734 
L 105.178346 132.406666 
L 105.481921 130.778043 
L 105.785495 131.398524 
L 106.089069 120.552701 
L 106.392644 119.789978 
L 106.696218 149.968336 
L 106.999792 132.527782 
L 107.303367 211.792019 
L 107.606941 238.332228 
L 107.910515 238.382868 
L 108.21409 241.267539 
L 108.517664 239.236894 
L 108.821238 239.2917 
L 109.124813 240.255602 
L 109.428387 238.94132 
L 109.731961 243.487843 
L 110.035536 238.362612 
L 110.33911 238.857617 
L 110.642685 238.547997 
L 110.946259 244.123024 
L 111.249833 239.205677 
L 111.553408 239.235048 
L 111.856982 238.499061 
L 112.160556 246.03703 
L 112.464131 242.317295 
L 112.767705 243.420235 
L 113.071279 239.812107 
L 113.678428 238.265584 
L 114.285577 239.380991 
L 114.589151 241.104803 
L 114.892725 238.311124 
L 115.1963 239.254924 
L 115.499874 240.961761 
L 115.803448 239.003678 
L 116.107023 238.776061 
L 116.410597 238.356287 
L 116.714171 243.947624 
L 117.017746 238.415957 
L 117.32132 239.462084 
L 117.624894 249.839952 
L 117.928469 238.70261 
L 118.232043 237.969987 
L 118.535617 239.16712 
L 118.839192 241.478976 
L 119.142766 239.126771 
L 119.44634 239.229193 
L 119.749915 238.572017 
L 120.053489 238.731328 
L 120.357063 242.612531 
L 120.660638 238.29683 
L 121.267787 238.793096 
L 121.571361 241.344255 
L 121.874935 163.129986 
L 122.17851 136.510076 
L 122.482084 125.46772 
L 122.785658 130.430791 
L 123.089233 119.144216 
L 123.392807 117.941264 
L 123.696381 124.775932 
L 123.999956 126.591185 
L 124.30353 121.072456 
L 124.607104 127.447192 
L 124.910679 136.300952 
L 125.214253 122.436635 
L 125.517827 134.209634 
L 125.821402 124.244111 
L 126.124976 121.199684 
L 126.42855 120.413321 
L 126.732125 130.810984 
L 127.035699 118.725041 
L 127.339273 121.000569 
L 127.642848 120.414827 
L 127.946422 141.474456 
L 128.249996 122.180023 
L 128.553571 161.312038 
L 128.857145 117.518305 
L 129.160719 144.805895 
L 129.464294 125.119982 
L 129.767868 121.488628 
L 130.071442 127.2771 
L 130.375017 149.705589 
L 130.678591 125.52295 
L 130.982166 124.467257 
L 131.28574 130.686762 
L 131.589314 164.739864 
L 131.892889 121.231391 
L 132.196463 134.654276 
L 132.500037 133.148252 
L 132.803612 126.078548 
L 133.107186 137.097653 
L 133.41076 140.100867 
L 133.714335 135.043256 
L 134.017909 136.888454 
L 134.321483 135.08853 
L 134.625058 138.133641 
L 134.928632 117.982661 
L 135.232206 137.457248 
L 135.535781 118.345642 
L 135.839355 123.28429 
L 136.142929 124.395824 
L 136.750078 141.450763 
L 137.053652 119.564188 
L 137.357227 124.771983 
L 137.660801 127.097295 
L 137.964375 133.395903 
L 138.26795 154.29813 
L 138.571524 130.141865 
L 138.875098 132.340687 
L 139.178673 132.922413 
L 139.482247 131.961391 
L 139.785821 128.658576 
L 140.089396 147.684512 
L 140.39297 131.30836 
L 140.696544 128.504905 
L 141.000119 142.069231 
L 141.303693 148.280264 
L 141.607268 168.969365 
L 141.910842 139.51675 
L 142.214416 134.853606 
L 142.517991 144.508224 
L 142.821565 126.43792 
L 143.125139 117.815533 
L 143.428714 128.704636 
L 143.732288 210.944063 
L 144.035862 238.53391 
L 144.339437 238.897033 
L 144.946585 238.561153 
L 145.25016 242.121178 
L 145.857308 238.742299 
L 146.160883 240.071013 
L 146.768031 249.366657 
L 147.071606 238.763586 
L 147.37518 244.466051 
L 147.678754 238.305667 
L 147.982329 238.967754 
L 148.285903 243.775153 
L 148.589477 238.973388 
L 148.893052 238.474198 
L 149.5002 243.423183 
L 150.107349 238.478526 
L 150.410923 237.920171 
L 150.714498 239.483596 
L 151.018072 153.140937 
L 151.321646 132.218453 
L 151.625221 135.041103 
L 151.928795 126.299293 
L 152.23237 128.116537 
L 152.535944 128.744615 
L 152.839518 128.69712 
L 153.143093 134.608717 
L 153.446667 120.497983 
L 154.053816 126.650933 
L 154.35739 146.678919 
L 154.660964 138.69968 
L 154.964539 142.09552 
L 155.268113 125.149634 
L 155.571687 156.284563 
L 155.875262 126.941174 
L 156.178836 125.351493 
L 156.48241 130.517631 
L 156.785985 128.634474 
L 157.393133 286.23919 
L 157.696708 265.383354 
L 158.303856 122.589106 
L 158.607431 127.284999 
L 158.911005 133.743364 
L 159.214579 127.056627 
L 159.518154 123.8676 
L 159.821728 122.720978 
L 160.125302 126.359423 
L 160.428877 142.744158 
L 160.732451 120.850514 
L 161.036025 125.907815 
L 161.3396 133.276963 
L 161.643174 128.235018 
L 161.946749 135.724626 
L 162.250323 123.686343 
L 162.857472 120.408054 
L 163.161046 137.682027 
L 163.46462 138.886479 
L 163.768195 121.882975 
L 164.375343 139.268914 
L 164.678918 127.352591 
L 164.982492 129.100984 
L 165.286066 134.081444 
L 165.589641 130.29533 
L 165.893215 141.040001 
L 166.196789 131.674513 
L 166.500364 133.746251 
L 166.803938 122.095601 
L 167.411087 236.596816 
L 167.714661 238.451464 
L 168.32181 136.482768 
L 168.625384 126.281835 
L 169.232533 130.755382 
L 169.536107 139.451969 
L 169.839681 131.757324 
L 170.143256 126.968912 
L 170.44683 143.551912 
L 170.750404 138.265544 
L 171.053979 129.935794 
L 171.357553 134.407564 
L 171.661127 127.824135 
L 171.964702 140.622065 
L 172.268276 140.718128 
L 172.571851 129.540018 
L 172.875425 135.610428 
L 173.482574 121.881003 
L 173.786148 125.792343 
L 174.089722 138.088067 
L 174.393297 123.357517 
L 174.696871 128.354351 
L 175.000445 129.801032 
L 175.30402 121.859188 
L 175.607594 121.113459 
L 175.911168 126.259711 
L 176.214743 125.650193 
L 176.518317 153.550067 
L 177.125466 121.71451 
L 177.732614 131.709231 
L 178.036189 170.609718 
L 178.643337 126.285633 
L 179.250486 250.007639 
L 179.55406 257.795036 
L 179.857635 194.850217 
L 180.161209 177.266678 
L 180.464783 131.908036 
L 180.768358 123.730266 
L 181.071932 127.802121 
L 181.375506 134.580863 
L 181.679081 157.662718 
L 181.982655 124.557878 
L 182.286229 138.746108 
L 182.589804 144.322245 
L 182.893378 129.068073 
L 183.196953 121.691363 
L 183.804101 260.460726 
L 184.107676 264.388113 
L 184.714824 144.02393 
L 185.018399 169.319252 
L 185.321973 134.974476 
L 185.625547 143.935654 
L 185.929122 158.302831 
L 186.232696 122.231011 
L 186.53627 123.832807 
L 186.839845 139.70222 
L 187.143419 123.813844 
L 187.446993 123.019464 
L 187.750568 130.577263 
L 188.054142 129.094866 
L 188.357716 138.788129 
L 188.661291 132.061831 
L 188.964865 122.799638 
L 189.268439 132.499379 
L 189.572014 137.23821 
L 189.875588 159.650611 
L 190.179162 124.777435 
L 190.482737 139.507335 
L 190.786311 122.594734 
L 191.089885 135.509642 
L 191.39346 126.667004 
L 191.697034 133.8297 
L 192.000608 123.039305 
L 192.304183 134.959985 
L 192.911331 262.198652 
L 193.214906 241.672733 
L 193.51848 212.607156 
L 193.822055 133.72321 
L 194.125629 136.735388 
L 194.429203 120.797462 
L 195.036352 129.745481 
L 195.339926 126.186775 
L 195.643501 136.766104 
L 195.947075 135.162908 
L 196.250649 136.267361 
L 196.554224 139.538912 
L 197.161372 128.023057 
L 197.464947 136.043998 
L 197.768521 131.027777 
L 198.072095 119.579017 
L 198.37567 141.400615 
L 198.679244 136.889326 
L 198.982818 143.42199 
L 199.286393 143.277155 
L 199.589967 136.321604 
L 199.893541 124.77596 
L 200.197116 134.994851 
L 200.50069 128.432114 
L 200.804264 140.151987 
L 201.107839 119.673491 
L 201.411413 132.96098 
L 201.714987 130.078016 
L 202.018562 124.299912 
L 202.322136 139.62075 
L 202.62571 138.707838 
L 202.929285 135.303061 
L 203.232859 128.33309 
L 203.536434 130.623898 
L 203.840008 150.146063 
L 204.143582 122.146303 
L 204.447157 128.333666 
L 204.750731 129.832322 
L 205.054305 148.570909 
L 205.35788 146.482603 
L 205.661454 124.438326 
L 205.965028 133.838066 
L 206.268603 130.083329 
L 206.572177 160.018117 
L 206.875751 135.947009 
L 207.179326 130.133229 
L 207.4829 121.374025 
L 207.786474 119.43801 
L 208.090049 118.3845 
L 208.393623 127.439732 
L 208.697197 122.75858 
L 209.000772 128.831759 
L 209.304346 144.665588 
L 209.60792 148.909015 
L 209.911495 120.046734 
L 210.215069 137.440632 
L 210.518643 121.02224 
L 210.822218 122.202658 
L 211.125792 135.560894 
L 211.429366 128.942499 
L 211.732941 139.407462 
L 212.036515 119.005392 
L 212.340089 128.020738 
L 212.643664 133.149524 
L 212.947238 125.864148 
L 213.250812 135.052588 
L 213.554387 119.283271 
L 213.857961 160.037856 
L 214.46511 124.230676 
L 214.768684 134.698552 
L 215.072259 127.071786 
L 215.375833 127.536342 
L 215.679407 123.406817 
L 215.982982 140.106558 
L 216.286556 121.834199 
L 216.59013 149.617326 
L 217.197279 122.694065 
L 217.500853 130.797319 
L 217.804428 124.714404 
L 218.108002 121.628486 
L 218.411576 137.472216 
L 218.715151 118.890709 
L 219.018725 126.740593 
L 219.322299 120.588547 
L 219.625874 123.173117 
L 219.929448 141.4613 
L 220.233022 138.559868 
L 220.536597 124.194846 
L 221.143745 132.753737 
L 221.44732 124.418921 
L 222.054468 135.592324 
L 222.358043 127.136182 
L 222.661617 126.399987 
L 222.965191 121.543621 
L 223.268766 130.051241 
L 223.57234 148.77235 
L 223.875914 135.42443 
L 224.179489 145.715928 
L 224.483063 135.844165 
L 224.786638 143.639616 
L 225.090212 119.175457 
L 225.393786 127.650848 
L 226.000935 122.514012 
L 226.304509 124.251405 
L 226.608084 132.775196 
L 226.911658 130.915712 
L 227.518807 247.562073 
L 227.822381 254.386827 
L 228.42953 127.045554 
L 228.733104 126.476904 
L 229.036678 149.905043 
L 229.340253 145.408841 
L 229.643827 134.252332 
L 229.947401 127.308287 
L 230.250976 125.355072 
L 230.55455 132.488387 
L 230.858124 123.696135 
L 231.161699 138.887191 
L 231.465273 121.957185 
L 231.768847 129.232778 
L 232.072422 132.029245 
L 232.375996 138.844954 
L 232.67957 125.513631 
L 232.983145 121.558936 
L 233.286719 144.218661 
L 233.590293 128.580242 
L 233.893868 130.30227 
L 234.197442 121.386071 
L 234.501016 127.676179 
L 234.804591 120.33765 
L 235.108165 127.527997 
L 235.41174 122.939483 
L 235.715314 149.183347 
L 236.018888 126.25575 
L 236.322463 117.981524 
L 236.626037 117.813716 
L 237.233186 131.708668 
L 237.53676 124.787824 
L 237.840334 140.235899 
L 238.143909 138.042165 
L 238.447483 208.863382 
L 238.751057 238.944101 
L 239.054632 239.469426 
L 239.358206 238.656402 
L 239.66178 241.899798 
L 239.965355 239.059188 
L 240.268929 239.698292 
L 240.572503 242.137165 
L 240.876078 241.557386 
L 241.179652 240.022655 
L 241.483226 242.311753 
L 241.786801 243.299461 
L 242.090375 239.729678 
L 242.393949 239.645723 
L 242.697524 257.317875 
L 243.001098 283.825929 
L 243.304672 276.351758 
L 243.608247 262.112265 
L 243.911821 238.266626 
L 244.215395 238.821435 
L 244.51897 239.621972 
L 244.822544 240.779789 
L 245.126119 240.230712 
L 245.429693 240.209308 
L 245.733267 157.293227 
L 246.036842 129.556659 
L 246.340416 137.70211 
L 246.64399 120.878696 
L 246.947565 121.309019 
L 247.251139 132.439419 
L 247.554713 129.359271 
L 247.858288 143.883552 
L 248.161862 126.187524 
L 248.465436 128.712459 
L 248.769011 139.301697 
L 249.072585 135.329972 
L 249.376159 129.328608 
L 249.679734 127.448555 
L 249.983308 148.760672 
L 250.286882 118.601896 
L 250.590457 130.09293 
L 250.894031 151.350814 
L 251.50118 120.933956 
L 251.804754 115.482802 
L 252.108328 120.802169 
L 252.411903 131.207827 
L 252.715477 120.985747 
L 253.019051 137.341926 
L 253.322626 122.764996 
L 253.929774 128.705685 
L 254.233349 129.012529 
L 254.536923 125.312533 
L 255.144072 140.96074 
L 255.447646 127.619898 
L 255.751221 124.740616 
L 256.054795 120.798066 
L 256.358369 130.835431 
L 256.661944 134.631142 
L 256.965518 131.502317 
L 257.269092 124.076622 
L 257.572667 142.41433 
L 257.876241 132.621653 
L 258.179815 128.539154 
L 258.48339 147.183736 
L 258.786964 138.104068 
L 259.090538 133.181498 
L 259.394113 122.625053 
L 260.001261 167.237246 
L 260.304836 272.991766 
L 260.60841 256.371574 
L 260.911984 217.325821 
L 261.215559 124.76765 
L 261.519133 130.518614 
L 261.822707 146.528374 
L 262.126282 153.182586 
L 262.429856 130.863252 
L 262.73343 132.831637 
L 263.037005 147.446816 
L 263.340579 147.876399 
L 263.644153 143.740994 
L 263.947728 121.703625 
L 264.251302 124.047986 
L 264.554876 117.551432 
L 264.858451 139.334837 
L 265.162025 141.843671 
L 265.465599 135.713832 
L 265.769174 164.348233 
L 266.072748 154.342807 
L 266.376323 154.12394 
L 266.679897 148.65735 
L 266.983471 124.49517 
L 267.287046 123.219172 
L 267.59062 118.904262 
L 268.197769 157.702342 
L 268.804917 129.752254 
L 269.108492 142.85354 
L 269.412066 175.026569 
L 269.71564 131.227793 
L 270.019215 127.04856 
L 270.322789 185.665172 
L 270.626363 182.555038 
L 270.929938 174.746288 
L 271.233512 132.19516 
L 271.840661 129.442145 
L 272.144235 143.544469 
L 272.447809 119.295355 
L 272.751384 158.591611 
L 273.054958 133.558401 
L 273.358532 145.599016 
L 273.662107 120.240265 
L 273.965681 126.338625 
L 274.269255 124.634391 
L 274.57283 125.817238 
L 274.876404 211.790057 
L 275.179978 239.063031 
L 275.483553 238.478157 
L 275.787127 238.685563 
L 276.090701 242.145468 
L 276.394276 239.633869 
L 276.69785 238.553749 
L 277.001425 239.328804 
L 277.304999 242.804478 
L 277.608573 241.819397 
L 277.912148 246.707683 
L 278.519296 242.517556 
L 278.822871 242.809481 
L 279.126445 239.230098 
L 279.430019 241.388868 
L 279.733594 242.149954 
L 280.037168 239.801567 
L 280.340742 239.346942 
L 280.644317 240.361807 
L 280.947891 239.001738 
L 281.251465 239.730276 
L 281.55504 239.200879 
L 281.858614 239.764156 
L 282.162188 157.986882 
L 282.465763 160.271721 
L 282.769337 138.578304 
L 283.072911 167.770942 
L 283.376486 166.772569 
L 283.68006 163.774774 
L 283.983634 152.163213 
L 284.287209 156.572968 
L 284.590783 159.063692 
L 284.894357 158.248739 
L 285.197932 156.697386 
L 285.501506 174.81529 
L 285.80508 176.259446 
L 286.108655 150.397239 
L 286.412229 156.393413 
L 286.715804 141.819288 
L 287.019378 144.235493 
L 287.322952 151.077084 
L 287.626527 124.832694 
L 288.233675 132.813302 
L 288.840824 165.489944 
L 289.144398 148.207308 
L 289.447973 120.879608 
L 289.751547 124.757198 
L 290.055121 166.488357 
L 290.358696 247.942236 
L 290.66227 239.252868 
L 290.965844 211.876183 
L 291.269419 157.759044 
L 291.572993 135.669993 
L 291.876567 131.456935 
L 292.180142 161.317097 
L 292.483716 131.796621 
L 292.78729 128.027095 
L 293.090865 200.078655 
L 293.698013 152.356485 
L 294.001588 133.15418 
L 294.305162 136.382991 
L 294.608736 150.212618 
L 294.912311 144.418653 
L 295.519459 120.936796 
L 295.823034 130.946229 
L 296.126608 127.337989 
L 296.430182 134.965678 
L 296.733757 210.409144 
L 297.037331 239.416706 
L 297.340906 239.106355 
L 297.64448 239.207345 
L 297.948054 240.586337 
L 298.555203 237.905268 
L 298.858777 238.832933 
L 299.162352 241.975425 
L 299.465926 249.23951 
L 299.7695 247.384556 
L 300.376649 240.760681 
L 300.680223 239.64471 
L 300.983798 239.298777 
L 301.287372 241.652838 
L 301.590946 241.05399 
L 302.198095 238.12981 
L 302.501669 239.051721 
L 303.108818 237.589626 
L 303.412392 237.93386 
L 303.715967 239.059819 
L 304.019541 149.611375 
L 304.323115 123.325009 
L 304.62669 133.97434 
L 304.930264 126.432897 
L 305.233838 129.726518 
L 305.537413 128.858798 
L 305.840987 138.493395 
L 306.144561 130.931845 
L 306.448136 175.066925 
L 306.75171 151.535313 
L 307.055284 204.623086 
L 307.358859 178.082081 
L 307.662433 129.489301 
L 307.966008 125.717783 
L 308.269582 147.648579 
L 308.573156 231.850799 
L 308.876731 242.486207 
L 309.180305 233.173426 
L 309.483879 130.651058 
L 309.787454 132.778699 
L 310.091028 126.292913 
L 310.394602 164.48553 
L 310.698177 164.245879 
L 311.001751 147.618505 
L 311.305325 210.673721 
L 311.6089 240.108523 
L 312.216048 238.458049 
L 312.519623 240.979527 
L 312.823197 256.289084 
L 313.126771 251.358624 
L 313.430346 239.064372 
L 313.73392 240.320398 
L 314.037494 238.41398 
L 314.341069 239.825687 
L 314.644643 238.848063 
L 314.948217 244.63077 
L 315.251792 242.327198 
L 315.555366 242.230851 
L 315.85894 243.082418 
L 316.162515 243.042003 
L 316.466089 241.943143 
L 316.769663 238.945458 
L 317.073238 237.844852 
L 317.376812 239.227529 
L 317.680386 243.566007 
L 317.983961 240.020836 
L 318.287535 241.149939 
L 318.59111 158.28427 
L 318.894684 156.577379 
L 319.198258 137.064871 
L 319.501833 135.068096 
L 319.805407 147.947476 
L 320.108981 143.674033 
L 320.412556 129.270807 
L 320.71613 135.999612 
L 321.019704 146.6683 
L 321.323279 166.31398 
L 321.626853 177.726299 
L 321.930427 177.314232 
L 322.234002 132.052511 
L 322.537576 143.546882 
L 322.84115 131.170508 
L 323.144725 123.955162 
L 323.448299 124.258209 
L 323.751873 128.931176 
L 324.055448 143.272931 
L 324.359022 135.453029 
L 324.662596 121.848504 
L 324.966171 123.579054 
L 325.573319 134.054487 
L 325.876894 156.553209 
L 326.180468 155.248023 
L 326.484042 151.11267 
L 326.787617 138.13064 
L 327.091191 143.52381 
L 327.394765 152.628083 
L 327.69834 123.295229 
L 328.001914 132.149791 
L 328.305489 131.624206 
L 328.609063 123.41197 
L 328.912637 138.347924 
L 329.216212 123.673269 
L 329.519786 152.453873 
L 329.82336 133.414005 
L 330.126935 140.222625 
L 330.430509 149.588601 
L 330.734083 138.208677 
L 331.037658 138.687907 
L 331.341232 139.479391 
L 331.644806 133.445267 
L 331.948381 143.519936 
L 332.555529 123.743976 
L 332.859104 123.874094 
L 333.162678 137.760682 
L 333.466252 140.267738 
L 333.769827 153.819129 
L 334.073401 150.315565 
L 334.376975 175.862602 
L 334.68055 187.634705 
L 334.984124 127.57146 
L 335.287698 132.665302 
L 335.591273 135.584125 
L 335.894847 135.102944 
L 336.198421 136.012182 
L 336.501996 146.061185 
L 336.80557 160.914658 
L 337.109144 134.993532 
L 337.412719 161.48798 
L 337.716293 122.555748 
L 338.019867 131.689141 
L 338.323442 154.677774 
L 338.627016 139.154892 
L 338.930591 153.853891 
L 339.234165 142.241251 
L 339.537739 138.080211 
L 339.841314 153.136769 
L 340.144888 154.21439 
L 340.448462 138.82482 
L 340.752037 134.205927 
L 341.055611 141.879913 
L 341.359185 153.012341 
L 341.66276 145.45478 
L 341.966334 171.492699 
L 342.573483 128.948166 
L 342.877057 129.043884 
L 343.180631 147.763199 
L 343.484206 138.665349 
L 343.484206 138.665349 
" style="fill:none;stroke:#57d3db;stroke-width:0.886227;"/>
   </g>
   <g id="patch_3">
    <path d="M 609.192938 199.468339 
L 695.075813 199.468339 
L 695.075813 126.342402 
L 609.192938 126.342402 
z
" style="fill:#ffffff;"/>
   </g>
   <g id="text_10">
    <!-- provider -->
    <g transform="translate(621.392938 149.935996)scale(0.11 -0.11)">
     <defs>
      <path d="M 2631 2963 
Q 2534 3019 2420 3045 
Q 2306 3072 2169 3072 
Q 1681 3072 1420 2755 
Q 1159 2438 1159 1844 
L 1159 0 
L 581 0 
L 581 3500 
L 1159 3500 
L 1159 2956 
Q 1341 3275 1631 3429 
Q 1922 3584 2338 3584 
Q 2397 3584 2469 3576 
Q 2541 3569 2628 3553 
L 2631 2963 
z
" id="DejaVuSans-72" transform="scale(0.015625)"/>
      <path d="M 191 3500 
L 800 3500 
L 1894 563 
L 2988 3500 
L 3597 3500 
L 2284 0 
L 1503 0 
L 191 3500 
z
" id="DejaVuSans-76" transform="scale(0.015625)"/>
     </defs>
     <use xlink:href="#DejaVuSans-70"/>
     <use x="63.476562" xlink:href="#DejaVuSans-72"/>
     <use x="102.339844" xlink:href="#DejaVuSans-6f"/>
     <use x="163.521484" xlink:href="#DejaVuSans-76"/>
     <use x="222.701172" xlink:href="#DejaVuSans-69"/>
     <use x="250.484375" xlink:href="#DejaVuSans-64"/>
     <use x="313.960938" xlink:href="#DejaVuSans-65"/>
     <use x="375.484375" xlink:href="#DejaVuSans-72"/>
    </g>
   </g>
   <g id="patch_4">
    <path clip-path="url(#p20eb9cea81)" d="M 621.392938 169.428339 
L 637.232938 169.428339 
L 637.232938 153.588339 
L 621.392938 153.588339 
z
" style="fill:#f2f2f2;stroke:#cccccc;stroke-linejoin:miter;"/>
   </g>
   <g id="line2d_27">
    <path clip-path="url(#p20eb9cea81)" d="M 621.392938 161.508339 
L 637.232938 161.508339 
" style="fill:none;stroke:#db5f57;stroke-width:0.886227;"/>
   </g>
   <g id="text_11">
    <!-- Fios -->
    <g transform="translate(640.232938 163.936589)scale(0.088 -0.088)">
     <defs>
      <path d="M 628 4666 
L 3309 4666 
L 3309 4134 
L 1259 4134 
L 1259 2759 
L 3109 2759 
L 3109 2228 
L 1259 2228 
L 1259 0 
L 628 0 
L 628 4666 
z
" id="DejaVuSans-46" transform="scale(0.015625)"/>
     </defs>
     <use xlink:href="#DejaVuSans-46"/>
     <use x="50.269531" xlink:href="#DejaVuSans-69"/>
     <use x="78.052734" xlink:href="#DejaVuSans-6f"/>
     <use x="139.234375" xlink:href="#DejaVuSans-73"/>
    </g>
   </g>
   <g id="patch_5">
    <path clip-path="url(#pf0b1bda2e2)" d="M 621.392938 187.268339 
L 637.232938 187.268339 
L 637.232938 171.428339 
L 621.392938 171.428339 
z
" style="fill:#f2f2f2;stroke:#cccccc;stroke-linejoin:miter;"/>
   </g>
   <g id="line2d_28">
    <path clip-path="url(#pf0b1bda2e2)" d="M 621.392938 179.348339 
L 637.232938 179.348339 
" style="fill:none;stroke:#57d3db;stroke-width:0.886227;"/>
   </g>
   <g id="text_12">
    <!-- Spectrum -->
    <g transform="translate(640.232938 181.776589)scale(0.088 -0.088)">
     <defs>
      <path d="M 3122 3366 
L 3122 2828 
Q 2878 2963 2633 3030 
Q 2388 3097 2138 3097 
Q 1578 3097 1268 2742 
Q 959 2388 959 1747 
Q 959 1106 1268 751 
Q 1578 397 2138 397 
Q 2388 397 2633 464 
Q 2878 531 3122 666 
L 3122 134 
Q 2881 22 2623 -34 
Q 2366 -91 2075 -91 
Q 1284 -91 818 406 
Q 353 903 353 1747 
Q 353 2603 823 3093 
Q 1294 3584 2113 3584 
Q 2378 3584 2631 3529 
Q 2884 3475 3122 3366 
z
" id="DejaVuSans-63" transform="scale(0.015625)"/>
      <path d="M 544 1381 
L 544 3500 
L 1119 3500 
L 1119 1403 
Q 1119 906 1312 657 
Q 1506 409 1894 409 
Q 2359 409 2629 706 
Q 2900 1003 2900 1516 
L 2900 3500 
L 3475 3500 
L 3475 0 
L 2900 0 
L 2900 538 
Q 2691 219 2414 64 
Q 2138 -91 1772 -91 
Q 1169 -91 856 284 
Q 544 659 544 1381 
z
M 1991 3584 
L 1991 3584 
z
" id="DejaVuSans-75" transform="scale(0.015625)"/>
     </defs>
     <use xlink:href="#DejaVuSans-53"/>
     <use x="63.476562" xlink:href="#DejaVuSans-70"/>
     <use x="126.953125" xlink:href="#DejaVuSans-65"/>
     <use x="188.476562" xlink:href="#DejaVuSans-63"/>
     <use x="243.457031" xlink:href="#DejaVuSans-74"/>
     <use x="282.666016" xlink:href="#DejaVuSans-72"/>
     <use x="323.779297" xlink:href="#DejaVuSans-75"/>
     <use x="387.158203" xlink:href="#DejaVuSans-6d"/>
    </g>
   </g>
  </g>
  <g id="text_13">
   <!-- Download Speed (mbits) Over Time -->
   <g transform="translate(196.451062 17.229937)scale(0.132 -0.132)">
    <defs>
     <path d="M 2522 4238 
Q 1834 4238 1429 3725 
Q 1025 3213 1025 2328 
Q 1025 1447 1429 934 
Q 1834 422 2522 422 
Q 3209 422 3611 934 
Q 4013 1447 4013 2328 
Q 4013 3213 3611 3725 
Q 3209 4238 2522 4238 
z
M 2522 4750 
Q 3503 4750 4090 4092 
Q 4678 3434 4678 2328 
Q 4678 1225 4090 567 
Q 3503 -91 2522 -91 
Q 1538 -91 948 565 
Q 359 1222 359 2328 
Q 359 3434 948 4092 
Q 1538 4750 2522 4750 
z
" id="DejaVuSans-4f" transform="scale(0.015625)"/>
     <path d="M -19 4666 
L 3928 4666 
L 3928 4134 
L 2272 4134 
L 2272 0 
L 1638 0 
L 1638 4134 
L -19 4134 
L -19 4666 
z
" id="DejaVuSans-54" transform="scale(0.015625)"/>
    </defs>
    <use xlink:href="#DejaVuSans-44"/>
    <use x="77.001953" xlink:href="#DejaVuSans-6f"/>
    <use x="138.183594" xlink:href="#DejaVuSans-77"/>
    <use x="219.970703" xlink:href="#DejaVuSans-6e"/>
    <use x="283.349609" xlink:href="#DejaVuSans-6c"/>
    <use x="311.132812" xlink:href="#DejaVuSans-6f"/>
    <use x="372.314453" xlink:href="#DejaVuSans-61"/>
    <use x="433.59375" xlink:href="#DejaVuSans-64"/>
    <use x="497.070312" xlink:href="#DejaVuSans-20"/>
    <use x="528.857422" xlink:href="#DejaVuSans-53"/>
    <use x="592.333984" xlink:href="#DejaVuSans-70"/>
    <use x="655.810547" xlink:href="#DejaVuSans-65"/>
    <use x="717.333984" xlink:href="#DejaVuSans-65"/>
    <use x="778.857422" xlink:href="#DejaVuSans-64"/>
    <use x="842.333984" xlink:href="#DejaVuSans-20"/>
    <use x="874.121094" xlink:href="#DejaVuSans-28"/>
    <use x="913.134766" xlink:href="#DejaVuSans-6d"/>
    <use x="1010.546875" xlink:href="#DejaVuSans-62"/>
    <use x="1074.023438" xlink:href="#DejaVuSans-69"/>
    <use x="1101.806641" xlink:href="#DejaVuSans-74"/>
    <use x="1141.015625" xlink:href="#DejaVuSans-73"/>
    <use x="1193.115234" xlink:href="#DejaVuSans-29"/>
    <use x="1232.128906" xlink:href="#DejaVuSans-20"/>
    <use x="1263.916016" xlink:href="#DejaVuSans-4f"/>
    <use x="1342.626953" xlink:href="#DejaVuSans-76"/>
    <use x="1401.806641" xlink:href="#DejaVuSans-65"/>
    <use x="1463.330078" xlink:href="#DejaVuSans-72"/>
    <use x="1504.443359" xlink:href="#DejaVuSans-20"/>
    <use x="1536.230469" xlink:href="#DejaVuSans-54"/>
    <use x="1594.189453" xlink:href="#DejaVuSans-69"/>
    <use x="1621.972656" xlink:href="#DejaVuSans-6d"/>
    <use x="1719.384766" xlink:href="#DejaVuSans-65"/>
   </g>
  </g>
 </g>
 <defs>
  <clipPath id="p7f5edbc5c3">
   <rect height="277.2" width="558" x="43.992937" y="26.105371"/>
  </clipPath>
  <clipPath id="p20eb9cea81">
   <path d="M 621.392938 169.428339 
L 621.392938 153.588339 
L 637.232938 153.588339 
L 637.232938 169.428339 
"/>
  </clipPath>
  <clipPath id="pf0b1bda2e2">
   <path d="M 621.392938 187.268339 
L 621.392938 171.428339 
L 637.232938 171.428339 
L 637.232938 187.268339 
"/>
  </clipPath>
 </defs>
</svg>
