<?xml version="1.0" encoding="utf-8" standalone="no"?>
<!DOCTYPE svg PUBLIC "-//W3C//DTD SVG 1.1//EN"
  "http://www.w3.org/Graphics/SVG/1.1/DTD/svg11.dtd">
<!-- Created with matplotlib (https://matplotlib.org/) -->
<svg height="283.581295pt" version="1.1" viewBox="0 0 486.409375 283.581295" width="486.409375pt" xmlns="http://www.w3.org/2000/svg" xmlns:xlink="http://www.w3.org/1999/xlink">
 <defs>
  <style type="text/css">
*{stroke-linecap:butt;stroke-linejoin:round;}
  </style>
 </defs>
 <g id="figure_1">
  <g id="patch_1">
   <path d="M 0 283.581295 
L 486.409375 283.581295 
L 486.409375 0 
L 0 0 
z
" style="fill:#ffffff;stroke:#ffffff;stroke-linejoin:miter;"/>
  </g>
  <g id="axes_1">
   <g id="patch_2">
    <path d="M 32.809375 247.865371 
L 479.209375 247.865371 
L 479.209375 26.105371 
L 32.809375 26.105371 
z
" style="fill:#ffffff;stroke:#b3b3b3;stroke-linejoin:miter;"/>
   </g>
   <g id="matplotlib.axis_1">
    <g id="xtick_1">
     <g id="line2d_1">
      <path d="M 53.081312 247.865371 
" style="fill:none;stroke:#b3b3b3;stroke-width:1.5;"/>
      <defs>
       <path d="M 0 0 
L 0 2.75 
" id="m9e8da4efd2" style="stroke:#b3b3b3;stroke-width:0.5;"/>
      </defs>
      <g>
       <use style="fill:#b3b3b3;stroke:#b3b3b3;stroke-width:0.5;" x="53.081312" xlink:href="#m9e8da4efd2" y="247.865371"/>
      </g>
     </g>
     <g id="text_1">
      <!-- 12AM -->
      <defs>
       <path d="M 12.40625 8.296875 
L 28.515625 8.296875 
L 28.515625 63.921875 
L 10.984375 60.40625 
L 10.984375 69.390625 
L 28.421875 72.90625 
L 38.28125 72.90625 
L 38.28125 8.296875 
L 54.390625 8.296875 
L 54.390625 0 
L 12.40625 0 
z
" id="DejaVuSans-49"/>
       <path d="M 19.1875 8.296875 
L 53.609375 8.296875 
L 53.609375 0 
L 7.328125 0 
L 7.328125 8.296875 
Q 12.9375 14.109375 22.625 23.890625 
Q 32.328125 33.6875 34.8125 36.53125 
Q 39.546875 41.84375 41.421875 45.53125 
Q 43.3125 49.21875 43.3125 52.78125 
Q 43.3125 58.59375 39.234375 62.25 
Q 35.15625 65.921875 28.609375 65.921875 
Q 23.96875 65.921875 18.8125 64.3125 
Q 13.671875 62.703125 7.8125 59.421875 
L 7.8125 69.390625 
Q 13.765625 71.78125 18.9375 73 
Q 24.125 74.21875 28.421875 74.21875 
Q 39.75 74.21875 46.484375 68.546875 
Q 53.21875 62.890625 53.21875 53.421875 
Q 53.21875 48.921875 51.53125 44.890625 
Q 49.859375 40.875 45.40625 35.40625 
Q 44.1875 33.984375 37.640625 27.21875 
Q 31.109375 20.453125 19.1875 8.296875 
z
" id="DejaVuSans-50"/>
       <path d="M 34.1875 63.1875 
L 20.796875 26.90625 
L 47.609375 26.90625 
z
M 28.609375 72.90625 
L 39.796875 72.90625 
L 67.578125 0 
L 57.328125 0 
L 50.6875 18.703125 
L 17.828125 18.703125 
L 11.1875 0 
L 0.78125 0 
z
" id="DejaVuSans-65"/>
       <path d="M 9.8125 72.90625 
L 24.515625 72.90625 
L 43.109375 23.296875 
L 61.8125 72.90625 
L 76.515625 72.90625 
L 76.515625 0 
L 66.890625 0 
L 66.890625 64.015625 
L 48.09375 14.015625 
L 38.1875 14.015625 
L 19.390625 64.015625 
L 19.390625 0 
L 9.8125 0 
z
" id="DejaVuSans-77"/>
      </defs>
      <g style="fill:#4d4d4d;" transform="translate(46.026508 275.087201)rotate(-45)scale(0.088 -0.088)">
       <use xlink:href="#DejaVuSans-49"/>
       <use x="63.623047" xlink:href="#DejaVuSans-50"/>
       <use x="127.246094" xlink:href="#DejaVuSans-65"/>
       <use x="195.654297" xlink:href="#DejaVuSans-77"/>
      </g>
     </g>
    </g>
    <g id="xtick_2">
     <g id="line2d_2">
      <path d="M 70.001984 247.865371 
" style="fill:none;stroke:#b3b3b3;stroke-width:1.5;"/>
      <g>
       <use style="fill:#b3b3b3;stroke:#b3b3b3;stroke-width:0.5;" x="70.001984" xlink:href="#m9e8da4efd2" y="247.865371"/>
      </g>
     </g>
     <g id="text_2">
      <!-- 01AM -->
      <defs>
       <path d="M 31.78125 66.40625 
Q 24.171875 66.40625 20.328125 58.90625 
Q 16.5 51.421875 16.5 36.375 
Q 16.5 21.390625 20.328125 13.890625 
Q 24.171875 6.390625 31.78125 6.390625 
Q 39.453125 6.390625 43.28125 13.890625 
Q 47.125 21.390625 47.125 36.375 
Q 47.125 51.421875 43.28125 58.90625 
Q 39.453125 66.40625 31.78125 66.40625 
z
M 31.78125 74.21875 
Q 44.046875 74.21875 50.515625 64.515625 
Q 56.984375 54.828125 56.984375 36.375 
Q 56.984375 17.96875 50.515625 8.265625 
Q 44.046875 -1.421875 31.78125 -1.421875 
Q 19.53125 -1.421875 13.0625 8.265625 
Q 6.59375 17.96875 6.59375 36.375 
Q 6.59375 54.828125 13.0625 64.515625 
Q 19.53125 74.21875 31.78125 74.21875 
z
" id="DejaVuSans-48"/>
      </defs>
      <g style="fill:#4d4d4d;" transform="translate(62.94718 275.087201)rotate(-45)scale(0.088 -0.088)">
       <use xlink:href="#DejaVuSans-48"/>
       <use x="63.623047" xlink:href="#DejaVuSans-49"/>
       <use x="127.246094" xlink:href="#DejaVuSans-65"/>
       <use x="195.654297" xlink:href="#DejaVuSans-77"/>
      </g>
     </g>
    </g>
    <g id="xtick_3">
     <g id="line2d_3">
      <path d="M 86.922657 247.865371 
" style="fill:none;stroke:#b3b3b3;stroke-width:1.5;"/>
      <g>
       <use style="fill:#b3b3b3;stroke:#b3b3b3;stroke-width:0.5;" x="86.922657" xlink:href="#m9e8da4efd2" y="247.865371"/>
      </g>
     </g>
     <g id="text_3">
      <!-- 02AM -->
      <g style="fill:#4d4d4d;" transform="translate(79.867852 275.087201)rotate(-45)scale(0.088 -0.088)">
       <use xlink:href="#DejaVuSans-48"/>
       <use x="63.623047" xlink:href="#DejaVuSans-50"/>
       <use x="127.246094" xlink:href="#DejaVuSans-65"/>
       <use x="195.654297" xlink:href="#DejaVuSans-77"/>
      </g>
     </g>
    </g>
    <g id="xtick_4">
     <g id="line2d_4">
      <path d="M 103.843329 247.865371 
" style="fill:none;stroke:#b3b3b3;stroke-width:1.5;"/>
      <g>
       <use style="fill:#b3b3b3;stroke:#b3b3b3;stroke-width:0.5;" x="103.843329" xlink:href="#m9e8da4efd2" y="247.865371"/>
      </g>
     </g>
     <g id="text_4">
      <!-- 03AM -->
      <defs>
       <path d="M 40.578125 39.3125 
Q 47.65625 37.796875 51.625 33 
Q 55.609375 28.21875 55.609375 21.1875 
Q 55.609375 10.40625 48.1875 4.484375 
Q 40.765625 -1.421875 27.09375 -1.421875 
Q 22.515625 -1.421875 17.65625 -0.515625 
Q 12.796875 0.390625 7.625 2.203125 
L 7.625 11.71875 
Q 11.71875 9.328125 16.59375 8.109375 
Q 21.484375 6.890625 26.8125 6.890625 
Q 36.078125 6.890625 40.9375 10.546875 
Q 45.796875 14.203125 45.796875 21.1875 
Q 45.796875 27.640625 41.28125 31.265625 
Q 36.765625 34.90625 28.71875 34.90625 
L 20.21875 34.90625 
L 20.21875 43.015625 
L 29.109375 43.015625 
Q 36.375 43.015625 40.234375 45.921875 
Q 44.09375 48.828125 44.09375 54.296875 
Q 44.09375 59.90625 40.109375 62.90625 
Q 36.140625 65.921875 28.71875 65.921875 
Q 24.65625 65.921875 20.015625 65.03125 
Q 15.375 64.15625 9.8125 62.3125 
L 9.8125 71.09375 
Q 15.4375 72.65625 20.34375 73.4375 
Q 25.25 74.21875 29.59375 74.21875 
Q 40.828125 74.21875 47.359375 69.109375 
Q 53.90625 64.015625 53.90625 55.328125 
Q 53.90625 49.265625 50.4375 45.09375 
Q 46.96875 40.921875 40.578125 39.3125 
z
" id="DejaVuSans-51"/>
      </defs>
      <g style="fill:#4d4d4d;" transform="translate(96.788524 275.087201)rotate(-45)scale(0.088 -0.088)">
       <use xlink:href="#DejaVuSans-48"/>
       <use x="63.623047" xlink:href="#DejaVuSans-51"/>
       <use x="127.246094" xlink:href="#DejaVuSans-65"/>
       <use x="195.654297" xlink:href="#DejaVuSans-77"/>
      </g>
     </g>
    </g>
    <g id="xtick_5">
     <g id="line2d_5">
      <path d="M 120.764001 247.865371 
" style="fill:none;stroke:#b3b3b3;stroke-width:1.5;"/>
      <g>
       <use style="fill:#b3b3b3;stroke:#b3b3b3;stroke-width:0.5;" x="120.764001" xlink:href="#m9e8da4efd2" y="247.865371"/>
      </g>
     </g>
     <g id="text_5">
      <!-- 04AM -->
      <defs>
       <path d="M 37.796875 64.3125 
L 12.890625 25.390625 
L 37.796875 25.390625 
z
M 35.203125 72.90625 
L 47.609375 72.90625 
L 47.609375 25.390625 
L 58.015625 25.390625 
L 58.015625 17.1875 
L 47.609375 17.1875 
L 47.609375 0 
L 37.796875 0 
L 37.796875 17.1875 
L 4.890625 17.1875 
L 4.890625 26.703125 
z
" id="DejaVuSans-52"/>
      </defs>
      <g style="fill:#4d4d4d;" transform="translate(113.709197 275.087201)rotate(-45)scale(0.088 -0.088)">
       <use xlink:href="#DejaVuSans-48"/>
       <use x="63.623047" xlink:href="#DejaVuSans-52"/>
       <use x="127.246094" xlink:href="#DejaVuSans-65"/>
       <use x="195.654297" xlink:href="#DejaVuSans-77"/>
      </g>
     </g>
    </g>
    <g id="xtick_6">
     <g id="line2d_6">
      <path d="M 137.684673 247.865371 
" style="fill:none;stroke:#b3b3b3;stroke-width:1.5;"/>
      <g>
       <use style="fill:#b3b3b3;stroke:#b3b3b3;stroke-width:0.5;" x="137.684673" xlink:href="#m9e8da4efd2" y="247.865371"/>
      </g>
     </g>
     <g id="text_6">
      <!-- 05AM -->
      <defs>
       <path d="M 10.796875 72.90625 
L 49.515625 72.90625 
L 49.515625 64.59375 
L 19.828125 64.59375 
L 19.828125 46.734375 
Q 21.96875 47.46875 24.109375 47.828125 
Q 26.265625 48.1875 28.421875 48.1875 
Q 40.625 48.1875 47.75 41.5 
Q 54.890625 34.8125 54.890625 23.390625 
Q 54.890625 11.625 47.5625 5.09375 
Q 40.234375 -1.421875 26.90625 -1.421875 
Q 22.3125 -1.421875 17.546875 -0.640625 
Q 12.796875 0.140625 7.71875 1.703125 
L 7.71875 11.625 
Q 12.109375 9.234375 16.796875 8.0625 
Q 21.484375 6.890625 26.703125 6.890625 
Q 35.15625 6.890625 40.078125 11.328125 
Q 45.015625 15.765625 45.015625 23.390625 
Q 45.015625 31 40.078125 35.4375 
Q 35.15625 39.890625 26.703125 39.890625 
Q 22.75 39.890625 18.8125 39.015625 
Q 14.890625 38.140625 10.796875 36.28125 
z
" id="DejaVuSans-53"/>
      </defs>
      <g style="fill:#4d4d4d;" transform="translate(130.629869 275.087201)rotate(-45)scale(0.088 -0.088)">
       <use xlink:href="#DejaVuSans-48"/>
       <use x="63.623047" xlink:href="#DejaVuSans-53"/>
       <use x="127.246094" xlink:href="#DejaVuSans-65"/>
       <use x="195.654297" xlink:href="#DejaVuSans-77"/>
      </g>
     </g>
    </g>
    <g id="xtick_7">
     <g id="line2d_7">
      <path d="M 154.605346 247.865371 
" style="fill:none;stroke:#b3b3b3;stroke-width:1.5;"/>
      <g>
       <use style="fill:#b3b3b3;stroke:#b3b3b3;stroke-width:0.5;" x="154.605346" xlink:href="#m9e8da4efd2" y="247.865371"/>
      </g>
     </g>
     <g id="text_7">
      <!-- 06AM -->
      <defs>
       <path d="M 33.015625 40.375 
Q 26.375 40.375 22.484375 35.828125 
Q 18.609375 31.296875 18.609375 23.390625 
Q 18.609375 15.53125 22.484375 10.953125 
Q 26.375 6.390625 33.015625 6.390625 
Q 39.65625 6.390625 43.53125 10.953125 
Q 47.40625 15.53125 47.40625 23.390625 
Q 47.40625 31.296875 43.53125 35.828125 
Q 39.65625 40.375 33.015625 40.375 
z
M 52.59375 71.296875 
L 52.59375 62.3125 
Q 48.875 64.0625 45.09375 64.984375 
Q 41.3125 65.921875 37.59375 65.921875 
Q 27.828125 65.921875 22.671875 59.328125 
Q 17.53125 52.734375 16.796875 39.40625 
Q 19.671875 43.65625 24.015625 45.921875 
Q 28.375 48.1875 33.59375 48.1875 
Q 44.578125 48.1875 50.953125 41.515625 
Q 57.328125 34.859375 57.328125 23.390625 
Q 57.328125 12.15625 50.6875 5.359375 
Q 44.046875 -1.421875 33.015625 -1.421875 
Q 20.359375 -1.421875 13.671875 8.265625 
Q 6.984375 17.96875 6.984375 36.375 
Q 6.984375 53.65625 15.1875 63.9375 
Q 23.390625 74.21875 37.203125 74.21875 
Q 40.921875 74.21875 44.703125 73.484375 
Q 48.484375 72.75 52.59375 71.296875 
z
" id="DejaVuSans-54"/>
      </defs>
      <g style="fill:#4d4d4d;" transform="translate(147.550541 275.087201)rotate(-45)scale(0.088 -0.088)">
       <use xlink:href="#DejaVuSans-48"/>
       <use x="63.623047" xlink:href="#DejaVuSans-54"/>
       <use x="127.246094" xlink:href="#DejaVuSans-65"/>
       <use x="195.654297" xlink:href="#DejaVuSans-77"/>
      </g>
     </g>
    </g>
    <g id="xtick_8">
     <g id="line2d_8">
      <path d="M 171.526018 247.865371 
" style="fill:none;stroke:#b3b3b3;stroke-width:1.5;"/>
      <g>
       <use style="fill:#b3b3b3;stroke:#b3b3b3;stroke-width:0.5;" x="171.526018" xlink:href="#m9e8da4efd2" y="247.865371"/>
      </g>
     </g>
     <g id="text_8">
      <!-- 07AM -->
      <defs>
       <path d="M 8.203125 72.90625 
L 55.078125 72.90625 
L 55.078125 68.703125 
L 28.609375 0 
L 18.3125 0 
L 43.21875 64.59375 
L 8.203125 64.59375 
z
" id="DejaVuSans-55"/>
      </defs>
      <g style="fill:#4d4d4d;" transform="translate(164.471214 275.087201)rotate(-45)scale(0.088 -0.088)">
       <use xlink:href="#DejaVuSans-48"/>
       <use x="63.623047" xlink:href="#DejaVuSans-55"/>
       <use x="127.246094" xlink:href="#DejaVuSans-65"/>
       <use x="195.654297" xlink:href="#DejaVuSans-77"/>
      </g>
     </g>
    </g>
    <g id="xtick_9">
     <g id="line2d_9">
      <path d="M 188.44669 247.865371 
" style="fill:none;stroke:#b3b3b3;stroke-width:1.5;"/>
      <g>
       <use style="fill:#b3b3b3;stroke:#b3b3b3;stroke-width:0.5;" x="188.44669" xlink:href="#m9e8da4efd2" y="247.865371"/>
      </g>
     </g>
     <g id="text_9">
      <!-- 08AM -->
      <defs>
       <path d="M 31.78125 34.625 
Q 24.75 34.625 20.71875 30.859375 
Q 16.703125 27.09375 16.703125 20.515625 
Q 16.703125 13.921875 20.71875 10.15625 
Q 24.75 6.390625 31.78125 6.390625 
Q 38.8125 6.390625 42.859375 10.171875 
Q 46.921875 13.96875 46.921875 20.515625 
Q 46.921875 27.09375 42.890625 30.859375 
Q 38.875 34.625 31.78125 34.625 
z
M 21.921875 38.8125 
Q 15.578125 40.375 12.03125 44.71875 
Q 8.5 49.078125 8.5 55.328125 
Q 8.5 64.0625 14.71875 69.140625 
Q 20.953125 74.21875 31.78125 74.21875 
Q 42.671875 74.21875 48.875 69.140625 
Q 55.078125 64.0625 55.078125 55.328125 
Q 55.078125 49.078125 51.53125 44.71875 
Q 48 40.375 41.703125 38.8125 
Q 48.828125 37.15625 52.796875 32.3125 
Q 56.78125 27.484375 56.78125 20.515625 
Q 56.78125 9.90625 50.3125 4.234375 
Q 43.84375 -1.421875 31.78125 -1.421875 
Q 19.734375 -1.421875 13.25 4.234375 
Q 6.78125 9.90625 6.78125 20.515625 
Q 6.78125 27.484375 10.78125 32.3125 
Q 14.796875 37.15625 21.921875 38.8125 
z
M 18.3125 54.390625 
Q 18.3125 48.734375 21.84375 45.5625 
Q 25.390625 42.390625 31.78125 42.390625 
Q 38.140625 42.390625 41.71875 45.5625 
Q 45.3125 48.734375 45.3125 54.390625 
Q 45.3125 60.0625 41.71875 63.234375 
Q 38.140625 66.40625 31.78125 66.40625 
Q 25.390625 66.40625 21.84375 63.234375 
Q 18.3125 60.0625 18.3125 54.390625 
z
" id="DejaVuSans-56"/>
      </defs>
      <g style="fill:#4d4d4d;" transform="translate(181.391886 275.087201)rotate(-45)scale(0.088 -0.088)">
       <use xlink:href="#DejaVuSans-48"/>
       <use x="63.623047" xlink:href="#DejaVuSans-56"/>
       <use x="127.246094" xlink:href="#DejaVuSans-65"/>
       <use x="195.654297" xlink:href="#DejaVuSans-77"/>
      </g>
     </g>
    </g>
    <g id="xtick_10">
     <g id="line2d_10">
      <path d="M 205.367363 247.865371 
" style="fill:none;stroke:#b3b3b3;stroke-width:1.5;"/>
      <g>
       <use style="fill:#b3b3b3;stroke:#b3b3b3;stroke-width:0.5;" x="205.367363" xlink:href="#m9e8da4efd2" y="247.865371"/>
      </g>
     </g>
     <g id="text_10">
      <!-- 09AM -->
      <defs>
       <path d="M 10.984375 1.515625 
L 10.984375 10.5 
Q 14.703125 8.734375 18.5 7.8125 
Q 22.3125 6.890625 25.984375 6.890625 
Q 35.75 6.890625 40.890625 13.453125 
Q 46.046875 20.015625 46.78125 33.40625 
Q 43.953125 29.203125 39.59375 26.953125 
Q 35.25 24.703125 29.984375 24.703125 
Q 19.046875 24.703125 12.671875 31.3125 
Q 6.296875 37.9375 6.296875 49.421875 
Q 6.296875 60.640625 12.9375 67.421875 
Q 19.578125 74.21875 30.609375 74.21875 
Q 43.265625 74.21875 49.921875 64.515625 
Q 56.59375 54.828125 56.59375 36.375 
Q 56.59375 19.140625 48.40625 8.859375 
Q 40.234375 -1.421875 26.421875 -1.421875 
Q 22.703125 -1.421875 18.890625 -0.6875 
Q 15.09375 0.046875 10.984375 1.515625 
z
M 30.609375 32.421875 
Q 37.25 32.421875 41.125 36.953125 
Q 45.015625 41.5 45.015625 49.421875 
Q 45.015625 57.28125 41.125 61.84375 
Q 37.25 66.40625 30.609375 66.40625 
Q 23.96875 66.40625 20.09375 61.84375 
Q 16.21875 57.28125 16.21875 49.421875 
Q 16.21875 41.5 20.09375 36.953125 
Q 23.96875 32.421875 30.609375 32.421875 
z
" id="DejaVuSans-57"/>
      </defs>
      <g style="fill:#4d4d4d;" transform="translate(198.312558 275.087201)rotate(-45)scale(0.088 -0.088)">
       <use xlink:href="#DejaVuSans-48"/>
       <use x="63.623047" xlink:href="#DejaVuSans-57"/>
       <use x="127.246094" xlink:href="#DejaVuSans-65"/>
       <use x="195.654297" xlink:href="#DejaVuSans-77"/>
      </g>
     </g>
    </g>
    <g id="xtick_11">
     <g id="line2d_11">
      <path d="M 222.288035 247.865371 
" style="fill:none;stroke:#b3b3b3;stroke-width:1.5;"/>
      <g>
       <use style="fill:#b3b3b3;stroke:#b3b3b3;stroke-width:0.5;" x="222.288035" xlink:href="#m9e8da4efd2" y="247.865371"/>
      </g>
     </g>
     <g id="text_11">
      <!-- 10AM -->
      <g style="fill:#4d4d4d;" transform="translate(215.23323 275.087201)rotate(-45)scale(0.088 -0.088)">
       <use xlink:href="#DejaVuSans-49"/>
       <use x="63.623047" xlink:href="#DejaVuSans-48"/>
       <use x="127.246094" xlink:href="#DejaVuSans-65"/>
       <use x="195.654297" xlink:href="#DejaVuSans-77"/>
      </g>
     </g>
    </g>
    <g id="xtick_12">
     <g id="line2d_12">
      <path d="M 239.208707 247.865371 
" style="fill:none;stroke:#b3b3b3;stroke-width:1.5;"/>
      <g>
       <use style="fill:#b3b3b3;stroke:#b3b3b3;stroke-width:0.5;" x="239.208707" xlink:href="#m9e8da4efd2" y="247.865371"/>
      </g>
     </g>
     <g id="text_12">
      <!-- 11AM -->
      <g style="fill:#4d4d4d;" transform="translate(232.153903 275.087201)rotate(-45)scale(0.088 -0.088)">
       <use xlink:href="#DejaVuSans-49"/>
       <use x="63.623047" xlink:href="#DejaVuSans-49"/>
       <use x="127.246094" xlink:href="#DejaVuSans-65"/>
       <use x="195.654297" xlink:href="#DejaVuSans-77"/>
      </g>
     </g>
    </g>
    <g id="xtick_13">
     <g id="line2d_13">
      <path d="M 256.129379 247.865371 
" style="fill:none;stroke:#b3b3b3;stroke-width:1.5;"/>
      <g>
       <use style="fill:#b3b3b3;stroke:#b3b3b3;stroke-width:0.5;" x="256.129379" xlink:href="#m9e8da4efd2" y="247.865371"/>
      </g>
     </g>
     <g id="text_13">
      <!-- 12PM -->
      <defs>
       <path d="M 19.671875 64.796875 
L 19.671875 37.40625 
L 32.078125 37.40625 
Q 38.96875 37.40625 42.71875 40.96875 
Q 46.484375 44.53125 46.484375 51.125 
Q 46.484375 57.671875 42.71875 61.234375 
Q 38.96875 64.796875 32.078125 64.796875 
z
M 9.8125 72.90625 
L 32.078125 72.90625 
Q 44.34375 72.90625 50.609375 67.359375 
Q 56.890625 61.8125 56.890625 51.125 
Q 56.890625 40.328125 50.609375 34.8125 
Q 44.34375 29.296875 32.078125 29.296875 
L 19.671875 29.296875 
L 19.671875 0 
L 9.8125 0 
z
" id="DejaVuSans-80"/>
      </defs>
      <g style="fill:#4d4d4d;" transform="translate(249.32688 274.582592)rotate(-45)scale(0.088 -0.088)">
       <use xlink:href="#DejaVuSans-49"/>
       <use x="63.623047" xlink:href="#DejaVuSans-50"/>
       <use x="127.246094" xlink:href="#DejaVuSans-80"/>
       <use x="187.548828" xlink:href="#DejaVuSans-77"/>
      </g>
     </g>
    </g>
    <g id="xtick_14">
     <g id="line2d_14">
      <path d="M 273.050052 247.865371 
" style="fill:none;stroke:#b3b3b3;stroke-width:1.5;"/>
      <g>
       <use style="fill:#b3b3b3;stroke:#b3b3b3;stroke-width:0.5;" x="273.050052" xlink:href="#m9e8da4efd2" y="247.865371"/>
      </g>
     </g>
     <g id="text_14">
      <!-- 01PM -->
      <g style="fill:#4d4d4d;" transform="translate(266.247552 274.582592)rotate(-45)scale(0.088 -0.088)">
       <use xlink:href="#DejaVuSans-48"/>
       <use x="63.623047" xlink:href="#DejaVuSans-49"/>
       <use x="127.246094" xlink:href="#DejaVuSans-80"/>
       <use x="187.548828" xlink:href="#DejaVuSans-77"/>
      </g>
     </g>
    </g>
    <g id="xtick_15">
     <g id="line2d_15">
      <path d="M 289.970724 247.865371 
" style="fill:none;stroke:#b3b3b3;stroke-width:1.5;"/>
      <g>
       <use style="fill:#b3b3b3;stroke:#b3b3b3;stroke-width:0.5;" x="289.970724" xlink:href="#m9e8da4efd2" y="247.865371"/>
      </g>
     </g>
     <g id="text_15">
      <!-- 02PM -->
      <g style="fill:#4d4d4d;" transform="translate(283.168224 274.582592)rotate(-45)scale(0.088 -0.088)">
       <use xlink:href="#DejaVuSans-48"/>
       <use x="63.623047" xlink:href="#DejaVuSans-50"/>
       <use x="127.246094" xlink:href="#DejaVuSans-80"/>
       <use x="187.548828" xlink:href="#DejaVuSans-77"/>
      </g>
     </g>
    </g>
    <g id="xtick_16">
     <g id="line2d_16">
      <path d="M 306.891396 247.865371 
" style="fill:none;stroke:#b3b3b3;stroke-width:1.5;"/>
      <g>
       <use style="fill:#b3b3b3;stroke:#b3b3b3;stroke-width:0.5;" x="306.891396" xlink:href="#m9e8da4efd2" y="247.865371"/>
      </g>
     </g>
     <g id="text_16">
      <!-- 03PM -->
      <g style="fill:#4d4d4d;" transform="translate(300.088896 274.582592)rotate(-45)scale(0.088 -0.088)">
       <use xlink:href="#DejaVuSans-48"/>
       <use x="63.623047" xlink:href="#DejaVuSans-51"/>
       <use x="127.246094" xlink:href="#DejaVuSans-80"/>
       <use x="187.548828" xlink:href="#DejaVuSans-77"/>
      </g>
     </g>
    </g>
    <g id="xtick_17">
     <g id="line2d_17">
      <path d="M 323.812068 247.865371 
" style="fill:none;stroke:#b3b3b3;stroke-width:1.5;"/>
      <g>
       <use style="fill:#b3b3b3;stroke:#b3b3b3;stroke-width:0.5;" x="323.812068" xlink:href="#m9e8da4efd2" y="247.865371"/>
      </g>
     </g>
     <g id="text_17">
      <!-- 04PM -->
      <g style="fill:#4d4d4d;" transform="translate(317.009569 274.582592)rotate(-45)scale(0.088 -0.088)">
       <use xlink:href="#DejaVuSans-48"/>
       <use x="63.623047" xlink:href="#DejaVuSans-52"/>
       <use x="127.246094" xlink:href="#DejaVuSans-80"/>
       <use x="187.548828" xlink:href="#DejaVuSans-77"/>
      </g>
     </g>
    </g>
    <g id="xtick_18">
     <g id="line2d_18">
      <path d="M 340.732741 247.865371 
" style="fill:none;stroke:#b3b3b3;stroke-width:1.5;"/>
      <g>
       <use style="fill:#b3b3b3;stroke:#b3b3b3;stroke-width:0.5;" x="340.732741" xlink:href="#m9e8da4efd2" y="247.865371"/>
      </g>
     </g>
     <g id="text_18">
      <!-- 05PM -->
      <g style="fill:#4d4d4d;" transform="translate(333.930241 274.582592)rotate(-45)scale(0.088 -0.088)">
       <use xlink:href="#DejaVuSans-48"/>
       <use x="63.623047" xlink:href="#DejaVuSans-53"/>
       <use x="127.246094" xlink:href="#DejaVuSans-80"/>
       <use x="187.548828" xlink:href="#DejaVuSans-77"/>
      </g>
     </g>
    </g>
    <g id="xtick_19">
     <g id="line2d_19">
      <path d="M 357.653413 247.865371 
" style="fill:none;stroke:#b3b3b3;stroke-width:1.5;"/>
      <g>
       <use style="fill:#b3b3b3;stroke:#b3b3b3;stroke-width:0.5;" x="357.653413" xlink:href="#m9e8da4efd2" y="247.865371"/>
      </g>
     </g>
     <g id="text_19">
      <!-- 06PM -->
      <g style="fill:#4d4d4d;" transform="translate(350.850913 274.582592)rotate(-45)scale(0.088 -0.088)">
       <use xlink:href="#DejaVuSans-48"/>
       <use x="63.623047" xlink:href="#DejaVuSans-54"/>
       <use x="127.246094" xlink:href="#DejaVuSans-80"/>
       <use x="187.548828" xlink:href="#DejaVuSans-77"/>
      </g>
     </g>
    </g>
    <g id="xtick_20">
     <g id="line2d_20">
      <path d="M 374.574085 247.865371 
" style="fill:none;stroke:#b3b3b3;stroke-width:1.5;"/>
      <g>
       <use style="fill:#b3b3b3;stroke:#b3b3b3;stroke-width:0.5;" x="374.574085" xlink:href="#m9e8da4efd2" y="247.865371"/>
      </g>
     </g>
     <g id="text_20">
      <!-- 07PM -->
      <g style="fill:#4d4d4d;" transform="translate(367.771585 274.582592)rotate(-45)scale(0.088 -0.088)">
       <use xlink:href="#DejaVuSans-48"/>
       <use x="63.623047" xlink:href="#DejaVuSans-55"/>
       <use x="127.246094" xlink:href="#DejaVuSans-80"/>
       <use x="187.548828" xlink:href="#DejaVuSans-77"/>
      </g>
     </g>
    </g>
    <g id="xtick_21">
     <g id="line2d_21">
      <path d="M 391.494758 247.865371 
" style="fill:none;stroke:#b3b3b3;stroke-width:1.5;"/>
      <g>
       <use style="fill:#b3b3b3;stroke:#b3b3b3;stroke-width:0.5;" x="391.494758" xlink:href="#m9e8da4efd2" y="247.865371"/>
      </g>
     </g>
     <g id="text_21">
      <!-- 08PM -->
      <g style="fill:#4d4d4d;" transform="translate(384.692258 274.582592)rotate(-45)scale(0.088 -0.088)">
       <use xlink:href="#DejaVuSans-48"/>
       <use x="63.623047" xlink:href="#DejaVuSans-56"/>
       <use x="127.246094" xlink:href="#DejaVuSans-80"/>
       <use x="187.548828" xlink:href="#DejaVuSans-77"/>
      </g>
     </g>
    </g>
    <g id="xtick_22">
     <g id="line2d_22">
      <path d="M 408.41543 247.865371 
" style="fill:none;stroke:#b3b3b3;stroke-width:1.5;"/>
      <g>
       <use style="fill:#b3b3b3;stroke:#b3b3b3;stroke-width:0.5;" x="408.41543" xlink:href="#m9e8da4efd2" y="247.865371"/>
      </g>
     </g>
     <g id="text_22">
      <!-- 09PM -->
      <g style="fill:#4d4d4d;" transform="translate(401.61293 274.582592)rotate(-45)scale(0.088 -0.088)">
       <use xlink:href="#DejaVuSans-48"/>
       <use x="63.623047" xlink:href="#DejaVuSans-57"/>
       <use x="127.246094" xlink:href="#DejaVuSans-80"/>
       <use x="187.548828" xlink:href="#DejaVuSans-77"/>
      </g>
     </g>
    </g>
    <g id="xtick_23">
     <g id="line2d_23">
      <path d="M 425.336102 247.865371 
" style="fill:none;stroke:#b3b3b3;stroke-width:1.5;"/>
      <g>
       <use style="fill:#b3b3b3;stroke:#b3b3b3;stroke-width:0.5;" x="425.336102" xlink:href="#m9e8da4efd2" y="247.865371"/>
      </g>
     </g>
     <g id="text_23">
      <!-- 10PM -->
      <g style="fill:#4d4d4d;" transform="translate(418.533602 274.582592)rotate(-45)scale(0.088 -0.088)">
       <use xlink:href="#DejaVuSans-49"/>
       <use x="63.623047" xlink:href="#DejaVuSans-48"/>
       <use x="127.246094" xlink:href="#DejaVuSans-80"/>
       <use x="187.548828" xlink:href="#DejaVuSans-77"/>
      </g>
     </g>
    </g>
    <g id="xtick_24">
     <g id="line2d_24">
      <path d="M 442.256774 247.865371 
" style="fill:none;stroke:#b3b3b3;stroke-width:1.5;"/>
      <g>
       <use style="fill:#b3b3b3;stroke:#b3b3b3;stroke-width:0.5;" x="442.256774" xlink:href="#m9e8da4efd2" y="247.865371"/>
      </g>
     </g>
     <g id="text_24">
      <!-- 11PM -->
      <g style="fill:#4d4d4d;" transform="translate(435.454275 274.582592)rotate(-45)scale(0.088 -0.088)">
       <use xlink:href="#DejaVuSans-49"/>
       <use x="63.623047" xlink:href="#DejaVuSans-49"/>
       <use x="127.246094" xlink:href="#DejaVuSans-80"/>
       <use x="187.548828" xlink:href="#DejaVuSans-77"/>
      </g>
     </g>
    </g>
    <g id="xtick_25">
     <g id="line2d_25">
      <path d="M 459.177447 247.865371 
" style="fill:none;stroke:#b3b3b3;stroke-width:1.5;"/>
      <g>
       <use style="fill:#b3b3b3;stroke:#b3b3b3;stroke-width:0.5;" x="459.177447" xlink:href="#m9e8da4efd2" y="247.865371"/>
      </g>
     </g>
     <g id="text_25">
      <!-- 12AM -->
      <g style="fill:#4d4d4d;" transform="translate(452.122642 275.087201)rotate(-45)scale(0.088 -0.088)">
       <use xlink:href="#DejaVuSans-49"/>
       <use x="63.623047" xlink:href="#DejaVuSans-50"/>
       <use x="127.246094" xlink:href="#DejaVuSans-65"/>
       <use x="195.654297" xlink:href="#DejaVuSans-77"/>
      </g>
     </g>
    </g>
    <g id="xtick_26">
     <g id="line2d_26">
      <path d="M 61.541648 247.865371 
" style="fill:none;stroke:#b3b3b3;stroke-width:1.5;"/>
      <defs>
       <path d="M 0 0 
L 0 1.375 
" id="mbac7f47dff" style="stroke:#b3b3b3;stroke-width:0.5;"/>
      </defs>
      <g>
       <use style="fill:#b3b3b3;stroke:#b3b3b3;stroke-width:0.5;" x="61.541648" xlink:href="#mbac7f47dff" y="247.865371"/>
      </g>
     </g>
    </g>
    <g id="xtick_27">
     <g id="line2d_27">
      <path d="M 78.46232 247.865371 
" style="fill:none;stroke:#b3b3b3;stroke-width:1.5;"/>
      <g>
       <use style="fill:#b3b3b3;stroke:#b3b3b3;stroke-width:0.5;" x="78.46232" xlink:href="#mbac7f47dff" y="247.865371"/>
      </g>
     </g>
    </g>
    <g id="xtick_28">
     <g id="line2d_28">
      <path d="M 95.382993 247.865371 
" style="fill:none;stroke:#b3b3b3;stroke-width:1.5;"/>
      <g>
       <use style="fill:#b3b3b3;stroke:#b3b3b3;stroke-width:0.5;" x="95.382993" xlink:href="#mbac7f47dff" y="247.865371"/>
      </g>
     </g>
    </g>
    <g id="xtick_29">
     <g id="line2d_29">
      <path d="M 112.303665 247.865371 
" style="fill:none;stroke:#b3b3b3;stroke-width:1.5;"/>
      <g>
       <use style="fill:#b3b3b3;stroke:#b3b3b3;stroke-width:0.5;" x="112.303665" xlink:href="#mbac7f47dff" y="247.865371"/>
      </g>
     </g>
    </g>
    <g id="xtick_30">
     <g id="line2d_30">
      <path d="M 129.224337 247.865371 
" style="fill:none;stroke:#b3b3b3;stroke-width:1.5;"/>
      <g>
       <use style="fill:#b3b3b3;stroke:#b3b3b3;stroke-width:0.5;" x="129.224337" xlink:href="#mbac7f47dff" y="247.865371"/>
      </g>
     </g>
    </g>
    <g id="xtick_31">
     <g id="line2d_31">
      <path d="M 146.14501 247.865371 
" style="fill:none;stroke:#b3b3b3;stroke-width:1.5;"/>
      <g>
       <use style="fill:#b3b3b3;stroke:#b3b3b3;stroke-width:0.5;" x="146.14501" xlink:href="#mbac7f47dff" y="247.865371"/>
      </g>
     </g>
    </g>
    <g id="xtick_32">
     <g id="line2d_32">
      <path d="M 163.065682 247.865371 
" style="fill:none;stroke:#b3b3b3;stroke-width:1.5;"/>
      <g>
       <use style="fill:#b3b3b3;stroke:#b3b3b3;stroke-width:0.5;" x="163.065682" xlink:href="#mbac7f47dff" y="247.865371"/>
      </g>
     </g>
    </g>
    <g id="xtick_33">
     <g id="line2d_33">
      <path d="M 179.986354 247.865371 
" style="fill:none;stroke:#b3b3b3;stroke-width:1.5;"/>
      <g>
       <use style="fill:#b3b3b3;stroke:#b3b3b3;stroke-width:0.5;" x="179.986354" xlink:href="#mbac7f47dff" y="247.865371"/>
      </g>
     </g>
    </g>
    <g id="xtick_34">
     <g id="line2d_34">
      <path d="M 196.907026 247.865371 
" style="fill:none;stroke:#b3b3b3;stroke-width:1.5;"/>
      <g>
       <use style="fill:#b3b3b3;stroke:#b3b3b3;stroke-width:0.5;" x="196.907026" xlink:href="#mbac7f47dff" y="247.865371"/>
      </g>
     </g>
    </g>
    <g id="xtick_35">
     <g id="line2d_35">
      <path d="M 213.827699 247.865371 
" style="fill:none;stroke:#b3b3b3;stroke-width:1.5;"/>
      <g>
       <use style="fill:#b3b3b3;stroke:#b3b3b3;stroke-width:0.5;" x="213.827699" xlink:href="#mbac7f47dff" y="247.865371"/>
      </g>
     </g>
    </g>
    <g id="xtick_36">
     <g id="line2d_36">
      <path d="M 230.748371 247.865371 
" style="fill:none;stroke:#b3b3b3;stroke-width:1.5;"/>
      <g>
       <use style="fill:#b3b3b3;stroke:#b3b3b3;stroke-width:0.5;" x="230.748371" xlink:href="#mbac7f47dff" y="247.865371"/>
      </g>
     </g>
    </g>
    <g id="xtick_37">
     <g id="line2d_37">
      <path d="M 247.669043 247.865371 
" style="fill:none;stroke:#b3b3b3;stroke-width:1.5;"/>
      <g>
       <use style="fill:#b3b3b3;stroke:#b3b3b3;stroke-width:0.5;" x="247.669043" xlink:href="#mbac7f47dff" y="247.865371"/>
      </g>
     </g>
    </g>
    <g id="xtick_38">
     <g id="line2d_38">
      <path d="M 264.589715 247.865371 
" style="fill:none;stroke:#b3b3b3;stroke-width:1.5;"/>
      <g>
       <use style="fill:#b3b3b3;stroke:#b3b3b3;stroke-width:0.5;" x="264.589715" xlink:href="#mbac7f47dff" y="247.865371"/>
      </g>
     </g>
    </g>
    <g id="xtick_39">
     <g id="line2d_39">
      <path d="M 281.510388 247.865371 
" style="fill:none;stroke:#b3b3b3;stroke-width:1.5;"/>
      <g>
       <use style="fill:#b3b3b3;stroke:#b3b3b3;stroke-width:0.5;" x="281.510388" xlink:href="#mbac7f47dff" y="247.865371"/>
      </g>
     </g>
    </g>
    <g id="xtick_40">
     <g id="line2d_40">
      <path d="M 298.43106 247.865371 
" style="fill:none;stroke:#b3b3b3;stroke-width:1.5;"/>
      <g>
       <use style="fill:#b3b3b3;stroke:#b3b3b3;stroke-width:0.5;" x="298.43106" xlink:href="#mbac7f47dff" y="247.865371"/>
      </g>
     </g>
    </g>
    <g id="xtick_41">
     <g id="line2d_41">
      <path d="M 315.351732 247.865371 
" style="fill:none;stroke:#b3b3b3;stroke-width:1.5;"/>
      <g>
       <use style="fill:#b3b3b3;stroke:#b3b3b3;stroke-width:0.5;" x="315.351732" xlink:href="#mbac7f47dff" y="247.865371"/>
      </g>
     </g>
    </g>
    <g id="xtick_42">
     <g id="line2d_42">
      <path d="M 332.272405 247.865371 
" style="fill:none;stroke:#b3b3b3;stroke-width:1.5;"/>
      <g>
       <use style="fill:#b3b3b3;stroke:#b3b3b3;stroke-width:0.5;" x="332.272405" xlink:href="#mbac7f47dff" y="247.865371"/>
      </g>
     </g>
    </g>
    <g id="xtick_43">
     <g id="line2d_43">
      <path d="M 349.193077 247.865371 
" style="fill:none;stroke:#b3b3b3;stroke-width:1.5;"/>
      <g>
       <use style="fill:#b3b3b3;stroke:#b3b3b3;stroke-width:0.5;" x="349.193077" xlink:href="#mbac7f47dff" y="247.865371"/>
      </g>
     </g>
    </g>
    <g id="xtick_44">
     <g id="line2d_44">
      <path d="M 366.113749 247.865371 
" style="fill:none;stroke:#b3b3b3;stroke-width:1.5;"/>
      <g>
       <use style="fill:#b3b3b3;stroke:#b3b3b3;stroke-width:0.5;" x="366.113749" xlink:href="#mbac7f47dff" y="247.865371"/>
      </g>
     </g>
    </g>
    <g id="xtick_45">
     <g id="line2d_45">
      <path d="M 383.034421 247.865371 
" style="fill:none;stroke:#b3b3b3;stroke-width:1.5;"/>
      <g>
       <use style="fill:#b3b3b3;stroke:#b3b3b3;stroke-width:0.5;" x="383.034421" xlink:href="#mbac7f47dff" y="247.865371"/>
      </g>
     </g>
    </g>
    <g id="xtick_46">
     <g id="line2d_46">
      <path d="M 399.955094 247.865371 
" style="fill:none;stroke:#b3b3b3;stroke-width:1.5;"/>
      <g>
       <use style="fill:#b3b3b3;stroke:#b3b3b3;stroke-width:0.5;" x="399.955094" xlink:href="#mbac7f47dff" y="247.865371"/>
      </g>
     </g>
    </g>
    <g id="xtick_47">
     <g id="line2d_47">
      <path d="M 416.875766 247.865371 
" style="fill:none;stroke:#b3b3b3;stroke-width:1.5;"/>
      <g>
       <use style="fill:#b3b3b3;stroke:#b3b3b3;stroke-width:0.5;" x="416.875766" xlink:href="#mbac7f47dff" y="247.865371"/>
      </g>
     </g>
    </g>
    <g id="xtick_48">
     <g id="line2d_48">
      <path d="M 433.796438 247.865371 
" style="fill:none;stroke:#b3b3b3;stroke-width:1.5;"/>
      <g>
       <use style="fill:#b3b3b3;stroke:#b3b3b3;stroke-width:0.5;" x="433.796438" xlink:href="#mbac7f47dff" y="247.865371"/>
      </g>
     </g>
    </g>
    <g id="xtick_49">
     <g id="line2d_49">
      <path d="M 450.717111 247.865371 
" style="fill:none;stroke:#b3b3b3;stroke-width:1.5;"/>
      <g>
       <use style="fill:#b3b3b3;stroke:#b3b3b3;stroke-width:0.5;" x="450.717111" xlink:href="#mbac7f47dff" y="247.865371"/>
      </g>
     </g>
    </g>
   </g>
   <g id="matplotlib.axis_2">
    <g id="ytick_1">
     <g id="line2d_50">
      <path clip-path="url(#p1104d7c8d5)" d="M 32.809375 233.371153 
L 479.209375 233.371153 
" style="fill:none;stroke:#d9d9d9;stroke-width:0.5;"/>
     </g>
     <g id="line2d_51">
      <path d="M 32.809375 233.371153 
" style="fill:none;stroke:#b3b3b3;stroke-width:1.5;"/>
      <defs>
       <path d="M 0 0 
L -2.75 0 
" id="med8fa2359c" style="stroke:#b3b3b3;stroke-width:0.5;"/>
      </defs>
      <g>
       <use style="fill:#b3b3b3;stroke:#b3b3b3;stroke-width:0.5;" x="32.809375" xlink:href="#med8fa2359c" y="233.371153"/>
      </g>
     </g>
     <g id="text_26">
      <!-- 70°F -->
      <defs>
       <path d="M 25 67.921875 
Q 21.09375 67.921875 18.40625 65.203125 
Q 15.71875 62.5 15.71875 58.59375 
Q 15.71875 54.734375 18.40625 52.078125 
Q 21.09375 49.421875 25 49.421875 
Q 28.90625 49.421875 31.59375 52.078125 
Q 34.28125 54.734375 34.28125 58.59375 
Q 34.28125 62.453125 31.5625 65.1875 
Q 28.859375 67.921875 25 67.921875 
z
M 25 74.21875 
Q 28.125 74.21875 31 73.015625 
Q 33.890625 71.828125 35.984375 69.578125 
Q 38.234375 67.390625 39.359375 64.59375 
Q 40.484375 61.8125 40.484375 58.59375 
Q 40.484375 52.15625 35.96875 47.6875 
Q 31.453125 43.21875 24.90625 43.21875 
Q 18.3125 43.21875 13.90625 47.609375 
Q 9.515625 52 9.515625 58.59375 
Q 9.515625 65.140625 14 69.671875 
Q 18.5 74.21875 25 74.21875 
z
" id="DejaVuSans-176"/>
       <path d="M 9.8125 72.90625 
L 51.703125 72.90625 
L 51.703125 64.59375 
L 19.671875 64.59375 
L 19.671875 43.109375 
L 48.578125 43.109375 
L 48.578125 34.8125 
L 19.671875 34.8125 
L 19.671875 0 
L 9.8125 0 
z
" id="DejaVuSans-70"/>
      </defs>
      <g style="fill:#4d4d4d;" transform="translate(7.2 235.799403)scale(0.088 -0.088)">
       <use xlink:href="#DejaVuSans-55"/>
       <use x="63.623047" xlink:href="#DejaVuSans-48"/>
       <use x="127.246094" xlink:href="#DejaVuSans-176"/>
       <use x="177.246094" xlink:href="#DejaVuSans-70"/>
      </g>
     </g>
    </g>
    <g id="ytick_2">
     <g id="line2d_52">
      <path clip-path="url(#p1104d7c8d5)" d="M 32.809375 209.998812 
L 479.209375 209.998812 
" style="fill:none;stroke:#d9d9d9;stroke-width:0.5;"/>
     </g>
     <g id="line2d_53">
      <path d="M 32.809375 209.998812 
" style="fill:none;stroke:#b3b3b3;stroke-width:1.5;"/>
      <g>
       <use style="fill:#b3b3b3;stroke:#b3b3b3;stroke-width:0.5;" x="32.809375" xlink:href="#med8fa2359c" y="209.998812"/>
      </g>
     </g>
     <g id="text_27">
      <!-- 72°F -->
      <g style="fill:#4d4d4d;" transform="translate(7.2 212.427062)scale(0.088 -0.088)">
       <use xlink:href="#DejaVuSans-55"/>
       <use x="63.623047" xlink:href="#DejaVuSans-50"/>
       <use x="127.246094" xlink:href="#DejaVuSans-176"/>
       <use x="177.246094" xlink:href="#DejaVuSans-70"/>
      </g>
     </g>
    </g>
    <g id="ytick_3">
     <g id="line2d_54">
      <path clip-path="url(#p1104d7c8d5)" d="M 32.809375 186.626471 
L 479.209375 186.626471 
" style="fill:none;stroke:#d9d9d9;stroke-width:0.5;"/>
     </g>
     <g id="line2d_55">
      <path d="M 32.809375 186.626471 
" style="fill:none;stroke:#b3b3b3;stroke-width:1.5;"/>
      <g>
       <use style="fill:#b3b3b3;stroke:#b3b3b3;stroke-width:0.5;" x="32.809375" xlink:href="#med8fa2359c" y="186.626471"/>
      </g>
     </g>
     <g id="text_28">
      <!-- 74°F -->
      <g style="fill:#4d4d4d;" transform="translate(7.2 189.054721)scale(0.088 -0.088)">
       <use xlink:href="#DejaVuSans-55"/>
       <use x="63.623047" xlink:href="#DejaVuSans-52"/>
       <use x="127.246094" xlink:href="#DejaVuSans-176"/>
       <use x="177.246094" xlink:href="#DejaVuSans-70"/>
      </g>
     </g>
    </g>
    <g id="ytick_4">
     <g id="line2d_56">
      <path clip-path="url(#p1104d7c8d5)" d="M 32.809375 163.254129 
L 479.209375 163.254129 
" style="fill:none;stroke:#d9d9d9;stroke-width:0.5;"/>
     </g>
     <g id="line2d_57">
      <path d="M 32.809375 163.254129 
" style="fill:none;stroke:#b3b3b3;stroke-width:1.5;"/>
      <g>
       <use style="fill:#b3b3b3;stroke:#b3b3b3;stroke-width:0.5;" x="32.809375" xlink:href="#med8fa2359c" y="163.254129"/>
      </g>
     </g>
     <g id="text_29">
      <!-- 76°F -->
      <g style="fill:#4d4d4d;" transform="translate(7.2 165.682379)scale(0.088 -0.088)">
       <use xlink:href="#DejaVuSans-55"/>
       <use x="63.623047" xlink:href="#DejaVuSans-54"/>
       <use x="127.246094" xlink:href="#DejaVuSans-176"/>
       <use x="177.246094" xlink:href="#DejaVuSans-70"/>
      </g>
     </g>
    </g>
    <g id="ytick_5">
     <g id="line2d_58">
      <path clip-path="url(#p1104d7c8d5)" d="M 32.809375 139.881788 
L 479.209375 139.881788 
" style="fill:none;stroke:#d9d9d9;stroke-width:0.5;"/>
     </g>
     <g id="line2d_59">
      <path d="M 32.809375 139.881788 
" style="fill:none;stroke:#b3b3b3;stroke-width:1.5;"/>
      <g>
       <use style="fill:#b3b3b3;stroke:#b3b3b3;stroke-width:0.5;" x="32.809375" xlink:href="#med8fa2359c" y="139.881788"/>
      </g>
     </g>
     <g id="text_30">
      <!-- 78°F -->
      <g style="fill:#4d4d4d;" transform="translate(7.2 142.310038)scale(0.088 -0.088)">
       <use xlink:href="#DejaVuSans-55"/>
       <use x="63.623047" xlink:href="#DejaVuSans-56"/>
       <use x="127.246094" xlink:href="#DejaVuSans-176"/>
       <use x="177.246094" xlink:href="#DejaVuSans-70"/>
      </g>
     </g>
    </g>
    <g id="ytick_6">
     <g id="line2d_60">
      <path clip-path="url(#p1104d7c8d5)" d="M 32.809375 116.509447 
L 479.209375 116.509447 
" style="fill:none;stroke:#d9d9d9;stroke-width:0.5;"/>
     </g>
     <g id="line2d_61">
      <path d="M 32.809375 116.509447 
" style="fill:none;stroke:#b3b3b3;stroke-width:1.5;"/>
      <g>
       <use style="fill:#b3b3b3;stroke:#b3b3b3;stroke-width:0.5;" x="32.809375" xlink:href="#med8fa2359c" y="116.509447"/>
      </g>
     </g>
     <g id="text_31">
      <!-- 80°F -->
      <g style="fill:#4d4d4d;" transform="translate(7.2 118.937697)scale(0.088 -0.088)">
       <use xlink:href="#DejaVuSans-56"/>
       <use x="63.623047" xlink:href="#DejaVuSans-48"/>
       <use x="127.246094" xlink:href="#DejaVuSans-176"/>
       <use x="177.246094" xlink:href="#DejaVuSans-70"/>
      </g>
     </g>
    </g>
    <g id="ytick_7">
     <g id="line2d_62">
      <path clip-path="url(#p1104d7c8d5)" d="M 32.809375 93.137105 
L 479.209375 93.137105 
" style="fill:none;stroke:#d9d9d9;stroke-width:0.5;"/>
     </g>
     <g id="line2d_63">
      <path d="M 32.809375 93.137105 
" style="fill:none;stroke:#b3b3b3;stroke-width:1.5;"/>
      <g>
       <use style="fill:#b3b3b3;stroke:#b3b3b3;stroke-width:0.5;" x="32.809375" xlink:href="#med8fa2359c" y="93.137105"/>
      </g>
     </g>
     <g id="text_32">
      <!-- 82°F -->
      <g style="fill:#4d4d4d;" transform="translate(7.2 95.565355)scale(0.088 -0.088)">
       <use xlink:href="#DejaVuSans-56"/>
       <use x="63.623047" xlink:href="#DejaVuSans-50"/>
       <use x="127.246094" xlink:href="#DejaVuSans-176"/>
       <use x="177.246094" xlink:href="#DejaVuSans-70"/>
      </g>
     </g>
    </g>
    <g id="ytick_8">
     <g id="line2d_64">
      <path clip-path="url(#p1104d7c8d5)" d="M 32.809375 69.764764 
L 479.209375 69.764764 
" style="fill:none;stroke:#d9d9d9;stroke-width:0.5;"/>
     </g>
     <g id="line2d_65">
      <path d="M 32.809375 69.764764 
" style="fill:none;stroke:#b3b3b3;stroke-width:1.5;"/>
      <g>
       <use style="fill:#b3b3b3;stroke:#b3b3b3;stroke-width:0.5;" x="32.809375" xlink:href="#med8fa2359c" y="69.764764"/>
      </g>
     </g>
     <g id="text_33">
      <!-- 84°F -->
      <g style="fill:#4d4d4d;" transform="translate(7.2 72.193014)scale(0.088 -0.088)">
       <use xlink:href="#DejaVuSans-56"/>
       <use x="63.623047" xlink:href="#DejaVuSans-52"/>
       <use x="127.246094" xlink:href="#DejaVuSans-176"/>
       <use x="177.246094" xlink:href="#DejaVuSans-70"/>
      </g>
     </g>
    </g>
    <g id="ytick_9">
     <g id="line2d_66">
      <path clip-path="url(#p1104d7c8d5)" d="M 32.809375 46.392423 
L 479.209375 46.392423 
" style="fill:none;stroke:#d9d9d9;stroke-width:0.5;"/>
     </g>
     <g id="line2d_67">
      <path d="M 32.809375 46.392423 
" style="fill:none;stroke:#b3b3b3;stroke-width:1.5;"/>
      <g>
       <use style="fill:#b3b3b3;stroke:#b3b3b3;stroke-width:0.5;" x="32.809375" xlink:href="#med8fa2359c" y="46.392423"/>
      </g>
     </g>
     <g id="text_34">
      <!-- 86°F -->
      <g style="fill:#4d4d4d;" transform="translate(7.2 48.820673)scale(0.088 -0.088)">
       <use xlink:href="#DejaVuSans-56"/>
       <use x="63.623047" xlink:href="#DejaVuSans-54"/>
       <use x="127.246094" xlink:href="#DejaVuSans-176"/>
       <use x="177.246094" xlink:href="#DejaVuSans-70"/>
      </g>
     </g>
    </g>
    <g id="ytick_10">
     <g id="line2d_68">
      <path clip-path="url(#p1104d7c8d5)" d="M 32.809375 245.057324 
L 479.209375 245.057324 
" style="fill:none;stroke:#ededed;stroke-width:0.25;"/>
     </g>
     <g id="line2d_69">
      <path d="M 32.809375 245.057324 
" style="fill:none;stroke:#b3b3b3;stroke-width:1.5;"/>
      <defs>
       <path d="M 0 0 
L -1.375 0 
" id="m75e3c5f182" style="stroke:#b3b3b3;stroke-width:0.5;"/>
      </defs>
      <g>
       <use style="fill:#b3b3b3;stroke:#b3b3b3;stroke-width:0.5;" x="32.809375" xlink:href="#m75e3c5f182" y="245.057324"/>
      </g>
     </g>
    </g>
    <g id="ytick_11">
     <g id="line2d_70">
      <path clip-path="url(#p1104d7c8d5)" d="M 32.809375 221.684983 
L 479.209375 221.684983 
" style="fill:none;stroke:#ededed;stroke-width:0.25;"/>
     </g>
     <g id="line2d_71">
      <path d="M 32.809375 221.684983 
" style="fill:none;stroke:#b3b3b3;stroke-width:1.5;"/>
      <g>
       <use style="fill:#b3b3b3;stroke:#b3b3b3;stroke-width:0.5;" x="32.809375" xlink:href="#m75e3c5f182" y="221.684983"/>
      </g>
     </g>
    </g>
    <g id="ytick_12">
     <g id="line2d_72">
      <path clip-path="url(#p1104d7c8d5)" d="M 32.809375 198.312641 
L 479.209375 198.312641 
" style="fill:none;stroke:#ededed;stroke-width:0.25;"/>
     </g>
     <g id="line2d_73">
      <path d="M 32.809375 198.312641 
" style="fill:none;stroke:#b3b3b3;stroke-width:1.5;"/>
      <g>
       <use style="fill:#b3b3b3;stroke:#b3b3b3;stroke-width:0.5;" x="32.809375" xlink:href="#m75e3c5f182" y="198.312641"/>
      </g>
     </g>
    </g>
    <g id="ytick_13">
     <g id="line2d_74">
      <path clip-path="url(#p1104d7c8d5)" d="M 32.809375 174.9403 
L 479.209375 174.9403 
" style="fill:none;stroke:#ededed;stroke-width:0.25;"/>
     </g>
     <g id="line2d_75">
      <path d="M 32.809375 174.9403 
" style="fill:none;stroke:#b3b3b3;stroke-width:1.5;"/>
      <g>
       <use style="fill:#b3b3b3;stroke:#b3b3b3;stroke-width:0.5;" x="32.809375" xlink:href="#m75e3c5f182" y="174.9403"/>
      </g>
     </g>
    </g>
    <g id="ytick_14">
     <g id="line2d_76">
      <path clip-path="url(#p1104d7c8d5)" d="M 32.809375 151.567959 
L 479.209375 151.567959 
" style="fill:none;stroke:#ededed;stroke-width:0.25;"/>
     </g>
     <g id="line2d_77">
      <path d="M 32.809375 151.567959 
" style="fill:none;stroke:#b3b3b3;stroke-width:1.5;"/>
      <g>
       <use style="fill:#b3b3b3;stroke:#b3b3b3;stroke-width:0.5;" x="32.809375" xlink:href="#m75e3c5f182" y="151.567959"/>
      </g>
     </g>
    </g>
    <g id="ytick_15">
     <g id="line2d_78">
      <path clip-path="url(#p1104d7c8d5)" d="M 32.809375 128.195617 
L 479.209375 128.195617 
" style="fill:none;stroke:#ededed;stroke-width:0.25;"/>
     </g>
     <g id="line2d_79">
      <path d="M 32.809375 128.195617 
" style="fill:none;stroke:#b3b3b3;stroke-width:1.5;"/>
      <g>
       <use style="fill:#b3b3b3;stroke:#b3b3b3;stroke-width:0.5;" x="32.809375" xlink:href="#m75e3c5f182" y="128.195617"/>
      </g>
     </g>
    </g>
    <g id="ytick_16">
     <g id="line2d_80">
      <path clip-path="url(#p1104d7c8d5)" d="M 32.809375 104.823276 
L 479.209375 104.823276 
" style="fill:none;stroke:#ededed;stroke-width:0.25;"/>
     </g>
     <g id="line2d_81">
      <path d="M 32.809375 104.823276 
" style="fill:none;stroke:#b3b3b3;stroke-width:1.5;"/>
      <g>
       <use style="fill:#b3b3b3;stroke:#b3b3b3;stroke-width:0.5;" x="32.809375" xlink:href="#m75e3c5f182" y="104.823276"/>
      </g>
     </g>
    </g>
    <g id="ytick_17">
     <g id="line2d_82">
      <path clip-path="url(#p1104d7c8d5)" d="M 32.809375 81.450935 
L 479.209375 81.450935 
" style="fill:none;stroke:#ededed;stroke-width:0.25;"/>
     </g>
     <g id="line2d_83">
      <path d="M 32.809375 81.450935 
" style="fill:none;stroke:#b3b3b3;stroke-width:1.5;"/>
      <g>
       <use style="fill:#b3b3b3;stroke:#b3b3b3;stroke-width:0.5;" x="32.809375" xlink:href="#m75e3c5f182" y="81.450935"/>
      </g>
     </g>
    </g>
    <g id="ytick_18">
     <g id="line2d_84">
      <path clip-path="url(#p1104d7c8d5)" d="M 32.809375 58.078593 
L 479.209375 58.078593 
" style="fill:none;stroke:#ededed;stroke-width:0.25;"/>
     </g>
     <g id="line2d_85">
      <path d="M 32.809375 58.078593 
" style="fill:none;stroke:#b3b3b3;stroke-width:1.5;"/>
      <g>
       <use style="fill:#b3b3b3;stroke:#b3b3b3;stroke-width:0.5;" x="32.809375" xlink:href="#m75e3c5f182" y="58.078593"/>
      </g>
     </g>
    </g>
    <g id="ytick_19">
     <g id="line2d_86">
      <path clip-path="url(#p1104d7c8d5)" d="M 32.809375 34.706252 
L 479.209375 34.706252 
" style="fill:none;stroke:#ededed;stroke-width:0.25;"/>
     </g>
     <g id="line2d_87">
      <path d="M 32.809375 34.706252 
" style="fill:none;stroke:#b3b3b3;stroke-width:1.5;"/>
      <g>
       <use style="fill:#b3b3b3;stroke:#b3b3b3;stroke-width:0.5;" x="32.809375" xlink:href="#m75e3c5f182" y="34.706252"/>
      </g>
     </g>
    </g>
   </g>
   <g id="line2d_88">
    <path clip-path="url(#p1104d7c8d5)" d="M 53.100284 187.07522 
L 53.950118 187.07522 
L 54.228696 188.379396 
L 55.639447 188.379396 
L 55.922646 189.704608 
L 56.205831 189.704608 
L 56.488921 188.379396 
L 56.767591 189.704608 
L 58.744997 189.704608 
L 59.023186 191.008785 
L 59.872606 191.008785 
L 60.150864 192.333997 
L 60.433992 192.333997 
L 60.717238 191.008785 
L 61.00034 192.333997 
L 61.84479 192.333997 
L 62.127943 193.638173 
L 63.255627 193.638173 
L 63.538748 192.333997 
L 64.100142 192.333997 
L 64.383386 193.638173 
L 64.666501 192.333997 
L 70.022921 192.333997 
L 70.30589 193.638173 
L 71.717078 193.638173 
L 71.995347 194.963385 
L 72.278569 193.638173 
L 72.561714 194.963385 
L 72.84481 194.963385 
L 73.123062 193.638173 
L 73.406173 194.963385 
L 73.972415 194.963385 
L 74.255641 193.638173 
L 75.100095 193.638173 
L 75.383288 192.333997 
L 75.944622 192.333997 
L 76.227872 193.638173 
L 77.07272 193.638173 
L 77.355909 192.333997 
L 77.639096 193.638173 
L 77.91758 192.333997 
L 79.894712 192.333997 
L 80.177784 193.638173 
L 80.456041 193.638173 
L 80.739292 192.333997 
L 81.02238 193.638173 
L 81.305466 192.333997 
L 81.866948 192.333997 
L 82.150089 193.638173 
L 82.711373 191.008785 
L 82.994516 192.333997 
L 83.277819 191.008785 
L 85.533052 191.008785 
L 85.816246 189.704608 
L 86.099332 191.008785 
L 86.37752 191.008785 
L 86.660673 189.704608 
L 87.510286 189.704608 
L 87.788686 188.379396 
L 90.893613 188.379396 
L 91.172097 187.07522 
L 91.455327 188.379396 
L 91.738469 187.07522 
L 93.994856 187.07522 
L 94.27797 185.750008 
L 94.556241 187.07522 
L 95.684331 187.07522 
L 95.9675 185.750008 
L 96.533841 185.750008 
L 96.812417 187.07522 
L 98.506755 187.07522 
L 98.78994 185.750008 
L 101.889728 185.750008 
L 102.172905 187.07522 
L 102.456047 185.750008 
L 103.583765 185.750008 
L 103.866728 187.07522 
L 104.994393 187.07522 
L 105.273085 185.750008 
L 105.556163 187.07522 
L 106.967077 187.07522 
L 107.250109 185.750008 
L 107.528486 187.07522 
L 107.811499 185.750008 
L 108.656849 185.750008 
L 108.940023 187.07522 
L 109.223181 187.07522 
L 109.506262 185.750008 
L 112.889593 185.750008 
L 113.172721 187.07522 
L 113.450984 187.07522 
L 113.734177 185.750008 
L 114.017372 187.07522 
L 114.300516 187.07522 
L 114.57911 185.750008 
L 114.862166 187.07522 
L 121.350839 187.07522 
L 121.629311 188.379396 
L 121.912551 187.07522 
L 122.195651 188.379396 
L 122.478783 187.07522 
L 123.889505 187.07522 
L 124.167772 188.379396 
L 124.450906 187.07522 
L 125.861786 187.07522 
L 126.145025 188.379396 
L 126.423569 188.379396 
L 126.706712 187.07522 
L 126.989768 188.379396 
L 131.784063 188.379396 
L 132.067294 189.704608 
L 136.016466 189.704608 
L 136.294676 188.379396 
L 136.861417 188.379396 
L 137.140037 189.704608 
L 137.989487 189.704608 
L 138.267583 188.379396 
L 138.550791 189.704608 
L 139.117151 189.704608 
L 139.400202 188.379396 
L 139.678391 188.379396 
L 139.961533 189.704608 
L 140.244668 188.379396 
L 140.52781 189.704608 
L 143.910818 189.704608 
L 144.194151 191.008785 
L 144.472576 189.704608 
L 148.421575 189.704608 
L 148.704732 188.379396 
L 148.987832 189.704608 
L 149.266103 189.704608 
L 149.549352 188.379396 
L 149.832276 189.704608 
L 152.371163 189.704608 
L 152.654289 188.379396 
L 154.626941 188.379396 
L 154.910167 189.704608 
L 155.188731 188.379396 
L 156.038197 188.379396 
L 156.316758 187.07522 
L 156.599914 188.379396 
L 157.444821 188.379396 
L 157.727874 187.07522 
L 163.367036 187.07522 
L 163.650194 185.750008 
L 164.216523 185.750008 
L 164.495 187.07522 
L 164.778159 185.750008 
L 165.061353 187.07522 
L 165.344556 185.750008 
L 165.905886 185.750008 
L 166.188969 187.07522 
L 166.472107 185.750008 
L 166.755415 187.07522 
L 167.034042 185.750008 
L 167.316991 187.07522 
L 167.600206 187.07522 
L 167.883434 185.750008 
L 168.161942 187.07522 
L 172.677921 187.07522 
L 172.95657 185.750008 
L 173.239688 187.07522 
L 173.522834 185.750008 
L 174.084511 185.750008 
L 174.367773 187.07522 
L 174.65094 185.750008 
L 176.057545 185.750008 
L 176.340686 187.07522 
L 176.623824 185.750008 
L 178.313188 185.750008 
L 178.596415 184.445831 
L 179.162657 184.445831 
L 179.445745 185.750008 
L 179.723991 184.445831 
L 183.108244 184.445831 
L 183.391279 185.750008 
L 183.674416 185.750008 
L 183.957562 184.445831 
L 188.469351 184.445831 
L 188.747613 183.12062 
L 189.597075 183.12062 
L 189.880145 184.445831 
L 190.158395 184.445831 
L 190.44158 183.12062 
L 191.007797 183.12062 
L 191.286147 184.445831 
L 191.569287 183.12062 
L 197.212524 183.12062 
L 197.490705 181.816443 
L 198.618373 181.816443 
L 198.901497 183.12062 
L 199.184725 181.816443 
L 200.02962 181.816443 
L 200.312783 180.491231 
L 203.130311 180.491231 
L 203.413278 181.816443 
L 203.696524 180.491231 
L 203.979579 181.816443 
L 204.262711 180.491231 
L 206.518202 180.491231 
L 206.796754 179.187055 
L 207.646261 179.187055 
L 207.92481 180.491231 
L 208.207975 179.187055 
L 209.336018 179.187055 
L 209.619071 180.491231 
L 210.180476 180.491231 
L 210.463684 179.187055 
L 211.59179 179.187055 
L 211.874839 177.861843 
L 214.413616 177.861843 
L 214.69714 176.557666 
L 216.386564 176.557666 
L 216.669717 175.232454 
L 216.952856 176.557666 
L 217.231178 176.557666 
L 217.514335 175.232454 
L 218.641912 175.232454 
L 218.925054 173.928278 
L 219.208259 175.232454 
L 219.491491 173.928278 
L 225.130429 173.928278 
L 225.413555 172.603066 
L 228.796575 172.603066 
L 229.079718 171.298889 
L 230.20739 171.298889 
L 230.485702 169.973678 
L 231.052025 169.973678 
L 231.335038 168.669501 
L 232.463165 168.669501 
L 232.741588 167.344289 
L 233.024448 168.669501 
L 233.590755 168.669501 
L 233.873914 167.344289 
L 234.152294 168.669501 
L 234.435301 167.344289 
L 235.846638 167.344289 
L 236.129601 166.040113 
L 236.974219 166.040113 
L 237.25734 164.714901 
L 238.946757 164.714901 
L 239.229848 163.410724 
L 239.512988 163.410724 
L 239.796192 164.714901 
L 240.074482 163.410724 
L 240.357584 163.410724 
L 240.640653 162.085512 
L 240.923924 163.410724 
L 241.202423 163.410724 
L 241.485586 162.085512 
L 242.330484 162.085512 
L 242.613621 160.781336 
L 244.307954 160.781336 
L 244.586248 159.456124 
L 244.869428 160.781336 
L 245.152485 159.456124 
L 245.435669 159.456124 
L 245.713917 160.781336 
L 246.56329 160.781336 
L 246.846429 159.456124 
L 247.690934 159.456124 
L 247.974077 158.151947 
L 249.101764 158.151947 
L 249.38004 156.826736 
L 249.946399 156.826736 
L 250.229426 155.522559 
L 251.07396 155.522559 
L 251.357088 154.197347 
L 252.202116 154.197347 
L 252.485311 152.893171 
L 253.330044 152.893171 
L 253.613197 151.567959 
L 255.024378 151.567959 
L 255.302689 150.263782 
L 256.431049 150.263782 
L 256.714559 148.93857 
L 256.997693 148.93857 
L 257.280919 150.263782 
L 257.559231 148.93857 
L 258.408488 148.93857 
L 258.686754 147.634394 
L 258.969982 148.93857 
L 259.253129 147.634394 
L 259.814893 147.634394 
L 260.098003 146.309182 
L 260.664215 146.309182 
L 260.942477 145.005005 
L 261.791876 145.005005 
L 262.075033 143.679794 
L 262.636789 143.679794 
L 262.919921 142.375617 
L 264.331183 142.375617 
L 264.609362 141.050405 
L 264.892556 142.375617 
L 265.175632 142.375617 
L 265.458771 141.050405 
L 266.303429 141.050405 
L 266.586593 142.375617 
L 267.148317 142.375617 
L 267.431465 141.050405 
L 269.403917 141.050405 
L 269.687059 139.746229 
L 270.532006 139.746229 
L 270.815164 138.421017 
L 271.09839 138.421017 
L 271.381401 137.11684 
L 272.509051 137.11684 
L 272.787402 135.791628 
L 273.070542 137.11684 
L 273.353702 135.791628 
L 273.915058 135.791628 
L 274.198123 134.487452 
L 275.609383 134.487452 
L 275.892585 133.16224 
L 276.736981 133.16224 
L 277.020174 131.858063 
L 277.865027 131.858063 
L 278.148154 130.532852 
L 278.431264 131.858063 
L 278.709919 130.532852 
L 279.559346 130.532852 
L 279.8376 129.228675 
L 280.965631 129.228675 
L 281.248854 127.903463 
L 281.532027 129.228675 
L 282.093773 126.599287 
L 282.376919 127.903463 
L 282.660025 127.903463 
L 282.943212 126.599287 
L 283.788009 126.599287 
L 284.071213 125.274075 
L 284.349451 125.274075 
L 284.632619 126.599287 
L 284.915837 125.274075 
L 286.043727 125.274075 
L 286.326862 123.969898 
L 287.171834 123.969898 
L 287.454973 122.644686 
L 287.738229 123.969898 
L 288.016759 122.644686 
L 289.144332 122.644686 
L 289.427619 121.34051 
L 291.121855 121.34051 
L 291.400105 120.015298 
L 292.249587 120.015298 
L 292.527709 118.711121 
L 293.938518 118.711121 
L 294.221723 117.38591 
L 294.504902 117.38591 
L 294.787916 118.711121 
L 295.066251 117.38591 
L 296.477146 117.38591 
L 296.760135 116.081733 
L 297.326036 116.081733 
L 297.604393 114.756521 
L 297.887934 116.081733 
L 298.170926 114.756521 
L 300.426283 114.756521 
L 300.709421 113.452345 
L 301.553955 113.452345 
L 301.837262 112.127133 
L 302.120228 112.127133 
L 302.398578 113.452345 
L 302.681618 113.452345 
L 302.964756 112.127133 
L 303.247961 112.127133 
L 303.526258 110.822956 
L 304.937126 110.822956 
L 305.22026 109.497744 
L 306.631275 109.497744 
L 306.914421 108.193568 
L 307.192751 109.497744 
L 307.475806 108.193568 
L 308.886614 108.193568 
L 309.169756 106.868356 
L 311.425199 106.868356 
L 311.708248 105.564179 
L 312.552918 105.564179 
L 312.835924 104.238968 
L 313.680881 104.238968 
L 313.963959 102.934791 
L 314.247105 102.934791 
L 314.525358 104.238968 
L 314.808492 101.609579 
L 315.091945 102.934791 
L 315.375216 101.609579 
L 316.5032 101.609579 
L 316.781487 100.305403 
L 317.064619 101.609579 
L 317.347719 101.609579 
L 317.630867 100.305403 
L 319.886575 100.305403 
L 320.164813 98.980191 
L 320.448023 98.980191 
L 320.731212 100.305403 
L 321.29743 97.676014 
L 321.575616 98.980191 
L 322.141901 98.980191 
L 322.425038 97.676014 
L 322.703381 98.980191 
L 322.98652 97.676014 
L 324.114106 97.676014 
L 324.397244 96.350802 
L 326.091177 96.350802 
L 326.369437 95.046626 
L 327.497566 95.046626 
L 327.780719 96.350802 
L 328.063841 95.046626 
L 329.475105 95.046626 
L 329.753629 93.721414 
L 330.036716 93.721414 
L 330.319856 95.046626 
L 330.60306 93.721414 
L 333.141923 93.721414 
L 333.420206 92.417237 
L 334.269525 92.417237 
L 334.548136 91.092026 
L 336.525369 91.092026 
L 336.803925 89.787849 
L 337.08725 91.092026 
L 337.370243 91.092026 
L 337.653427 89.787849 
L 340.753681 89.787849 
L 341.036743 88.462637 
L 341.319784 89.787849 
L 341.598038 88.462637 
L 343.009325 88.462637 
L 343.292469 87.158461 
L 343.575624 88.462637 
L 344.137354 88.462637 
L 344.420535 87.158461 
L 344.703694 87.158461 
L 344.982254 88.462637 
L 345.265413 87.158461 
L 345.548449 88.462637 
L 345.831617 87.158461 
L 346.676181 87.158461 
L 346.959263 85.833249 
L 347.242421 87.158461 
L 349.214718 87.158461 
L 349.49784 85.833249 
L 349.77638 87.158461 
L 350.059561 85.833249 
L 351.187942 85.833249 
L 351.47106 87.158461 
L 351.754216 85.833249 
L 354.570927 85.833249 
L 354.854085 87.158461 
L 355.137208 85.833249 
L 356.548185 85.833249 
L 356.826658 84.529072 
L 357.109864 85.833249 
L 357.954414 85.833249 
L 358.237469 84.529072 
L 358.520649 84.529072 
L 358.803789 85.833249 
L 359.086888 84.529072 
L 359.648431 84.529072 
L 359.931567 85.833249 
L 360.214649 85.833249 
L 360.492789 84.529072 
L 360.77593 85.833249 
L 361.059173 85.833249 
L 361.342206 84.529072 
L 361.620539 85.833249 
L 361.903768 84.529072 
L 362.186825 85.833249 
L 362.469966 84.529072 
L 362.753008 84.529072 
L 363.031277 85.833249 
L 363.314418 84.529072 
L 363.597556 85.833249 
L 363.880698 84.529072 
L 364.15903 85.833249 
L 364.442159 84.529072 
L 365.008414 84.529072 
L 365.286681 85.833249 
L 365.569753 84.529072 
L 365.853024 85.833249 
L 366.136099 85.833249 
L 366.419173 84.529072 
L 367.264119 84.529072 
L 367.547278 85.833249 
L 367.825536 85.833249 
L 368.10876 84.529072 
L 368.391724 85.833249 
L 369.519796 85.833249 
L 369.802933 84.529072 
L 370.081268 85.833249 
L 372.620497 85.833249 
L 372.903583 87.158461 
L 373.186841 84.529072 
L 373.465379 85.833249 
L 374.592983 85.833249 
L 374.876153 87.158461 
L 375.159425 85.833249 
L 377.981266 85.833249 
L 378.259493 87.158461 
L 378.542729 85.833249 
L 378.825838 85.833249 
L 379.109074 87.158461 
L 379.387644 85.833249 
L 379.67078 85.833249 
L 379.953947 87.158461 
L 380.237363 85.833249 
L 380.515683 87.158461 
L 381.365408 87.158461 
L 381.644102 85.833249 
L 381.927315 87.158461 
L 382.771689 87.158461 
L 383.054789 85.833249 
L 383.338025 87.158461 
L 384.182483 87.158461 
L 384.465622 85.833249 
L 384.74877 87.158461 
L 385.310522 87.158461 
L 385.593729 85.833249 
L 386.721882 85.833249 
L 387.004846 88.462637 
L 387.288008 87.158461 
L 389.822038 87.158461 
L 390.105197 88.462637 
L 390.388347 87.158461 
L 390.95006 87.158461 
L 391.233356 88.462637 
L 391.516389 87.158461 
L 392.644335 87.158461 
L 392.927564 88.462637 
L 393.206102 87.158461 
L 394.055652 87.158461 
L 394.334248 88.462637 
L 394.617337 88.462637 
L 394.900511 87.158461 
L 396.59022 87.158461 
L 396.873447 88.462637 
L 397.156628 87.158461 
L 397.439652 88.462637 
L 398.001089 88.462637 
L 398.284288 87.158461 
L 398.567499 88.462637 
L 400.540004 88.462637 
L 400.823086 89.787849 
L 401.106176 87.158461 
L 401.384411 88.462637 
L 404.206465 88.462637 
L 404.489645 89.787849 
L 405.33407 89.787849 
L 405.617213 88.462637 
L 406.744987 88.462637 
L 407.028088 89.787849 
L 407.58947 89.787849 
L 407.872548 88.462637 
L 408.155773 89.787849 
L 409.845518 89.787849 
L 410.128656 91.092026 
L 410.411782 89.787849 
L 410.695007 89.787849 
L 410.973252 91.092026 
L 411.256458 89.787849 
L 412.100836 89.787849 
L 412.383976 91.092026 
L 414.922457 91.092026 
L 415.205604 92.417237 
L 416.896544 92.417237 
L 417.179672 91.092026 
L 418.024199 91.092026 
L 418.307403 92.417237 
L 418.590579 91.092026 
L 418.86912 92.417237 
L 422.819597 92.417237 
L 423.102812 93.721414 
L 423.380903 92.417237 
L 424.23033 92.417237 
L 424.513466 93.721414 
L 424.791738 92.417237 
L 425.07495 92.417237 
L 425.358099 93.721414 
L 428.179612 93.721414 
L 428.458433 95.046626 
L 429.585908 95.046626 
L 429.869066 96.350802 
L 430.152204 95.046626 
L 430.713661 95.046626 
L 430.996812 96.350802 
L 431.279855 95.046626 
L 431.56315 95.046626 
L 431.841639 96.350802 
L 432.691192 96.350802 
L 432.969754 97.676014 
L 433.252898 97.676014 
L 433.536029 96.350802 
L 433.819253 96.350802 
L 434.097809 97.676014 
L 436.635878 97.676014 
L 436.919052 96.350802 
L 437.202168 97.676014 
L 441.147675 97.676014 
L 441.430747 98.980191 
L 441.713907 97.676014 
L 442.841588 97.676014 
L 443.124725 98.980191 
L 448.480295 98.980191 
L 448.763497 100.305403 
L 449.046679 98.980191 
L 451.019522 98.980191 
L 451.302735 100.305403 
L 451.585791 98.980191 
L 452.43033 98.980191 
L 452.713459 100.305403 
L 456.096856 100.305403 
L 456.380013 101.609579 
L 456.658306 100.305403 
L 456.941487 101.609579 
L 457.224718 100.305403 
L 457.507726 100.305403 
L 457.790783 101.609579 
L 458.918466 101.609579 
L 458.918466 101.609579 
" style="fill:none;stroke:#000000;stroke-width:1.772454;"/>
   </g>
  </g>
  <g id="text_35">
   <!-- Oct 1, 2019 -->
   <defs>
    <path d="M 39.40625 66.21875 
Q 28.65625 66.21875 22.328125 58.203125 
Q 16.015625 50.203125 16.015625 36.375 
Q 16.015625 22.609375 22.328125 14.59375 
Q 28.65625 6.59375 39.40625 6.59375 
Q 50.140625 6.59375 56.421875 14.59375 
Q 62.703125 22.609375 62.703125 36.375 
Q 62.703125 50.203125 56.421875 58.203125 
Q 50.140625 66.21875 39.40625 66.21875 
z
M 39.40625 74.21875 
Q 54.734375 74.21875 63.90625 63.9375 
Q 73.09375 53.65625 73.09375 36.375 
Q 73.09375 19.140625 63.90625 8.859375 
Q 54.734375 -1.421875 39.40625 -1.421875 
Q 24.03125 -1.421875 14.8125 8.828125 
Q 5.609375 19.09375 5.609375 36.375 
Q 5.609375 53.65625 14.8125 63.9375 
Q 24.03125 74.21875 39.40625 74.21875 
z
" id="DejaVuSans-79"/>
    <path d="M 48.78125 52.59375 
L 48.78125 44.1875 
Q 44.96875 46.296875 41.140625 47.34375 
Q 37.3125 48.390625 33.40625 48.390625 
Q 24.65625 48.390625 19.8125 42.84375 
Q 14.984375 37.3125 14.984375 27.296875 
Q 14.984375 17.28125 19.8125 11.734375 
Q 24.65625 6.203125 33.40625 6.203125 
Q 37.3125 6.203125 41.140625 7.25 
Q 44.96875 8.296875 48.78125 10.40625 
L 48.78125 2.09375 
Q 45.015625 0.34375 40.984375 -0.53125 
Q 36.96875 -1.421875 32.421875 -1.421875 
Q 20.0625 -1.421875 12.78125 6.34375 
Q 5.515625 14.109375 5.515625 27.296875 
Q 5.515625 40.671875 12.859375 48.328125 
Q 20.21875 56 33.015625 56 
Q 37.15625 56 41.109375 55.140625 
Q 45.0625 54.296875 48.78125 52.59375 
z
" id="DejaVuSans-99"/>
    <path d="M 18.3125 70.21875 
L 18.3125 54.6875 
L 36.8125 54.6875 
L 36.8125 47.703125 
L 18.3125 47.703125 
L 18.3125 18.015625 
Q 18.3125 11.328125 20.140625 9.421875 
Q 21.96875 7.515625 27.59375 7.515625 
L 36.8125 7.515625 
L 36.8125 0 
L 27.59375 0 
Q 17.1875 0 13.234375 3.875 
Q 9.28125 7.765625 9.28125 18.015625 
L 9.28125 47.703125 
L 2.6875 47.703125 
L 2.6875 54.6875 
L 9.28125 54.6875 
L 9.28125 70.21875 
z
" id="DejaVuSans-116"/>
    <path id="DejaVuSans-32"/>
    <path d="M 11.71875 12.40625 
L 22.015625 12.40625 
L 22.015625 4 
L 14.015625 -11.625 
L 7.71875 -11.625 
L 11.71875 4 
z
" id="DejaVuSans-44"/>
   </defs>
   <g transform="translate(210.108625 17.229938)scale(0.132 -0.132)">
    <use xlink:href="#DejaVuSans-79"/>
    <use x="78.710938" xlink:href="#DejaVuSans-99"/>
    <use x="133.691406" xlink:href="#DejaVuSans-116"/>
    <use x="172.900391" xlink:href="#DejaVuSans-32"/>
    <use x="204.6875" xlink:href="#DejaVuSans-49"/>
    <use x="268.310547" xlink:href="#DejaVuSans-44"/>
    <use x="300.097656" xlink:href="#DejaVuSans-32"/>
    <use x="331.884766" xlink:href="#DejaVuSans-50"/>
    <use x="395.507812" xlink:href="#DejaVuSans-48"/>
    <use x="459.130859" xlink:href="#DejaVuSans-49"/>
    <use x="522.753906" xlink:href="#DejaVuSans-57"/>
   </g>
  </g>
 </g>
 <defs>
  <clipPath id="p1104d7c8d5">
   <rect height="221.76" width="446.4" x="32.809375" y="26.105371"/>
  </clipPath>
 </defs>
</svg>
