<?xml version="1.0" encoding="utf-8" standalone="no"?>
<!DOCTYPE svg PUBLIC "-//W3C//DTD SVG 1.1//EN"
  "http://www.w3.org/Graphics/SVG/1.1/DTD/svg11.dtd">
<!-- Created with matplotlib (https://matplotlib.org/) -->
<svg height="283.581295pt" version="1.1" viewBox="0 0 486.409375 283.581295" width="486.409375pt" xmlns="http://www.w3.org/2000/svg" xmlns:xlink="http://www.w3.org/1999/xlink">
 <defs>
  <style type="text/css">
*{stroke-linecap:butt;stroke-linejoin:round;}
  </style>
 </defs>
 <g id="figure_1">
  <g id="patch_1">
   <path d="M 0 283.581295 
L 486.409375 283.581295 
L 486.409375 0 
L 0 0 
z
" style="fill:#ffffff;stroke:#ffffff;stroke-linejoin:miter;"/>
  </g>
  <g id="axes_1">
   <g id="patch_2">
    <path d="M 32.809375 247.865371 
L 479.209375 247.865371 
L 479.209375 26.105371 
L 32.809375 26.105371 
z
" style="fill:#ffffff;stroke:#b3b3b3;stroke-linejoin:miter;"/>
   </g>
   <g id="matplotlib.axis_1">
    <g id="xtick_1">
     <g id="line2d_1">
      <path d="M 53.084198 247.865371 
" style="fill:none;stroke:#b3b3b3;stroke-width:1.5;"/>
      <defs>
       <path d="M 0 0 
L 0 2.75 
" id="mbc86d6408f" style="stroke:#b3b3b3;stroke-width:0.5;"/>
      </defs>
      <g>
       <use style="fill:#b3b3b3;stroke:#b3b3b3;stroke-width:0.5;" x="53.084198" xlink:href="#mbc86d6408f" y="247.865371"/>
      </g>
     </g>
     <g id="text_1">
      <!-- 12AM -->
      <defs>
       <path d="M 12.40625 8.296875 
L 28.515625 8.296875 
L 28.515625 63.921875 
L 10.984375 60.40625 
L 10.984375 69.390625 
L 28.421875 72.90625 
L 38.28125 72.90625 
L 38.28125 8.296875 
L 54.390625 8.296875 
L 54.390625 0 
L 12.40625 0 
z
" id="DejaVuSans-49"/>
       <path d="M 19.1875 8.296875 
L 53.609375 8.296875 
L 53.609375 0 
L 7.328125 0 
L 7.328125 8.296875 
Q 12.9375 14.109375 22.625 23.890625 
Q 32.328125 33.6875 34.8125 36.53125 
Q 39.546875 41.84375 41.421875 45.53125 
Q 43.3125 49.21875 43.3125 52.78125 
Q 43.3125 58.59375 39.234375 62.25 
Q 35.15625 65.921875 28.609375 65.921875 
Q 23.96875 65.921875 18.8125 64.3125 
Q 13.671875 62.703125 7.8125 59.421875 
L 7.8125 69.390625 
Q 13.765625 71.78125 18.9375 73 
Q 24.125 74.21875 28.421875 74.21875 
Q 39.75 74.21875 46.484375 68.546875 
Q 53.21875 62.890625 53.21875 53.421875 
Q 53.21875 48.921875 51.53125 44.890625 
Q 49.859375 40.875 45.40625 35.40625 
Q 44.1875 33.984375 37.640625 27.21875 
Q 31.109375 20.453125 19.1875 8.296875 
z
" id="DejaVuSans-50"/>
       <path d="M 34.1875 63.1875 
L 20.796875 26.90625 
L 47.609375 26.90625 
z
M 28.609375 72.90625 
L 39.796875 72.90625 
L 67.578125 0 
L 57.328125 0 
L 50.6875 18.703125 
L 17.828125 18.703125 
L 11.1875 0 
L 0.78125 0 
z
" id="DejaVuSans-65"/>
       <path d="M 9.8125 72.90625 
L 24.515625 72.90625 
L 43.109375 23.296875 
L 61.8125 72.90625 
L 76.515625 72.90625 
L 76.515625 0 
L 66.890625 0 
L 66.890625 64.015625 
L 48.09375 14.015625 
L 38.1875 14.015625 
L 19.390625 64.015625 
L 19.390625 0 
L 9.8125 0 
z
" id="DejaVuSans-77"/>
      </defs>
      <g style="fill:#4d4d4d;" transform="translate(46.029394 275.087201)rotate(-45)scale(0.088 -0.088)">
       <use xlink:href="#DejaVuSans-49"/>
       <use x="63.623047" xlink:href="#DejaVuSans-50"/>
       <use x="127.246094" xlink:href="#DejaVuSans-65"/>
       <use x="195.654297" xlink:href="#DejaVuSans-77"/>
      </g>
     </g>
    </g>
    <g id="xtick_2">
     <g id="line2d_2">
      <path d="M 70.005024 247.865371 
" style="fill:none;stroke:#b3b3b3;stroke-width:1.5;"/>
      <g>
       <use style="fill:#b3b3b3;stroke:#b3b3b3;stroke-width:0.5;" x="70.005024" xlink:href="#mbc86d6408f" y="247.865371"/>
      </g>
     </g>
     <g id="text_2">
      <!-- 01AM -->
      <defs>
       <path d="M 31.78125 66.40625 
Q 24.171875 66.40625 20.328125 58.90625 
Q 16.5 51.421875 16.5 36.375 
Q 16.5 21.390625 20.328125 13.890625 
Q 24.171875 6.390625 31.78125 6.390625 
Q 39.453125 6.390625 43.28125 13.890625 
Q 47.125 21.390625 47.125 36.375 
Q 47.125 51.421875 43.28125 58.90625 
Q 39.453125 66.40625 31.78125 66.40625 
z
M 31.78125 74.21875 
Q 44.046875 74.21875 50.515625 64.515625 
Q 56.984375 54.828125 56.984375 36.375 
Q 56.984375 17.96875 50.515625 8.265625 
Q 44.046875 -1.421875 31.78125 -1.421875 
Q 19.53125 -1.421875 13.0625 8.265625 
Q 6.59375 17.96875 6.59375 36.375 
Q 6.59375 54.828125 13.0625 64.515625 
Q 19.53125 74.21875 31.78125 74.21875 
z
" id="DejaVuSans-48"/>
      </defs>
      <g style="fill:#4d4d4d;" transform="translate(62.95022 275.087201)rotate(-45)scale(0.088 -0.088)">
       <use xlink:href="#DejaVuSans-48"/>
       <use x="63.623047" xlink:href="#DejaVuSans-49"/>
       <use x="127.246094" xlink:href="#DejaVuSans-65"/>
       <use x="195.654297" xlink:href="#DejaVuSans-77"/>
      </g>
     </g>
    </g>
    <g id="xtick_3">
     <g id="line2d_3">
      <path d="M 86.92585 247.865371 
" style="fill:none;stroke:#b3b3b3;stroke-width:1.5;"/>
      <g>
       <use style="fill:#b3b3b3;stroke:#b3b3b3;stroke-width:0.5;" x="86.92585" xlink:href="#mbc86d6408f" y="247.865371"/>
      </g>
     </g>
     <g id="text_3">
      <!-- 02AM -->
      <g style="fill:#4d4d4d;" transform="translate(79.871045 275.087201)rotate(-45)scale(0.088 -0.088)">
       <use xlink:href="#DejaVuSans-48"/>
       <use x="63.623047" xlink:href="#DejaVuSans-50"/>
       <use x="127.246094" xlink:href="#DejaVuSans-65"/>
       <use x="195.654297" xlink:href="#DejaVuSans-77"/>
      </g>
     </g>
    </g>
    <g id="xtick_4">
     <g id="line2d_4">
      <path d="M 103.846676 247.865371 
" style="fill:none;stroke:#b3b3b3;stroke-width:1.5;"/>
      <g>
       <use style="fill:#b3b3b3;stroke:#b3b3b3;stroke-width:0.5;" x="103.846676" xlink:href="#mbc86d6408f" y="247.865371"/>
      </g>
     </g>
     <g id="text_4">
      <!-- 03AM -->
      <defs>
       <path d="M 40.578125 39.3125 
Q 47.65625 37.796875 51.625 33 
Q 55.609375 28.21875 55.609375 21.1875 
Q 55.609375 10.40625 48.1875 4.484375 
Q 40.765625 -1.421875 27.09375 -1.421875 
Q 22.515625 -1.421875 17.65625 -0.515625 
Q 12.796875 0.390625 7.625 2.203125 
L 7.625 11.71875 
Q 11.71875 9.328125 16.59375 8.109375 
Q 21.484375 6.890625 26.8125 6.890625 
Q 36.078125 6.890625 40.9375 10.546875 
Q 45.796875 14.203125 45.796875 21.1875 
Q 45.796875 27.640625 41.28125 31.265625 
Q 36.765625 34.90625 28.71875 34.90625 
L 20.21875 34.90625 
L 20.21875 43.015625 
L 29.109375 43.015625 
Q 36.375 43.015625 40.234375 45.921875 
Q 44.09375 48.828125 44.09375 54.296875 
Q 44.09375 59.90625 40.109375 62.90625 
Q 36.140625 65.921875 28.71875 65.921875 
Q 24.65625 65.921875 20.015625 65.03125 
Q 15.375 64.15625 9.8125 62.3125 
L 9.8125 71.09375 
Q 15.4375 72.65625 20.34375 73.4375 
Q 25.25 74.21875 29.59375 74.21875 
Q 40.828125 74.21875 47.359375 69.109375 
Q 53.90625 64.015625 53.90625 55.328125 
Q 53.90625 49.265625 50.4375 45.09375 
Q 46.96875 40.921875 40.578125 39.3125 
z
" id="DejaVuSans-51"/>
      </defs>
      <g style="fill:#4d4d4d;" transform="translate(96.791871 275.087201)rotate(-45)scale(0.088 -0.088)">
       <use xlink:href="#DejaVuSans-48"/>
       <use x="63.623047" xlink:href="#DejaVuSans-51"/>
       <use x="127.246094" xlink:href="#DejaVuSans-65"/>
       <use x="195.654297" xlink:href="#DejaVuSans-77"/>
      </g>
     </g>
    </g>
    <g id="xtick_5">
     <g id="line2d_5">
      <path d="M 120.767502 247.865371 
" style="fill:none;stroke:#b3b3b3;stroke-width:1.5;"/>
      <g>
       <use style="fill:#b3b3b3;stroke:#b3b3b3;stroke-width:0.5;" x="120.767502" xlink:href="#mbc86d6408f" y="247.865371"/>
      </g>
     </g>
     <g id="text_5">
      <!-- 04AM -->
      <defs>
       <path d="M 37.796875 64.3125 
L 12.890625 25.390625 
L 37.796875 25.390625 
z
M 35.203125 72.90625 
L 47.609375 72.90625 
L 47.609375 25.390625 
L 58.015625 25.390625 
L 58.015625 17.1875 
L 47.609375 17.1875 
L 47.609375 0 
L 37.796875 0 
L 37.796875 17.1875 
L 4.890625 17.1875 
L 4.890625 26.703125 
z
" id="DejaVuSans-52"/>
      </defs>
      <g style="fill:#4d4d4d;" transform="translate(113.712697 275.087201)rotate(-45)scale(0.088 -0.088)">
       <use xlink:href="#DejaVuSans-48"/>
       <use x="63.623047" xlink:href="#DejaVuSans-52"/>
       <use x="127.246094" xlink:href="#DejaVuSans-65"/>
       <use x="195.654297" xlink:href="#DejaVuSans-77"/>
      </g>
     </g>
    </g>
    <g id="xtick_6">
     <g id="line2d_6">
      <path d="M 137.688328 247.865371 
" style="fill:none;stroke:#b3b3b3;stroke-width:1.5;"/>
      <g>
       <use style="fill:#b3b3b3;stroke:#b3b3b3;stroke-width:0.5;" x="137.688328" xlink:href="#mbc86d6408f" y="247.865371"/>
      </g>
     </g>
     <g id="text_6">
      <!-- 05AM -->
      <defs>
       <path d="M 10.796875 72.90625 
L 49.515625 72.90625 
L 49.515625 64.59375 
L 19.828125 64.59375 
L 19.828125 46.734375 
Q 21.96875 47.46875 24.109375 47.828125 
Q 26.265625 48.1875 28.421875 48.1875 
Q 40.625 48.1875 47.75 41.5 
Q 54.890625 34.8125 54.890625 23.390625 
Q 54.890625 11.625 47.5625 5.09375 
Q 40.234375 -1.421875 26.90625 -1.421875 
Q 22.3125 -1.421875 17.546875 -0.640625 
Q 12.796875 0.140625 7.71875 1.703125 
L 7.71875 11.625 
Q 12.109375 9.234375 16.796875 8.0625 
Q 21.484375 6.890625 26.703125 6.890625 
Q 35.15625 6.890625 40.078125 11.328125 
Q 45.015625 15.765625 45.015625 23.390625 
Q 45.015625 31 40.078125 35.4375 
Q 35.15625 39.890625 26.703125 39.890625 
Q 22.75 39.890625 18.8125 39.015625 
Q 14.890625 38.140625 10.796875 36.28125 
z
" id="DejaVuSans-53"/>
      </defs>
      <g style="fill:#4d4d4d;" transform="translate(130.633523 275.087201)rotate(-45)scale(0.088 -0.088)">
       <use xlink:href="#DejaVuSans-48"/>
       <use x="63.623047" xlink:href="#DejaVuSans-53"/>
       <use x="127.246094" xlink:href="#DejaVuSans-65"/>
       <use x="195.654297" xlink:href="#DejaVuSans-77"/>
      </g>
     </g>
    </g>
    <g id="xtick_7">
     <g id="line2d_7">
      <path d="M 154.609153 247.865371 
" style="fill:none;stroke:#b3b3b3;stroke-width:1.5;"/>
      <g>
       <use style="fill:#b3b3b3;stroke:#b3b3b3;stroke-width:0.5;" x="154.609153" xlink:href="#mbc86d6408f" y="247.865371"/>
      </g>
     </g>
     <g id="text_7">
      <!-- 06AM -->
      <defs>
       <path d="M 33.015625 40.375 
Q 26.375 40.375 22.484375 35.828125 
Q 18.609375 31.296875 18.609375 23.390625 
Q 18.609375 15.53125 22.484375 10.953125 
Q 26.375 6.390625 33.015625 6.390625 
Q 39.65625 6.390625 43.53125 10.953125 
Q 47.40625 15.53125 47.40625 23.390625 
Q 47.40625 31.296875 43.53125 35.828125 
Q 39.65625 40.375 33.015625 40.375 
z
M 52.59375 71.296875 
L 52.59375 62.3125 
Q 48.875 64.0625 45.09375 64.984375 
Q 41.3125 65.921875 37.59375 65.921875 
Q 27.828125 65.921875 22.671875 59.328125 
Q 17.53125 52.734375 16.796875 39.40625 
Q 19.671875 43.65625 24.015625 45.921875 
Q 28.375 48.1875 33.59375 48.1875 
Q 44.578125 48.1875 50.953125 41.515625 
Q 57.328125 34.859375 57.328125 23.390625 
Q 57.328125 12.15625 50.6875 5.359375 
Q 44.046875 -1.421875 33.015625 -1.421875 
Q 20.359375 -1.421875 13.671875 8.265625 
Q 6.984375 17.96875 6.984375 36.375 
Q 6.984375 53.65625 15.1875 63.9375 
Q 23.390625 74.21875 37.203125 74.21875 
Q 40.921875 74.21875 44.703125 73.484375 
Q 48.484375 72.75 52.59375 71.296875 
z
" id="DejaVuSans-54"/>
      </defs>
      <g style="fill:#4d4d4d;" transform="translate(147.554349 275.087201)rotate(-45)scale(0.088 -0.088)">
       <use xlink:href="#DejaVuSans-48"/>
       <use x="63.623047" xlink:href="#DejaVuSans-54"/>
       <use x="127.246094" xlink:href="#DejaVuSans-65"/>
       <use x="195.654297" xlink:href="#DejaVuSans-77"/>
      </g>
     </g>
    </g>
    <g id="xtick_8">
     <g id="line2d_8">
      <path d="M 171.529979 247.865371 
" style="fill:none;stroke:#b3b3b3;stroke-width:1.5;"/>
      <g>
       <use style="fill:#b3b3b3;stroke:#b3b3b3;stroke-width:0.5;" x="171.529979" xlink:href="#mbc86d6408f" y="247.865371"/>
      </g>
     </g>
     <g id="text_8">
      <!-- 07AM -->
      <defs>
       <path d="M 8.203125 72.90625 
L 55.078125 72.90625 
L 55.078125 68.703125 
L 28.609375 0 
L 18.3125 0 
L 43.21875 64.59375 
L 8.203125 64.59375 
z
" id="DejaVuSans-55"/>
      </defs>
      <g style="fill:#4d4d4d;" transform="translate(164.475175 275.087201)rotate(-45)scale(0.088 -0.088)">
       <use xlink:href="#DejaVuSans-48"/>
       <use x="63.623047" xlink:href="#DejaVuSans-55"/>
       <use x="127.246094" xlink:href="#DejaVuSans-65"/>
       <use x="195.654297" xlink:href="#DejaVuSans-77"/>
      </g>
     </g>
    </g>
    <g id="xtick_9">
     <g id="line2d_9">
      <path d="M 188.450805 247.865371 
" style="fill:none;stroke:#b3b3b3;stroke-width:1.5;"/>
      <g>
       <use style="fill:#b3b3b3;stroke:#b3b3b3;stroke-width:0.5;" x="188.450805" xlink:href="#mbc86d6408f" y="247.865371"/>
      </g>
     </g>
     <g id="text_9">
      <!-- 08AM -->
      <defs>
       <path d="M 31.78125 34.625 
Q 24.75 34.625 20.71875 30.859375 
Q 16.703125 27.09375 16.703125 20.515625 
Q 16.703125 13.921875 20.71875 10.15625 
Q 24.75 6.390625 31.78125 6.390625 
Q 38.8125 6.390625 42.859375 10.171875 
Q 46.921875 13.96875 46.921875 20.515625 
Q 46.921875 27.09375 42.890625 30.859375 
Q 38.875 34.625 31.78125 34.625 
z
M 21.921875 38.8125 
Q 15.578125 40.375 12.03125 44.71875 
Q 8.5 49.078125 8.5 55.328125 
Q 8.5 64.0625 14.71875 69.140625 
Q 20.953125 74.21875 31.78125 74.21875 
Q 42.671875 74.21875 48.875 69.140625 
Q 55.078125 64.0625 55.078125 55.328125 
Q 55.078125 49.078125 51.53125 44.71875 
Q 48 40.375 41.703125 38.8125 
Q 48.828125 37.15625 52.796875 32.3125 
Q 56.78125 27.484375 56.78125 20.515625 
Q 56.78125 9.90625 50.3125 4.234375 
Q 43.84375 -1.421875 31.78125 -1.421875 
Q 19.734375 -1.421875 13.25 4.234375 
Q 6.78125 9.90625 6.78125 20.515625 
Q 6.78125 27.484375 10.78125 32.3125 
Q 14.796875 37.15625 21.921875 38.8125 
z
M 18.3125 54.390625 
Q 18.3125 48.734375 21.84375 45.5625 
Q 25.390625 42.390625 31.78125 42.390625 
Q 38.140625 42.390625 41.71875 45.5625 
Q 45.3125 48.734375 45.3125 54.390625 
Q 45.3125 60.0625 41.71875 63.234375 
Q 38.140625 66.40625 31.78125 66.40625 
Q 25.390625 66.40625 21.84375 63.234375 
Q 18.3125 60.0625 18.3125 54.390625 
z
" id="DejaVuSans-56"/>
      </defs>
      <g style="fill:#4d4d4d;" transform="translate(181.396001 275.087201)rotate(-45)scale(0.088 -0.088)">
       <use xlink:href="#DejaVuSans-48"/>
       <use x="63.623047" xlink:href="#DejaVuSans-56"/>
       <use x="127.246094" xlink:href="#DejaVuSans-65"/>
       <use x="195.654297" xlink:href="#DejaVuSans-77"/>
      </g>
     </g>
    </g>
    <g id="xtick_10">
     <g id="line2d_10">
      <path d="M 205.371631 247.865371 
" style="fill:none;stroke:#b3b3b3;stroke-width:1.5;"/>
      <g>
       <use style="fill:#b3b3b3;stroke:#b3b3b3;stroke-width:0.5;" x="205.371631" xlink:href="#mbc86d6408f" y="247.865371"/>
      </g>
     </g>
     <g id="text_10">
      <!-- 09AM -->
      <defs>
       <path d="M 10.984375 1.515625 
L 10.984375 10.5 
Q 14.703125 8.734375 18.5 7.8125 
Q 22.3125 6.890625 25.984375 6.890625 
Q 35.75 6.890625 40.890625 13.453125 
Q 46.046875 20.015625 46.78125 33.40625 
Q 43.953125 29.203125 39.59375 26.953125 
Q 35.25 24.703125 29.984375 24.703125 
Q 19.046875 24.703125 12.671875 31.3125 
Q 6.296875 37.9375 6.296875 49.421875 
Q 6.296875 60.640625 12.9375 67.421875 
Q 19.578125 74.21875 30.609375 74.21875 
Q 43.265625 74.21875 49.921875 64.515625 
Q 56.59375 54.828125 56.59375 36.375 
Q 56.59375 19.140625 48.40625 8.859375 
Q 40.234375 -1.421875 26.421875 -1.421875 
Q 22.703125 -1.421875 18.890625 -0.6875 
Q 15.09375 0.046875 10.984375 1.515625 
z
M 30.609375 32.421875 
Q 37.25 32.421875 41.125 36.953125 
Q 45.015625 41.5 45.015625 49.421875 
Q 45.015625 57.28125 41.125 61.84375 
Q 37.25 66.40625 30.609375 66.40625 
Q 23.96875 66.40625 20.09375 61.84375 
Q 16.21875 57.28125 16.21875 49.421875 
Q 16.21875 41.5 20.09375 36.953125 
Q 23.96875 32.421875 30.609375 32.421875 
z
" id="DejaVuSans-57"/>
      </defs>
      <g style="fill:#4d4d4d;" transform="translate(198.316827 275.087201)rotate(-45)scale(0.088 -0.088)">
       <use xlink:href="#DejaVuSans-48"/>
       <use x="63.623047" xlink:href="#DejaVuSans-57"/>
       <use x="127.246094" xlink:href="#DejaVuSans-65"/>
       <use x="195.654297" xlink:href="#DejaVuSans-77"/>
      </g>
     </g>
    </g>
    <g id="xtick_11">
     <g id="line2d_11">
      <path d="M 222.292457 247.865371 
" style="fill:none;stroke:#b3b3b3;stroke-width:1.5;"/>
      <g>
       <use style="fill:#b3b3b3;stroke:#b3b3b3;stroke-width:0.5;" x="222.292457" xlink:href="#mbc86d6408f" y="247.865371"/>
      </g>
     </g>
     <g id="text_11">
      <!-- 10AM -->
      <g style="fill:#4d4d4d;" transform="translate(215.237653 275.087201)rotate(-45)scale(0.088 -0.088)">
       <use xlink:href="#DejaVuSans-49"/>
       <use x="63.623047" xlink:href="#DejaVuSans-48"/>
       <use x="127.246094" xlink:href="#DejaVuSans-65"/>
       <use x="195.654297" xlink:href="#DejaVuSans-77"/>
      </g>
     </g>
    </g>
    <g id="xtick_12">
     <g id="line2d_12">
      <path d="M 239.213283 247.865371 
" style="fill:none;stroke:#b3b3b3;stroke-width:1.5;"/>
      <g>
       <use style="fill:#b3b3b3;stroke:#b3b3b3;stroke-width:0.5;" x="239.213283" xlink:href="#mbc86d6408f" y="247.865371"/>
      </g>
     </g>
     <g id="text_12">
      <!-- 11AM -->
      <g style="fill:#4d4d4d;" transform="translate(232.158479 275.087201)rotate(-45)scale(0.088 -0.088)">
       <use xlink:href="#DejaVuSans-49"/>
       <use x="63.623047" xlink:href="#DejaVuSans-49"/>
       <use x="127.246094" xlink:href="#DejaVuSans-65"/>
       <use x="195.654297" xlink:href="#DejaVuSans-77"/>
      </g>
     </g>
    </g>
    <g id="xtick_13">
     <g id="line2d_13">
      <path d="M 256.134109 247.865371 
" style="fill:none;stroke:#b3b3b3;stroke-width:1.5;"/>
      <g>
       <use style="fill:#b3b3b3;stroke:#b3b3b3;stroke-width:0.5;" x="256.134109" xlink:href="#mbc86d6408f" y="247.865371"/>
      </g>
     </g>
     <g id="text_13">
      <!-- 12PM -->
      <defs>
       <path d="M 19.671875 64.796875 
L 19.671875 37.40625 
L 32.078125 37.40625 
Q 38.96875 37.40625 42.71875 40.96875 
Q 46.484375 44.53125 46.484375 51.125 
Q 46.484375 57.671875 42.71875 61.234375 
Q 38.96875 64.796875 32.078125 64.796875 
z
M 9.8125 72.90625 
L 32.078125 72.90625 
Q 44.34375 72.90625 50.609375 67.359375 
Q 56.890625 61.8125 56.890625 51.125 
Q 56.890625 40.328125 50.609375 34.8125 
Q 44.34375 29.296875 32.078125 29.296875 
L 19.671875 29.296875 
L 19.671875 0 
L 9.8125 0 
z
" id="DejaVuSans-80"/>
      </defs>
      <g style="fill:#4d4d4d;" transform="translate(249.331609 274.582592)rotate(-45)scale(0.088 -0.088)">
       <use xlink:href="#DejaVuSans-49"/>
       <use x="63.623047" xlink:href="#DejaVuSans-50"/>
       <use x="127.246094" xlink:href="#DejaVuSans-80"/>
       <use x="187.548828" xlink:href="#DejaVuSans-77"/>
      </g>
     </g>
    </g>
    <g id="xtick_14">
     <g id="line2d_14">
      <path d="M 273.054935 247.865371 
" style="fill:none;stroke:#b3b3b3;stroke-width:1.5;"/>
      <g>
       <use style="fill:#b3b3b3;stroke:#b3b3b3;stroke-width:0.5;" x="273.054935" xlink:href="#mbc86d6408f" y="247.865371"/>
      </g>
     </g>
     <g id="text_14">
      <!-- 01PM -->
      <g style="fill:#4d4d4d;" transform="translate(266.252435 274.582592)rotate(-45)scale(0.088 -0.088)">
       <use xlink:href="#DejaVuSans-48"/>
       <use x="63.623047" xlink:href="#DejaVuSans-49"/>
       <use x="127.246094" xlink:href="#DejaVuSans-80"/>
       <use x="187.548828" xlink:href="#DejaVuSans-77"/>
      </g>
     </g>
    </g>
    <g id="xtick_15">
     <g id="line2d_15">
      <path d="M 289.975761 247.865371 
" style="fill:none;stroke:#b3b3b3;stroke-width:1.5;"/>
      <g>
       <use style="fill:#b3b3b3;stroke:#b3b3b3;stroke-width:0.5;" x="289.975761" xlink:href="#mbc86d6408f" y="247.865371"/>
      </g>
     </g>
     <g id="text_15">
      <!-- 02PM -->
      <g style="fill:#4d4d4d;" transform="translate(283.173261 274.582592)rotate(-45)scale(0.088 -0.088)">
       <use xlink:href="#DejaVuSans-48"/>
       <use x="63.623047" xlink:href="#DejaVuSans-50"/>
       <use x="127.246094" xlink:href="#DejaVuSans-80"/>
       <use x="187.548828" xlink:href="#DejaVuSans-77"/>
      </g>
     </g>
    </g>
    <g id="xtick_16">
     <g id="line2d_16">
      <path d="M 306.896586 247.865371 
" style="fill:none;stroke:#b3b3b3;stroke-width:1.5;"/>
      <g>
       <use style="fill:#b3b3b3;stroke:#b3b3b3;stroke-width:0.5;" x="306.896586" xlink:href="#mbc86d6408f" y="247.865371"/>
      </g>
     </g>
     <g id="text_16">
      <!-- 03PM -->
      <g style="fill:#4d4d4d;" transform="translate(300.094087 274.582592)rotate(-45)scale(0.088 -0.088)">
       <use xlink:href="#DejaVuSans-48"/>
       <use x="63.623047" xlink:href="#DejaVuSans-51"/>
       <use x="127.246094" xlink:href="#DejaVuSans-80"/>
       <use x="187.548828" xlink:href="#DejaVuSans-77"/>
      </g>
     </g>
    </g>
    <g id="xtick_17">
     <g id="line2d_17">
      <path d="M 323.817412 247.865371 
" style="fill:none;stroke:#b3b3b3;stroke-width:1.5;"/>
      <g>
       <use style="fill:#b3b3b3;stroke:#b3b3b3;stroke-width:0.5;" x="323.817412" xlink:href="#mbc86d6408f" y="247.865371"/>
      </g>
     </g>
     <g id="text_17">
      <!-- 04PM -->
      <g style="fill:#4d4d4d;" transform="translate(317.014912 274.582592)rotate(-45)scale(0.088 -0.088)">
       <use xlink:href="#DejaVuSans-48"/>
       <use x="63.623047" xlink:href="#DejaVuSans-52"/>
       <use x="127.246094" xlink:href="#DejaVuSans-80"/>
       <use x="187.548828" xlink:href="#DejaVuSans-77"/>
      </g>
     </g>
    </g>
    <g id="xtick_18">
     <g id="line2d_18">
      <path d="M 340.738238 247.865371 
" style="fill:none;stroke:#b3b3b3;stroke-width:1.5;"/>
      <g>
       <use style="fill:#b3b3b3;stroke:#b3b3b3;stroke-width:0.5;" x="340.738238" xlink:href="#mbc86d6408f" y="247.865371"/>
      </g>
     </g>
     <g id="text_18">
      <!-- 05PM -->
      <g style="fill:#4d4d4d;" transform="translate(333.935738 274.582592)rotate(-45)scale(0.088 -0.088)">
       <use xlink:href="#DejaVuSans-48"/>
       <use x="63.623047" xlink:href="#DejaVuSans-53"/>
       <use x="127.246094" xlink:href="#DejaVuSans-80"/>
       <use x="187.548828" xlink:href="#DejaVuSans-77"/>
      </g>
     </g>
    </g>
    <g id="xtick_19">
     <g id="line2d_19">
      <path d="M 357.659064 247.865371 
" style="fill:none;stroke:#b3b3b3;stroke-width:1.5;"/>
      <g>
       <use style="fill:#b3b3b3;stroke:#b3b3b3;stroke-width:0.5;" x="357.659064" xlink:href="#mbc86d6408f" y="247.865371"/>
      </g>
     </g>
     <g id="text_19">
      <!-- 06PM -->
      <g style="fill:#4d4d4d;" transform="translate(350.856564 274.582592)rotate(-45)scale(0.088 -0.088)">
       <use xlink:href="#DejaVuSans-48"/>
       <use x="63.623047" xlink:href="#DejaVuSans-54"/>
       <use x="127.246094" xlink:href="#DejaVuSans-80"/>
       <use x="187.548828" xlink:href="#DejaVuSans-77"/>
      </g>
     </g>
    </g>
    <g id="xtick_20">
     <g id="line2d_20">
      <path d="M 374.57989 247.865371 
" style="fill:none;stroke:#b3b3b3;stroke-width:1.5;"/>
      <g>
       <use style="fill:#b3b3b3;stroke:#b3b3b3;stroke-width:0.5;" x="374.57989" xlink:href="#mbc86d6408f" y="247.865371"/>
      </g>
     </g>
     <g id="text_20">
      <!-- 07PM -->
      <g style="fill:#4d4d4d;" transform="translate(367.77739 274.582592)rotate(-45)scale(0.088 -0.088)">
       <use xlink:href="#DejaVuSans-48"/>
       <use x="63.623047" xlink:href="#DejaVuSans-55"/>
       <use x="127.246094" xlink:href="#DejaVuSans-80"/>
       <use x="187.548828" xlink:href="#DejaVuSans-77"/>
      </g>
     </g>
    </g>
    <g id="xtick_21">
     <g id="line2d_21">
      <path d="M 391.500716 247.865371 
" style="fill:none;stroke:#b3b3b3;stroke-width:1.5;"/>
      <g>
       <use style="fill:#b3b3b3;stroke:#b3b3b3;stroke-width:0.5;" x="391.500716" xlink:href="#mbc86d6408f" y="247.865371"/>
      </g>
     </g>
     <g id="text_21">
      <!-- 08PM -->
      <g style="fill:#4d4d4d;" transform="translate(384.698216 274.582592)rotate(-45)scale(0.088 -0.088)">
       <use xlink:href="#DejaVuSans-48"/>
       <use x="63.623047" xlink:href="#DejaVuSans-56"/>
       <use x="127.246094" xlink:href="#DejaVuSans-80"/>
       <use x="187.548828" xlink:href="#DejaVuSans-77"/>
      </g>
     </g>
    </g>
    <g id="xtick_22">
     <g id="line2d_22">
      <path d="M 408.421542 247.865371 
" style="fill:none;stroke:#b3b3b3;stroke-width:1.5;"/>
      <g>
       <use style="fill:#b3b3b3;stroke:#b3b3b3;stroke-width:0.5;" x="408.421542" xlink:href="#mbc86d6408f" y="247.865371"/>
      </g>
     </g>
     <g id="text_22">
      <!-- 09PM -->
      <g style="fill:#4d4d4d;" transform="translate(401.619042 274.582592)rotate(-45)scale(0.088 -0.088)">
       <use xlink:href="#DejaVuSans-48"/>
       <use x="63.623047" xlink:href="#DejaVuSans-57"/>
       <use x="127.246094" xlink:href="#DejaVuSans-80"/>
       <use x="187.548828" xlink:href="#DejaVuSans-77"/>
      </g>
     </g>
    </g>
    <g id="xtick_23">
     <g id="line2d_23">
      <path d="M 425.342368 247.865371 
" style="fill:none;stroke:#b3b3b3;stroke-width:1.5;"/>
      <g>
       <use style="fill:#b3b3b3;stroke:#b3b3b3;stroke-width:0.5;" x="425.342368" xlink:href="#mbc86d6408f" y="247.865371"/>
      </g>
     </g>
     <g id="text_23">
      <!-- 10PM -->
      <g style="fill:#4d4d4d;" transform="translate(418.539868 274.582592)rotate(-45)scale(0.088 -0.088)">
       <use xlink:href="#DejaVuSans-49"/>
       <use x="63.623047" xlink:href="#DejaVuSans-48"/>
       <use x="127.246094" xlink:href="#DejaVuSans-80"/>
       <use x="187.548828" xlink:href="#DejaVuSans-77"/>
      </g>
     </g>
    </g>
    <g id="xtick_24">
     <g id="line2d_24">
      <path d="M 442.263193 247.865371 
" style="fill:none;stroke:#b3b3b3;stroke-width:1.5;"/>
      <g>
       <use style="fill:#b3b3b3;stroke:#b3b3b3;stroke-width:0.5;" x="442.263193" xlink:href="#mbc86d6408f" y="247.865371"/>
      </g>
     </g>
     <g id="text_24">
      <!-- 11PM -->
      <g style="fill:#4d4d4d;" transform="translate(435.460694 274.582592)rotate(-45)scale(0.088 -0.088)">
       <use xlink:href="#DejaVuSans-49"/>
       <use x="63.623047" xlink:href="#DejaVuSans-49"/>
       <use x="127.246094" xlink:href="#DejaVuSans-80"/>
       <use x="187.548828" xlink:href="#DejaVuSans-77"/>
      </g>
     </g>
    </g>
    <g id="xtick_25">
     <g id="line2d_25">
      <path d="M 459.184019 247.865371 
" style="fill:none;stroke:#b3b3b3;stroke-width:1.5;"/>
      <g>
       <use style="fill:#b3b3b3;stroke:#b3b3b3;stroke-width:0.5;" x="459.184019" xlink:href="#mbc86d6408f" y="247.865371"/>
      </g>
     </g>
     <g id="text_25">
      <!-- 12AM -->
      <g style="fill:#4d4d4d;" transform="translate(452.129215 275.087201)rotate(-45)scale(0.088 -0.088)">
       <use xlink:href="#DejaVuSans-49"/>
       <use x="63.623047" xlink:href="#DejaVuSans-50"/>
       <use x="127.246094" xlink:href="#DejaVuSans-65"/>
       <use x="195.654297" xlink:href="#DejaVuSans-77"/>
      </g>
     </g>
    </g>
    <g id="xtick_26">
     <g id="line2d_26">
      <path d="M 61.544611 247.865371 
" style="fill:none;stroke:#b3b3b3;stroke-width:1.5;"/>
      <defs>
       <path d="M 0 0 
L 0 1.375 
" id="m0cbfdbd3de" style="stroke:#b3b3b3;stroke-width:0.5;"/>
      </defs>
      <g>
       <use style="fill:#b3b3b3;stroke:#b3b3b3;stroke-width:0.5;" x="61.544611" xlink:href="#m0cbfdbd3de" y="247.865371"/>
      </g>
     </g>
    </g>
    <g id="xtick_27">
     <g id="line2d_27">
      <path d="M 78.465437 247.865371 
" style="fill:none;stroke:#b3b3b3;stroke-width:1.5;"/>
      <g>
       <use style="fill:#b3b3b3;stroke:#b3b3b3;stroke-width:0.5;" x="78.465437" xlink:href="#m0cbfdbd3de" y="247.865371"/>
      </g>
     </g>
    </g>
    <g id="xtick_28">
     <g id="line2d_28">
      <path d="M 95.386263 247.865371 
" style="fill:none;stroke:#b3b3b3;stroke-width:1.5;"/>
      <g>
       <use style="fill:#b3b3b3;stroke:#b3b3b3;stroke-width:0.5;" x="95.386263" xlink:href="#m0cbfdbd3de" y="247.865371"/>
      </g>
     </g>
    </g>
    <g id="xtick_29">
     <g id="line2d_29">
      <path d="M 112.307089 247.865371 
" style="fill:none;stroke:#b3b3b3;stroke-width:1.5;"/>
      <g>
       <use style="fill:#b3b3b3;stroke:#b3b3b3;stroke-width:0.5;" x="112.307089" xlink:href="#m0cbfdbd3de" y="247.865371"/>
      </g>
     </g>
    </g>
    <g id="xtick_30">
     <g id="line2d_30">
      <path d="M 129.227915 247.865371 
" style="fill:none;stroke:#b3b3b3;stroke-width:1.5;"/>
      <g>
       <use style="fill:#b3b3b3;stroke:#b3b3b3;stroke-width:0.5;" x="129.227915" xlink:href="#m0cbfdbd3de" y="247.865371"/>
      </g>
     </g>
    </g>
    <g id="xtick_31">
     <g id="line2d_31">
      <path d="M 146.14874 247.865371 
" style="fill:none;stroke:#b3b3b3;stroke-width:1.5;"/>
      <g>
       <use style="fill:#b3b3b3;stroke:#b3b3b3;stroke-width:0.5;" x="146.14874" xlink:href="#m0cbfdbd3de" y="247.865371"/>
      </g>
     </g>
    </g>
    <g id="xtick_32">
     <g id="line2d_32">
      <path d="M 163.069566 247.865371 
" style="fill:none;stroke:#b3b3b3;stroke-width:1.5;"/>
      <g>
       <use style="fill:#b3b3b3;stroke:#b3b3b3;stroke-width:0.5;" x="163.069566" xlink:href="#m0cbfdbd3de" y="247.865371"/>
      </g>
     </g>
    </g>
    <g id="xtick_33">
     <g id="line2d_33">
      <path d="M 179.990392 247.865371 
" style="fill:none;stroke:#b3b3b3;stroke-width:1.5;"/>
      <g>
       <use style="fill:#b3b3b3;stroke:#b3b3b3;stroke-width:0.5;" x="179.990392" xlink:href="#m0cbfdbd3de" y="247.865371"/>
      </g>
     </g>
    </g>
    <g id="xtick_34">
     <g id="line2d_34">
      <path d="M 196.911218 247.865371 
" style="fill:none;stroke:#b3b3b3;stroke-width:1.5;"/>
      <g>
       <use style="fill:#b3b3b3;stroke:#b3b3b3;stroke-width:0.5;" x="196.911218" xlink:href="#m0cbfdbd3de" y="247.865371"/>
      </g>
     </g>
    </g>
    <g id="xtick_35">
     <g id="line2d_35">
      <path d="M 213.832044 247.865371 
" style="fill:none;stroke:#b3b3b3;stroke-width:1.5;"/>
      <g>
       <use style="fill:#b3b3b3;stroke:#b3b3b3;stroke-width:0.5;" x="213.832044" xlink:href="#m0cbfdbd3de" y="247.865371"/>
      </g>
     </g>
    </g>
    <g id="xtick_36">
     <g id="line2d_36">
      <path d="M 230.75287 247.865371 
" style="fill:none;stroke:#b3b3b3;stroke-width:1.5;"/>
      <g>
       <use style="fill:#b3b3b3;stroke:#b3b3b3;stroke-width:0.5;" x="230.75287" xlink:href="#m0cbfdbd3de" y="247.865371"/>
      </g>
     </g>
    </g>
    <g id="xtick_37">
     <g id="line2d_37">
      <path d="M 247.673696 247.865371 
" style="fill:none;stroke:#b3b3b3;stroke-width:1.5;"/>
      <g>
       <use style="fill:#b3b3b3;stroke:#b3b3b3;stroke-width:0.5;" x="247.673696" xlink:href="#m0cbfdbd3de" y="247.865371"/>
      </g>
     </g>
    </g>
    <g id="xtick_38">
     <g id="line2d_38">
      <path d="M 264.594522 247.865371 
" style="fill:none;stroke:#b3b3b3;stroke-width:1.5;"/>
      <g>
       <use style="fill:#b3b3b3;stroke:#b3b3b3;stroke-width:0.5;" x="264.594522" xlink:href="#m0cbfdbd3de" y="247.865371"/>
      </g>
     </g>
    </g>
    <g id="xtick_39">
     <g id="line2d_39">
      <path d="M 281.515348 247.865371 
" style="fill:none;stroke:#b3b3b3;stroke-width:1.5;"/>
      <g>
       <use style="fill:#b3b3b3;stroke:#b3b3b3;stroke-width:0.5;" x="281.515348" xlink:href="#m0cbfdbd3de" y="247.865371"/>
      </g>
     </g>
    </g>
    <g id="xtick_40">
     <g id="line2d_40">
      <path d="M 298.436173 247.865371 
" style="fill:none;stroke:#b3b3b3;stroke-width:1.5;"/>
      <g>
       <use style="fill:#b3b3b3;stroke:#b3b3b3;stroke-width:0.5;" x="298.436173" xlink:href="#m0cbfdbd3de" y="247.865371"/>
      </g>
     </g>
    </g>
    <g id="xtick_41">
     <g id="line2d_41">
      <path d="M 315.356999 247.865371 
" style="fill:none;stroke:#b3b3b3;stroke-width:1.5;"/>
      <g>
       <use style="fill:#b3b3b3;stroke:#b3b3b3;stroke-width:0.5;" x="315.356999" xlink:href="#m0cbfdbd3de" y="247.865371"/>
      </g>
     </g>
    </g>
    <g id="xtick_42">
     <g id="line2d_42">
      <path d="M 332.277825 247.865371 
" style="fill:none;stroke:#b3b3b3;stroke-width:1.5;"/>
      <g>
       <use style="fill:#b3b3b3;stroke:#b3b3b3;stroke-width:0.5;" x="332.277825" xlink:href="#m0cbfdbd3de" y="247.865371"/>
      </g>
     </g>
    </g>
    <g id="xtick_43">
     <g id="line2d_43">
      <path d="M 349.198651 247.865371 
" style="fill:none;stroke:#b3b3b3;stroke-width:1.5;"/>
      <g>
       <use style="fill:#b3b3b3;stroke:#b3b3b3;stroke-width:0.5;" x="349.198651" xlink:href="#m0cbfdbd3de" y="247.865371"/>
      </g>
     </g>
    </g>
    <g id="xtick_44">
     <g id="line2d_44">
      <path d="M 366.119477 247.865371 
" style="fill:none;stroke:#b3b3b3;stroke-width:1.5;"/>
      <g>
       <use style="fill:#b3b3b3;stroke:#b3b3b3;stroke-width:0.5;" x="366.119477" xlink:href="#m0cbfdbd3de" y="247.865371"/>
      </g>
     </g>
    </g>
    <g id="xtick_45">
     <g id="line2d_45">
      <path d="M 383.040303 247.865371 
" style="fill:none;stroke:#b3b3b3;stroke-width:1.5;"/>
      <g>
       <use style="fill:#b3b3b3;stroke:#b3b3b3;stroke-width:0.5;" x="383.040303" xlink:href="#m0cbfdbd3de" y="247.865371"/>
      </g>
     </g>
    </g>
    <g id="xtick_46">
     <g id="line2d_46">
      <path d="M 399.961129 247.865371 
" style="fill:none;stroke:#b3b3b3;stroke-width:1.5;"/>
      <g>
       <use style="fill:#b3b3b3;stroke:#b3b3b3;stroke-width:0.5;" x="399.961129" xlink:href="#m0cbfdbd3de" y="247.865371"/>
      </g>
     </g>
    </g>
    <g id="xtick_47">
     <g id="line2d_47">
      <path d="M 416.881955 247.865371 
" style="fill:none;stroke:#b3b3b3;stroke-width:1.5;"/>
      <g>
       <use style="fill:#b3b3b3;stroke:#b3b3b3;stroke-width:0.5;" x="416.881955" xlink:href="#m0cbfdbd3de" y="247.865371"/>
      </g>
     </g>
    </g>
    <g id="xtick_48">
     <g id="line2d_48">
      <path d="M 433.802781 247.865371 
" style="fill:none;stroke:#b3b3b3;stroke-width:1.5;"/>
      <g>
       <use style="fill:#b3b3b3;stroke:#b3b3b3;stroke-width:0.5;" x="433.802781" xlink:href="#m0cbfdbd3de" y="247.865371"/>
      </g>
     </g>
    </g>
    <g id="xtick_49">
     <g id="line2d_49">
      <path d="M 450.723606 247.865371 
" style="fill:none;stroke:#b3b3b3;stroke-width:1.5;"/>
      <g>
       <use style="fill:#b3b3b3;stroke:#b3b3b3;stroke-width:0.5;" x="450.723606" xlink:href="#m0cbfdbd3de" y="247.865371"/>
      </g>
     </g>
    </g>
   </g>
   <g id="matplotlib.axis_2">
    <g id="ytick_1">
     <g id="line2d_50">
      <path clip-path="url(#p00856a8db0)" d="M 32.809375 214.335196 
L 479.209375 214.335196 
" style="fill:none;stroke:#d9d9d9;stroke-width:0.5;"/>
     </g>
     <g id="line2d_51">
      <path d="M 32.809375 214.335196 
" style="fill:none;stroke:#b3b3b3;stroke-width:1.5;"/>
      <defs>
       <path d="M 0 0 
L -2.75 0 
" id="m4e7f55e3fe" style="stroke:#b3b3b3;stroke-width:0.5;"/>
      </defs>
      <g>
       <use style="fill:#b3b3b3;stroke:#b3b3b3;stroke-width:0.5;" x="32.809375" xlink:href="#m4e7f55e3fe" y="214.335196"/>
      </g>
     </g>
     <g id="text_26">
      <!-- 60°F -->
      <defs>
       <path d="M 25 67.921875 
Q 21.09375 67.921875 18.40625 65.203125 
Q 15.71875 62.5 15.71875 58.59375 
Q 15.71875 54.734375 18.40625 52.078125 
Q 21.09375 49.421875 25 49.421875 
Q 28.90625 49.421875 31.59375 52.078125 
Q 34.28125 54.734375 34.28125 58.59375 
Q 34.28125 62.453125 31.5625 65.1875 
Q 28.859375 67.921875 25 67.921875 
z
M 25 74.21875 
Q 28.125 74.21875 31 73.015625 
Q 33.890625 71.828125 35.984375 69.578125 
Q 38.234375 67.390625 39.359375 64.59375 
Q 40.484375 61.8125 40.484375 58.59375 
Q 40.484375 52.15625 35.96875 47.6875 
Q 31.453125 43.21875 24.90625 43.21875 
Q 18.3125 43.21875 13.90625 47.609375 
Q 9.515625 52 9.515625 58.59375 
Q 9.515625 65.140625 14 69.671875 
Q 18.5 74.21875 25 74.21875 
z
" id="DejaVuSans-176"/>
       <path d="M 9.8125 72.90625 
L 51.703125 72.90625 
L 51.703125 64.59375 
L 19.671875 64.59375 
L 19.671875 43.109375 
L 48.578125 43.109375 
L 48.578125 34.8125 
L 19.671875 34.8125 
L 19.671875 0 
L 9.8125 0 
z
" id="DejaVuSans-70"/>
      </defs>
      <g style="fill:#4d4d4d;" transform="translate(7.2 216.763446)scale(0.088 -0.088)">
       <use xlink:href="#DejaVuSans-54"/>
       <use x="63.623047" xlink:href="#DejaVuSans-48"/>
       <use x="127.246094" xlink:href="#DejaVuSans-176"/>
       <use x="177.246094" xlink:href="#DejaVuSans-70"/>
      </g>
     </g>
    </g>
    <g id="ytick_2">
     <g id="line2d_52">
      <path clip-path="url(#p00856a8db0)" d="M 32.809375 170.306818 
L 479.209375 170.306818 
" style="fill:none;stroke:#d9d9d9;stroke-width:0.5;"/>
     </g>
     <g id="line2d_53">
      <path d="M 32.809375 170.306818 
" style="fill:none;stroke:#b3b3b3;stroke-width:1.5;"/>
      <g>
       <use style="fill:#b3b3b3;stroke:#b3b3b3;stroke-width:0.5;" x="32.809375" xlink:href="#m4e7f55e3fe" y="170.306818"/>
      </g>
     </g>
     <g id="text_27">
      <!-- 62°F -->
      <g style="fill:#4d4d4d;" transform="translate(7.2 172.735068)scale(0.088 -0.088)">
       <use xlink:href="#DejaVuSans-54"/>
       <use x="63.623047" xlink:href="#DejaVuSans-50"/>
       <use x="127.246094" xlink:href="#DejaVuSans-176"/>
       <use x="177.246094" xlink:href="#DejaVuSans-70"/>
      </g>
     </g>
    </g>
    <g id="ytick_3">
     <g id="line2d_54">
      <path clip-path="url(#p00856a8db0)" d="M 32.809375 126.27844 
L 479.209375 126.27844 
" style="fill:none;stroke:#d9d9d9;stroke-width:0.5;"/>
     </g>
     <g id="line2d_55">
      <path d="M 32.809375 126.27844 
" style="fill:none;stroke:#b3b3b3;stroke-width:1.5;"/>
      <g>
       <use style="fill:#b3b3b3;stroke:#b3b3b3;stroke-width:0.5;" x="32.809375" xlink:href="#m4e7f55e3fe" y="126.27844"/>
      </g>
     </g>
     <g id="text_28">
      <!-- 64°F -->
      <g style="fill:#4d4d4d;" transform="translate(7.2 128.70669)scale(0.088 -0.088)">
       <use xlink:href="#DejaVuSans-54"/>
       <use x="63.623047" xlink:href="#DejaVuSans-52"/>
       <use x="127.246094" xlink:href="#DejaVuSans-176"/>
       <use x="177.246094" xlink:href="#DejaVuSans-70"/>
      </g>
     </g>
    </g>
    <g id="ytick_4">
     <g id="line2d_56">
      <path clip-path="url(#p00856a8db0)" d="M 32.809375 82.250061 
L 479.209375 82.250061 
" style="fill:none;stroke:#d9d9d9;stroke-width:0.5;"/>
     </g>
     <g id="line2d_57">
      <path d="M 32.809375 82.250061 
" style="fill:none;stroke:#b3b3b3;stroke-width:1.5;"/>
      <g>
       <use style="fill:#b3b3b3;stroke:#b3b3b3;stroke-width:0.5;" x="32.809375" xlink:href="#m4e7f55e3fe" y="82.250061"/>
      </g>
     </g>
     <g id="text_29">
      <!-- 66°F -->
      <g style="fill:#4d4d4d;" transform="translate(7.2 84.678311)scale(0.088 -0.088)">
       <use xlink:href="#DejaVuSans-54"/>
       <use x="63.623047" xlink:href="#DejaVuSans-54"/>
       <use x="127.246094" xlink:href="#DejaVuSans-176"/>
       <use x="177.246094" xlink:href="#DejaVuSans-70"/>
      </g>
     </g>
    </g>
    <g id="ytick_5">
     <g id="line2d_58">
      <path clip-path="url(#p00856a8db0)" d="M 32.809375 38.221683 
L 479.209375 38.221683 
" style="fill:none;stroke:#d9d9d9;stroke-width:0.5;"/>
     </g>
     <g id="line2d_59">
      <path d="M 32.809375 38.221683 
" style="fill:none;stroke:#b3b3b3;stroke-width:1.5;"/>
      <g>
       <use style="fill:#b3b3b3;stroke:#b3b3b3;stroke-width:0.5;" x="32.809375" xlink:href="#m4e7f55e3fe" y="38.221683"/>
      </g>
     </g>
     <g id="text_30">
      <!-- 68°F -->
      <g style="fill:#4d4d4d;" transform="translate(7.2 40.649933)scale(0.088 -0.088)">
       <use xlink:href="#DejaVuSans-54"/>
       <use x="63.623047" xlink:href="#DejaVuSans-56"/>
       <use x="127.246094" xlink:href="#DejaVuSans-176"/>
       <use x="177.246094" xlink:href="#DejaVuSans-70"/>
      </g>
     </g>
    </g>
    <g id="ytick_6">
     <g id="line2d_60">
      <path clip-path="url(#p00856a8db0)" d="M 32.809375 236.349385 
L 479.209375 236.349385 
" style="fill:none;stroke:#ededed;stroke-width:0.25;"/>
     </g>
     <g id="line2d_61">
      <path d="M 32.809375 236.349385 
" style="fill:none;stroke:#b3b3b3;stroke-width:1.5;"/>
      <defs>
       <path d="M 0 0 
L -1.375 0 
" id="m91d8fe4608" style="stroke:#b3b3b3;stroke-width:0.5;"/>
      </defs>
      <g>
       <use style="fill:#b3b3b3;stroke:#b3b3b3;stroke-width:0.5;" x="32.809375" xlink:href="#m91d8fe4608" y="236.349385"/>
      </g>
     </g>
    </g>
    <g id="ytick_7">
     <g id="line2d_62">
      <path clip-path="url(#p00856a8db0)" d="M 32.809375 192.321007 
L 479.209375 192.321007 
" style="fill:none;stroke:#ededed;stroke-width:0.25;"/>
     </g>
     <g id="line2d_63">
      <path d="M 32.809375 192.321007 
" style="fill:none;stroke:#b3b3b3;stroke-width:1.5;"/>
      <g>
       <use style="fill:#b3b3b3;stroke:#b3b3b3;stroke-width:0.5;" x="32.809375" xlink:href="#m91d8fe4608" y="192.321007"/>
      </g>
     </g>
    </g>
    <g id="ytick_8">
     <g id="line2d_64">
      <path clip-path="url(#p00856a8db0)" d="M 32.809375 148.292629 
L 479.209375 148.292629 
" style="fill:none;stroke:#ededed;stroke-width:0.25;"/>
     </g>
     <g id="line2d_65">
      <path d="M 32.809375 148.292629 
" style="fill:none;stroke:#b3b3b3;stroke-width:1.5;"/>
      <g>
       <use style="fill:#b3b3b3;stroke:#b3b3b3;stroke-width:0.5;" x="32.809375" xlink:href="#m91d8fe4608" y="148.292629"/>
      </g>
     </g>
    </g>
    <g id="ytick_9">
     <g id="line2d_66">
      <path clip-path="url(#p00856a8db0)" d="M 32.809375 104.264251 
L 479.209375 104.264251 
" style="fill:none;stroke:#ededed;stroke-width:0.25;"/>
     </g>
     <g id="line2d_67">
      <path d="M 32.809375 104.264251 
" style="fill:none;stroke:#b3b3b3;stroke-width:1.5;"/>
      <g>
       <use style="fill:#b3b3b3;stroke:#b3b3b3;stroke-width:0.5;" x="32.809375" xlink:href="#m91d8fe4608" y="104.264251"/>
      </g>
     </g>
    </g>
    <g id="ytick_10">
     <g id="line2d_68">
      <path clip-path="url(#p00856a8db0)" d="M 32.809375 60.235872 
L 479.209375 60.235872 
" style="fill:none;stroke:#ededed;stroke-width:0.25;"/>
     </g>
     <g id="line2d_69">
      <path d="M 32.809375 60.235872 
" style="fill:none;stroke:#b3b3b3;stroke-width:1.5;"/>
      <g>
       <use style="fill:#b3b3b3;stroke:#b3b3b3;stroke-width:0.5;" x="32.809375" xlink:href="#m91d8fe4608" y="60.235872"/>
      </g>
     </g>
    </g>
   </g>
   <g id="line2d_70">
    <path clip-path="url(#p00856a8db0)" d="M 53.100284 164.547906 
L 55.357144 164.547906 
L 55.640286 167.004689 
L 57.613257 167.004689 
L 57.896399 169.501099 
L 64.665858 169.501099 
L 64.944863 167.004689 
L 65.228005 169.501099 
L 65.511145 167.004689 
L 69.45746 167.004689 
L 69.740599 164.547906 
L 72.280229 164.547906 
L 72.558858 162.051497 
L 72.841998 164.547906 
L 73.12514 164.547906 
L 73.408285 162.051497 
L 73.686911 164.547906 
L 73.970054 164.547906 
L 74.253195 162.051497 
L 74.536338 162.051497 
L 74.814967 164.547906 
L 75.098485 162.051497 
L 77.637737 162.051497 
L 77.920879 159.594713 
L 78.19951 162.051497 
L 78.48265 159.594713 
L 82.149956 159.594713 
L 82.433477 157.098304 
L 82.712103 159.594713 
L 83.840161 159.594713 
L 84.123302 157.098304 
L 84.968216 157.098304 
L 85.251358 159.594713 
L 85.5345 157.098304 
L 88.069238 157.098304 
L 88.352379 159.594713 
L 88.635522 157.098304 
L 90.046717 157.098304 
L 90.325347 159.594713 
L 90.608491 157.098304 
L 90.891631 157.098304 
L 91.174772 159.594713 
L 94.275796 159.594713 
L 94.55894 157.098304 
L 94.837567 159.594713 
L 95.120709 157.098304 
L 95.403854 159.594713 
L 97.659962 159.594713 
L 97.943106 162.051497 
L 98.221733 159.594713 
L 98.504875 159.594713 
L 98.788018 162.051497 
L 102.455326 162.051497 
L 102.733956 164.547906 
L 103.862387 164.547906 
L 104.145529 162.051497 
L 104.428668 164.547906 
L 107.529691 164.547906 
L 107.812834 167.004689 
L 110.631467 167.004689 
L 110.914609 169.501099 
L 111.198127 167.004689 
L 115.144818 167.004689 
L 115.427958 164.547906 
L 117.401302 164.547906 
L 117.684444 162.051497 
L 121.069363 162.051497 
L 121.347989 159.594713 
L 121.631131 159.594713 
L 121.914274 162.051497 
L 122.192904 159.594713 
L 124.449013 159.594713 
L 124.732155 157.098304 
L 127.83318 157.098304 
L 128.11632 154.641521 
L 130.372432 154.641521 
L 130.655572 152.145112 
L 130.938716 152.145112 
L 131.217345 154.641521 
L 131.783626 154.641521 
L 132.066771 152.145112 
L 132.628541 152.145112 
L 132.911683 154.641521 
L 133.194826 152.145112 
L 143.625949 152.145112 
L 143.909091 154.641521 
L 144.192232 152.145112 
L 145.320288 152.145112 
L 145.603429 154.641521 
L 145.882062 152.145112 
L 146.1652 154.641521 
L 147.576776 154.641521 
L 147.859916 152.145112 
L 148.138546 154.641521 
L 151.244457 154.641521 
L 151.523086 157.098304 
L 151.806229 157.098304 
L 152.08937 154.641521 
L 152.372888 157.098304 
L 152.651518 157.098304 
L 152.934659 154.641521 
L 153.217802 157.098304 
L 155.190769 157.098304 
L 155.473912 154.641521 
L 159.4206 154.641521 
L 159.703744 152.145112 
L 163.367101 152.145112 
L 163.650433 149.688328 
L 165.906918 149.688328 
L 166.190058 147.191919 
L 166.473201 149.688328 
L 166.75183 147.191919 
L 167.034972 147.191919 
L 167.318113 149.688328 
L 167.601257 147.191919 
L 169.29146 147.191919 
L 169.5746 144.735136 
L 169.853229 147.191919 
L 170.136371 147.191919 
L 170.419512 144.735136 
L 172.959141 144.735136 
L 173.238147 142.238727 
L 178.033884 142.238727 
L 178.317029 139.781943 
L 178.595658 142.238727 
L 178.878797 139.781943 
L 179.16194 142.238727 
L 180.573136 142.238727 
L 180.851767 139.781943 
L 181.134909 142.238727 
L 189.598329 142.238727 
L 189.876959 144.735136 
L 190.1601 142.238727 
L 191.850303 142.238727 
L 192.133444 144.735136 
L 192.416588 144.735136 
L 192.699731 142.238727 
L 194.956215 142.238727 
L 195.234844 139.781943 
L 197.774472 139.781943 
L 198.057614 137.285534 
L 199.747817 137.285534 
L 200.030961 134.828751 
L 200.3141 137.285534 
L 200.59273 134.828751 
L 202.849217 134.828751 
L 203.13236 132.332342 
L 206.234135 132.332342 
L 206.517274 129.875558 
L 208.207477 129.875558 
L 208.490998 127.379149 
L 211.313389 127.379149 
L 211.592021 124.922366 
L 213.848505 124.922366 
L 214.131646 122.425957 
L 214.414788 124.922366 
L 214.976559 124.922366 
L 215.259701 122.425957 
L 224.568036 122.425957 
L 224.846665 124.922366 
L 225.12981 122.425957 
L 225.41295 122.425957 
L 225.696092 124.922366 
L 226.257865 124.922366 
L 226.541005 122.425957 
L 226.824146 122.425957 
L 227.102776 124.922366 
L 232.18128 124.922366 
L 232.464424 127.379149 
L 232.742678 124.922366 
L 233.025819 124.922366 
L 233.308961 127.379149 
L 235.564693 127.379149 
L 235.847834 129.875558 
L 236.126467 127.379149 
L 237.537661 127.379149 
L 237.820802 129.875558 
L 238.103944 127.379149 
L 238.382574 127.379149 
L 238.665718 129.875558 
L 240.360057 129.875558 
L 240.638684 127.379149 
L 240.921828 127.379149 
L 241.20497 129.875558 
L 241.48811 127.379149 
L 243.744221 127.379149 
L 244.02285 124.922366 
L 246.278959 124.922366 
L 246.562104 122.425957 
L 246.845246 124.922366 
L 247.128387 122.425957 
L 247.407014 124.922366 
L 247.690156 124.922366 
L 247.973298 122.425957 
L 251.074325 122.425957 
L 251.357466 119.969173 
L 252.76866 119.969173 
L 253.04729 117.472764 
L 253.330432 119.969173 
L 253.896716 119.969173 
L 254.175345 117.472764 
L 256.997739 117.472764 
L 257.28088 115.01598 
L 257.55951 117.472764 
L 257.842651 115.01598 
L 262.638015 115.01598 
L 262.921158 112.519571 
L 263.199787 115.01598 
L 263.482929 115.01598 
L 263.76607 112.519571 
L 264.049588 112.519571 
L 264.328217 115.01598 
L 264.612863 115.01598 
L 264.896005 112.519571 
L 265.740918 112.519571 
L 266.024061 115.01598 
L 266.302689 112.519571 
L 267.152115 112.519571 
L 267.430745 115.01598 
L 267.713888 112.519571 
L 268.28017 112.519571 
L 268.558799 115.01598 
L 268.841941 112.519571 
L 270.532144 112.519571 
L 270.815287 115.01598 
L 271.098427 115.01598 
L 271.38157 112.519571 
L 271.943717 112.519571 
L 272.226859 115.01598 
L 272.510375 112.519571 
L 275.612529 112.519571 
L 275.891159 115.01598 
L 276.174299 112.519571 
L 276.457816 115.01598 
L 276.736447 112.519571 
L 277.019589 115.01598 
L 279.276077 115.01598 
L 279.559218 117.472764 
L 279.842548 115.01598 
L 280.12137 115.01598 
L 280.404507 117.472764 
L 280.687649 115.01598 
L 280.97079 117.472764 
L 284.350818 117.472764 
L 284.63396 119.969173 
L 284.917102 117.472764 
L 285.200245 119.969173 
L 286.606929 119.969173 
L 286.890069 122.425957 
L 287.173212 119.969173 
L 287.456354 122.425957 
L 291.119149 122.425957 
L 291.402291 119.969173 
L 291.685433 122.425957 
L 291.968574 122.425957 
L 292.247205 119.969173 
L 292.530345 122.425957 
L 292.813487 119.969173 
L 295.914511 119.969173 
L 296.197653 117.472764 
L 299.015909 117.472764 
L 299.299052 115.01598 
L 299.582193 115.01598 
L 299.865335 117.472764 
L 300.143966 115.01598 
L 300.427106 117.472764 
L 300.710626 115.01598 
L 302.121823 115.01598 
L 302.400451 112.519571 
L 302.683593 115.01598 
L 303.811647 115.01598 
L 304.094791 112.519571 
L 304.37342 115.01598 
L 304.656561 112.519571 
L 304.939704 115.01598 
L 305.222846 112.519571 
L 306.3509 112.519571 
L 306.634041 110.062788 
L 306.912672 112.519571 
L 311.709162 112.519571 
L 311.992304 110.062788 
L 312.270933 112.519571 
L 313.965649 112.519571 
L 314.244278 110.062788 
L 314.52742 112.519571 
L 322.424557 112.519571 
L 322.707698 115.01598 
L 323.26947 115.01598 
L 323.552613 112.519571 
L 323.835754 115.01598 
L 326.937154 115.01598 
L 327.220295 117.472764 
L 327.498926 115.01598 
L 327.782065 117.472764 
L 331.166232 117.472764 
L 331.449374 119.969173 
L 331.732514 117.472764 
L 332.011144 117.472764 
L 332.294287 119.969173 
L 333.139199 119.969173 
L 333.422341 117.472764 
L 333.705859 119.969173 
L 335.395686 119.969173 
L 335.678828 122.425957 
L 335.961969 122.425957 
L 336.245111 119.969173 
L 336.523741 122.425957 
L 338.501598 122.425957 
L 338.780227 124.922366 
L 342.164393 124.922366 
L 342.447534 127.379149 
L 343.013818 127.379149 
L 343.292447 124.922366 
L 343.57559 127.379149 
L 345.548558 127.379149 
L 345.8317 124.922366 
L 346.397983 124.922366 
L 346.676613 127.379149 
L 346.959755 124.922366 
L 351.188833 124.922366 
L 351.471975 122.425957 
L 354.011415 122.425957 
L 354.289856 119.969173 
L 354.572999 119.969173 
L 354.85614 122.425957 
L 355.139282 119.969173 
L 358.240681 119.969173 
L 358.523823 117.472764 
L 358.802453 117.472764 
L 359.085594 119.969173 
L 359.368736 117.472764 
L 361.058938 117.472764 
L 361.342081 115.01598 
L 361.625223 117.472764 
L 361.908365 115.01598 
L 362.186994 117.472764 
L 362.470136 115.01598 
L 365.571534 115.01598 
L 365.854676 112.519571 
L 366.137818 115.01598 
L 366.42096 115.01598 
L 366.69959 112.519571 
L 366.982731 115.01598 
L 367.265874 112.519571 
L 368.110787 112.519571 
L 368.393928 115.01598 
L 368.677071 112.519571 
L 370.933181 112.519571 
L 371.211809 115.01598 
L 371.494952 112.519571 
L 373.185155 112.519571 
L 373.468296 115.01598 
L 373.751439 112.519571 
L 380.520144 112.519571 
L 380.803285 115.01598 
L 381.081915 112.519571 
L 381.365057 112.519571 
L 381.648199 115.01598 
L 386.722942 115.01598 
L 387.006086 117.472764 
L 387.289228 115.01598 
L 387.567855 117.472764 
L 391.235915 117.472764 
L 391.519057 119.969173 
L 393.775168 119.969173 
L 394.058309 122.425957 
L 394.336938 119.969173 
L 394.620081 119.969173 
L 394.903222 122.425957 
L 396.031277 122.425957 
L 396.314419 119.969173 
L 396.59305 122.425957 
L 396.876191 119.969173 
L 399.415443 119.969173 
L 399.698583 117.472764 
L 399.977215 119.969173 
L 400.260355 119.969173 
L 400.543498 117.472764 
L 400.82664 119.969173 
L 401.104893 117.472764 
L 403.644521 117.472764 
L 403.927662 115.01598 
L 404.206293 117.472764 
L 404.489435 117.472764 
L 404.772577 115.01598 
L 405.338861 115.01598 
L 405.61749 117.472764 
L 405.90063 115.01598 
L 407.594593 115.01598 
L 407.873598 112.519571 
L 408.156742 115.01598 
L 408.439883 112.519571 
L 408.723024 115.01598 
L 409.284796 115.01598 
L 409.567938 112.519571 
L 411.824051 112.519571 
L 412.107191 110.062788 
L 416.899167 110.062788 
L 417.182309 107.566379 
L 417.465452 107.566379 
L 417.744081 110.062788 
L 418.027224 107.566379 
L 423.384733 107.566379 
L 423.667873 110.062788 
L 423.951017 107.566379 
L 427.61381 107.566379 
L 427.896953 110.062788 
L 428.180095 107.566379 
L 428.463237 107.566379 
L 428.741865 110.062788 
L 429.025008 107.566379 
L 429.591291 107.566379 
L 429.869921 110.062788 
L 430.153063 107.566379 
L 430.436206 110.062788 
L 431.281118 110.062788 
L 431.564259 107.566379 
L 431.847402 110.062788 
L 432.126032 107.566379 
L 432.409174 110.062788 
L 435.793337 110.062788 
L 436.076479 112.519571 
L 439.744163 112.519571 
L 440.022793 115.01598 
L 440.589453 115.01598 
L 440.872593 112.519571 
L 441.151224 115.01598 
L 441.717508 115.01598 
L 442.001026 112.519571 
L 443.690852 112.519571 
L 443.973994 115.01598 
L 444.252623 112.519571 
L 450.459558 112.519571 
L 450.7427 115.01598 
L 451.02133 115.01598 
L 451.304471 112.519571 
L 451.587613 112.519571 
L 451.870755 115.01598 
L 456.100209 115.01598 
L 456.383728 117.472764 
L 458.918466 117.472764 
L 458.918466 117.472764 
" style="fill:none;stroke:#000000;stroke-width:1.772454;"/>
   </g>
  </g>
  <g id="text_31">
   <!-- Feb 1, 2019 -->
   <defs>
    <path d="M 56.203125 29.59375 
L 56.203125 25.203125 
L 14.890625 25.203125 
Q 15.484375 15.921875 20.484375 11.0625 
Q 25.484375 6.203125 34.421875 6.203125 
Q 39.59375 6.203125 44.453125 7.46875 
Q 49.3125 8.734375 54.109375 11.28125 
L 54.109375 2.78125 
Q 49.265625 0.734375 44.1875 -0.34375 
Q 39.109375 -1.421875 33.890625 -1.421875 
Q 20.796875 -1.421875 13.15625 6.1875 
Q 5.515625 13.8125 5.515625 26.8125 
Q 5.515625 40.234375 12.765625 48.109375 
Q 20.015625 56 32.328125 56 
Q 43.359375 56 49.78125 48.890625 
Q 56.203125 41.796875 56.203125 29.59375 
z
M 47.21875 32.234375 
Q 47.125 39.59375 43.09375 43.984375 
Q 39.0625 48.390625 32.421875 48.390625 
Q 24.90625 48.390625 20.390625 44.140625 
Q 15.875 39.890625 15.1875 32.171875 
z
" id="DejaVuSans-101"/>
    <path d="M 48.6875 27.296875 
Q 48.6875 37.203125 44.609375 42.84375 
Q 40.53125 48.484375 33.40625 48.484375 
Q 26.265625 48.484375 22.1875 42.84375 
Q 18.109375 37.203125 18.109375 27.296875 
Q 18.109375 17.390625 22.1875 11.75 
Q 26.265625 6.109375 33.40625 6.109375 
Q 40.53125 6.109375 44.609375 11.75 
Q 48.6875 17.390625 48.6875 27.296875 
z
M 18.109375 46.390625 
Q 20.953125 51.265625 25.265625 53.625 
Q 29.59375 56 35.59375 56 
Q 45.5625 56 51.78125 48.09375 
Q 58.015625 40.1875 58.015625 27.296875 
Q 58.015625 14.40625 51.78125 6.484375 
Q 45.5625 -1.421875 35.59375 -1.421875 
Q 29.59375 -1.421875 25.265625 0.953125 
Q 20.953125 3.328125 18.109375 8.203125 
L 18.109375 0 
L 9.078125 0 
L 9.078125 75.984375 
L 18.109375 75.984375 
z
" id="DejaVuSans-98"/>
    <path id="DejaVuSans-32"/>
    <path d="M 11.71875 12.40625 
L 22.015625 12.40625 
L 22.015625 4 
L 14.015625 -11.625 
L 7.71875 -11.625 
L 11.71875 4 
z
" id="DejaVuSans-44"/>
   </defs>
   <g transform="translate(209.478531 17.229938)scale(0.132 -0.132)">
    <use xlink:href="#DejaVuSans-70"/>
    <use x="57.441406" xlink:href="#DejaVuSans-101"/>
    <use x="118.964844" xlink:href="#DejaVuSans-98"/>
    <use x="182.441406" xlink:href="#DejaVuSans-32"/>
    <use x="214.228516" xlink:href="#DejaVuSans-49"/>
    <use x="277.851562" xlink:href="#DejaVuSans-44"/>
    <use x="309.638672" xlink:href="#DejaVuSans-32"/>
    <use x="341.425781" xlink:href="#DejaVuSans-50"/>
    <use x="405.048828" xlink:href="#DejaVuSans-48"/>
    <use x="468.671875" xlink:href="#DejaVuSans-49"/>
    <use x="532.294922" xlink:href="#DejaVuSans-57"/>
   </g>
  </g>
 </g>
 <defs>
  <clipPath id="p00856a8db0">
   <rect height="221.76" width="446.4" x="32.809375" y="26.105371"/>
  </clipPath>
 </defs>
</svg>
