<svg version="1.1" viewBox="0.0 0.0 558.0 345.0" fill="none" stroke="none" stroke-linecap="square" stroke-miterlimit="10" width="558" height="345" xmlns:xlink="http://www.w3.org/1999/xlink" xmlns="http://www.w3.org/2000/svg"><path fill="#ffffff" d="M0 0L558.0 0L558.0 345.0L0 345.0L0 0Z" fill-rule="nonzero"/><path stroke="#333333" stroke-width="1.0" stroke-linecap="butt" d="M75.5 42.5L75.5 307.5" fill-rule="nonzero"/><path stroke="#cccccc" stroke-width="1.0" stroke-linecap="butt" d="M191.5 42.5L191.5 307.5" fill-rule="nonzero"/><path stroke="#cccccc" stroke-width="1.0" stroke-linecap="butt" d="M308.5 42.5L308.5 307.5" fill-rule="nonzero"/><path stroke="#cccccc" stroke-width="1.0" stroke-linecap="butt" d="M424.5 42.5L424.5 307.5" fill-rule="nonzero"/><path stroke="#cccccc" stroke-width="1.0" stroke-linecap="butt" d="M540.5 42.5L540.5 307.5" fill-rule="nonzero"/><path stroke="#000000" stroke-width="1.0" stroke-linecap="butt" d="M540.5 307.5L75.5 307.5" fill-rule="nonzero"/><clipPath id="id_0"><path d="M75.25 42.75L540.75 42.75L540.75 307.75L75.25 307.75L75.25 42.75Z" clip-rule="nonzero"/></clipPath><path stroke="#000000" stroke-width="0.0" stroke-linecap="butt" stroke-opacity="0.0" clip-path="url(#id_0)" d="M75.0 60.0L75.0 54.0L135.0 54.0C136.10457 54.0 137.0 54.89543 137.0 56.0L137.0 58.0C137.0 59.10457 136.10457 60.0 135.0 60.0Z" fill-rule="nonzero"/><path fill="#4285f4" clip-path="url(#id_0)" d="M75.0 60.0L75.0 54.0L135.0 54.0C136.10457 54.0 137.0 54.89543 137.0 56.0L137.0 58.0C137.0 59.10457 136.10457 60.0 135.0 60.0Z" fill-rule="nonzero"/><path stroke="#000000" stroke-width="0.0" stroke-linecap="butt" stroke-opacity="0.0" clip-path="url(#id_0)" d="M75.0 92.0L75.0 86.0L82.0 86.0C83.10457 86.0 84.0 86.89543 84.0 88.0L84.0 90.0C84.0 91.10457 83.10457 92.0 82.0 92.0Z" fill-rule="nonzero"/><path fill="#4285f4" clip-path="url(#id_0)" d="M75.0 92.0L75.0 86.0L82.0 86.0C83.10457 86.0 84.0 86.89543 84.0 88.0L84.0 90.0C84.0 91.10457 83.10457 92.0 82.0 92.0Z" fill-rule="nonzero"/><path stroke="#000000" stroke-width="0.0" stroke-linecap="butt" stroke-opacity="0.0" clip-path="url(#id_0)" d="M75.0 124.0L75.0 118.0L229.0 118.0C230.10457 118.0 231.0 118.89543 231.0 120.0L231.0 122.0C231.0 123.10457 230.10457 124.0 229.0 124.0Z" fill-rule="nonzero"/><path fill="#4285f4" clip-path="url(#id_0)" d="M75.0 124.0L75.0 118.0L229.0 118.0C230.10457 118.0 231.0 118.89543 231.0 120.0L231.0 122.0C231.0 123.10457 230.10457 124.0 229.0 124.0Z" fill-rule="nonzero"/><path stroke="#000000" stroke-width="0.0" stroke-linecap="butt" stroke-opacity="0.0" clip-path="url(#id_0)" d="M75.0 155.0L75.0 149.0L331.0 149.0C332.10458 149.0 333.0 149.89543 333.0 151.0L333.0 153.0C333.0 154.10457 332.10458 155.0 331.0 155.0Z" fill-rule="nonzero"/><path fill="#4285f4" clip-path="url(#id_0)" d="M75.0 155.0L75.0 149.0L331.0 149.0C332.10458 149.0 333.0 149.89543 333.0 151.0L333.0 153.0C333.0 154.10457 332.10458 155.0 331.0 155.0Z" fill-rule="nonzero"/><path stroke="#000000" stroke-width="0.0" stroke-linecap="butt" stroke-opacity="0.0" clip-path="url(#id_0)" d="M75.0 187.0L75.0 181.0L123.0 181.0C124.10457 181.0 125.0 181.89543 125.0 183.0L125.0 185.0C125.0 186.10457 124.10457 187.0 123.0 187.0Z" fill-rule="nonzero"/><path fill="#4285f4" clip-path="url(#id_0)" d="M75.0 187.0L75.0 181.0L123.0 181.0C124.10457 181.0 125.0 181.89543 125.0 183.0L125.0 185.0C125.0 186.10457 124.10457 187.0 123.0 187.0Z" fill-rule="nonzero"/><path stroke="#000000" stroke-width="0.0" stroke-linecap="butt" stroke-opacity="0.0" clip-path="url(#id_0)" d="M75.0 219.0L75.0 213.0L117.0 213.0C118.10457 213.0 119.0 213.89543 119.0 215.0L119.0 217.0C119.0 218.10457 118.10457 219.0 117.0 219.0Z" fill-rule="nonzero"/><path fill="#4285f4" clip-path="url(#id_0)" d="M75.0 219.0L75.0 213.0L117.0 213.0C118.10457 213.0 119.0 213.89543 119.0 215.0L119.0 217.0C119.0 218.10457 118.10457 219.0 117.0 219.0Z" fill-rule="nonzero"/><path stroke="#000000" stroke-width="0.0" stroke-linecap="butt" stroke-opacity="0.0" clip-path="url(#id_0)" d="M75.0 251.0L75.0 245.0L121.0 245.0C122.10457 245.0 123.0 245.89543 123.0 247.0L123.0 249.0C123.0 250.10457 122.10457 251.0 121.0 251.0Z" fill-rule="nonzero"/><path fill="#4285f4" clip-path="url(#id_0)" d="M75.0 251.0L75.0 245.0L121.0 245.0C122.10457 245.0 123.0 245.89543 123.0 247.0L123.0 249.0C123.0 250.10457 122.10457 251.0 121.0 251.0Z" fill-rule="nonzero"/><path stroke="#000000" stroke-width="0.0" stroke-linecap="butt" stroke-opacity="0.0" clip-path="url(#id_0)" d="M75.0 282.0L75.0 276.0L94.0 276.0C95.10457 276.0 96.0 276.89542 96.0 278.0L96.0 280.0C96.0 281.10458 95.10457 282.0 94.0 282.0Z" fill-rule="nonzero"/><path fill="#4285f4" clip-path="url(#id_0)" d="M75.0 282.0L75.0 276.0L94.0 276.0C95.10457 276.0 96.0 276.89542 96.0 278.0L96.0 280.0C96.0 281.10458 95.10457 282.0 94.0 282.0Z" fill-rule="nonzero"/><path stroke="#000000" stroke-width="0.0" stroke-linecap="butt" stroke-opacity="0.0" clip-path="url(#id_0)" d="M75.0 67.0L75.0 61.0L116.0 61.0C117.10457 61.0 118.0 61.89543 118.0 63.0L118.0 65.0C118.0 66.10457 117.10457 67.0 116.0 67.0Z" fill-rule="nonzero"/><path fill="#ea4335" clip-path="url(#id_0)" d="M75.0 67.0L75.0 61.0L116.0 61.0C117.10457 61.0 118.0 61.89543 118.0 63.0L118.0 65.0C118.0 66.10457 117.10457 67.0 116.0 67.0Z" fill-rule="nonzero"/><path stroke="#000000" stroke-width="0.0" stroke-linecap="butt" stroke-opacity="0.0" clip-path="url(#id_0)" d="M75.0 99.0L75.0 93.0L86.0 93.0C87.10457 93.0 88.0 93.89543 88.0 95.0L88.0 97.0C88.0 98.10457 87.10457 99.0 86.0 99.0Z" fill-rule="nonzero"/><path fill="#ea4335" clip-path="url(#id_0)" d="M75.0 99.0L75.0 93.0L86.0 93.0C87.10457 93.0 88.0 93.89543 88.0 95.0L88.0 97.0C88.0 98.10457 87.10457 99.0 86.0 99.0Z" fill-rule="nonzero"/><path stroke="#000000" stroke-width="0.0" stroke-linecap="butt" stroke-opacity="0.0" clip-path="url(#id_0)" d="M75.0 131.0L75.0 125.0L302.0 125.0C303.10458 125.0 304.0 125.89543 304.0 127.0L304.0 129.0C304.0 130.10457 303.10458 131.0 302.0 131.0Z" fill-rule="nonzero"/><path fill="#ea4335" clip-path="url(#id_0)" d="M75.0 131.0L75.0 125.0L302.0 125.0C303.10458 125.0 304.0 125.89543 304.0 127.0L304.0 129.0C304.0 130.10457 303.10458 131.0 302.0 131.0Z" fill-rule="nonzero"/><path stroke="#000000" stroke-width="0.0" stroke-linecap="butt" stroke-opacity="0.0" clip-path="url(#id_0)" d="M75.0 162.0L75.0 156.0L299.0 156.0C300.10458 156.0 301.0 156.89543 301.0 158.0L301.0 160.0C301.0 161.10457 300.10458 162.0 299.0 162.0Z" fill-rule="nonzero"/><path fill="#ea4335" clip-path="url(#id_0)" d="M75.0 162.0L75.0 156.0L299.0 156.0C300.10458 156.0 301.0 156.89543 301.0 158.0L301.0 160.0C301.0 161.10457 300.10458 162.0 299.0 162.0Z" fill-rule="nonzero"/><path stroke="#000000" stroke-width="0.0" stroke-linecap="butt" stroke-opacity="0.0" clip-path="url(#id_0)" d="M75.0 194.0L75.0 188.0L86.0 188.0C87.10457 188.0 88.0 188.89543 88.0 190.0L88.0 192.0C88.0 193.10457 87.10457 194.0 86.0 194.0Z" fill-rule="nonzero"/><path fill="#ea4335" clip-path="url(#id_0)" d="M75.0 194.0L75.0 188.0L86.0 188.0C87.10457 188.0 88.0 188.89543 88.0 190.0L88.0 192.0C88.0 193.10457 87.10457 194.0 86.0 194.0Z" fill-rule="nonzero"/><path stroke="#000000" stroke-width="0.0" stroke-linecap="butt" stroke-opacity="0.0" clip-path="url(#id_0)" d="M75.0 226.0L75.0 220.0L101.0 220.0C102.10457 220.0 103.0 220.89543 103.0 222.0L103.0 224.0C103.0 225.10457 102.10457 226.0 101.0 226.0Z" fill-rule="nonzero"/><path fill="#ea4335" clip-path="url(#id_0)" d="M75.0 226.0L75.0 220.0L101.0 220.0C102.10457 220.0 103.0 220.89543 103.0 222.0L103.0 224.0C103.0 225.10457 102.10457 226.0 101.0 226.0Z" fill-rule="nonzero"/><path stroke="#000000" stroke-width="0.0" stroke-linecap="butt" stroke-opacity="0.0" clip-path="url(#id_0)" d="M75.0 258.0L75.0 252.0L124.0 252.0C125.10457 252.0 126.0 252.89543 126.0 254.0L126.0 256.0C126.0 257.10458 125.10457 258.0 124.0 258.0Z" fill-rule="nonzero"/><path fill="#ea4335" clip-path="url(#id_0)" d="M75.0 258.0L75.0 252.0L124.0 252.0C125.10457 252.0 126.0 252.89543 126.0 254.0L126.0 256.0C126.0 257.10458 125.10457 258.0 124.0 258.0Z" fill-rule="nonzero"/><path stroke="#000000" stroke-width="0.0" stroke-linecap="butt" stroke-opacity="0.0" clip-path="url(#id_0)" d="M75.0 289.0L75.0 283.0L147.0 283.0C148.10457 283.0 149.0 283.89542 149.0 285.0L149.0 287.0C149.0 288.10458 148.10457 289.0 147.0 289.0Z" fill-rule="nonzero"/><path fill="#ea4335" clip-path="url(#id_0)" d="M75.0 289.0L75.0 283.0L147.0 283.0C148.10457 283.0 149.0 283.89542 149.0 285.0L149.0 287.0C149.0 288.10458 148.10457 289.0 147.0 289.0Z" fill-rule="nonzero"/><path stroke="#000000" stroke-width="0.0" stroke-linecap="butt" stroke-opacity="0.0" clip-path="url(#id_0)" d="M75.0 74.0L75.0 68.0L90.0 68.0C91.10457 68.0 92.0 68.89543 92.0 70.0L92.0 72.0C92.0 73.10457 91.10457 74.0 90.0 74.0Z" fill-rule="nonzero"/><path fill="#fbbc04" clip-path="url(#id_0)" d="M75.0 74.0L75.0 68.0L90.0 68.0C91.10457 68.0 92.0 68.89543 92.0 70.0L92.0 72.0C92.0 73.10457 91.10457 74.0 90.0 74.0Z" fill-rule="nonzero"/><path stroke="#000000" stroke-width="0.0" stroke-linecap="butt" stroke-opacity="0.0" clip-path="url(#id_0)" d="M75.0 106.0L75.0 100.0L84.0 100.0C85.10457 100.0 86.0 100.89543 86.0 102.0L86.0 104.0C86.0 105.10457 85.10457 106.0 84.0 106.0Z" fill-rule="nonzero"/><path fill="#fbbc04" clip-path="url(#id_0)" d="M75.0 106.0L75.0 100.0L84.0 100.0C85.10457 100.0 86.0 100.89543 86.0 102.0L86.0 104.0C86.0 105.10457 85.10457 106.0 84.0 106.0Z" fill-rule="nonzero"/><path stroke="#000000" stroke-width="0.0" stroke-linecap="butt" stroke-opacity="0.0" clip-path="url(#id_0)" d="M75.0 138.0L75.0 132.0L167.0 132.0C168.10457 132.0 169.0 132.89543 169.0 134.0L169.0 136.0C169.0 137.10457 168.10457 138.0 167.0 138.0Z" fill-rule="nonzero"/><path fill="#fbbc04" clip-path="url(#id_0)" d="M75.0 138.0L75.0 132.0L167.0 132.0C168.10457 132.0 169.0 132.89543 169.0 134.0L169.0 136.0C169.0 137.10457 168.10457 138.0 167.0 138.0Z" fill-rule="nonzero"/><path stroke="#000000" stroke-width="0.0" stroke-linecap="butt" stroke-opacity="0.0" clip-path="url(#id_0)" d="M75.0 169.0L75.0 163.0L239.0 163.0C240.10457 163.0 241.0 163.89543 241.0 165.0L241.0 167.0C241.0 168.10457 240.10457 169.0 239.0 169.0Z" fill-rule="nonzero"/><path fill="#fbbc04" clip-path="url(#id_0)" d="M75.0 169.0L75.0 163.0L239.0 163.0C240.10457 163.0 241.0 163.89543 241.0 165.0L241.0 167.0C241.0 168.10457 240.10457 169.0 239.0 169.0Z" fill-rule="nonzero"/><path stroke="#000000" stroke-width="0.0" stroke-linecap="butt" stroke-opacity="0.0" clip-path="url(#id_0)" d="M75.0 201.0L75.0 195.0L120.0 195.0C121.10457 195.0 122.0 195.89543 122.0 197.0L122.0 199.0C122.0 200.10457 121.10457 201.0 120.0 201.0Z" fill-rule="nonzero"/><path fill="#fbbc04" clip-path="url(#id_0)" d="M75.0 201.0L75.0 195.0L120.0 195.0C121.10457 195.0 122.0 195.89543 122.0 197.0L122.0 199.0C122.0 200.10457 121.10457 201.0 120.0 201.0Z" fill-rule="nonzero"/><path stroke="#000000" stroke-width="0.0" stroke-linecap="butt" stroke-opacity="0.0" clip-path="url(#id_0)" d="M75.0 233.0L75.0 227.0L123.0 227.0C124.10457 227.0 125.0 227.89543 125.0 229.0L125.0 231.0C125.0 232.10457 124.10457 233.0 123.0 233.0Z" fill-rule="nonzero"/><path fill="#fbbc04" clip-path="url(#id_0)" d="M75.0 233.0L75.0 227.0L123.0 227.0C124.10457 227.0 125.0 227.89543 125.0 229.0L125.0 231.0C125.0 232.10457 124.10457 233.0 123.0 233.0Z" fill-rule="nonzero"/><path stroke="#000000" stroke-width="0.0" stroke-linecap="butt" stroke-opacity="0.0" clip-path="url(#id_0)" d="M75.0 265.0L75.0 259.0L103.0 259.0C104.10457 259.0 105.0 259.89542 105.0 261.0L105.0 263.0C105.0 264.10458 104.10457 265.0 103.0 265.0Z" fill-rule="nonzero"/><path fill="#fbbc04" clip-path="url(#id_0)" d="M75.0 265.0L75.0 259.0L103.0 259.0C104.10457 259.0 105.0 259.89542 105.0 261.0L105.0 263.0C105.0 264.10458 104.10457 265.0 103.0 265.0Z" fill-rule="nonzero"/><path stroke="#000000" stroke-width="0.0" stroke-linecap="butt" stroke-opacity="0.0" clip-path="url(#id_0)" d="M75.0 296.0L75.0 290.0L91.0 290.0C92.10457 290.0 93.0 290.89542 93.0 292.0L93.0 294.0C93.0 295.10458 92.10457 296.0 91.0 296.0Z" fill-rule="nonzero"/><path fill="#fbbc04" clip-path="url(#id_0)" d="M75.0 296.0L75.0 290.0L91.0 290.0C92.10457 290.0 93.0 290.89542 93.0 292.0L93.0 294.0C93.0 295.10458 92.10457 296.0 91.0 296.0Z" fill-rule="nonzero"/><path fill="#000000" d="M41.046875 70.56278L41.046875 61.953407L42.0 61.953407L42.0 62.750282Q42.34375 62.281532 42.765625 62.047157Q43.203125 61.812782 43.8125 61.812782Q44.609375 61.812782 45.21875 62.219032Q45.828125 62.625282 46.125 63.375282Q46.4375 64.12528 46.4375 65.01591Q46.4375 65.96903 46.09375 66.73466Q45.765625 67.50028 45.109375 67.90653Q44.453125 68.31278 43.734375 68.31278Q43.203125 68.31278 42.78125 68.09403Q42.359375 67.85966 42.09375 67.53153L42.09375 70.56278L41.046875 70.56278ZM42.0 65.09403Q42.0 66.29716 42.484375 66.87528Q42.96875 67.43778 43.65625 67.43778Q44.359375 67.43778 44.859375 66.84403Q45.359375 66.25028 45.359375 65.00028Q45.359375 63.812782 44.875 63.234657Q44.390625 62.640907 43.703125 62.640907Q43.03125 62.640907 42.515625 63.265907Q42.0 63.890907 42.0 65.09403ZM48.046875 60.797157L48.046875 59.578407L49.109375 59.578407L49.109375 60.797157L48.046875 60.797157ZM48.046875 68.17216L48.046875 61.953407L49.109375 61.953407L49.109375 68.17216L48.046875 68.17216ZM50.484375 68.17216L50.484375 67.31278L54.453125 62.765907Q53.765625 62.797157 53.25 62.797157L50.71875 62.797157L50.71875 61.953407L55.8125 61.953407L55.8125 62.640907L52.4375 66.59403L51.78125 67.31278Q52.5 67.26591 53.109375 67.26591L56.0 67.26591L56.0 68.17216L50.484375 68.17216ZM56.484375 68.17216L56.484375 67.31278L60.453125 62.765907Q59.765625 62.797157 59.25 62.797157L56.71875 62.797157L56.71875 61.953407L61.8125 61.953407L61.8125 62.640907L58.4375 66.59403L57.78125 67.31278Q58.5 67.26591 59.109375 67.26591L62.0 67.26591L62.0 68.17216L56.484375 68.17216ZM67.109375 67.40653Q66.515625 67.90653 65.96875 68.10966Q65.4375 68.31278 64.8125 68.31278Q63.78125 68.31278 63.234375 67.81278Q62.6875 67.31278 62.6875 66.53153Q62.6875 66.07841 62.890625 65.70341Q63.09375 65.31278 63.4375 65.09403Q63.78125 64.85966 64.203125 64.75028Q64.5 64.65653 65.140625 64.57841Q66.40625 64.43778 67.015625 64.21903Q67.015625 64.00028 67.015625 63.953407Q67.015625 63.297157 66.71875 63.031532Q66.3125 62.687782 65.515625 62.687782Q64.78125 62.687782 64.421875 62.953407Q64.0625 63.203407 63.890625 63.859657L62.859375 63.719032Q63.0 63.062782 63.328125 62.656532Q63.65625 62.250282 64.265625 62.031532Q64.875 61.812782 65.671875 61.812782Q66.46875 61.812782 66.96875 62.000282Q67.46875 62.187782 67.703125 62.469032Q67.9375 62.750282 68.03125 63.187782Q68.078125 63.453407 68.078125 64.15653L68.078125 65.56278Q68.078125 67.03153 68.140625 67.42216Q68.21875 67.81278 68.421875 68.17216L67.3125 68.17216Q67.15625 67.84403 67.109375 67.40653ZM67.015625 65.04716Q66.4375 65.28153 65.296875 65.45341Q64.640625 65.54716 64.375 65.67216Q64.109375 65.78153 63.953125 66.00028Q63.8125 66.21903 63.8125 66.50028Q63.8125 66.92216 64.125 67.20341Q64.453125 67.48466 65.0625 67.48466Q65.671875 67.48466 66.140625 67.21903Q66.625 66.95341 66.84375 66.48466Q67.015625 66.12528 67.015625 65.43778L67.015625 65.04716Z" fill-rule="nonzero"/><path fill="#000000" d="M40.015625 99.90868L39.03125 99.90868L39.03125 91.31493L40.09375 91.31493L40.09375 94.37743Q40.765625 93.54931 41.796875 93.54931Q42.375 93.54931 42.875 93.78368Q43.390625 94.00243 43.71875 94.42431Q44.0625 94.84618 44.25 95.43993Q44.4375 96.03368 44.4375 96.70556Q44.4375 98.29931 43.640625 99.17431Q42.84375 100.04931 41.75 100.04931Q40.640625 100.04931 40.015625 99.12743L40.015625 99.90868ZM40.0 96.75243Q40.0 97.86181 40.3125 98.36181Q40.8125 99.17431 41.65625 99.17431Q42.34375 99.17431 42.84375 98.58056Q43.359375 97.98681 43.359375 96.78368Q43.359375 95.56493 42.875 94.98681Q42.390625 94.40868 41.703125 94.40868Q41.015625 94.40868 40.5 95.01806Q40.0 95.61181 40.0 96.75243ZM50.109375 99.14306Q49.515625 99.64306 48.96875 99.84618Q48.4375 100.04931 47.8125 100.04931Q46.78125 100.04931 46.234375 99.54931Q45.6875 99.04931 45.6875 98.26806Q45.6875 97.81493 45.890625 97.43993Q46.09375 97.04931 46.4375 96.83056Q46.78125 96.59618 47.203125 96.48681Q47.5 96.39306 48.140625 96.31493Q49.40625 96.17431 50.015625 95.95556Q50.015625 95.73681 50.015625 95.68993Q50.015625 95.03368 49.71875 94.76806Q49.3125 94.42431 48.515625 94.42431Q47.78125 94.42431 47.421875 94.68993Q47.0625 94.93993 46.890625 95.59618L45.859375 95.45556Q46.0 94.79931 46.328125 94.39306Q46.65625 93.98681 47.265625 93.76806Q47.875 93.54931 48.671875 93.54931Q49.46875 93.54931 49.96875 93.73681Q50.46875 93.92431 50.703125 94.20556Q50.9375 94.48681 51.03125 94.92431Q51.078125 95.18993 51.078125 95.89306L51.078125 97.29931Q51.078125 98.76806 51.140625 99.15868Q51.21875 99.54931 51.421875 99.90868L50.3125 99.90868Q50.15625 99.58056 50.109375 99.14306ZM50.015625 96.78368Q49.4375 97.01806 48.296875 97.18993Q47.640625 97.28368 47.375 97.40868Q47.109375 97.51806 46.953125 97.73681Q46.8125 97.95556 46.8125 98.23681Q46.8125 98.65868 47.125 98.93993Q47.453125 99.22118 48.0625 99.22118Q48.671875 99.22118 49.140625 98.95556Q49.625 98.68993 49.84375 98.22118Q50.015625 97.86181 50.015625 97.17431L50.015625 96.78368ZM52.84375 100.42431L53.875 100.58056Q53.9375 101.04931 54.234375 101.26806Q54.625 101.56493 55.296875 101.56493Q56.03125 101.56493 56.421875 101.26806Q56.828125 100.97118 56.96875 100.45556Q57.0625 100.12743 57.046875 99.09618Q56.359375 99.90868 55.328125 99.90868Q54.046875 99.90868 53.34375 98.98681Q52.640625 98.04931 52.640625 96.76806Q52.640625 95.87743 52.953125 95.12743Q53.28125 94.36181 53.890625 93.95556Q54.5 93.54931 55.328125 93.54931Q56.4375 93.54931 57.15625 94.43993L57.15625 93.68993L58.125 93.68993L58.125 99.06493Q58.125 100.51806 57.828125 101.12743Q57.53125 101.73681 56.890625 102.08056Q56.25 102.43993 55.3125 102.43993Q54.203125 102.43993 53.515625 101.93993Q52.828125 101.43993 52.84375 100.42431ZM53.71875 96.68993Q53.71875 97.90868 54.203125 98.47118Q54.6875 99.03368 55.421875 99.03368Q56.15625 99.03368 56.640625 98.47118Q57.140625 97.90868 57.140625 96.72118Q57.140625 95.58056 56.625 95.00243Q56.125 94.42431 55.40625 94.42431Q54.703125 94.42431 54.203125 95.00243Q53.71875 95.56493 53.71875 96.68993ZM64.296875 97.90868L65.390625 98.03368Q65.140625 98.98681 64.4375 99.51806Q63.734375 100.04931 62.65625 100.04931Q61.296875 100.04931 60.484375 99.20556Q59.6875 98.36181 59.6875 96.84618Q59.6875 95.28368 60.5 94.42431Q61.3125 93.54931 62.59375 93.54931Q63.84375 93.54931 64.625 94.39306Q65.421875 95.23681 65.421875 96.78368Q65.421875 96.87743 65.421875 97.06493L60.78125 97.06493Q60.84375 98.09618 61.359375 98.64306Q61.875 99.17431 62.65625 99.17431Q63.234375 99.17431 63.640625 98.87743Q64.0625 98.56493 64.296875 97.90868ZM60.84375 96.20556L64.3125 96.20556Q64.25 95.40868 63.921875 95.01806Q63.40625 94.40868 62.609375 94.40868Q61.875 94.40868 61.375 94.89306Q60.890625 95.37743 60.84375 96.20556ZM67.015625 99.90868L67.015625 91.31493L68.078125 91.31493L68.078125 99.90868L67.015625 99.90868Z" fill-rule="nonzero"/><path fill="#000000" d="M41.109375 129.36395L42.140625 129.50458Q41.96875 130.56708 41.265625 131.17645Q40.5625 131.78583 39.546875 131.78583Q38.265625 131.78583 37.484375 130.9577Q36.71875 130.11395 36.71875 128.55145Q36.71875 127.55145 37.046875 126.80145Q37.390625 126.03583 38.0625 125.66083Q38.75 125.28583 39.5625 125.28583Q40.5625 125.28583 41.203125 125.80145Q41.859375 126.30145 42.046875 127.25458L41.015625 127.41083Q40.875 126.78583 40.5 126.47333Q40.125 126.1452 39.59375 126.1452Q38.796875 126.1452 38.296875 126.72333Q37.796875 127.28583 37.796875 128.5202Q37.796875 129.78583 38.28125 130.34833Q38.765625 130.91083 39.53125 130.91083Q40.15625 130.91083 40.5625 130.53583Q40.984375 130.16083 41.109375 129.36395ZM42.65625 128.53583Q42.65625 126.80145 43.609375 125.97333Q44.40625 125.28583 45.5625 125.28583Q46.84375 125.28583 47.65625 126.12958Q48.484375 126.9577 48.484375 128.44208Q48.484375 129.6452 48.125 130.3327Q47.765625 131.0202 47.0625 131.41083Q46.375 131.78583 45.5625 131.78583Q44.265625 131.78583 43.453125 130.9577Q42.65625 130.11395 42.65625 128.53583ZM43.734375 128.53583Q43.734375 129.72333 44.25 130.31708Q44.78125 130.91083 45.5625 130.91083Q46.359375 130.91083 46.875 130.31708Q47.390625 129.72333 47.390625 128.50458Q47.390625 127.34833 46.859375 126.75458Q46.34375 126.16083 45.5625 126.16083Q44.78125 126.16083 44.25 126.75458Q43.734375 127.3327 43.734375 128.53583ZM50.296875 131.6452L50.296875 126.23895L49.359375 126.23895L49.359375 125.42645L50.296875 125.42645L50.296875 124.75458Q50.296875 124.12958 50.40625 123.8327Q50.5625 123.41083 50.9375 123.16083Q51.328125 122.91083 52.015625 122.91083Q52.46875 122.91083 53.0 123.0202L52.84375 123.92645Q52.515625 123.87958 52.21875 123.87958Q51.734375 123.87958 51.53125 124.0827Q51.34375 124.28583 51.34375 124.84833L51.34375 125.42645L52.5625 125.42645L52.5625 126.23895L51.34375 126.23895L51.34375 131.6452L50.296875 131.6452ZM53.296875 131.6452L53.296875 126.23895L52.359375 126.23895L52.359375 125.42645L53.296875 125.42645L53.296875 124.75458Q53.296875 124.12958 53.40625 123.8327Q53.5625 123.41083 53.9375 123.16083Q54.328125 122.91083 55.015625 122.91083Q55.46875 122.91083 56.0 123.0202L55.84375 123.92645Q55.515625 123.87958 55.21875 123.87958Q54.734375 123.87958 54.53125 124.0827Q54.34375 124.28583 54.34375 124.84833L54.34375 125.42645L55.5625 125.42645L55.5625 126.23895L54.34375 126.23895L54.34375 131.6452L53.296875 131.6452ZM60.296875 129.6452L61.390625 129.7702Q61.140625 130.72333 60.4375 131.25458Q59.734375 131.78583 58.65625 131.78583Q57.296875 131.78583 56.484375 130.94208Q55.6875 130.09833 55.6875 128.5827Q55.6875 127.0202 56.5 126.16083Q57.3125 125.28583 58.59375 125.28583Q59.84375 125.28583 60.625 126.12958Q61.421875 126.97333 61.421875 128.5202Q61.421875 128.61395 61.421875 128.80145L56.78125 128.80145Q56.84375 129.8327 57.359375 130.37958Q57.875 130.91083 58.65625 130.91083Q59.234375 130.91083 59.640625 130.61395Q60.0625 130.30145 60.296875 129.6452ZM56.84375 127.94208L60.3125 127.94208Q60.25 127.1452 59.921875 126.75458Q59.40625 126.1452 58.609375 126.1452Q57.875 126.1452 57.375 126.62958Q56.890625 127.11395 56.84375 127.94208ZM67.296875 129.6452L68.390625 129.7702Q68.140625 130.72333 67.4375 131.25458Q66.734375 131.78583 65.65625 131.78583Q64.296875 131.78583 63.484375 130.94208Q62.6875 130.09833 62.6875 128.5827Q62.6875 127.0202 63.5 126.16083Q64.3125 125.28583 65.59375 125.28583Q66.84375 125.28583 67.625 126.12958Q68.421875 126.97333 68.421875 128.5202Q68.421875 128.61395 68.421875 128.80145L63.78125 128.80145Q63.84375 129.8327 64.359375 130.37958Q64.875 130.91083 65.65625 130.91083Q66.234375 130.91083 66.640625 130.61395Q67.0625 130.30145 67.296875 129.6452ZM63.84375 127.94208L67.3125 127.94208Q67.25 127.1452 66.921875 126.75458Q66.40625 126.1452 65.609375 126.1452Q64.875 126.1452 64.375 126.62958Q63.890625 127.11395 63.84375 127.94208Z" fill-rule="nonzero"/><path fill="#000000" d="M55.34375 162.44423L55.5 163.3661Q55.046875 163.45985 54.703125 163.45985Q54.125 163.45985 53.8125 163.28798Q53.5 163.10048 53.359375 162.8036Q53.234375 162.50673 53.234375 161.5536L53.234375 157.97548L52.46875 157.97548L52.46875 157.16298L53.234375 157.16298L53.234375 155.6161L54.28125 154.9911L54.28125 157.16298L55.34375 157.16298L55.34375 157.97548L54.28125 157.97548L54.28125 161.6161Q54.28125 162.06923 54.328125 162.19423Q54.390625 162.31923 54.515625 162.39735Q54.640625 162.47548 54.875 162.47548Q55.0625 162.47548 55.34375 162.44423ZM60.296875 161.38173L61.390625 161.50673Q61.140625 162.45985 60.4375 162.9911Q59.734375 163.52235 58.65625 163.52235Q57.296875 163.52235 56.484375 162.6786Q55.6875 161.83485 55.6875 160.31923Q55.6875 158.75673 56.5 157.89735Q57.3125 157.02235 58.59375 157.02235Q59.84375 157.02235 60.625 157.8661Q61.421875 158.70985 61.421875 160.25673Q61.421875 160.35048 61.421875 160.53798L56.78125 160.53798Q56.84375 161.56923 57.359375 162.1161Q57.875 162.64735 58.65625 162.64735Q59.234375 162.64735 59.640625 162.35048Q60.0625 162.03798 60.296875 161.38173ZM56.84375 159.6786L60.3125 159.6786Q60.25 158.88173 59.921875 158.4911Q59.40625 157.88173 58.609375 157.88173Q57.875 157.88173 57.375 158.3661Q56.890625 158.85048 56.84375 159.6786ZM67.109375 162.6161Q66.515625 163.1161 65.96875 163.31923Q65.4375 163.52235 64.8125 163.52235Q63.78125 163.52235 63.234375 163.02235Q62.6875 162.52235 62.6875 161.7411Q62.6875 161.28798 62.890625 160.91298Q63.09375 160.52235 63.4375 160.3036Q63.78125 160.06923 64.203125 159.95985Q64.5 159.8661 65.140625 159.78798Q66.40625 159.64735 67.015625 159.4286Q67.015625 159.20985 67.015625 159.16298Q67.015625 158.50673 66.71875 158.2411Q66.3125 157.89735 65.515625 157.89735Q64.78125 157.89735 64.421875 158.16298Q64.0625 158.41298 63.890625 159.06923L62.859375 158.9286Q63.0 158.27235 63.328125 157.8661Q63.65625 157.45985 64.265625 157.2411Q64.875 157.02235 65.671875 157.02235Q66.46875 157.02235 66.96875 157.20985Q67.46875 157.39735 67.703125 157.6786Q67.9375 157.95985 68.03125 158.39735Q68.078125 158.66298 68.078125 159.3661L68.078125 160.77235Q68.078125 162.2411 68.140625 162.63173Q68.21875 163.02235 68.421875 163.38173L67.3125 163.38173Q67.15625 163.0536 67.109375 162.6161ZM67.015625 160.25673Q66.4375 160.4911 65.296875 160.66298Q64.640625 160.75673 64.375 160.88173Q64.109375 160.9911 63.953125 161.20985Q63.8125 161.4286 63.8125 161.70985Q63.8125 162.13173 64.125 162.41298Q64.453125 162.69423 65.0625 162.69423Q65.671875 162.69423 66.140625 162.4286Q66.625 162.16298 66.84375 161.69423Q67.015625 161.33485 67.015625 160.64735L67.015625 160.25673Z" fill-rule="nonzero"/><path fill="#000000" d="M46.015625 195.11827L45.03125 195.11827L45.03125 186.52452L46.09375 186.52452L46.09375 189.58702Q46.765625 188.7589 47.796875 188.7589Q48.375 188.7589 48.875 188.99327Q49.390625 189.21202 49.71875 189.6339Q50.0625 190.05577 50.25 190.64952Q50.4375 191.24327 50.4375 191.91515Q50.4375 193.5089 49.640625 194.3839Q48.84375 195.2589 47.75 195.2589Q46.640625 195.2589 46.015625 194.33702L46.015625 195.11827ZM46.0 191.96202Q46.0 193.0714 46.3125 193.5714Q46.8125 194.3839 47.65625 194.3839Q48.34375 194.3839 48.84375 193.79015Q49.359375 193.1964 49.359375 191.99327Q49.359375 190.77452 48.875 190.1964Q48.390625 189.61827 47.703125 189.61827Q47.015625 189.61827 46.5 190.22765Q46.0 190.8214 46.0 191.96202ZM56.296875 193.11827L57.390625 193.24327Q57.140625 194.1964 56.4375 194.72765Q55.734375 195.2589 54.65625 195.2589Q53.296875 195.2589 52.484375 194.41515Q51.6875 193.5714 51.6875 192.05577Q51.6875 190.49327 52.5 189.6339Q53.3125 188.7589 54.59375 188.7589Q55.84375 188.7589 56.625 189.60265Q57.421875 190.4464 57.421875 191.99327Q57.421875 192.08702 57.421875 192.27452L52.78125 192.27452Q52.84375 193.30577 53.359375 193.85265Q53.875 194.3839 54.65625 194.3839Q55.234375 194.3839 55.640625 194.08702Q56.0625 193.77452 56.296875 193.11827ZM52.84375 191.41515L56.3125 191.41515Q56.25 190.61827 55.921875 190.22765Q55.40625 189.61827 54.609375 189.61827Q53.875 189.61827 53.375 190.10265Q52.890625 190.58702 52.84375 191.41515ZM63.296875 193.11827L64.390625 193.24327Q64.140625 194.1964 63.4375 194.72765Q62.734375 195.2589 61.65625 195.2589Q60.296875 195.2589 59.484375 194.41515Q58.6875 193.5714 58.6875 192.05577Q58.6875 190.49327 59.5 189.6339Q60.3125 188.7589 61.59375 188.7589Q62.84375 188.7589 63.625 189.60265Q64.421875 190.4464 64.421875 191.99327Q64.421875 192.08702 64.421875 192.27452L59.78125 192.27452Q59.84375 193.30577 60.359375 193.85265Q60.875 194.3839 61.65625 194.3839Q62.234375 194.3839 62.640625 194.08702Q63.0625 193.77452 63.296875 193.11827ZM59.84375 191.41515L63.3125 191.41515Q63.25 190.61827 62.921875 190.22765Q62.40625 189.61827 61.609375 189.61827Q60.875 189.61827 60.375 190.10265Q59.890625 190.58702 59.84375 191.41515ZM66.03125 195.11827L66.03125 188.89952L66.984375 188.89952L66.984375 189.83702Q67.34375 189.18077 67.640625 188.97765Q67.953125 188.7589 68.328125 188.7589Q68.859375 188.7589 69.40625 189.08702L69.046875 190.0714Q68.65625 189.83702 68.28125 189.83702Q67.921875 189.83702 67.640625 190.05577Q67.375 190.2589 67.265625 190.6339Q67.078125 191.1964 67.078125 191.85265L67.078125 195.11827L66.03125 195.11827Z" fill-rule="nonzero"/><path fill="#000000" d="M45.1875 226.8548L43.28125 220.63605L44.375 220.63605L45.359375 224.2298L45.734375 225.55792Q45.765625 225.46417 46.0625 224.27667L47.046875 220.63605L48.125 220.63605L49.0625 224.24542L49.375 225.43292L49.734375 224.2298L50.796875 220.63605L51.828125 220.63605L49.875 226.8548L48.78125 226.8548L47.796875 223.12042L47.546875 222.07355L46.296875 226.8548L45.1875 226.8548ZM53.046875 219.4798L53.046875 218.26105L54.109375 218.26105L54.109375 219.4798L53.046875 219.4798ZM53.046875 226.8548L53.046875 220.63605L54.109375 220.63605L54.109375 226.8548L53.046875 226.8548ZM56.046875 226.8548L56.046875 220.63605L56.984375 220.63605L56.984375 221.51105Q57.671875 220.49542 58.96875 220.49542Q59.53125 220.49542 60.0 220.69855Q60.484375 220.90167 60.71875 221.2298Q60.953125 221.55792 61.046875 221.99542Q61.09375 222.2923 61.09375 223.02667L61.09375 226.8548L60.046875 226.8548L60.046875 223.07355Q60.046875 222.4173 59.921875 222.1048Q59.796875 221.7923 59.484375 221.6048Q59.171875 221.40167 58.75 221.40167Q58.078125 221.40167 57.578125 221.83917Q57.09375 222.26105 57.09375 223.44855L57.09375 226.8548L56.046875 226.8548ZM67.296875 224.8548L68.390625 224.9798Q68.140625 225.93292 67.4375 226.46417Q66.734375 226.99542 65.65625 226.99542Q64.296875 226.99542 63.484375 226.15167Q62.6875 225.30792 62.6875 223.7923Q62.6875 222.2298 63.5 221.37042Q64.3125 220.49542 65.59375 220.49542Q66.84375 220.49542 67.625 221.33917Q68.421875 222.18292 68.421875 223.7298Q68.421875 223.82355 68.421875 224.01105L63.78125 224.01105Q63.84375 225.0423 64.359375 225.58917Q64.875 226.12042 65.65625 226.12042Q66.234375 226.12042 66.640625 225.82355Q67.0625 225.51105 67.296875 224.8548ZM63.84375 223.15167L67.3125 223.15167Q67.25 222.3548 66.921875 221.96417Q66.40625 221.3548 65.609375 221.3548Q64.875 221.3548 64.375 221.83917Q63.890625 222.32355 63.84375 223.15167Z" fill-rule="nonzero"/><path fill="#000000" d="M17.625 256.73193L18.65625 256.57568Q18.75 257.20068 19.140625 257.5288Q19.546875 257.85693 20.28125 257.85693Q21.0 257.85693 21.34375 257.57568Q21.703125 257.2788 21.703125 256.87256Q21.703125 256.51318 21.390625 256.31006Q21.171875 256.16943 20.3125 255.95068Q19.15625 255.65381 18.703125 255.45068Q18.265625 255.23193 18.03125 254.85693Q17.796875 254.48193 17.796875 254.01318Q17.796875 253.60693 17.984375 253.24756Q18.171875 252.88818 18.5 252.65381Q18.75 252.48193 19.171875 252.35693Q19.59375 252.23193 20.09375 252.23193Q20.8125 252.23193 21.359375 252.45068Q21.921875 252.65381 22.1875 253.01318Q22.453125 253.37256 22.546875 253.96631L21.515625 254.10693Q21.453125 253.63818 21.109375 253.37256Q20.78125 253.09131 20.15625 253.09131Q19.4375 253.09131 19.125 253.34131Q18.8125 253.57568 18.8125 253.90381Q18.8125 254.10693 18.9375 254.26318Q19.078125 254.43506 19.34375 254.54443Q19.5 254.60693 20.28125 254.81006Q21.40625 255.12256 21.84375 255.31006Q22.28125 255.49756 22.53125 255.85693Q22.78125 256.2163 22.78125 256.76318Q22.78125 257.29443 22.46875 257.76318Q22.171875 258.2163 21.59375 258.48193Q21.015625 258.73193 20.28125 258.73193Q19.0625 258.73193 18.421875 258.23193Q17.796875 257.7163 17.625 256.73193ZM28.109375 257.82568Q27.515625 258.32568 26.96875 258.5288Q26.4375 258.73193 25.8125 258.73193Q24.78125 258.73193 24.234375 258.23193Q23.6875 257.73193 23.6875 256.95068Q23.6875 256.49756 23.890625 256.12256Q24.09375 255.73193 24.4375 255.51318Q24.78125 255.27881 25.203125 255.16943Q25.5 255.07568 26.140625 254.99756Q27.40625 254.85693 28.015625 254.63818Q28.015625 254.41943 28.015625 254.37256Q28.015625 253.71631 27.71875 253.45068Q27.3125 253.10693 26.515625 253.10693Q25.78125 253.10693 25.421875 253.37256Q25.0625 253.62256 24.890625 254.27881L23.859375 254.13818Q24.0 253.48193 24.328125 253.07568Q24.65625 252.66943 25.265625 252.45068Q25.875 252.23193 26.671875 252.23193Q27.46875 252.23193 27.96875 252.41943Q28.46875 252.60693 28.703125 252.88818Q28.9375 253.16943 29.03125 253.60693Q29.078125 253.87256 29.078125 254.57568L29.078125 255.98193Q29.078125 257.45068 29.140625 257.8413Q29.21875 258.23193 29.421875 258.5913L28.3125 258.5913Q28.15625 258.26318 28.109375 257.82568ZM28.015625 255.46631Q27.4375 255.70068 26.296875 255.87256Q25.640625 255.96631 25.375 256.0913Q25.109375 256.20068 24.953125 256.41943Q24.8125 256.63818 24.8125 256.91943Q24.8125 257.3413 25.125 257.62256Q25.453125 257.9038 26.0625 257.9038Q26.671875 257.9038 27.140625 257.63818Q27.625 257.37256 27.84375 256.9038Q28.015625 256.54443 28.015625 255.85693L28.015625 255.46631ZM31.046875 258.5913L31.046875 252.37256L31.984375 252.37256L31.984375 253.24756Q32.671875 252.23193 33.96875 252.23193Q34.53125 252.23193 35.0 252.43506Q35.484375 252.63818 35.71875 252.96631Q35.953125 253.29443 36.046875 253.73193Q36.09375 254.02881 36.09375 254.76318L36.09375 258.5913L35.046875 258.5913L35.046875 254.81006Q35.046875 254.15381 34.921875 253.84131Q34.796875 253.52881 34.484375 253.34131Q34.171875 253.13818 33.75 253.13818Q33.078125 253.13818 32.578125 253.57568Q32.09375 253.99756 32.09375 255.18506L32.09375 258.5913L31.046875 258.5913ZM42.078125 258.5913L42.078125 257.81006Q41.484375 258.73193 40.34375 258.73193Q39.59375 258.73193 38.96875 258.32568Q38.34375 257.9038 38.0 257.16943Q37.65625 256.43506 37.65625 255.48193Q37.65625 254.56006 37.96875 253.79443Q38.28125 253.02881 38.90625 252.63818Q39.53125 252.23193 40.296875 252.23193Q40.859375 252.23193 41.296875 252.46631Q41.734375 252.70068 42.015625 253.07568L42.015625 249.99756L43.0625 249.99756L43.0625 258.5913L42.078125 258.5913ZM38.75 255.48193Q38.75 256.68506 39.25 257.2788Q39.75 257.85693 40.4375 257.85693Q41.125 257.85693 41.609375 257.29443Q42.09375 256.73193 42.09375 255.57568Q42.09375 254.29443 41.59375 253.70068Q41.109375 253.10693 40.390625 253.10693Q39.6875 253.10693 39.21875 253.68506Q38.75 254.24756 38.75 255.48193ZM46.1875 258.5913L44.28125 252.37256L45.375 252.37256L46.359375 255.96631L46.734375 257.29443Q46.765625 257.20068 47.0625 256.01318L48.046875 252.37256L49.125 252.37256L50.0625 255.98193L50.375 257.16943L50.734375 255.96631L51.796875 252.37256L52.828125 252.37256L50.875 258.5913L49.78125 258.5913L48.796875 254.85693L48.546875 253.81006L47.296875 258.5913L46.1875 258.5913ZM54.046875 251.21631L54.046875 249.99756L55.109375 249.99756L55.109375 251.21631L54.046875 251.21631ZM54.046875 258.5913L54.046875 252.37256L55.109375 252.37256L55.109375 258.5913L54.046875 258.5913ZM61.109375 256.31006L62.140625 256.45068Q61.96875 257.51318 61.265625 258.12256Q60.5625 258.73193 59.546875 258.73193Q58.265625 258.73193 57.484375 257.9038Q56.71875 257.06006 56.71875 255.49756Q56.71875 254.49756 57.046875 253.74756Q57.390625 252.98193 58.0625 252.60693Q58.75 252.23193 59.5625 252.23193Q60.5625 252.23193 61.203125 252.74756Q61.859375 253.24756 62.046875 254.20068L61.015625 254.35693Q60.875 253.73193 60.5 253.41943Q60.125 253.09131 59.59375 253.09131Q58.796875 253.09131 58.296875 253.66943Q57.796875 254.23193 57.796875 255.46631Q57.796875 256.73193 58.28125 257.29443Q58.765625 257.85693 59.53125 257.85693Q60.15625 257.85693 60.5625 257.48193Q60.984375 257.10693 61.109375 256.31006ZM63.046875 258.5913L63.046875 249.99756L64.09375 249.99756L64.09375 253.07568Q64.828125 252.23193 65.953125 252.23193Q66.65625 252.23193 67.15625 252.51318Q67.671875 252.77881 67.890625 253.26318Q68.109375 253.73193 68.109375 254.65381L68.109375 258.5913L67.0625 258.5913L67.0625 254.65381Q67.0625 253.85693 66.71875 253.49756Q66.375 253.13818 65.75 253.13818Q65.28125 253.13818 64.859375 253.38818Q64.453125 253.62256 64.265625 254.04443Q64.09375 254.45068 64.09375 255.18506L64.09375 258.5913L63.046875 258.5913Z" fill-rule="nonzero"/><path fill="#000000" d="M42.625 288.46848L43.65625 288.31223Q43.75 288.93723 44.140625 289.26535Q44.546875 289.59348 45.28125 289.59348Q46.0 289.59348 46.34375 289.31223Q46.703125 289.01535 46.703125 288.6091Q46.703125 288.24973 46.390625 288.0466Q46.171875 287.90598 45.3125 287.68723Q44.15625 287.39035 43.703125 287.18723Q43.265625 286.96848 43.03125 286.59348Q42.796875 286.21848 42.796875 285.74973Q42.796875 285.34348 42.984375 284.9841Q43.171875 284.62473 43.5 284.39035Q43.75 284.21848 44.171875 284.09348Q44.59375 283.96848 45.09375 283.96848Q45.8125 283.96848 46.359375 284.18723Q46.921875 284.39035 47.1875 284.74973Q47.453125 285.1091 47.546875 285.70285L46.515625 285.84348Q46.453125 285.37473 46.109375 285.1091Q45.78125 284.82785 45.15625 284.82785Q44.4375 284.82785 44.125 285.07785Q43.8125 285.31223 43.8125 285.64035Q43.8125 285.84348 43.9375 285.99973Q44.078125 286.1716 44.34375 286.28098Q44.5 286.34348 45.28125 286.5466Q46.40625 286.8591 46.84375 287.0466Q47.28125 287.2341 47.53125 287.59348Q47.78125 287.95285 47.78125 288.49973Q47.78125 289.03098 47.46875 289.49973Q47.171875 289.95285 46.59375 290.21848Q46.015625 290.46848 45.28125 290.46848Q44.0625 290.46848 43.421875 289.96848Q42.796875 289.45285 42.625 288.46848ZM48.65625 287.21848Q48.65625 285.4841 49.609375 284.65598Q50.40625 283.96848 51.5625 283.96848Q52.84375 283.96848 53.65625 284.81223Q54.484375 285.64035 54.484375 287.12473Q54.484375 288.32785 54.125 289.01535Q53.765625 289.70285 53.0625 290.09348Q52.375 290.46848 51.5625 290.46848Q50.265625 290.46848 49.453125 289.64035Q48.65625 288.7966 48.65625 287.21848ZM49.734375 287.21848Q49.734375 288.40598 50.25 288.99973Q50.78125 289.59348 51.5625 289.59348Q52.359375 289.59348 52.875 288.99973Q53.390625 288.40598 53.390625 287.18723Q53.390625 286.03098 52.859375 285.43723Q52.34375 284.84348 51.5625 284.84348Q50.78125 284.84348 50.25 285.43723Q49.734375 286.01535 49.734375 287.21848ZM60.125 290.32785L60.125 289.40598Q59.390625 290.46848 58.140625 290.46848Q57.59375 290.46848 57.109375 290.26535Q56.640625 290.0466 56.40625 289.7341Q56.171875 289.40598 56.078125 288.93723Q56.015625 288.64035 56.015625 287.95285L56.015625 284.1091L57.078125 284.1091L57.078125 287.56223Q57.078125 288.37473 57.140625 288.6716Q57.234375 289.07785 57.546875 289.32785Q57.875 289.56223 58.359375 289.56223Q58.828125 289.56223 59.234375 289.32785Q59.65625 289.07785 59.828125 288.65598Q60.015625 288.2341 60.015625 287.43723L60.015625 284.1091L61.0625 284.1091L61.0625 290.32785L60.125 290.32785ZM63.046875 292.71848L63.046875 284.1091L64.0 284.1091L64.0 284.90598Q64.34375 284.43723 64.765625 284.20285Q65.203125 283.96848 65.8125 283.96848Q66.609375 283.96848 67.21875 284.37473Q67.828125 284.78098 68.125 285.53098Q68.4375 286.28098 68.4375 287.1716Q68.4375 288.12473 68.09375 288.89035Q67.765625 289.65598 67.109375 290.06223Q66.453125 290.46848 65.734375 290.46848Q65.203125 290.46848 64.78125 290.24973Q64.359375 290.01535 64.09375 289.68723L64.09375 292.71848L63.046875 292.71848ZM64.0 287.24973Q64.0 288.45285 64.484375 289.03098Q64.96875 289.59348 65.65625 289.59348Q66.359375 289.59348 66.859375 288.99973Q67.359375 288.40598 67.359375 287.15598Q67.359375 285.96848 66.875 285.39035Q66.390625 284.7966 65.703125 284.7966Q65.03125 284.7966 64.515625 285.4216Q64.0 286.0466 64.0 287.24973Z" fill-rule="nonzero"/><path fill="#000000" d="M58.25 320.51562Q58.25 318.98438 58.5625 318.0625Q58.875 317.125 59.484375 316.625Q60.109375 316.125 61.046875 316.125Q61.734375 316.125 62.25 316.40625Q62.78125 316.6875 63.125 317.21875Q63.46875 317.73438 63.65625 318.48438Q63.84375 319.23438 63.84375 320.51562Q63.84375 322.03125 63.53125 322.95312Q63.234375 323.875 62.609375 324.39062Q62.0 324.89062 61.046875 324.89062Q59.8125 324.89062 59.09375 324.0Q58.25 322.9375 58.25 320.51562ZM59.328125 320.51562Q59.328125 322.625 59.828125 323.32812Q60.328125 324.03125 61.046875 324.03125Q61.78125 324.03125 62.265625 323.32812Q62.765625 322.625 62.765625 320.51562Q62.765625 318.39062 62.265625 317.70312Q61.78125 317.0 61.03125 317.0Q60.3125 317.0 59.875 317.60938Q59.328125 318.39062 59.328125 320.51562ZM65.84375 324.75L65.84375 323.54688L67.046875 323.54688L67.046875 324.75L65.84375 324.75ZM68.25 320.51562Q68.25 318.98438 68.5625 318.0625Q68.875 317.125 69.484375 316.625Q70.109375 316.125 71.046875 316.125Q71.734375 316.125 72.25 316.40625Q72.78125 316.6875 73.125 317.21875Q73.46875 317.73438 73.65625 318.48438Q73.84375 319.23438 73.84375 320.51562Q73.84375 322.03125 73.53125 322.95312Q73.234375 323.875 72.609375 324.39062Q72.0 324.89062 71.046875 324.89062Q69.8125 324.89062 69.09375 324.0Q68.25 322.9375 68.25 320.51562ZM69.328125 320.51562Q69.328125 322.625 69.828125 323.32812Q70.328125 324.03125 71.046875 324.03125Q71.78125 324.03125 72.265625 323.32812Q72.765625 322.625 72.765625 320.51562Q72.765625 318.39062 72.265625 317.70312Q71.78125 317.0 71.03125 317.0Q70.3125 317.0 69.875 317.60938Q69.328125 318.39062 69.328125 320.51562ZM75.25 320.51562Q75.25 318.98438 75.5625 318.0625Q75.875 317.125 76.484375 316.625Q77.109375 316.125 78.046875 316.125Q78.734375 316.125 79.25 316.40625Q79.78125 316.6875 80.125 317.21875Q80.46875 317.73438 80.65625 318.48438Q80.84375 319.23438 80.84375 320.51562Q80.84375 322.03125 80.53125 322.95312Q80.234375 323.875 79.609375 324.39062Q79.0 324.89062 78.046875 324.89062Q76.8125 324.89062 76.09375 324.0Q75.25 322.9375 75.25 320.51562ZM76.328125 320.51562Q76.328125 322.625 76.828125 323.32812Q77.328125 324.03125 78.046875 324.03125Q78.78125 324.03125 79.265625 323.32812Q79.765625 322.625 79.765625 320.51562Q79.765625 318.39062 79.265625 317.70312Q78.78125 317.0 78.03125 317.0Q77.3125 317.0 76.875 317.60938Q76.328125 318.39062 76.328125 320.51562ZM82.453125 318.21875Q82.453125 317.29688 82.90625 316.65625Q83.375 316.01562 84.25 316.01562Q85.0625 316.01562 85.59375 316.59375Q86.125 317.17188 86.125 318.28125Q86.125 319.375 85.578125 319.96875Q85.046875 320.54688 84.265625 320.54688Q83.484375 320.54688 82.96875 319.96875Q82.453125 319.39062 82.453125 318.21875ZM84.28125 316.73438Q83.890625 316.73438 83.625 317.07812Q83.375 317.42188 83.375 318.32812Q83.375 319.15625 83.625 319.5Q83.890625 319.82812 84.28125 319.82812Q84.6875 319.82812 84.9375 319.48438Q85.203125 319.14062 85.203125 318.25Q85.203125 317.40625 84.9375 317.07812Q84.671875 316.73438 84.28125 316.73438ZM84.28125 325.0625L88.984375 316.01562L89.84375 316.01562L85.15625 325.0625L84.28125 325.0625ZM88.0 322.73438Q88.0 321.8125 88.453125 321.17188Q88.921875 320.53125 89.8125 320.53125Q90.625 320.53125 91.15625 321.10938Q91.6875 321.67188 91.6875 322.79688Q91.6875 323.89062 91.140625 324.48438Q90.609375 325.0625 89.8125 325.0625Q89.046875 325.0625 88.515625 324.48438Q88.0 323.90625 88.0 322.73438ZM89.84375 321.25Q89.4375 321.25 89.171875 321.59375Q88.921875 321.9375 88.921875 322.84375Q88.921875 323.65625 89.1875 324.0Q89.453125 324.34375 89.84375 324.34375Q90.234375 324.34375 90.5 324.0Q90.765625 323.65625 90.765625 322.75Q90.765625 321.92188 90.5 321.59375Q90.234375 321.25 89.84375 321.25Z" fill-rule="nonzero"/><path fill="#000000" d="M174.625 320.51562Q174.625 318.98438 174.9375 318.0625Q175.25 317.125 175.85938 316.625Q176.48438 316.125 177.42188 316.125Q178.10938 316.125 178.625 316.40625Q179.15625 316.6875 179.5 317.21875Q179.84375 317.73438 180.03125 318.48438Q180.21875 319.23438 180.21875 320.51562Q180.21875 322.03125 179.90625 322.95312Q179.60938 323.875 178.98438 324.39062Q178.375 324.89062 177.42188 324.89062Q176.1875 324.89062 175.46875 324.0Q174.625 322.9375 174.625 320.51562ZM175.70312 320.51562Q175.70312 322.625 176.20312 323.32812Q176.70312 324.03125 177.42188 324.03125Q178.15625 324.03125 178.64062 323.32812Q179.14062 322.625 179.14062 320.51562Q179.14062 318.39062 178.64062 317.70312Q178.15625 317.0 177.40625 317.0Q176.6875 317.0 176.25 317.60938Q175.70312 318.39062 175.70312 320.51562ZM182.21875 324.75L182.21875 323.54688L183.42188 323.54688L183.42188 324.75L182.21875 324.75ZM190.17188 323.73438L190.17188 324.75L184.48438 324.75Q184.48438 324.375 184.60938 324.01562Q184.82812 323.4375 185.29688 322.875Q185.78125 322.3125 186.6875 321.57812Q188.09375 320.42188 188.57812 319.75Q189.07812 319.07812 189.07812 318.48438Q189.07812 317.85938 188.625 317.4375Q188.17188 317.0 187.45312 317.0Q186.6875 317.0 186.23438 317.45312Q185.78125 317.90625 185.76562 318.71875L184.6875 318.60938Q184.79688 317.39062 185.51562 316.76562Q186.25 316.125 187.48438 316.125Q188.71875 316.125 189.4375 316.8125Q190.15625 317.5 190.15625 318.51562Q190.15625 319.03125 189.9375 319.53125Q189.73438 320.01562 189.23438 320.57812Q188.75 321.125 187.625 322.07812Q186.67188 322.875 186.39062 323.17188Q186.125 323.45312 185.95312 323.73438L190.17188 323.73438ZM191.625 322.5L192.73438 322.40625Q192.85938 323.21875 193.29688 323.625Q193.75 324.03125 194.39062 324.03125Q195.14062 324.03125 195.67188 323.45312Q196.20312 322.875 196.20312 321.9375Q196.20312 321.03125 195.6875 320.51562Q195.1875 319.98438 194.35938 319.98438Q193.85938 319.98438 193.4375 320.21875Q193.03125 320.45312 192.79688 320.8125L191.8125 320.6875L192.64062 316.28125L196.92188 316.28125L196.92188 317.28125L193.48438 317.28125L193.03125 319.59375Q193.79688 319.04688 194.64062 319.04688Q195.76562 319.04688 196.53125 319.82812Q197.3125 320.60938 197.3125 321.84375Q197.3125 323.0 196.64062 323.85938Q195.8125 324.89062 194.39062 324.89062Q193.21875 324.89062 192.46875 324.23438Q191.73438 323.57812 191.625 322.5ZM198.82812 318.21875Q198.82812 317.29688 199.28125 316.65625Q199.75 316.01562 200.625 316.01562Q201.4375 316.01562 201.96875 316.59375Q202.5 317.17188 202.5 318.28125Q202.5 319.375 201.95312 319.96875Q201.42188 320.54688 200.64062 320.54688Q199.85938 320.54688 199.34375 319.96875Q198.82812 319.39062 198.82812 318.21875ZM200.65625 316.73438Q200.26562 316.73438 200.0 317.07812Q199.75 317.42188 199.75 318.32812Q199.75 319.15625 200.0 319.5Q200.26562 319.82812 200.65625 319.82812Q201.0625 319.82812 201.3125 319.48438Q201.57812 319.14062 201.57812 318.25Q201.57812 317.40625 201.3125 317.07812Q201.04688 316.73438 200.65625 316.73438ZM200.65625 325.0625L205.35938 316.01562L206.21875 316.01562L201.53125 325.0625L200.65625 325.0625ZM204.375 322.73438Q204.375 321.8125 204.82812 321.17188Q205.29688 320.53125 206.1875 320.53125Q207.0 320.53125 207.53125 321.10938Q208.0625 321.67188 208.0625 322.79688Q208.0625 323.89062 207.51562 324.48438Q206.98438 325.0625 206.1875 325.0625Q205.42188 325.0625 204.89062 324.48438Q204.375 323.90625 204.375 322.73438ZM206.21875 321.25Q205.8125 321.25 205.54688 321.59375Q205.29688 321.9375 205.29688 322.84375Q205.29688 323.65625 205.5625 324.0Q205.82812 324.34375 206.21875 324.34375Q206.60938 324.34375 206.875 324.0Q207.14062 323.65625 207.14062 322.75Q207.14062 321.92188 206.875 321.59375Q206.60938 321.25 206.21875 321.25Z" fill-rule="nonzero"/><path fill="#000000" d="M291.0 320.51562Q291.0 318.98438 291.3125 318.0625Q291.625 317.125 292.23438 316.625Q292.85938 316.125 293.79688 316.125Q294.48438 316.125 295.0 316.40625Q295.53125 316.6875 295.875 317.21875Q296.21875 317.73438 296.40625 318.48438Q296.59375 319.23438 296.59375 320.51562Q296.59375 322.03125 296.28125 322.95312Q295.98438 323.875 295.35938 324.39062Q294.75 324.89062 293.79688 324.89062Q292.5625 324.89062 291.84375 324.0Q291.0 322.9375 291.0 320.51562ZM292.07812 320.51562Q292.07812 322.625 292.57812 323.32812Q293.07812 324.03125 293.79688 324.03125Q294.53125 324.03125 295.01562 323.32812Q295.51562 322.625 295.51562 320.51562Q295.51562 318.39062 295.01562 317.70312Q294.53125 317.0 293.78125 317.0Q293.0625 317.0 292.625 317.60938Q292.07812 318.39062 292.07812 320.51562ZM298.59375 324.75L298.59375 323.54688L299.79688 323.54688L299.79688 324.75L298.59375 324.75ZM301.0 322.5L302.10938 322.40625Q302.23438 323.21875 302.67188 323.625Q303.125 324.03125 303.76562 324.03125Q304.51562 324.03125 305.04688 323.45312Q305.57812 322.875 305.57812 321.9375Q305.57812 321.03125 305.0625 320.51562Q304.5625 319.98438 303.73438 319.98438Q303.23438 319.98438 302.8125 320.21875Q302.40625 320.45312 302.17188 320.8125L301.1875 320.6875L302.01562 316.28125L306.29688 316.28125L306.29688 317.28125L302.85938 317.28125L302.40625 319.59375Q303.17188 319.04688 304.01562 319.04688Q305.14062 319.04688 305.90625 319.82812Q306.6875 320.60938 306.6875 321.84375Q306.6875 323.0 306.01562 323.85938Q305.1875 324.89062 303.76562 324.89062Q302.59375 324.89062 301.84375 324.23438Q301.10938 323.57812 301.0 322.5ZM308.0 320.51562Q308.0 318.98438 308.3125 318.0625Q308.625 317.125 309.23438 316.625Q309.85938 316.125 310.79688 316.125Q311.48438 316.125 312.0 316.40625Q312.53125 316.6875 312.875 317.21875Q313.21875 317.73438 313.40625 318.48438Q313.59375 319.23438 313.59375 320.51562Q313.59375 322.03125 313.28125 322.95312Q312.98438 323.875 312.35938 324.39062Q311.75 324.89062 310.79688 324.89062Q309.5625 324.89062 308.84375 324.0Q308.0 322.9375 308.0 320.51562ZM309.07812 320.51562Q309.07812 322.625 309.57812 323.32812Q310.07812 324.03125 310.79688 324.03125Q311.53125 324.03125 312.01562 323.32812Q312.51562 322.625 312.51562 320.51562Q312.51562 318.39062 312.01562 317.70312Q311.53125 317.0 310.78125 317.0Q310.0625 317.0 309.625 317.60938Q309.07812 318.39062 309.07812 320.51562ZM315.20312 318.21875Q315.20312 317.29688 315.65625 316.65625Q316.125 316.01562 317.0 316.01562Q317.8125 316.01562 318.34375 316.59375Q318.875 317.17188 318.875 318.28125Q318.875 319.375 318.32812 319.96875Q317.79688 320.54688 317.01562 320.54688Q316.23438 320.54688 315.71875 319.96875Q315.20312 319.39062 315.20312 318.21875ZM317.03125 316.73438Q316.64062 316.73438 316.375 317.07812Q316.125 317.42188 316.125 318.32812Q316.125 319.15625 316.375 319.5Q316.64062 319.82812 317.03125 319.82812Q317.4375 319.82812 317.6875 319.48438Q317.95312 319.14062 317.95312 318.25Q317.95312 317.40625 317.6875 317.07812Q317.42188 316.73438 317.03125 316.73438ZM317.03125 325.0625L321.73438 316.01562L322.59375 316.01562L317.90625 325.0625L317.03125 325.0625ZM320.75 322.73438Q320.75 321.8125 321.20312 321.17188Q321.67188 320.53125 322.5625 320.53125Q323.375 320.53125 323.90625 321.10938Q324.4375 321.67188 324.4375 322.79688Q324.4375 323.89062 323.89062 324.48438Q323.35938 325.0625 322.5625 325.0625Q321.79688 325.0625 321.26562 324.48438Q320.75 323.90625 320.75 322.73438ZM322.59375 321.25Q322.1875 321.25 321.92188 321.59375Q321.67188 321.9375 321.67188 322.84375Q321.67188 323.65625 321.9375 324.0Q322.20312 324.34375 322.59375 324.34375Q322.98438 324.34375 323.25 324.0Q323.51562 323.65625 323.51562 322.75Q323.51562 321.92188 323.25 321.59375Q322.98438 321.25 322.59375 321.25Z" fill-rule="nonzero"/><path fill="#000000" d="M407.375 320.51562Q407.375 318.98438 407.6875 318.0625Q408.0 317.125 408.60938 316.625Q409.23438 316.125 410.17188 316.125Q410.85938 316.125 411.375 316.40625Q411.90625 316.6875 412.25 317.21875Q412.59375 317.73438 412.78125 318.48438Q412.96875 319.23438 412.96875 320.51562Q412.96875 322.03125 412.65625 322.95312Q412.35938 323.875 411.73438 324.39062Q411.125 324.89062 410.17188 324.89062Q408.9375 324.89062 408.21875 324.0Q407.375 322.9375 407.375 320.51562ZM408.45312 320.51562Q408.45312 322.625 408.95312 323.32812Q409.45312 324.03125 410.17188 324.03125Q410.90625 324.03125 411.39062 323.32812Q411.89062 322.625 411.89062 320.51562Q411.89062 318.39062 411.39062 317.70312Q410.90625 317.0 410.15625 317.0Q409.4375 317.0 409.0 317.60938Q408.45312 318.39062 408.45312 320.51562ZM414.96875 324.75L414.96875 323.54688L416.17188 323.54688L416.17188 324.75L414.96875 324.75ZM417.4375 317.28125L417.4375 316.26562L423.0 316.26562L423.0 317.09375Q422.1875 317.96875 421.375 319.42188Q420.57812 320.85938 420.14062 322.39062Q419.8125 323.46875 419.73438 324.75L418.64062 324.75Q418.65625 323.73438 419.03125 322.29688Q419.42188 320.85938 420.125 319.53125Q420.84375 318.20312 421.65625 317.28125L417.4375 317.28125ZM424.375 322.5L425.48438 322.40625Q425.60938 323.21875 426.04688 323.625Q426.5 324.03125 427.14062 324.03125Q427.89062 324.03125 428.42188 323.45312Q428.95312 322.875 428.95312 321.9375Q428.95312 321.03125 428.4375 320.51562Q427.9375 319.98438 427.10938 319.98438Q426.60938 319.98438 426.1875 320.21875Q425.78125 320.45312 425.54688 320.8125L424.5625 320.6875L425.39062 316.28125L429.67188 316.28125L429.67188 317.28125L426.23438 317.28125L425.78125 319.59375Q426.54688 319.04688 427.39062 319.04688Q428.51562 319.04688 429.28125 319.82812Q430.0625 320.60938 430.0625 321.84375Q430.0625 323.0 429.39062 323.85938Q428.5625 324.89062 427.14062 324.89062Q425.96875 324.89062 425.21875 324.23438Q424.48438 323.57812 424.375 322.5ZM431.57812 318.21875Q431.57812 317.29688 432.03125 316.65625Q432.5 316.01562 433.375 316.01562Q434.1875 316.01562 434.71875 316.59375Q435.25 317.17188 435.25 318.28125Q435.25 319.375 434.70312 319.96875Q434.17188 320.54688 433.39062 320.54688Q432.60938 320.54688 432.09375 319.96875Q431.57812 319.39062 431.57812 318.21875ZM433.40625 316.73438Q433.01562 316.73438 432.75 317.07812Q432.5 317.42188 432.5 318.32812Q432.5 319.15625 432.75 319.5Q433.01562 319.82812 433.40625 319.82812Q433.8125 319.82812 434.0625 319.48438Q434.32812 319.14062 434.32812 318.25Q434.32812 317.40625 434.0625 317.07812Q433.79688 316.73438 433.40625 316.73438ZM433.40625 325.0625L438.10938 316.01562L438.96875 316.01562L434.28125 325.0625L433.40625 325.0625ZM437.125 322.73438Q437.125 321.8125 437.57812 321.17188Q438.04688 320.53125 438.9375 320.53125Q439.75 320.53125 440.28125 321.10938Q440.8125 321.67188 440.8125 322.79688Q440.8125 323.89062 440.26562 324.48438Q439.73438 325.0625 438.9375 325.0625Q438.17188 325.0625 437.64062 324.48438Q437.125 323.90625 437.125 322.73438ZM438.96875 321.25Q438.5625 321.25 438.29688 321.59375Q438.04688 321.9375 438.04688 322.84375Q438.04688 323.65625 438.3125 324.0Q438.57812 324.34375 438.96875 324.34375Q439.35938 324.34375 439.625 324.0Q439.89062 323.65625 439.89062 322.75Q439.89062 321.92188 439.625 321.59375Q439.35938 321.25 438.96875 321.25Z" fill-rule="nonzero"/><path fill="#4285f4" d="M145.5 19.25C145.5 18.697716 145.94771 18.25 146.5 18.25L156.5 18.25C157.05229 18.25 157.5 18.697716 157.5 19.25L157.5 29.25C157.5 29.802284 157.05229 30.25 156.5 30.25L146.5 30.25C145.94771 30.25 145.5 29.802284 145.5 29.25Z" fill-rule="nonzero"/><path fill="#1a1a1a" d="M166.48438 28.25L166.48438 19.65625L172.28125 19.65625L172.28125 20.671875L167.625 20.671875L167.625 23.328125L171.65625 23.328125L171.65625 24.34375L167.625 24.34375L167.625 28.25L166.48438 28.25ZM173.28125 28.25L173.28125 22.03125L174.23438 22.03125L174.23438 22.96875Q174.59375 22.3125 174.89062 22.109375Q175.20312 21.890625 175.57812 21.890625Q176.10938 21.890625 176.65625 22.21875L176.29688 23.203125Q175.90625 22.96875 175.53125 22.96875Q175.17188 22.96875 174.89062 23.1875Q174.625 23.390625 174.51562 23.765625Q174.32812 24.328125 174.32812 24.984375L174.32812 28.25L173.28125 28.25ZM177.29688 20.875L177.29688 19.65625L178.35938 19.65625L178.35938 20.875L177.29688 20.875ZM177.29688 28.25L177.29688 22.03125L178.35938 22.03125L178.35938 28.25L177.29688 28.25ZM184.54688 26.25L185.64062 26.375Q185.39062 27.328125 184.6875 27.859375Q183.98438 28.390625 182.90625 28.390625Q181.54688 28.390625 180.73438 27.546875Q179.9375 26.703125 179.9375 25.1875Q179.9375 23.625 180.75 22.765625Q181.5625 21.890625 182.84375 21.890625Q184.09375 21.890625 184.875 22.734375Q185.67188 23.578125 185.67188 25.125Q185.67188 25.21875 185.67188 25.40625L181.03125 25.40625Q181.09375 26.4375 181.60938 26.984375Q182.125 27.515625 182.90625 27.515625Q183.48438 27.515625 183.89062 27.21875Q184.3125 26.90625 184.54688 26.25ZM181.09375 24.546875L184.5625 24.546875Q184.5 23.75 184.17188 23.359375Q183.65625 22.75 182.85938 22.75Q182.125 22.75 181.625 23.234375Q181.14062 23.71875 181.09375 24.546875ZM187.29688 28.25L187.29688 22.03125L188.23438 22.03125L188.23438 22.90625Q188.92188 21.890625 190.21875 21.890625Q190.78125 21.890625 191.25 22.09375Q191.73438 22.296875 191.96875 22.625Q192.20312 22.953125 192.29688 23.390625Q192.34375 23.6875 192.34375 24.421875L192.34375 28.25L191.29688 28.25L191.29688 24.46875Q191.29688 23.8125 191.17188 23.5Q191.04688 23.1875 190.73438 23.0Q190.42188 22.796875 190.0 22.796875Q189.32812 22.796875 188.82812 23.234375Q188.34375 23.65625 188.34375 24.84375L188.34375 28.25L187.29688 28.25ZM198.32812 28.25L198.32812 27.46875Q197.73438 28.390625 196.59375 28.390625Q195.84375 28.390625 195.21875 27.984375Q194.59375 27.5625 194.25 26.828125Q193.90625 26.09375 193.90625 25.140625Q193.90625 24.21875 194.21875 23.453125Q194.53125 22.6875 195.15625 22.296875Q195.78125 21.890625 196.54688 21.890625Q197.10938 21.890625 197.54688 22.125Q197.98438 22.359375 198.26562 22.734375L198.26562 19.65625L199.3125 19.65625L199.3125 28.25L198.32812 28.25ZM195.0 25.140625Q195.0 26.34375 195.5 26.9375Q196.0 27.515625 196.6875 27.515625Q197.375 27.515625 197.85938 26.953125Q198.34375 26.390625 198.34375 25.234375Q198.34375 23.953125 197.84375 23.359375Q197.35938 22.765625 196.64062 22.765625Q195.9375 22.765625 195.46875 23.34375Q195.0 23.90625 195.0 25.140625ZM200.875 26.390625L201.90625 26.234375Q202.0 26.859375 202.39062 27.1875Q202.79688 27.515625 203.53125 27.515625Q204.25 27.515625 204.59375 27.234375Q204.95312 26.9375 204.95312 26.53125Q204.95312 26.171875 204.64062 25.96875Q204.42188 25.828125 203.5625 25.609375Q202.40625 25.3125 201.95312 25.109375Q201.51562 24.890625 201.28125 24.515625Q201.04688 24.140625 201.04688 23.671875Q201.04688 23.265625 201.23438 22.90625Q201.42188 22.546875 201.75 22.3125Q202.0 22.140625 202.42188 22.015625Q202.84375 21.890625 203.34375 21.890625Q204.0625 21.890625 204.60938 22.109375Q205.17188 22.3125 205.4375 22.671875Q205.70312 23.03125 205.79688 23.625L204.76562 23.765625Q204.70312 23.296875 204.35938 23.03125Q204.03125 22.75 203.40625 22.75Q202.6875 22.75 202.375 23.0Q202.0625 23.234375 202.0625 23.5625Q202.0625 23.765625 202.1875 23.921875Q202.32812 24.09375 202.59375 24.203125Q202.75 24.265625 203.53125 24.46875Q204.65625 24.78125 205.09375 24.96875Q205.53125 25.15625 205.78125 25.515625Q206.03125 25.875 206.03125 26.421875Q206.03125 26.953125 205.71875 27.421875Q205.42188 27.875 204.84375 28.140625Q204.26562 28.390625 203.53125 28.390625Q202.3125 28.390625 201.67188 27.890625Q201.04688 27.375 200.875 26.390625Z" fill-rule="nonzero"/><path fill="#ea4335" d="M222.5 19.25C222.5 18.697716 222.94771 18.25 223.5 18.25L233.5 18.25C234.05229 18.25 234.5 18.697716 234.5 19.25L234.5 29.25C234.5 29.802284 234.05229 30.25 233.5 30.25L223.5 30.25C222.94771 30.25 222.5 29.802284 222.5 29.25Z" fill-rule="nonzero"/><path fill="#1a1a1a" d="M243.04688 25.484375L244.10938 25.390625Q244.1875 26.046875 244.46875 26.453125Q244.75 26.859375 245.32812 27.125Q245.92188 27.375 246.65625 27.375Q247.29688 27.375 247.79688 27.1875Q248.29688 26.984375 248.53125 26.65625Q248.78125 26.3125 248.78125 25.921875Q248.78125 25.515625 248.54688 25.21875Q248.3125 24.90625 247.78125 24.703125Q247.42188 24.5625 246.23438 24.28125Q245.0625 24.0 244.59375 23.75Q243.96875 23.421875 243.67188 22.953125Q243.375 22.46875 243.375 21.875Q243.375 21.234375 243.73438 20.671875Q244.10938 20.09375 244.8125 19.8125Q245.53125 19.515625 246.39062 19.515625Q247.34375 19.515625 248.07812 19.828125Q248.8125 20.125 249.20312 20.734375Q249.59375 21.328125 249.625 22.078125L248.53125 22.15625Q248.4375 21.34375 247.92188 20.9375Q247.42188 20.515625 246.4375 20.515625Q245.40625 20.515625 244.9375 20.890625Q244.46875 21.265625 244.46875 21.796875Q244.46875 22.265625 244.79688 22.5625Q245.125 22.859375 246.5 23.171875Q247.89062 23.484375 248.40625 23.71875Q249.15625 24.078125 249.51562 24.609375Q249.875 25.125 249.875 25.828125Q249.875 26.515625 249.48438 27.125Q249.09375 27.71875 248.35938 28.0625Q247.625 28.390625 246.70312 28.390625Q245.53125 28.390625 244.73438 28.0625Q243.95312 27.71875 243.5 27.03125Q243.0625 26.34375 243.04688 25.484375ZM255.54688 26.25L256.64062 26.375Q256.39062 27.328125 255.6875 27.859375Q254.98438 28.390625 253.90625 28.390625Q252.54688 28.390625 251.73438 27.546875Q250.9375 26.703125 250.9375 25.1875Q250.9375 23.625 251.75 22.765625Q252.5625 21.890625 253.84375 21.890625Q255.09375 21.890625 255.875 22.734375Q256.67188 23.578125 256.67188 25.125Q256.67188 25.21875 256.67188 25.40625L252.03125 25.40625Q252.09375 26.4375 252.60938 26.984375Q253.125 27.515625 253.90625 27.515625Q254.48438 27.515625 254.89062 27.21875Q255.3125 26.90625 255.54688 26.25ZM252.09375 24.546875L255.5625 24.546875Q255.5 23.75 255.17188 23.359375Q254.65625 22.75 253.85938 22.75Q253.125 22.75 252.625 23.234375Q252.14062 23.71875 252.09375 24.546875ZM258.29688 20.875L258.29688 19.65625L259.35938 19.65625L259.35938 20.875L258.29688 20.875ZM258.29688 28.25L258.29688 22.03125L259.35938 22.03125L259.35938 28.25L258.29688 28.25ZM261.29688 28.25L261.29688 22.03125L262.23438 22.03125L262.23438 22.90625Q262.92188 21.890625 264.21875 21.890625Q264.78125 21.890625 265.25 22.09375Q265.73438 22.296875 265.96875 22.625Q266.20312 22.953125 266.29688 23.390625Q266.34375 23.6875 266.34375 24.421875L266.34375 28.25L265.29688 28.25L265.29688 24.46875Q265.29688 23.8125 265.17188 23.5Q265.04688 23.1875 264.73438 23.0Q264.42188 22.796875 264.0 22.796875Q263.32812 22.796875 262.82812 23.234375Q262.34375 23.65625 262.34375 24.84375L262.34375 28.25L261.29688 28.25ZM268.54688 28.25L268.54688 22.84375L267.60938 22.84375L267.60938 22.03125L268.54688 22.03125L268.54688 21.359375Q268.54688 20.734375 268.65625 20.4375Q268.8125 20.015625 269.1875 19.765625Q269.57812 19.515625 270.26562 19.515625Q270.71875 19.515625 271.25 19.625L271.09375 20.53125Q270.76562 20.484375 270.46875 20.484375Q269.98438 20.484375 269.78125 20.6875Q269.59375 20.890625 269.59375 21.453125L269.59375 22.03125L270.8125 22.03125L270.8125 22.84375L269.59375 22.84375L269.59375 28.25L268.54688 28.25ZM275.54688 26.25L276.64062 26.375Q276.39062 27.328125 275.6875 27.859375Q274.98438 28.390625 273.90625 28.390625Q272.54688 28.390625 271.73438 27.546875Q270.9375 26.703125 270.9375 25.1875Q270.9375 23.625 271.75 22.765625Q272.5625 21.890625 273.84375 21.890625Q275.09375 21.890625 275.875 22.734375Q276.67188 23.578125 276.67188 25.125Q276.67188 25.21875 276.67188 25.40625L272.03125 25.40625Q272.09375 26.4375 272.60938 26.984375Q273.125 27.515625 273.90625 27.515625Q274.48438 27.515625 274.89062 27.21875Q275.3125 26.90625 275.54688 26.25ZM272.09375 24.546875L275.5625 24.546875Q275.5 23.75 275.17188 23.359375Q274.65625 22.75 273.85938 22.75Q273.125 22.75 272.625 23.234375Q272.14062 23.71875 272.09375 24.546875ZM278.26562 28.25L278.26562 19.65625L279.32812 19.65625L279.32812 28.25L278.26562 28.25ZM285.32812 28.25L285.32812 27.46875Q284.73438 28.390625 283.59375 28.390625Q282.84375 28.390625 282.21875 27.984375Q281.59375 27.5625 281.25 26.828125Q280.90625 26.09375 280.90625 25.140625Q280.90625 24.21875 281.21875 23.453125Q281.53125 22.6875 282.15625 22.296875Q282.78125 21.890625 283.54688 21.890625Q284.10938 21.890625 284.54688 22.125Q284.98438 22.359375 285.26562 22.734375L285.26562 19.65625L286.3125 19.65625L286.3125 28.25L285.32812 28.25ZM282.0 25.140625Q282.0 26.34375 282.5 26.9375Q283.0 27.515625 283.6875 27.515625Q284.375 27.515625 284.85938 26.953125Q285.34375 26.390625 285.34375 25.234375Q285.34375 23.953125 284.84375 23.359375Q284.35938 22.765625 283.64062 22.765625Q282.9375 22.765625 282.46875 23.34375Q282.0 23.90625 282.0 25.140625Z" fill-rule="nonzero"/><path fill="#fbbc04" d="M303.5 19.25C303.5 18.697716 303.94772 18.25 304.5 18.25L314.5 18.25C315.05228 18.25 315.5 18.697716 315.5 19.25L315.5 29.25C315.5 29.802284 315.05228 30.25 314.5 30.25L304.5 30.25C303.94772 30.25 303.5 29.802284 303.5 29.25Z" fill-rule="nonzero"/><path fill="#1a1a1a" d="M324.04688 25.484375L325.10938 25.390625Q325.1875 26.046875 325.46875 26.453125Q325.75 26.859375 326.32812 27.125Q326.92188 27.375 327.65625 27.375Q328.29688 27.375 328.79688 27.1875Q329.29688 26.984375 329.53125 26.65625Q329.78125 26.3125 329.78125 25.921875Q329.78125 25.515625 329.54688 25.21875Q329.3125 24.90625 328.78125 24.703125Q328.42188 24.5625 327.23438 24.28125Q326.0625 24.0 325.59375 23.75Q324.96875 23.421875 324.67188 22.953125Q324.375 22.46875 324.375 21.875Q324.375 21.234375 324.73438 20.671875Q325.10938 20.09375 325.8125 19.8125Q326.53125 19.515625 327.39062 19.515625Q328.34375 19.515625 329.07812 19.828125Q329.8125 20.125 330.20312 20.734375Q330.59375 21.328125 330.625 22.078125L329.53125 22.15625Q329.4375 21.34375 328.92188 20.9375Q328.42188 20.515625 327.4375 20.515625Q326.40625 20.515625 325.9375 20.890625Q325.46875 21.265625 325.46875 21.796875Q325.46875 22.265625 325.79688 22.5625Q326.125 22.859375 327.5 23.171875Q328.89062 23.484375 329.40625 23.71875Q330.15625 24.078125 330.51562 24.609375Q330.875 25.125 330.875 25.828125Q330.875 26.515625 330.48438 27.125Q330.09375 27.71875 329.35938 28.0625Q328.625 28.390625 327.70312 28.390625Q326.53125 28.390625 325.73438 28.0625Q324.95312 27.71875 324.5 27.03125Q324.0625 26.34375 324.04688 25.484375ZM336.54688 26.25L337.64062 26.375Q337.39062 27.328125 336.6875 27.859375Q335.98438 28.390625 334.90625 28.390625Q333.54688 28.390625 332.73438 27.546875Q331.9375 26.703125 331.9375 25.1875Q331.9375 23.625 332.75 22.765625Q333.5625 21.890625 334.84375 21.890625Q336.09375 21.890625 336.875 22.734375Q337.67188 23.578125 337.67188 25.125Q337.67188 25.21875 337.67188 25.40625L333.03125 25.40625Q333.09375 26.4375 333.60938 26.984375Q334.125 27.515625 334.90625 27.515625Q335.48438 27.515625 335.89062 27.21875Q336.3125 26.90625 336.54688 26.25ZM333.09375 24.546875L336.5625 24.546875Q336.5 23.75 336.17188 23.359375Q335.65625 22.75 334.85938 22.75Q334.125 22.75 333.625 23.234375Q333.14062 23.71875 333.09375 24.546875ZM338.59375 28.25L340.85938 25.015625L338.76562 22.03125L340.07812 22.03125L341.03125 23.484375Q341.29688 23.90625 341.46875 24.1875Q341.71875 23.796875 341.9375 23.5L342.98438 22.03125L344.25 22.03125L342.09375 24.953125L344.40625 28.25L343.125 28.25L341.84375 26.3125L341.5 25.796875L339.85938 28.25L338.59375 28.25ZM352.35938 27.484375Q351.76562 27.984375 351.21875 28.1875Q350.6875 28.390625 350.0625 28.390625Q349.03125 28.390625 348.48438 27.890625Q347.9375 27.390625 347.9375 26.609375Q347.9375 26.15625 348.14062 25.78125Q348.34375 25.390625 348.6875 25.171875Q349.03125 24.9375 349.45312 24.828125Q349.75 24.734375 350.39062 24.65625Q351.65625 24.515625 352.26562 24.296875Q352.26562 24.078125 352.26562 24.03125Q352.26562 23.375 351.96875 23.109375Q351.5625 22.765625 350.76562 22.765625Q350.03125 22.765625 349.67188 23.03125Q349.3125 23.28125 349.14062 23.9375L348.10938 23.796875Q348.25 23.140625 348.57812 22.734375Q348.90625 22.328125 349.51562 22.109375Q350.125 21.890625 350.92188 21.890625Q351.71875 21.890625 352.21875 22.078125Q352.71875 22.265625 352.95312 22.546875Q353.1875 22.828125 353.28125 23.265625Q353.32812 23.53125 353.32812 24.234375L353.32812 25.640625Q353.32812 27.109375 353.39062 27.5Q353.46875 27.890625 353.67188 28.25L352.5625 28.25Q352.40625 27.921875 352.35938 27.484375ZM352.26562 25.125Q351.6875 25.359375 350.54688 25.53125Q349.89062 25.625 349.625 25.75Q349.35938 25.859375 349.20312 26.078125Q349.0625 26.296875 349.0625 26.578125Q349.0625 27.0 349.375 27.28125Q349.70312 27.5625 350.3125 27.5625Q350.92188 27.5625 351.39062 27.296875Q351.875 27.03125 352.09375 26.5625Q352.26562 26.203125 352.26562 25.515625L352.26562 25.125ZM355.29688 28.25L355.29688 22.03125L356.23438 22.03125L356.23438 22.90625Q356.92188 21.890625 358.21875 21.890625Q358.78125 21.890625 359.25 22.09375Q359.73438 22.296875 359.96875 22.625Q360.20312 22.953125 360.29688 23.390625Q360.34375 23.6875 360.34375 24.421875L360.34375 28.25L359.29688 28.25L359.29688 24.46875Q359.29688 23.8125 359.17188 23.5Q359.04688 23.1875 358.73438 23.0Q358.42188 22.796875 358.0 22.796875Q357.32812 22.796875 356.82812 23.234375Q356.34375 23.65625 356.34375 24.84375L356.34375 28.25L355.29688 28.25ZM366.32812 28.25L366.32812 27.46875Q365.73438 28.390625 364.59375 28.390625Q363.84375 28.390625 363.21875 27.984375Q362.59375 27.5625 362.25 26.828125Q361.90625 26.09375 361.90625 25.140625Q361.90625 24.21875 362.21875 23.453125Q362.53125 22.6875 363.15625 22.296875Q363.78125 21.890625 364.54688 21.890625Q365.10938 21.890625 365.54688 22.125Q365.98438 22.359375 366.26562 22.734375L366.26562 19.65625L367.3125 19.65625L367.3125 28.25L366.32812 28.25ZM363.0 25.140625Q363.0 26.34375 363.5 26.9375Q364.0 27.515625 364.6875 27.515625Q365.375 27.515625 365.85938 26.953125Q366.34375 26.390625 366.34375 25.234375Q366.34375 23.953125 365.84375 23.359375Q365.35938 22.765625 364.64062 22.765625Q363.9375 22.765625 363.46875 23.34375Q363.0 23.90625 363.0 25.140625ZM374.59375 27.3125L374.75 28.234375Q374.29688 28.328125 373.95312 28.328125Q373.375 28.328125 373.0625 28.15625Q372.75 27.96875 372.60938 27.671875Q372.48438 27.375 372.48438 26.421875L372.48438 22.84375L371.71875 22.84375L371.71875 22.03125L372.48438 22.03125L372.48438 20.484375L373.53125 19.859375L373.53125 22.03125L374.59375 22.03125L374.59375 22.84375L373.53125 22.84375L373.53125 26.484375Q373.53125 26.9375 373.57812 27.0625Q373.64062 27.1875 373.76562 27.265625Q373.89062 27.34375 374.125 27.34375Q374.3125 27.34375 374.59375 27.3125ZM375.29688 28.25L375.29688 19.65625L376.34375 19.65625L376.34375 22.734375Q377.07812 21.890625 378.20312 21.890625Q378.90625 21.890625 379.40625 22.171875Q379.92188 22.4375 380.14062 22.921875Q380.35938 23.390625 380.35938 24.3125L380.35938 28.25L379.3125 28.25L379.3125 24.3125Q379.3125 23.515625 378.96875 23.15625Q378.625 22.796875 378.0 22.796875Q377.53125 22.796875 377.10938 23.046875Q376.70312 23.28125 376.51562 23.703125Q376.34375 24.109375 376.34375 24.84375L376.34375 28.25L375.29688 28.25ZM386.54688 26.25L387.64062 26.375Q387.39062 27.328125 386.6875 27.859375Q385.98438 28.390625 384.90625 28.390625Q383.54688 28.390625 382.73438 27.546875Q381.9375 26.703125 381.9375 25.1875Q381.9375 23.625 382.75 22.765625Q383.5625 21.890625 384.84375 21.890625Q386.09375 21.890625 386.875 22.734375Q387.67188 23.578125 387.67188 25.125Q387.67188 25.21875 387.67188 25.40625L383.03125 25.40625Q383.09375 26.4375 383.60938 26.984375Q384.125 27.515625 384.90625 27.515625Q385.48438 27.515625 385.89062 27.21875Q386.3125 26.90625 386.54688 26.25ZM383.09375 24.546875L386.5625 24.546875Q386.5 23.75 386.17188 23.359375Q385.65625 22.75 384.85938 22.75Q384.125 22.75 383.625 23.234375Q383.14062 23.71875 383.09375 24.546875ZM398.5625 25.234375L399.6875 25.53125Q399.32812 26.921875 398.40625 27.65625Q397.48438 28.390625 396.14062 28.390625Q394.75 28.390625 393.875 27.828125Q393.0 27.265625 392.54688 26.203125Q392.09375 25.125 392.09375 23.890625Q392.09375 22.546875 392.60938 21.546875Q393.125 20.546875 394.0625 20.03125Q395.01562 19.515625 396.15625 19.515625Q397.4375 19.515625 398.3125 20.171875Q399.20312 20.828125 399.54688 22.015625L398.42188 22.28125Q398.125 21.34375 397.54688 20.921875Q396.98438 20.484375 396.125 20.484375Q395.14062 20.484375 394.46875 20.96875Q393.8125 21.4375 393.53125 22.234375Q393.26562 23.03125 393.26562 23.890625Q393.26562 24.984375 393.57812 25.796875Q393.90625 26.609375 394.57812 27.015625Q395.25 27.421875 396.04688 27.421875Q397.0 27.421875 397.65625 26.875Q398.32812 26.328125 398.5625 25.234375ZM401.29688 20.875L401.29688 19.65625L402.35938 19.65625L402.35938 20.875L401.29688 20.875ZM401.29688 28.25L401.29688 22.03125L402.35938 22.03125L402.35938 28.25L401.29688 28.25ZM406.59375 27.3125L406.75 28.234375Q406.29688 28.328125 405.95312 28.328125Q405.375 28.328125 405.0625 28.15625Q404.75 27.96875 404.60938 27.671875Q404.48438 27.375 404.48438 26.421875L404.48438 22.84375L403.71875 22.84375L403.71875 22.03125L404.48438 22.03125L404.48438 20.484375L405.53125 19.859375L405.53125 22.03125L406.59375 22.03125L406.59375 22.84375L405.53125 22.84375L405.53125 26.484375Q405.53125 26.9375 405.57812 27.0625Q405.64062 27.1875 405.76562 27.265625Q405.89062 27.34375 406.125 27.34375Q406.3125 27.34375 406.59375 27.3125ZM407.25 30.640625L407.125 29.65625Q407.46875 29.75 407.73438 29.75Q408.07812 29.75 408.28125 29.625Q408.5 29.515625 408.64062 29.3125Q408.73438 29.140625 408.96875 28.515625Q408.98438 28.4375 409.0625 28.265625L406.6875 22.03125L407.82812 22.03125L409.125 25.625Q409.375 26.3125 409.57812 27.078125Q409.76562 26.34375 410.01562 25.65625L411.34375 22.03125L412.39062 22.03125L410.03125 28.359375Q409.64062 29.375 409.4375 29.765625Q409.15625 30.296875 408.78125 30.53125Q408.42188 30.78125 407.92188 30.78125Q407.625 30.78125 407.25 30.640625Z" fill-rule="nonzero"/></svg>