<?xml version="1.0" encoding="utf-8" standalone="no"?>
<!DOCTYPE svg PUBLIC "-//W3C//DTD SVG 1.1//EN"
  "http://www.w3.org/Graphics/SVG/1.1/DTD/svg11.dtd">
<!-- Created with matplotlib (https://matplotlib.org/) -->
<svg height="283.581295pt" version="1.1" viewBox="0 0 486.409375 283.581295" width="486.409375pt" xmlns="http://www.w3.org/2000/svg" xmlns:xlink="http://www.w3.org/1999/xlink">
 <defs>
  <style type="text/css">
*{stroke-linecap:butt;stroke-linejoin:round;}
  </style>
 </defs>
 <g id="figure_1">
  <g id="patch_1">
   <path d="M 0 283.581295 
L 486.409375 283.581295 
L 486.409375 0 
L 0 0 
z
" style="fill:#ffffff;stroke:#ffffff;stroke-linejoin:miter;"/>
  </g>
  <g id="axes_1">
   <g id="patch_2">
    <path d="M 32.809375 247.865371 
L 479.209375 247.865371 
L 479.209375 26.105371 
L 32.809375 26.105371 
z
" style="fill:#ffffff;stroke:#b3b3b3;stroke-linejoin:miter;"/>
   </g>
   <g id="matplotlib.axis_1">
    <g id="xtick_1">
     <g id="line2d_1">
      <path d="M 53.082207 247.865371 
" style="fill:none;stroke:#b3b3b3;stroke-width:1.5;"/>
      <defs>
       <path d="M 0 0 
L 0 2.75 
" id="mf63776a339" style="stroke:#b3b3b3;stroke-width:0.5;"/>
      </defs>
      <g>
       <use style="fill:#b3b3b3;stroke:#b3b3b3;stroke-width:0.5;" x="53.082207" xlink:href="#mf63776a339" y="247.865371"/>
      </g>
     </g>
     <g id="text_1">
      <!-- 12AM -->
      <defs>
       <path d="M 12.40625 8.296875 
L 28.515625 8.296875 
L 28.515625 63.921875 
L 10.984375 60.40625 
L 10.984375 69.390625 
L 28.421875 72.90625 
L 38.28125 72.90625 
L 38.28125 8.296875 
L 54.390625 8.296875 
L 54.390625 0 
L 12.40625 0 
z
" id="DejaVuSans-49"/>
       <path d="M 19.1875 8.296875 
L 53.609375 8.296875 
L 53.609375 0 
L 7.328125 0 
L 7.328125 8.296875 
Q 12.9375 14.109375 22.625 23.890625 
Q 32.328125 33.6875 34.8125 36.53125 
Q 39.546875 41.84375 41.421875 45.53125 
Q 43.3125 49.21875 43.3125 52.78125 
Q 43.3125 58.59375 39.234375 62.25 
Q 35.15625 65.921875 28.609375 65.921875 
Q 23.96875 65.921875 18.8125 64.3125 
Q 13.671875 62.703125 7.8125 59.421875 
L 7.8125 69.390625 
Q 13.765625 71.78125 18.9375 73 
Q 24.125 74.21875 28.421875 74.21875 
Q 39.75 74.21875 46.484375 68.546875 
Q 53.21875 62.890625 53.21875 53.421875 
Q 53.21875 48.921875 51.53125 44.890625 
Q 49.859375 40.875 45.40625 35.40625 
Q 44.1875 33.984375 37.640625 27.21875 
Q 31.109375 20.453125 19.1875 8.296875 
z
" id="DejaVuSans-50"/>
       <path d="M 34.1875 63.1875 
L 20.796875 26.90625 
L 47.609375 26.90625 
z
M 28.609375 72.90625 
L 39.796875 72.90625 
L 67.578125 0 
L 57.328125 0 
L 50.6875 18.703125 
L 17.828125 18.703125 
L 11.1875 0 
L 0.78125 0 
z
" id="DejaVuSans-65"/>
       <path d="M 9.8125 72.90625 
L 24.515625 72.90625 
L 43.109375 23.296875 
L 61.8125 72.90625 
L 76.515625 72.90625 
L 76.515625 0 
L 66.890625 0 
L 66.890625 64.015625 
L 48.09375 14.015625 
L 38.1875 14.015625 
L 19.390625 64.015625 
L 19.390625 0 
L 9.8125 0 
z
" id="DejaVuSans-77"/>
      </defs>
      <g style="fill:#4d4d4d;" transform="translate(46.027403 275.087201)rotate(-45)scale(0.088 -0.088)">
       <use xlink:href="#DejaVuSans-49"/>
       <use x="63.623047" xlink:href="#DejaVuSans-50"/>
       <use x="127.246094" xlink:href="#DejaVuSans-65"/>
       <use x="195.654297" xlink:href="#DejaVuSans-77"/>
      </g>
     </g>
    </g>
    <g id="xtick_2">
     <g id="line2d_2">
      <path d="M 70.003033 247.865371 
" style="fill:none;stroke:#b3b3b3;stroke-width:1.5;"/>
      <g>
       <use style="fill:#b3b3b3;stroke:#b3b3b3;stroke-width:0.5;" x="70.003033" xlink:href="#mf63776a339" y="247.865371"/>
      </g>
     </g>
     <g id="text_2">
      <!-- 01AM -->
      <defs>
       <path d="M 31.78125 66.40625 
Q 24.171875 66.40625 20.328125 58.90625 
Q 16.5 51.421875 16.5 36.375 
Q 16.5 21.390625 20.328125 13.890625 
Q 24.171875 6.390625 31.78125 6.390625 
Q 39.453125 6.390625 43.28125 13.890625 
Q 47.125 21.390625 47.125 36.375 
Q 47.125 51.421875 43.28125 58.90625 
Q 39.453125 66.40625 31.78125 66.40625 
z
M 31.78125 74.21875 
Q 44.046875 74.21875 50.515625 64.515625 
Q 56.984375 54.828125 56.984375 36.375 
Q 56.984375 17.96875 50.515625 8.265625 
Q 44.046875 -1.421875 31.78125 -1.421875 
Q 19.53125 -1.421875 13.0625 8.265625 
Q 6.59375 17.96875 6.59375 36.375 
Q 6.59375 54.828125 13.0625 64.515625 
Q 19.53125 74.21875 31.78125 74.21875 
z
" id="DejaVuSans-48"/>
      </defs>
      <g style="fill:#4d4d4d;" transform="translate(62.948229 275.087201)rotate(-45)scale(0.088 -0.088)">
       <use xlink:href="#DejaVuSans-48"/>
       <use x="63.623047" xlink:href="#DejaVuSans-49"/>
       <use x="127.246094" xlink:href="#DejaVuSans-65"/>
       <use x="195.654297" xlink:href="#DejaVuSans-77"/>
      </g>
     </g>
    </g>
    <g id="xtick_3">
     <g id="line2d_3">
      <path d="M 86.923859 247.865371 
" style="fill:none;stroke:#b3b3b3;stroke-width:1.5;"/>
      <g>
       <use style="fill:#b3b3b3;stroke:#b3b3b3;stroke-width:0.5;" x="86.923859" xlink:href="#mf63776a339" y="247.865371"/>
      </g>
     </g>
     <g id="text_3">
      <!-- 02AM -->
      <g style="fill:#4d4d4d;" transform="translate(79.869055 275.087201)rotate(-45)scale(0.088 -0.088)">
       <use xlink:href="#DejaVuSans-48"/>
       <use x="63.623047" xlink:href="#DejaVuSans-50"/>
       <use x="127.246094" xlink:href="#DejaVuSans-65"/>
       <use x="195.654297" xlink:href="#DejaVuSans-77"/>
      </g>
     </g>
    </g>
    <g id="xtick_4">
     <g id="line2d_4">
      <path d="M 103.844685 247.865371 
" style="fill:none;stroke:#b3b3b3;stroke-width:1.5;"/>
      <g>
       <use style="fill:#b3b3b3;stroke:#b3b3b3;stroke-width:0.5;" x="103.844685" xlink:href="#mf63776a339" y="247.865371"/>
      </g>
     </g>
     <g id="text_4">
      <!-- 03AM -->
      <defs>
       <path d="M 40.578125 39.3125 
Q 47.65625 37.796875 51.625 33 
Q 55.609375 28.21875 55.609375 21.1875 
Q 55.609375 10.40625 48.1875 4.484375 
Q 40.765625 -1.421875 27.09375 -1.421875 
Q 22.515625 -1.421875 17.65625 -0.515625 
Q 12.796875 0.390625 7.625 2.203125 
L 7.625 11.71875 
Q 11.71875 9.328125 16.59375 8.109375 
Q 21.484375 6.890625 26.8125 6.890625 
Q 36.078125 6.890625 40.9375 10.546875 
Q 45.796875 14.203125 45.796875 21.1875 
Q 45.796875 27.640625 41.28125 31.265625 
Q 36.765625 34.90625 28.71875 34.90625 
L 20.21875 34.90625 
L 20.21875 43.015625 
L 29.109375 43.015625 
Q 36.375 43.015625 40.234375 45.921875 
Q 44.09375 48.828125 44.09375 54.296875 
Q 44.09375 59.90625 40.109375 62.90625 
Q 36.140625 65.921875 28.71875 65.921875 
Q 24.65625 65.921875 20.015625 65.03125 
Q 15.375 64.15625 9.8125 62.3125 
L 9.8125 71.09375 
Q 15.4375 72.65625 20.34375 73.4375 
Q 25.25 74.21875 29.59375 74.21875 
Q 40.828125 74.21875 47.359375 69.109375 
Q 53.90625 64.015625 53.90625 55.328125 
Q 53.90625 49.265625 50.4375 45.09375 
Q 46.96875 40.921875 40.578125 39.3125 
z
" id="DejaVuSans-51"/>
      </defs>
      <g style="fill:#4d4d4d;" transform="translate(96.78988 275.087201)rotate(-45)scale(0.088 -0.088)">
       <use xlink:href="#DejaVuSans-48"/>
       <use x="63.623047" xlink:href="#DejaVuSans-51"/>
       <use x="127.246094" xlink:href="#DejaVuSans-65"/>
       <use x="195.654297" xlink:href="#DejaVuSans-77"/>
      </g>
     </g>
    </g>
    <g id="xtick_5">
     <g id="line2d_5">
      <path d="M 120.76551 247.865371 
" style="fill:none;stroke:#b3b3b3;stroke-width:1.5;"/>
      <g>
       <use style="fill:#b3b3b3;stroke:#b3b3b3;stroke-width:0.5;" x="120.76551" xlink:href="#mf63776a339" y="247.865371"/>
      </g>
     </g>
     <g id="text_5">
      <!-- 04AM -->
      <defs>
       <path d="M 37.796875 64.3125 
L 12.890625 25.390625 
L 37.796875 25.390625 
z
M 35.203125 72.90625 
L 47.609375 72.90625 
L 47.609375 25.390625 
L 58.015625 25.390625 
L 58.015625 17.1875 
L 47.609375 17.1875 
L 47.609375 0 
L 37.796875 0 
L 37.796875 17.1875 
L 4.890625 17.1875 
L 4.890625 26.703125 
z
" id="DejaVuSans-52"/>
      </defs>
      <g style="fill:#4d4d4d;" transform="translate(113.710706 275.087201)rotate(-45)scale(0.088 -0.088)">
       <use xlink:href="#DejaVuSans-48"/>
       <use x="63.623047" xlink:href="#DejaVuSans-52"/>
       <use x="127.246094" xlink:href="#DejaVuSans-65"/>
       <use x="195.654297" xlink:href="#DejaVuSans-77"/>
      </g>
     </g>
    </g>
    <g id="xtick_6">
     <g id="line2d_6">
      <path d="M 137.686336 247.865371 
" style="fill:none;stroke:#b3b3b3;stroke-width:1.5;"/>
      <g>
       <use style="fill:#b3b3b3;stroke:#b3b3b3;stroke-width:0.5;" x="137.686336" xlink:href="#mf63776a339" y="247.865371"/>
      </g>
     </g>
     <g id="text_6">
      <!-- 05AM -->
      <defs>
       <path d="M 10.796875 72.90625 
L 49.515625 72.90625 
L 49.515625 64.59375 
L 19.828125 64.59375 
L 19.828125 46.734375 
Q 21.96875 47.46875 24.109375 47.828125 
Q 26.265625 48.1875 28.421875 48.1875 
Q 40.625 48.1875 47.75 41.5 
Q 54.890625 34.8125 54.890625 23.390625 
Q 54.890625 11.625 47.5625 5.09375 
Q 40.234375 -1.421875 26.90625 -1.421875 
Q 22.3125 -1.421875 17.546875 -0.640625 
Q 12.796875 0.140625 7.71875 1.703125 
L 7.71875 11.625 
Q 12.109375 9.234375 16.796875 8.0625 
Q 21.484375 6.890625 26.703125 6.890625 
Q 35.15625 6.890625 40.078125 11.328125 
Q 45.015625 15.765625 45.015625 23.390625 
Q 45.015625 31 40.078125 35.4375 
Q 35.15625 39.890625 26.703125 39.890625 
Q 22.75 39.890625 18.8125 39.015625 
Q 14.890625 38.140625 10.796875 36.28125 
z
" id="DejaVuSans-53"/>
      </defs>
      <g style="fill:#4d4d4d;" transform="translate(130.631532 275.087201)rotate(-45)scale(0.088 -0.088)">
       <use xlink:href="#DejaVuSans-48"/>
       <use x="63.623047" xlink:href="#DejaVuSans-53"/>
       <use x="127.246094" xlink:href="#DejaVuSans-65"/>
       <use x="195.654297" xlink:href="#DejaVuSans-77"/>
      </g>
     </g>
    </g>
    <g id="xtick_7">
     <g id="line2d_7">
      <path d="M 154.607162 247.865371 
" style="fill:none;stroke:#b3b3b3;stroke-width:1.5;"/>
      <g>
       <use style="fill:#b3b3b3;stroke:#b3b3b3;stroke-width:0.5;" x="154.607162" xlink:href="#mf63776a339" y="247.865371"/>
      </g>
     </g>
     <g id="text_7">
      <!-- 06AM -->
      <defs>
       <path d="M 33.015625 40.375 
Q 26.375 40.375 22.484375 35.828125 
Q 18.609375 31.296875 18.609375 23.390625 
Q 18.609375 15.53125 22.484375 10.953125 
Q 26.375 6.390625 33.015625 6.390625 
Q 39.65625 6.390625 43.53125 10.953125 
Q 47.40625 15.53125 47.40625 23.390625 
Q 47.40625 31.296875 43.53125 35.828125 
Q 39.65625 40.375 33.015625 40.375 
z
M 52.59375 71.296875 
L 52.59375 62.3125 
Q 48.875 64.0625 45.09375 64.984375 
Q 41.3125 65.921875 37.59375 65.921875 
Q 27.828125 65.921875 22.671875 59.328125 
Q 17.53125 52.734375 16.796875 39.40625 
Q 19.671875 43.65625 24.015625 45.921875 
Q 28.375 48.1875 33.59375 48.1875 
Q 44.578125 48.1875 50.953125 41.515625 
Q 57.328125 34.859375 57.328125 23.390625 
Q 57.328125 12.15625 50.6875 5.359375 
Q 44.046875 -1.421875 33.015625 -1.421875 
Q 20.359375 -1.421875 13.671875 8.265625 
Q 6.984375 17.96875 6.984375 36.375 
Q 6.984375 53.65625 15.1875 63.9375 
Q 23.390625 74.21875 37.203125 74.21875 
Q 40.921875 74.21875 44.703125 73.484375 
Q 48.484375 72.75 52.59375 71.296875 
z
" id="DejaVuSans-54"/>
      </defs>
      <g style="fill:#4d4d4d;" transform="translate(147.552358 275.087201)rotate(-45)scale(0.088 -0.088)">
       <use xlink:href="#DejaVuSans-48"/>
       <use x="63.623047" xlink:href="#DejaVuSans-54"/>
       <use x="127.246094" xlink:href="#DejaVuSans-65"/>
       <use x="195.654297" xlink:href="#DejaVuSans-77"/>
      </g>
     </g>
    </g>
    <g id="xtick_8">
     <g id="line2d_8">
      <path d="M 171.527988 247.865371 
" style="fill:none;stroke:#b3b3b3;stroke-width:1.5;"/>
      <g>
       <use style="fill:#b3b3b3;stroke:#b3b3b3;stroke-width:0.5;" x="171.527988" xlink:href="#mf63776a339" y="247.865371"/>
      </g>
     </g>
     <g id="text_8">
      <!-- 07AM -->
      <defs>
       <path d="M 8.203125 72.90625 
L 55.078125 72.90625 
L 55.078125 68.703125 
L 28.609375 0 
L 18.3125 0 
L 43.21875 64.59375 
L 8.203125 64.59375 
z
" id="DejaVuSans-55"/>
      </defs>
      <g style="fill:#4d4d4d;" transform="translate(164.473184 275.087201)rotate(-45)scale(0.088 -0.088)">
       <use xlink:href="#DejaVuSans-48"/>
       <use x="63.623047" xlink:href="#DejaVuSans-55"/>
       <use x="127.246094" xlink:href="#DejaVuSans-65"/>
       <use x="195.654297" xlink:href="#DejaVuSans-77"/>
      </g>
     </g>
    </g>
    <g id="xtick_9">
     <g id="line2d_9">
      <path d="M 188.448814 247.865371 
" style="fill:none;stroke:#b3b3b3;stroke-width:1.5;"/>
      <g>
       <use style="fill:#b3b3b3;stroke:#b3b3b3;stroke-width:0.5;" x="188.448814" xlink:href="#mf63776a339" y="247.865371"/>
      </g>
     </g>
     <g id="text_9">
      <!-- 08AM -->
      <defs>
       <path d="M 31.78125 34.625 
Q 24.75 34.625 20.71875 30.859375 
Q 16.703125 27.09375 16.703125 20.515625 
Q 16.703125 13.921875 20.71875 10.15625 
Q 24.75 6.390625 31.78125 6.390625 
Q 38.8125 6.390625 42.859375 10.171875 
Q 46.921875 13.96875 46.921875 20.515625 
Q 46.921875 27.09375 42.890625 30.859375 
Q 38.875 34.625 31.78125 34.625 
z
M 21.921875 38.8125 
Q 15.578125 40.375 12.03125 44.71875 
Q 8.5 49.078125 8.5 55.328125 
Q 8.5 64.0625 14.71875 69.140625 
Q 20.953125 74.21875 31.78125 74.21875 
Q 42.671875 74.21875 48.875 69.140625 
Q 55.078125 64.0625 55.078125 55.328125 
Q 55.078125 49.078125 51.53125 44.71875 
Q 48 40.375 41.703125 38.8125 
Q 48.828125 37.15625 52.796875 32.3125 
Q 56.78125 27.484375 56.78125 20.515625 
Q 56.78125 9.90625 50.3125 4.234375 
Q 43.84375 -1.421875 31.78125 -1.421875 
Q 19.734375 -1.421875 13.25 4.234375 
Q 6.78125 9.90625 6.78125 20.515625 
Q 6.78125 27.484375 10.78125 32.3125 
Q 14.796875 37.15625 21.921875 38.8125 
z
M 18.3125 54.390625 
Q 18.3125 48.734375 21.84375 45.5625 
Q 25.390625 42.390625 31.78125 42.390625 
Q 38.140625 42.390625 41.71875 45.5625 
Q 45.3125 48.734375 45.3125 54.390625 
Q 45.3125 60.0625 41.71875 63.234375 
Q 38.140625 66.40625 31.78125 66.40625 
Q 25.390625 66.40625 21.84375 63.234375 
Q 18.3125 60.0625 18.3125 54.390625 
z
" id="DejaVuSans-56"/>
      </defs>
      <g style="fill:#4d4d4d;" transform="translate(181.394009 275.087201)rotate(-45)scale(0.088 -0.088)">
       <use xlink:href="#DejaVuSans-48"/>
       <use x="63.623047" xlink:href="#DejaVuSans-56"/>
       <use x="127.246094" xlink:href="#DejaVuSans-65"/>
       <use x="195.654297" xlink:href="#DejaVuSans-77"/>
      </g>
     </g>
    </g>
    <g id="xtick_10">
     <g id="line2d_10">
      <path d="M 205.36964 247.865371 
" style="fill:none;stroke:#b3b3b3;stroke-width:1.5;"/>
      <g>
       <use style="fill:#b3b3b3;stroke:#b3b3b3;stroke-width:0.5;" x="205.36964" xlink:href="#mf63776a339" y="247.865371"/>
      </g>
     </g>
     <g id="text_10">
      <!-- 09AM -->
      <defs>
       <path d="M 10.984375 1.515625 
L 10.984375 10.5 
Q 14.703125 8.734375 18.5 7.8125 
Q 22.3125 6.890625 25.984375 6.890625 
Q 35.75 6.890625 40.890625 13.453125 
Q 46.046875 20.015625 46.78125 33.40625 
Q 43.953125 29.203125 39.59375 26.953125 
Q 35.25 24.703125 29.984375 24.703125 
Q 19.046875 24.703125 12.671875 31.3125 
Q 6.296875 37.9375 6.296875 49.421875 
Q 6.296875 60.640625 12.9375 67.421875 
Q 19.578125 74.21875 30.609375 74.21875 
Q 43.265625 74.21875 49.921875 64.515625 
Q 56.59375 54.828125 56.59375 36.375 
Q 56.59375 19.140625 48.40625 8.859375 
Q 40.234375 -1.421875 26.421875 -1.421875 
Q 22.703125 -1.421875 18.890625 -0.6875 
Q 15.09375 0.046875 10.984375 1.515625 
z
M 30.609375 32.421875 
Q 37.25 32.421875 41.125 36.953125 
Q 45.015625 41.5 45.015625 49.421875 
Q 45.015625 57.28125 41.125 61.84375 
Q 37.25 66.40625 30.609375 66.40625 
Q 23.96875 66.40625 20.09375 61.84375 
Q 16.21875 57.28125 16.21875 49.421875 
Q 16.21875 41.5 20.09375 36.953125 
Q 23.96875 32.421875 30.609375 32.421875 
z
" id="DejaVuSans-57"/>
      </defs>
      <g style="fill:#4d4d4d;" transform="translate(198.314835 275.087201)rotate(-45)scale(0.088 -0.088)">
       <use xlink:href="#DejaVuSans-48"/>
       <use x="63.623047" xlink:href="#DejaVuSans-57"/>
       <use x="127.246094" xlink:href="#DejaVuSans-65"/>
       <use x="195.654297" xlink:href="#DejaVuSans-77"/>
      </g>
     </g>
    </g>
    <g id="xtick_11">
     <g id="line2d_11">
      <path d="M 222.290465 247.865371 
" style="fill:none;stroke:#b3b3b3;stroke-width:1.5;"/>
      <g>
       <use style="fill:#b3b3b3;stroke:#b3b3b3;stroke-width:0.5;" x="222.290465" xlink:href="#mf63776a339" y="247.865371"/>
      </g>
     </g>
     <g id="text_11">
      <!-- 10AM -->
      <g style="fill:#4d4d4d;" transform="translate(215.235661 275.087201)rotate(-45)scale(0.088 -0.088)">
       <use xlink:href="#DejaVuSans-49"/>
       <use x="63.623047" xlink:href="#DejaVuSans-48"/>
       <use x="127.246094" xlink:href="#DejaVuSans-65"/>
       <use x="195.654297" xlink:href="#DejaVuSans-77"/>
      </g>
     </g>
    </g>
    <g id="xtick_12">
     <g id="line2d_12">
      <path d="M 239.211291 247.865371 
" style="fill:none;stroke:#b3b3b3;stroke-width:1.5;"/>
      <g>
       <use style="fill:#b3b3b3;stroke:#b3b3b3;stroke-width:0.5;" x="239.211291" xlink:href="#mf63776a339" y="247.865371"/>
      </g>
     </g>
     <g id="text_12">
      <!-- 11AM -->
      <g style="fill:#4d4d4d;" transform="translate(232.156487 275.087201)rotate(-45)scale(0.088 -0.088)">
       <use xlink:href="#DejaVuSans-49"/>
       <use x="63.623047" xlink:href="#DejaVuSans-49"/>
       <use x="127.246094" xlink:href="#DejaVuSans-65"/>
       <use x="195.654297" xlink:href="#DejaVuSans-77"/>
      </g>
     </g>
    </g>
    <g id="xtick_13">
     <g id="line2d_13">
      <path d="M 256.132117 247.865371 
" style="fill:none;stroke:#b3b3b3;stroke-width:1.5;"/>
      <g>
       <use style="fill:#b3b3b3;stroke:#b3b3b3;stroke-width:0.5;" x="256.132117" xlink:href="#mf63776a339" y="247.865371"/>
      </g>
     </g>
     <g id="text_13">
      <!-- 12PM -->
      <defs>
       <path d="M 19.671875 64.796875 
L 19.671875 37.40625 
L 32.078125 37.40625 
Q 38.96875 37.40625 42.71875 40.96875 
Q 46.484375 44.53125 46.484375 51.125 
Q 46.484375 57.671875 42.71875 61.234375 
Q 38.96875 64.796875 32.078125 64.796875 
z
M 9.8125 72.90625 
L 32.078125 72.90625 
Q 44.34375 72.90625 50.609375 67.359375 
Q 56.890625 61.8125 56.890625 51.125 
Q 56.890625 40.328125 50.609375 34.8125 
Q 44.34375 29.296875 32.078125 29.296875 
L 19.671875 29.296875 
L 19.671875 0 
L 9.8125 0 
z
" id="DejaVuSans-80"/>
      </defs>
      <g style="fill:#4d4d4d;" transform="translate(249.329617 274.582592)rotate(-45)scale(0.088 -0.088)">
       <use xlink:href="#DejaVuSans-49"/>
       <use x="63.623047" xlink:href="#DejaVuSans-50"/>
       <use x="127.246094" xlink:href="#DejaVuSans-80"/>
       <use x="187.548828" xlink:href="#DejaVuSans-77"/>
      </g>
     </g>
    </g>
    <g id="xtick_14">
     <g id="line2d_14">
      <path d="M 273.052943 247.865371 
" style="fill:none;stroke:#b3b3b3;stroke-width:1.5;"/>
      <g>
       <use style="fill:#b3b3b3;stroke:#b3b3b3;stroke-width:0.5;" x="273.052943" xlink:href="#mf63776a339" y="247.865371"/>
      </g>
     </g>
     <g id="text_14">
      <!-- 01PM -->
      <g style="fill:#4d4d4d;" transform="translate(266.250443 274.582592)rotate(-45)scale(0.088 -0.088)">
       <use xlink:href="#DejaVuSans-48"/>
       <use x="63.623047" xlink:href="#DejaVuSans-49"/>
       <use x="127.246094" xlink:href="#DejaVuSans-80"/>
       <use x="187.548828" xlink:href="#DejaVuSans-77"/>
      </g>
     </g>
    </g>
    <g id="xtick_15">
     <g id="line2d_15">
      <path d="M 289.973769 247.865371 
" style="fill:none;stroke:#b3b3b3;stroke-width:1.5;"/>
      <g>
       <use style="fill:#b3b3b3;stroke:#b3b3b3;stroke-width:0.5;" x="289.973769" xlink:href="#mf63776a339" y="247.865371"/>
      </g>
     </g>
     <g id="text_15">
      <!-- 02PM -->
      <g style="fill:#4d4d4d;" transform="translate(283.171269 274.582592)rotate(-45)scale(0.088 -0.088)">
       <use xlink:href="#DejaVuSans-48"/>
       <use x="63.623047" xlink:href="#DejaVuSans-50"/>
       <use x="127.246094" xlink:href="#DejaVuSans-80"/>
       <use x="187.548828" xlink:href="#DejaVuSans-77"/>
      </g>
     </g>
    </g>
    <g id="xtick_16">
     <g id="line2d_16">
      <path d="M 306.894594 247.865371 
" style="fill:none;stroke:#b3b3b3;stroke-width:1.5;"/>
      <g>
       <use style="fill:#b3b3b3;stroke:#b3b3b3;stroke-width:0.5;" x="306.894594" xlink:href="#mf63776a339" y="247.865371"/>
      </g>
     </g>
     <g id="text_16">
      <!-- 03PM -->
      <g style="fill:#4d4d4d;" transform="translate(300.092095 274.582592)rotate(-45)scale(0.088 -0.088)">
       <use xlink:href="#DejaVuSans-48"/>
       <use x="63.623047" xlink:href="#DejaVuSans-51"/>
       <use x="127.246094" xlink:href="#DejaVuSans-80"/>
       <use x="187.548828" xlink:href="#DejaVuSans-77"/>
      </g>
     </g>
    </g>
    <g id="xtick_17">
     <g id="line2d_17">
      <path d="M 323.81542 247.865371 
" style="fill:none;stroke:#b3b3b3;stroke-width:1.5;"/>
      <g>
       <use style="fill:#b3b3b3;stroke:#b3b3b3;stroke-width:0.5;" x="323.81542" xlink:href="#mf63776a339" y="247.865371"/>
      </g>
     </g>
     <g id="text_17">
      <!-- 04PM -->
      <g style="fill:#4d4d4d;" transform="translate(317.01292 274.582592)rotate(-45)scale(0.088 -0.088)">
       <use xlink:href="#DejaVuSans-48"/>
       <use x="63.623047" xlink:href="#DejaVuSans-52"/>
       <use x="127.246094" xlink:href="#DejaVuSans-80"/>
       <use x="187.548828" xlink:href="#DejaVuSans-77"/>
      </g>
     </g>
    </g>
    <g id="xtick_18">
     <g id="line2d_18">
      <path d="M 340.736246 247.865371 
" style="fill:none;stroke:#b3b3b3;stroke-width:1.5;"/>
      <g>
       <use style="fill:#b3b3b3;stroke:#b3b3b3;stroke-width:0.5;" x="340.736246" xlink:href="#mf63776a339" y="247.865371"/>
      </g>
     </g>
     <g id="text_18">
      <!-- 05PM -->
      <g style="fill:#4d4d4d;" transform="translate(333.933746 274.582592)rotate(-45)scale(0.088 -0.088)">
       <use xlink:href="#DejaVuSans-48"/>
       <use x="63.623047" xlink:href="#DejaVuSans-53"/>
       <use x="127.246094" xlink:href="#DejaVuSans-80"/>
       <use x="187.548828" xlink:href="#DejaVuSans-77"/>
      </g>
     </g>
    </g>
    <g id="xtick_19">
     <g id="line2d_19">
      <path d="M 357.657072 247.865371 
" style="fill:none;stroke:#b3b3b3;stroke-width:1.5;"/>
      <g>
       <use style="fill:#b3b3b3;stroke:#b3b3b3;stroke-width:0.5;" x="357.657072" xlink:href="#mf63776a339" y="247.865371"/>
      </g>
     </g>
     <g id="text_19">
      <!-- 06PM -->
      <g style="fill:#4d4d4d;" transform="translate(350.854572 274.582592)rotate(-45)scale(0.088 -0.088)">
       <use xlink:href="#DejaVuSans-48"/>
       <use x="63.623047" xlink:href="#DejaVuSans-54"/>
       <use x="127.246094" xlink:href="#DejaVuSans-80"/>
       <use x="187.548828" xlink:href="#DejaVuSans-77"/>
      </g>
     </g>
    </g>
    <g id="xtick_20">
     <g id="line2d_20">
      <path d="M 374.577898 247.865371 
" style="fill:none;stroke:#b3b3b3;stroke-width:1.5;"/>
      <g>
       <use style="fill:#b3b3b3;stroke:#b3b3b3;stroke-width:0.5;" x="374.577898" xlink:href="#mf63776a339" y="247.865371"/>
      </g>
     </g>
     <g id="text_20">
      <!-- 07PM -->
      <g style="fill:#4d4d4d;" transform="translate(367.775398 274.582592)rotate(-45)scale(0.088 -0.088)">
       <use xlink:href="#DejaVuSans-48"/>
       <use x="63.623047" xlink:href="#DejaVuSans-55"/>
       <use x="127.246094" xlink:href="#DejaVuSans-80"/>
       <use x="187.548828" xlink:href="#DejaVuSans-77"/>
      </g>
     </g>
    </g>
    <g id="xtick_21">
     <g id="line2d_21">
      <path d="M 391.498724 247.865371 
" style="fill:none;stroke:#b3b3b3;stroke-width:1.5;"/>
      <g>
       <use style="fill:#b3b3b3;stroke:#b3b3b3;stroke-width:0.5;" x="391.498724" xlink:href="#mf63776a339" y="247.865371"/>
      </g>
     </g>
     <g id="text_21">
      <!-- 08PM -->
      <g style="fill:#4d4d4d;" transform="translate(384.696224 274.582592)rotate(-45)scale(0.088 -0.088)">
       <use xlink:href="#DejaVuSans-48"/>
       <use x="63.623047" xlink:href="#DejaVuSans-56"/>
       <use x="127.246094" xlink:href="#DejaVuSans-80"/>
       <use x="187.548828" xlink:href="#DejaVuSans-77"/>
      </g>
     </g>
    </g>
    <g id="xtick_22">
     <g id="line2d_22">
      <path d="M 408.419549 247.865371 
" style="fill:none;stroke:#b3b3b3;stroke-width:1.5;"/>
      <g>
       <use style="fill:#b3b3b3;stroke:#b3b3b3;stroke-width:0.5;" x="408.419549" xlink:href="#mf63776a339" y="247.865371"/>
      </g>
     </g>
     <g id="text_22">
      <!-- 09PM -->
      <g style="fill:#4d4d4d;" transform="translate(401.617049 274.582592)rotate(-45)scale(0.088 -0.088)">
       <use xlink:href="#DejaVuSans-48"/>
       <use x="63.623047" xlink:href="#DejaVuSans-57"/>
       <use x="127.246094" xlink:href="#DejaVuSans-80"/>
       <use x="187.548828" xlink:href="#DejaVuSans-77"/>
      </g>
     </g>
    </g>
    <g id="xtick_23">
     <g id="line2d_23">
      <path d="M 425.340375 247.865371 
" style="fill:none;stroke:#b3b3b3;stroke-width:1.5;"/>
      <g>
       <use style="fill:#b3b3b3;stroke:#b3b3b3;stroke-width:0.5;" x="425.340375" xlink:href="#mf63776a339" y="247.865371"/>
      </g>
     </g>
     <g id="text_23">
      <!-- 10PM -->
      <g style="fill:#4d4d4d;" transform="translate(418.537875 274.582592)rotate(-45)scale(0.088 -0.088)">
       <use xlink:href="#DejaVuSans-49"/>
       <use x="63.623047" xlink:href="#DejaVuSans-48"/>
       <use x="127.246094" xlink:href="#DejaVuSans-80"/>
       <use x="187.548828" xlink:href="#DejaVuSans-77"/>
      </g>
     </g>
    </g>
    <g id="xtick_24">
     <g id="line2d_24">
      <path d="M 442.261201 247.865371 
" style="fill:none;stroke:#b3b3b3;stroke-width:1.5;"/>
      <g>
       <use style="fill:#b3b3b3;stroke:#b3b3b3;stroke-width:0.5;" x="442.261201" xlink:href="#mf63776a339" y="247.865371"/>
      </g>
     </g>
     <g id="text_24">
      <!-- 11PM -->
      <g style="fill:#4d4d4d;" transform="translate(435.458701 274.582592)rotate(-45)scale(0.088 -0.088)">
       <use xlink:href="#DejaVuSans-49"/>
       <use x="63.623047" xlink:href="#DejaVuSans-49"/>
       <use x="127.246094" xlink:href="#DejaVuSans-80"/>
       <use x="187.548828" xlink:href="#DejaVuSans-77"/>
      </g>
     </g>
    </g>
    <g id="xtick_25">
     <g id="line2d_25">
      <path d="M 459.182027 247.865371 
" style="fill:none;stroke:#b3b3b3;stroke-width:1.5;"/>
      <g>
       <use style="fill:#b3b3b3;stroke:#b3b3b3;stroke-width:0.5;" x="459.182027" xlink:href="#mf63776a339" y="247.865371"/>
      </g>
     </g>
     <g id="text_25">
      <!-- 12AM -->
      <g style="fill:#4d4d4d;" transform="translate(452.127222 275.087201)rotate(-45)scale(0.088 -0.088)">
       <use xlink:href="#DejaVuSans-49"/>
       <use x="63.623047" xlink:href="#DejaVuSans-50"/>
       <use x="127.246094" xlink:href="#DejaVuSans-65"/>
       <use x="195.654297" xlink:href="#DejaVuSans-77"/>
      </g>
     </g>
    </g>
    <g id="xtick_26">
     <g id="line2d_26">
      <path d="M 61.54262 247.865371 
" style="fill:none;stroke:#b3b3b3;stroke-width:1.5;"/>
      <defs>
       <path d="M 0 0 
L 0 1.375 
" id="mde443086d2" style="stroke:#b3b3b3;stroke-width:0.5;"/>
      </defs>
      <g>
       <use style="fill:#b3b3b3;stroke:#b3b3b3;stroke-width:0.5;" x="61.54262" xlink:href="#mde443086d2" y="247.865371"/>
      </g>
     </g>
    </g>
    <g id="xtick_27">
     <g id="line2d_27">
      <path d="M 78.463446 247.865371 
" style="fill:none;stroke:#b3b3b3;stroke-width:1.5;"/>
      <g>
       <use style="fill:#b3b3b3;stroke:#b3b3b3;stroke-width:0.5;" x="78.463446" xlink:href="#mde443086d2" y="247.865371"/>
      </g>
     </g>
    </g>
    <g id="xtick_28">
     <g id="line2d_28">
      <path d="M 95.384272 247.865371 
" style="fill:none;stroke:#b3b3b3;stroke-width:1.5;"/>
      <g>
       <use style="fill:#b3b3b3;stroke:#b3b3b3;stroke-width:0.5;" x="95.384272" xlink:href="#mde443086d2" y="247.865371"/>
      </g>
     </g>
    </g>
    <g id="xtick_29">
     <g id="line2d_29">
      <path d="M 112.305098 247.865371 
" style="fill:none;stroke:#b3b3b3;stroke-width:1.5;"/>
      <g>
       <use style="fill:#b3b3b3;stroke:#b3b3b3;stroke-width:0.5;" x="112.305098" xlink:href="#mde443086d2" y="247.865371"/>
      </g>
     </g>
    </g>
    <g id="xtick_30">
     <g id="line2d_30">
      <path d="M 129.225923 247.865371 
" style="fill:none;stroke:#b3b3b3;stroke-width:1.5;"/>
      <g>
       <use style="fill:#b3b3b3;stroke:#b3b3b3;stroke-width:0.5;" x="129.225923" xlink:href="#mde443086d2" y="247.865371"/>
      </g>
     </g>
    </g>
    <g id="xtick_31">
     <g id="line2d_31">
      <path d="M 146.146749 247.865371 
" style="fill:none;stroke:#b3b3b3;stroke-width:1.5;"/>
      <g>
       <use style="fill:#b3b3b3;stroke:#b3b3b3;stroke-width:0.5;" x="146.146749" xlink:href="#mde443086d2" y="247.865371"/>
      </g>
     </g>
    </g>
    <g id="xtick_32">
     <g id="line2d_32">
      <path d="M 163.067575 247.865371 
" style="fill:none;stroke:#b3b3b3;stroke-width:1.5;"/>
      <g>
       <use style="fill:#b3b3b3;stroke:#b3b3b3;stroke-width:0.5;" x="163.067575" xlink:href="#mde443086d2" y="247.865371"/>
      </g>
     </g>
    </g>
    <g id="xtick_33">
     <g id="line2d_33">
      <path d="M 179.988401 247.865371 
" style="fill:none;stroke:#b3b3b3;stroke-width:1.5;"/>
      <g>
       <use style="fill:#b3b3b3;stroke:#b3b3b3;stroke-width:0.5;" x="179.988401" xlink:href="#mde443086d2" y="247.865371"/>
      </g>
     </g>
    </g>
    <g id="xtick_34">
     <g id="line2d_34">
      <path d="M 196.909227 247.865371 
" style="fill:none;stroke:#b3b3b3;stroke-width:1.5;"/>
      <g>
       <use style="fill:#b3b3b3;stroke:#b3b3b3;stroke-width:0.5;" x="196.909227" xlink:href="#mde443086d2" y="247.865371"/>
      </g>
     </g>
    </g>
    <g id="xtick_35">
     <g id="line2d_35">
      <path d="M 213.830052 247.865371 
" style="fill:none;stroke:#b3b3b3;stroke-width:1.5;"/>
      <g>
       <use style="fill:#b3b3b3;stroke:#b3b3b3;stroke-width:0.5;" x="213.830052" xlink:href="#mde443086d2" y="247.865371"/>
      </g>
     </g>
    </g>
    <g id="xtick_36">
     <g id="line2d_36">
      <path d="M 230.750878 247.865371 
" style="fill:none;stroke:#b3b3b3;stroke-width:1.5;"/>
      <g>
       <use style="fill:#b3b3b3;stroke:#b3b3b3;stroke-width:0.5;" x="230.750878" xlink:href="#mde443086d2" y="247.865371"/>
      </g>
     </g>
    </g>
    <g id="xtick_37">
     <g id="line2d_37">
      <path d="M 247.671704 247.865371 
" style="fill:none;stroke:#b3b3b3;stroke-width:1.5;"/>
      <g>
       <use style="fill:#b3b3b3;stroke:#b3b3b3;stroke-width:0.5;" x="247.671704" xlink:href="#mde443086d2" y="247.865371"/>
      </g>
     </g>
    </g>
    <g id="xtick_38">
     <g id="line2d_38">
      <path d="M 264.59253 247.865371 
" style="fill:none;stroke:#b3b3b3;stroke-width:1.5;"/>
      <g>
       <use style="fill:#b3b3b3;stroke:#b3b3b3;stroke-width:0.5;" x="264.59253" xlink:href="#mde443086d2" y="247.865371"/>
      </g>
     </g>
    </g>
    <g id="xtick_39">
     <g id="line2d_39">
      <path d="M 281.513356 247.865371 
" style="fill:none;stroke:#b3b3b3;stroke-width:1.5;"/>
      <g>
       <use style="fill:#b3b3b3;stroke:#b3b3b3;stroke-width:0.5;" x="281.513356" xlink:href="#mde443086d2" y="247.865371"/>
      </g>
     </g>
    </g>
    <g id="xtick_40">
     <g id="line2d_40">
      <path d="M 298.434182 247.865371 
" style="fill:none;stroke:#b3b3b3;stroke-width:1.5;"/>
      <g>
       <use style="fill:#b3b3b3;stroke:#b3b3b3;stroke-width:0.5;" x="298.434182" xlink:href="#mde443086d2" y="247.865371"/>
      </g>
     </g>
    </g>
    <g id="xtick_41">
     <g id="line2d_41">
      <path d="M 315.355007 247.865371 
" style="fill:none;stroke:#b3b3b3;stroke-width:1.5;"/>
      <g>
       <use style="fill:#b3b3b3;stroke:#b3b3b3;stroke-width:0.5;" x="315.355007" xlink:href="#mde443086d2" y="247.865371"/>
      </g>
     </g>
    </g>
    <g id="xtick_42">
     <g id="line2d_42">
      <path d="M 332.275833 247.865371 
" style="fill:none;stroke:#b3b3b3;stroke-width:1.5;"/>
      <g>
       <use style="fill:#b3b3b3;stroke:#b3b3b3;stroke-width:0.5;" x="332.275833" xlink:href="#mde443086d2" y="247.865371"/>
      </g>
     </g>
    </g>
    <g id="xtick_43">
     <g id="line2d_43">
      <path d="M 349.196659 247.865371 
" style="fill:none;stroke:#b3b3b3;stroke-width:1.5;"/>
      <g>
       <use style="fill:#b3b3b3;stroke:#b3b3b3;stroke-width:0.5;" x="349.196659" xlink:href="#mde443086d2" y="247.865371"/>
      </g>
     </g>
    </g>
    <g id="xtick_44">
     <g id="line2d_44">
      <path d="M 366.117485 247.865371 
" style="fill:none;stroke:#b3b3b3;stroke-width:1.5;"/>
      <g>
       <use style="fill:#b3b3b3;stroke:#b3b3b3;stroke-width:0.5;" x="366.117485" xlink:href="#mde443086d2" y="247.865371"/>
      </g>
     </g>
    </g>
    <g id="xtick_45">
     <g id="line2d_45">
      <path d="M 383.038311 247.865371 
" style="fill:none;stroke:#b3b3b3;stroke-width:1.5;"/>
      <g>
       <use style="fill:#b3b3b3;stroke:#b3b3b3;stroke-width:0.5;" x="383.038311" xlink:href="#mde443086d2" y="247.865371"/>
      </g>
     </g>
    </g>
    <g id="xtick_46">
     <g id="line2d_46">
      <path d="M 399.959136 247.865371 
" style="fill:none;stroke:#b3b3b3;stroke-width:1.5;"/>
      <g>
       <use style="fill:#b3b3b3;stroke:#b3b3b3;stroke-width:0.5;" x="399.959136" xlink:href="#mde443086d2" y="247.865371"/>
      </g>
     </g>
    </g>
    <g id="xtick_47">
     <g id="line2d_47">
      <path d="M 416.879962 247.865371 
" style="fill:none;stroke:#b3b3b3;stroke-width:1.5;"/>
      <g>
       <use style="fill:#b3b3b3;stroke:#b3b3b3;stroke-width:0.5;" x="416.879962" xlink:href="#mde443086d2" y="247.865371"/>
      </g>
     </g>
    </g>
    <g id="xtick_48">
     <g id="line2d_48">
      <path d="M 433.800788 247.865371 
" style="fill:none;stroke:#b3b3b3;stroke-width:1.5;"/>
      <g>
       <use style="fill:#b3b3b3;stroke:#b3b3b3;stroke-width:0.5;" x="433.800788" xlink:href="#mde443086d2" y="247.865371"/>
      </g>
     </g>
    </g>
    <g id="xtick_49">
     <g id="line2d_49">
      <path d="M 450.721614 247.865371 
" style="fill:none;stroke:#b3b3b3;stroke-width:1.5;"/>
      <g>
       <use style="fill:#b3b3b3;stroke:#b3b3b3;stroke-width:0.5;" x="450.721614" xlink:href="#mde443086d2" y="247.865371"/>
      </g>
     </g>
    </g>
   </g>
   <g id="matplotlib.axis_2">
    <g id="ytick_1">
     <g id="line2d_50">
      <path clip-path="url(#pea7099f7cf)" d="M 32.809375 226.618862 
L 479.209375 226.618862 
" style="fill:none;stroke:#d9d9d9;stroke-width:0.5;"/>
     </g>
     <g id="line2d_51">
      <path d="M 32.809375 226.618862 
" style="fill:none;stroke:#b3b3b3;stroke-width:1.5;"/>
      <defs>
       <path d="M 0 0 
L -2.75 0 
" id="m665ae87bf4" style="stroke:#b3b3b3;stroke-width:0.5;"/>
      </defs>
      <g>
       <use style="fill:#b3b3b3;stroke:#b3b3b3;stroke-width:0.5;" x="32.809375" xlink:href="#m665ae87bf4" y="226.618862"/>
      </g>
     </g>
     <g id="text_26">
      <!-- 83°F -->
      <defs>
       <path d="M 25 67.921875 
Q 21.09375 67.921875 18.40625 65.203125 
Q 15.71875 62.5 15.71875 58.59375 
Q 15.71875 54.734375 18.40625 52.078125 
Q 21.09375 49.421875 25 49.421875 
Q 28.90625 49.421875 31.59375 52.078125 
Q 34.28125 54.734375 34.28125 58.59375 
Q 34.28125 62.453125 31.5625 65.1875 
Q 28.859375 67.921875 25 67.921875 
z
M 25 74.21875 
Q 28.125 74.21875 31 73.015625 
Q 33.890625 71.828125 35.984375 69.578125 
Q 38.234375 67.390625 39.359375 64.59375 
Q 40.484375 61.8125 40.484375 58.59375 
Q 40.484375 52.15625 35.96875 47.6875 
Q 31.453125 43.21875 24.90625 43.21875 
Q 18.3125 43.21875 13.90625 47.609375 
Q 9.515625 52 9.515625 58.59375 
Q 9.515625 65.140625 14 69.671875 
Q 18.5 74.21875 25 74.21875 
z
" id="DejaVuSans-176"/>
       <path d="M 9.8125 72.90625 
L 51.703125 72.90625 
L 51.703125 64.59375 
L 19.671875 64.59375 
L 19.671875 43.109375 
L 48.578125 43.109375 
L 48.578125 34.8125 
L 19.671875 34.8125 
L 19.671875 0 
L 9.8125 0 
z
" id="DejaVuSans-70"/>
      </defs>
      <g style="fill:#4d4d4d;" transform="translate(7.2 229.047112)scale(0.088 -0.088)">
       <use xlink:href="#DejaVuSans-56"/>
       <use x="63.623047" xlink:href="#DejaVuSans-51"/>
       <use x="127.246094" xlink:href="#DejaVuSans-176"/>
       <use x="177.246094" xlink:href="#DejaVuSans-70"/>
      </g>
     </g>
    </g>
    <g id="ytick_2">
     <g id="line2d_52">
      <path clip-path="url(#pea7099f7cf)" d="M 32.809375 186.213931 
L 479.209375 186.213931 
" style="fill:none;stroke:#d9d9d9;stroke-width:0.5;"/>
     </g>
     <g id="line2d_53">
      <path d="M 32.809375 186.213931 
" style="fill:none;stroke:#b3b3b3;stroke-width:1.5;"/>
      <g>
       <use style="fill:#b3b3b3;stroke:#b3b3b3;stroke-width:0.5;" x="32.809375" xlink:href="#m665ae87bf4" y="186.213931"/>
      </g>
     </g>
     <g id="text_27">
      <!-- 85°F -->
      <g style="fill:#4d4d4d;" transform="translate(7.2 188.642181)scale(0.088 -0.088)">
       <use xlink:href="#DejaVuSans-56"/>
       <use x="63.623047" xlink:href="#DejaVuSans-53"/>
       <use x="127.246094" xlink:href="#DejaVuSans-176"/>
       <use x="177.246094" xlink:href="#DejaVuSans-70"/>
      </g>
     </g>
    </g>
    <g id="ytick_3">
     <g id="line2d_54">
      <path clip-path="url(#pea7099f7cf)" d="M 32.809375 145.809 
L 479.209375 145.809 
" style="fill:none;stroke:#d9d9d9;stroke-width:0.5;"/>
     </g>
     <g id="line2d_55">
      <path d="M 32.809375 145.809 
" style="fill:none;stroke:#b3b3b3;stroke-width:1.5;"/>
      <g>
       <use style="fill:#b3b3b3;stroke:#b3b3b3;stroke-width:0.5;" x="32.809375" xlink:href="#m665ae87bf4" y="145.809"/>
      </g>
     </g>
     <g id="text_28">
      <!-- 87°F -->
      <g style="fill:#4d4d4d;" transform="translate(7.2 148.23725)scale(0.088 -0.088)">
       <use xlink:href="#DejaVuSans-56"/>
       <use x="63.623047" xlink:href="#DejaVuSans-55"/>
       <use x="127.246094" xlink:href="#DejaVuSans-176"/>
       <use x="177.246094" xlink:href="#DejaVuSans-70"/>
      </g>
     </g>
    </g>
    <g id="ytick_4">
     <g id="line2d_56">
      <path clip-path="url(#pea7099f7cf)" d="M 32.809375 105.404068 
L 479.209375 105.404068 
" style="fill:none;stroke:#d9d9d9;stroke-width:0.5;"/>
     </g>
     <g id="line2d_57">
      <path d="M 32.809375 105.404068 
" style="fill:none;stroke:#b3b3b3;stroke-width:1.5;"/>
      <g>
       <use style="fill:#b3b3b3;stroke:#b3b3b3;stroke-width:0.5;" x="32.809375" xlink:href="#m665ae87bf4" y="105.404068"/>
      </g>
     </g>
     <g id="text_29">
      <!-- 89°F -->
      <g style="fill:#4d4d4d;" transform="translate(7.2 107.832318)scale(0.088 -0.088)">
       <use xlink:href="#DejaVuSans-56"/>
       <use x="63.623047" xlink:href="#DejaVuSans-57"/>
       <use x="127.246094" xlink:href="#DejaVuSans-176"/>
       <use x="177.246094" xlink:href="#DejaVuSans-70"/>
      </g>
     </g>
    </g>
    <g id="ytick_5">
     <g id="line2d_58">
      <path clip-path="url(#pea7099f7cf)" d="M 32.809375 64.999137 
L 479.209375 64.999137 
" style="fill:none;stroke:#d9d9d9;stroke-width:0.5;"/>
     </g>
     <g id="line2d_59">
      <path d="M 32.809375 64.999137 
" style="fill:none;stroke:#b3b3b3;stroke-width:1.5;"/>
      <g>
       <use style="fill:#b3b3b3;stroke:#b3b3b3;stroke-width:0.5;" x="32.809375" xlink:href="#m665ae87bf4" y="64.999137"/>
      </g>
     </g>
     <g id="text_30">
      <!-- 91°F -->
      <g style="fill:#4d4d4d;" transform="translate(7.2 67.427387)scale(0.088 -0.088)">
       <use xlink:href="#DejaVuSans-57"/>
       <use x="63.623047" xlink:href="#DejaVuSans-49"/>
       <use x="127.246094" xlink:href="#DejaVuSans-176"/>
       <use x="177.246094" xlink:href="#DejaVuSans-70"/>
      </g>
     </g>
    </g>
    <g id="ytick_6">
     <g id="line2d_60">
      <path clip-path="url(#pea7099f7cf)" d="M 32.809375 246.821328 
L 479.209375 246.821328 
" style="fill:none;stroke:#ededed;stroke-width:0.25;"/>
     </g>
     <g id="line2d_61">
      <path d="M 32.809375 246.821328 
" style="fill:none;stroke:#b3b3b3;stroke-width:1.5;"/>
      <defs>
       <path d="M 0 0 
L -1.375 0 
" id="m42a0048e98" style="stroke:#b3b3b3;stroke-width:0.5;"/>
      </defs>
      <g>
       <use style="fill:#b3b3b3;stroke:#b3b3b3;stroke-width:0.5;" x="32.809375" xlink:href="#m42a0048e98" y="246.821328"/>
      </g>
     </g>
    </g>
    <g id="ytick_7">
     <g id="line2d_62">
      <path clip-path="url(#pea7099f7cf)" d="M 32.809375 206.416396 
L 479.209375 206.416396 
" style="fill:none;stroke:#ededed;stroke-width:0.25;"/>
     </g>
     <g id="line2d_63">
      <path d="M 32.809375 206.416396 
" style="fill:none;stroke:#b3b3b3;stroke-width:1.5;"/>
      <g>
       <use style="fill:#b3b3b3;stroke:#b3b3b3;stroke-width:0.5;" x="32.809375" xlink:href="#m42a0048e98" y="206.416396"/>
      </g>
     </g>
    </g>
    <g id="ytick_8">
     <g id="line2d_64">
      <path clip-path="url(#pea7099f7cf)" d="M 32.809375 166.011465 
L 479.209375 166.011465 
" style="fill:none;stroke:#ededed;stroke-width:0.25;"/>
     </g>
     <g id="line2d_65">
      <path d="M 32.809375 166.011465 
" style="fill:none;stroke:#b3b3b3;stroke-width:1.5;"/>
      <g>
       <use style="fill:#b3b3b3;stroke:#b3b3b3;stroke-width:0.5;" x="32.809375" xlink:href="#m42a0048e98" y="166.011465"/>
      </g>
     </g>
    </g>
    <g id="ytick_9">
     <g id="line2d_66">
      <path clip-path="url(#pea7099f7cf)" d="M 32.809375 125.606534 
L 479.209375 125.606534 
" style="fill:none;stroke:#ededed;stroke-width:0.25;"/>
     </g>
     <g id="line2d_67">
      <path d="M 32.809375 125.606534 
" style="fill:none;stroke:#b3b3b3;stroke-width:1.5;"/>
      <g>
       <use style="fill:#b3b3b3;stroke:#b3b3b3;stroke-width:0.5;" x="32.809375" xlink:href="#m42a0048e98" y="125.606534"/>
      </g>
     </g>
    </g>
    <g id="ytick_10">
     <g id="line2d_68">
      <path clip-path="url(#pea7099f7cf)" d="M 32.809375 85.201603 
L 479.209375 85.201603 
" style="fill:none;stroke:#ededed;stroke-width:0.25;"/>
     </g>
     <g id="line2d_69">
      <path d="M 32.809375 85.201603 
" style="fill:none;stroke:#b3b3b3;stroke-width:1.5;"/>
      <g>
       <use style="fill:#b3b3b3;stroke:#b3b3b3;stroke-width:0.5;" x="32.809375" xlink:href="#m42a0048e98" y="85.201603"/>
      </g>
     </g>
    </g>
    <g id="ytick_11">
     <g id="line2d_70">
      <path clip-path="url(#pea7099f7cf)" d="M 32.809375 44.796672 
L 479.209375 44.796672 
" style="fill:none;stroke:#ededed;stroke-width:0.25;"/>
     </g>
     <g id="line2d_71">
      <path d="M 32.809375 44.796672 
" style="fill:none;stroke:#b3b3b3;stroke-width:1.5;"/>
      <g>
       <use style="fill:#b3b3b3;stroke:#b3b3b3;stroke-width:0.5;" x="32.809375" xlink:href="#m42a0048e98" y="44.796672"/>
      </g>
     </g>
    </g>
   </g>
   <g id="line2d_72">
    <path clip-path="url(#pea7099f7cf)" d="M 53.100284 125.101472 
L 53.662056 125.101472 
L 53.945197 127.392432 
L 54.790487 127.392432 
L 55.073628 125.101472 
L 55.356771 127.392432 
L 56.763454 127.392432 
L 57.046597 125.101472 
L 57.329739 127.392432 
L 58.740934 127.392432 
L 59.019564 125.101472 
L 59.586225 129.647027 
L 59.869365 127.392432 
L 62.687247 127.392432 
L 62.970389 129.647027 
L 63.253907 127.392432 
L 63.532536 129.647027 
L 63.81568 127.392432 
L 64.098821 127.392432 
L 64.381962 129.647027 
L 64.660593 127.392432 
L 64.943733 129.647027 
L 71.713568 129.647027 
L 71.992198 131.937987 
L 72.27534 129.647027 
L 72.841623 129.647027 
L 73.120629 131.937987 
L 73.403771 129.647027 
L 74.248682 129.647027 
L 74.531825 131.937987 
L 74.814968 129.647027 
L 75.37674 129.647027 
L 75.659881 131.937987 
L 75.943022 129.647027 
L 76.504793 129.647027 
L 76.788312 131.937987 
L 77.354595 131.937987 
L 77.633224 129.647027 
L 77.916367 131.937987 
L 81.300907 131.937987 
L 81.584048 134.192582 
L 81.862681 131.937987 
L 82.712104 131.937987 
L 82.990735 134.192582 
L 83.273876 131.937987 
L 84.685449 131.937987 
L 84.968593 134.192582 
L 85.247223 134.192582 
L 85.530361 131.937987 
L 86.096646 131.937987 
L 86.375276 134.192582 
L 86.941558 134.192582 
L 87.224703 131.937987 
L 87.503331 134.192582 
L 88.914528 134.192582 
L 89.197669 131.937987 
L 89.480811 134.192582 
L 93.989272 134.192582 
L 94.272791 136.483541 
L 94.555931 134.192582 
L 95.967128 134.192582 
L 96.245767 136.483541 
L 96.5289 134.192582 
L 96.812042 134.192582 
L 97.095559 136.483541 
L 97.374195 134.192582 
L 97.940474 134.192582 
L 98.223616 136.483541 
L 108.373477 136.483541 
L 108.656619 138.738137 
L 108.93976 136.483541 
L 109.21839 138.738137 
L 109.501532 138.738137 
L 109.784674 136.483541 
L 110.067816 138.738137 
L 110.346445 136.483541 
L 110.629586 136.483541 
L 110.912728 138.738137 
L 111.195872 138.738137 
L 111.4745 136.483541 
L 111.757643 138.738137 
L 112.040786 136.483541 
L 112.323927 138.738137 
L 113.169215 138.738137 
L 113.452357 136.483541 
L 113.730987 138.738137 
L 114.014128 138.738137 
L 114.297269 136.483541 
L 114.580412 138.738137 
L 114.859041 138.738137 
L 115.142184 136.483541 
L 115.425325 138.738137 
L 115.708467 136.483541 
L 115.987098 138.738137 
L 116.270238 136.483541 
L 116.55338 138.738137 
L 117.398294 138.738137 
L 117.681436 136.483541 
L 117.964953 138.738137 
L 119.937921 138.738137 
L 120.21655 136.483541 
L 120.499693 138.738137 
L 123.039321 138.738137 
L 123.322465 136.483541 
L 123.601092 138.738137 
L 125.578949 138.738137 
L 125.857579 136.483541 
L 126.140722 138.738137 
L 131.215465 138.738137 
L 131.498607 136.483541 
L 131.781749 138.738137 
L 142.780661 138.738137 
L 143.064179 141.029096 
L 143.342808 138.738137 
L 144.187722 138.738137 
L 144.470865 141.029096 
L 144.754005 141.029096 
L 145.037148 138.738137 
L 145.316152 141.029096 
L 145.599294 138.738137 
L 146.165578 138.738137 
L 146.444207 141.029096 
L 146.72735 138.738137 
L 147.01049 141.029096 
L 147.293632 138.738137 
L 147.572263 138.738137 
L 147.855404 141.029096 
L 148.983459 141.029096 
L 149.266601 138.738137 
L 149.549743 138.738137 
L 149.828373 141.029096 
L 150.677799 141.029096 
L 150.956428 138.738137 
L 151.23957 141.029096 
L 151.52271 138.738137 
L 151.805852 141.029096 
L 152.084483 138.738137 
L 152.367624 141.029096 
L 155.468649 141.029096 
L 155.751791 138.738137 
L 156.034933 141.029096 
L 156.596702 141.029096 
L 156.879844 138.738137 
L 157.162987 141.029096 
L 157.446128 138.738137 
L 157.724758 138.738137 
L 158.0079 141.029096 
L 159.135955 141.029096 
L 159.419097 138.738137 
L 159.702238 141.029096 
L 159.980868 138.738137 
L 160.264009 141.029096 
L 160.547152 141.029096 
L 160.830293 138.738137 
L 161.108923 138.738137 
L 161.392066 141.029096 
L 161.675585 141.029096 
L 161.958724 138.738137 
L 162.237355 141.029096 
L 162.520497 141.029096 
L 162.803636 138.738137 
L 163.08678 141.029096 
L 165.343264 141.029096 
L 165.621897 138.738137 
L 165.905037 141.029096 
L 166.18818 138.738137 
L 166.466809 141.029096 
L 168.723295 141.029096 
L 169.006437 138.738137 
L 169.289578 141.029096 
L 171.262922 141.029096 
L 171.546063 138.738137 
L 171.829206 141.029096 
L 172.107836 141.029096 
L 172.390978 138.738137 
L 172.674118 141.029096 
L 173.23589 141.029096 
L 173.519034 138.738137 
L 173.802174 141.029096 
L 174.085691 138.738137 
L 174.364322 141.029096 
L 174.647464 141.029096 
L 174.930605 138.738137 
L 175.209235 141.029096 
L 175.492377 138.738137 
L 175.775519 141.029096 
L 176.33729 141.029096 
L 176.620431 138.738137 
L 176.903575 141.029096 
L 177.186715 141.029096 
L 177.465344 138.738137 
L 177.748863 138.738137 
L 178.032005 141.029096 
L 178.315147 138.738137 
L 179.16006 138.738137 
L 179.443202 141.029096 
L 179.721832 141.029096 
L 180.004972 138.738137 
L 180.288114 141.029096 
L 180.571634 138.738137 
L 181.133403 138.738137 
L 181.416547 141.029096 
L 181.978693 141.029096 
L 182.261835 138.738137 
L 182.823607 138.738137 
L 183.106748 141.029096 
L 183.38989 141.029096 
L 183.673032 138.738137 
L 185.079717 138.738137 
L 185.36286 141.029096 
L 185.646376 138.738137 
L 185.929519 141.029096 
L 186.208148 141.029096 
L 186.49129 138.738137 
L 189.875455 138.738137 
L 190.158596 141.029096 
L 190.441738 141.029096 
L 190.720367 138.738137 
L 191.00351 138.738137 
L 191.286652 141.029096 
L 191.569794 138.738137 
L 196.078254 138.738137 
L 196.361395 141.029096 
L 196.644538 138.738137 
L 198.334363 138.738137 
L 198.617507 141.029096 
L 198.900649 138.738137 
L 206.79741 138.738137 
L 207.080551 136.483541 
L 207.359181 138.738137 
L 207.642321 138.738137 
L 207.925466 136.483541 
L 208.208607 138.738137 
L 208.487236 138.738137 
L 208.770378 136.483541 
L 209.053519 136.483541 
L 209.336663 138.738137 
L 209.615291 138.738137 
L 209.898432 136.483541 
L 210.181573 136.483541 
L 210.464716 138.738137 
L 210.743347 138.738137 
L 211.026487 136.483541 
L 211.871401 136.483541 
L 212.154544 138.738137 
L 212.437685 138.738137 
L 212.720827 136.483541 
L 222.308542 136.483541 
L 222.591684 134.192582 
L 222.870314 136.483541 
L 223.998367 136.483541 
L 224.28151 134.192582 
L 224.564653 134.192582 
L 224.848169 136.483541 
L 225.1268 134.192582 
L 225.971713 134.192582 
L 226.255231 136.483541 
L 226.538373 134.192582 
L 228.228199 134.192582 
L 228.511341 136.483541 
L 228.794483 134.192582 
L 236.408854 134.192582 
L 236.691996 131.937987 
L 236.970626 134.192582 
L 237.53691 134.192582 
L 237.820052 131.937987 
L 238.381822 131.937987 
L 238.664965 134.192582 
L 238.948106 134.192582 
L 239.226736 131.937987 
L 239.509878 134.192582 
L 240.354792 134.192582 
L 240.637932 131.937987 
L 240.921075 134.192582 
L 241.765987 134.192582 
L 242.049128 131.937987 
L 244.867011 131.937987 
L 245.150152 134.192582 
L 245.433295 131.937987 
L 254.175722 131.937987 
L 254.458864 129.647027 
L 254.737494 131.937987 
L 258.405175 131.937987 
L 258.688693 129.647027 
L 258.967322 131.937987 
L 260.662037 131.937987 
L 260.945179 129.647027 
L 261.223809 131.937987 
L 262.918148 131.937987 
L 263.201291 129.647027 
L 263.479919 131.937987 
L 263.763061 131.937987 
L 264.046202 129.647027 
L 264.329346 131.937987 
L 265.174258 131.937987 
L 265.4574 129.647027 
L 265.736031 131.937987 
L 267.430368 131.937987 
L 267.71351 129.647027 
L 267.992139 131.937987 
L 269.403337 131.937987 
L 269.686477 129.647027 
L 269.969619 131.937987 
L 271.376304 131.937987 
L 271.659447 129.647027 
L 271.942775 131.937987 
L 272.50436 131.937987 
L 272.787503 129.647027 
L 273.070643 131.937987 
L 279.838973 131.937987 
L 280.122116 134.192582 
L 280.400746 131.937987 
L 281.250546 131.937987 
L 281.529176 134.192582 
L 281.812317 134.192582 
L 282.09546 131.937987 
L 282.940373 131.937987 
L 283.223516 134.192582 
L 283.785286 134.192582 
L 284.068429 131.937987 
L 284.35157 134.192582 
L 284.634713 131.937987 
L 284.913341 134.192582 
L 285.196858 134.192582 
L 285.480001 131.937987 
L 285.75863 134.192582 
L 286.887063 134.192582 
L 287.170204 131.937987 
L 287.453345 134.192582 
L 293.373002 134.192582 
L 293.656144 136.483541 
L 293.939285 134.192582 
L 295.351233 134.192582 
L 295.629866 136.483541 
L 295.913007 134.192582 
L 296.757919 134.192582 
L 297.041437 136.483541 
L 297.603209 136.483541 
L 297.886727 134.192582 
L 298.169868 136.483541 
L 299.014782 136.483541 
L 299.297924 134.192582 
L 299.859694 134.192582 
L 300.142837 136.483541 
L 301.554032 136.483541 
L 301.837175 134.192582 
L 302.115806 136.483541 
L 302.682089 136.483541 
L 302.96523 134.192582 
L 303.24386 136.483541 
L 303.527002 136.483541 
L 303.810144 134.192582 
L 304.093286 134.192582 
L 304.371915 136.483541 
L 304.938199 136.483541 
L 305.221716 134.192582 
L 305.500346 136.483541 
L 305.783489 134.192582 
L 306.066629 136.483541 
L 315.374212 136.483541 
L 315.652841 138.738137 
L 315.935984 136.483541 
L 321.010351 136.483541 
L 321.293494 138.738137 
L 321.576634 136.483541 
L 322.704689 136.483541 
L 322.987832 138.738137 
L 323.26646 138.738137 
L 323.549603 136.483541 
L 324.961175 136.483541 
L 325.244318 138.738137 
L 325.522946 136.483541 
L 326.089234 136.483541 
L 326.372374 138.738137 
L 326.651001 138.738137 
L 326.934144 136.483541 
L 327.217663 136.483541 
L 327.500803 138.738137 
L 327.779433 136.483541 
L 328.062763 138.738137 
L 328.346093 138.738137 
L 328.624722 136.483541 
L 328.907865 136.483541 
L 329.191006 138.738137 
L 329.474147 136.483541 
L 330.319438 136.483541 
L 330.602581 138.738137 
L 331.164351 138.738137 
L 331.447492 136.483541 
L 331.73101 136.483541 
L 332.009639 138.738137 
L 332.292781 136.483541 
L 332.575923 138.738137 
L 332.859064 138.738137 
L 333.137694 136.483541 
L 333.420835 138.738137 
L 333.987119 138.738137 
L 334.26575 136.483541 
L 334.54889 138.738137 
L 334.832034 136.483541 
L 335.115176 138.738137 
L 348.932346 138.738137 
L 349.215488 141.029096 
L 349.494117 138.738137 
L 349.777258 141.029096 
L 350.0604 141.029096 
L 350.343542 138.738137 
L 350.905312 138.738137 
L 351.188455 141.029096 
L 351.471597 138.738137 
L 351.750227 141.029096 
L 352.033369 141.029096 
L 352.316511 138.738137 
L 352.599651 138.738137 
L 352.878281 141.029096 
L 353.161423 138.738137 
L 353.727708 138.738137 
L 354.006338 141.029096 
L 354.572621 141.029096 
L 354.855762 138.738137 
L 355.134391 141.029096 
L 355.417534 141.029096 
L 355.700675 138.738137 
L 355.983817 138.738137 
L 356.262449 141.029096 
L 357.673643 141.029096 
L 357.956785 138.738137 
L 358.239929 141.029096 
L 364.441975 141.029096 
L 364.725117 143.283691 
L 365.008259 141.029096 
L 365.570031 141.029096 
L 365.853172 143.283691 
L 366.698085 143.283691 
L 366.981227 141.029096 
L 367.264369 141.029096 
L 367.542997 143.283691 
L 369.799109 143.283691 
L 370.08225 141.029096 
L 370.365392 143.283691 
L 375.160752 143.283691 
L 375.439384 145.574651 
L 375.722525 143.283691 
L 376.567438 143.283691 
L 376.850581 145.574651 
L 377.133723 143.283691 
L 380.518263 143.283691 
L 380.801406 145.574651 
L 381.080034 143.283691 
L 381.92946 143.283691 
L 382.20809 145.574651 
L 382.774374 145.574651 
L 383.057516 143.283691 
L 383.336145 145.574651 
L 383.619286 143.283691 
L 384.185945 143.283691 
L 384.464577 145.574651 
L 386.437543 145.574651 
L 386.720686 143.283691 
L 387.003827 145.574651 
L 392.361338 145.574651 
L 392.644479 143.283691 
L 392.927621 145.574651 
L 393.772535 145.574651 
L 394.055675 143.283691 
L 394.334307 145.574651 
L 395.745504 145.574651 
L 396.028645 143.283691 
L 396.311786 145.574651 
L 398.284942 145.574651 
L 398.568273 143.283691 
L 398.846903 145.574651 
L 403.926158 145.574651 
L 404.204975 147.829246 
L 404.488306 145.574651 
L 405.333218 145.574651 
L 405.61636 147.829246 
L 405.899503 145.574651 
L 407.027556 145.574651 
L 407.310709 147.829246 
L 407.589329 145.574651 
L 409.001277 145.574651 
L 409.284419 147.829246 
L 410.412475 147.829246 
L 410.691104 145.574651 
L 411.257386 145.574651 
L 411.540528 147.829246 
L 412.102677 147.829246 
L 412.385818 145.574651 
L 412.947589 145.574651 
L 413.231108 147.829246 
L 413.51425 147.829246 
L 413.79288 145.574651 
L 414.642305 145.574651 
L 414.920935 147.829246 
L 415.204075 145.574651 
L 415.770736 145.574651 
L 416.049365 147.829246 
L 416.898791 147.829246 
L 417.17742 145.574651 
L 417.460561 145.574651 
L 417.743704 147.829246 
L 429.86992 147.829246 
L 430.153062 145.574651 
L 430.431691 147.829246 
L 434.382704 147.829246 
L 434.666033 150.120206 
L 434.944664 147.829246 
L 435.227805 147.829246 
L 435.510946 150.120206 
L 435.79409 147.829246 
L 437.200773 147.829246 
L 437.483915 150.120206 
L 437.767057 147.829246 
L 438.050199 150.120206 
L 438.328828 147.829246 
L 438.611971 147.829246 
L 438.895113 150.120206 
L 439.178253 147.829246 
L 439.456883 150.120206 
L 439.740025 147.829246 
L 440.023166 150.120206 
L 440.306309 147.829246 
L 440.584939 150.120206 
L 441.434364 150.120206 
L 441.712994 147.829246 
L 441.996135 147.829246 
L 442.279278 150.120206 
L 442.562796 147.829246 
L 442.841425 150.120206 
L 446.792249 150.120206 
L 447.070879 147.829246 
L 447.354021 150.120206 
L 452.711531 150.120206 
L 452.994673 147.829246 
L 453.277814 150.120206 
L 455.817065 150.120206 
L 456.095696 147.829246 
L 456.378838 150.120206 
L 458.918466 150.120206 
L 458.918466 150.120206 
" style="fill:none;stroke:#000000;stroke-width:1.772454;"/>
   </g>
  </g>
  <g id="text_31">
   <!-- Jul 5, 2019 -->
   <defs>
    <path d="M 9.8125 72.90625 
L 19.671875 72.90625 
L 19.671875 5.078125 
Q 19.671875 -8.109375 14.671875 -14.0625 
Q 9.671875 -20.015625 -1.421875 -20.015625 
L -5.171875 -20.015625 
L -5.171875 -11.71875 
L -2.09375 -11.71875 
Q 4.4375 -11.71875 7.125 -8.046875 
Q 9.8125 -4.390625 9.8125 5.078125 
z
" id="DejaVuSans-74"/>
    <path d="M 8.5 21.578125 
L 8.5 54.6875 
L 17.484375 54.6875 
L 17.484375 21.921875 
Q 17.484375 14.15625 20.5 10.265625 
Q 23.53125 6.390625 29.59375 6.390625 
Q 36.859375 6.390625 41.078125 11.03125 
Q 45.3125 15.671875 45.3125 23.6875 
L 45.3125 54.6875 
L 54.296875 54.6875 
L 54.296875 0 
L 45.3125 0 
L 45.3125 8.40625 
Q 42.046875 3.421875 37.71875 1 
Q 33.40625 -1.421875 27.6875 -1.421875 
Q 18.265625 -1.421875 13.375 4.4375 
Q 8.5 10.296875 8.5 21.578125 
z
M 31.109375 56 
z
" id="DejaVuSans-117"/>
    <path d="M 9.421875 75.984375 
L 18.40625 75.984375 
L 18.40625 0 
L 9.421875 0 
z
" id="DejaVuSans-108"/>
    <path id="DejaVuSans-32"/>
    <path d="M 11.71875 12.40625 
L 22.015625 12.40625 
L 22.015625 4 
L 14.015625 -11.625 
L 7.71875 -11.625 
L 11.71875 4 
z
" id="DejaVuSans-44"/>
   </defs>
   <g transform="translate(213.557125 17.229938)scale(0.132 -0.132)">
    <use xlink:href="#DejaVuSans-74"/>
    <use x="29.492188" xlink:href="#DejaVuSans-117"/>
    <use x="92.871094" xlink:href="#DejaVuSans-108"/>
    <use x="120.654297" xlink:href="#DejaVuSans-32"/>
    <use x="152.441406" xlink:href="#DejaVuSans-53"/>
    <use x="216.064453" xlink:href="#DejaVuSans-44"/>
    <use x="247.851562" xlink:href="#DejaVuSans-32"/>
    <use x="279.638672" xlink:href="#DejaVuSans-50"/>
    <use x="343.261719" xlink:href="#DejaVuSans-48"/>
    <use x="406.884766" xlink:href="#DejaVuSans-49"/>
    <use x="470.507812" xlink:href="#DejaVuSans-57"/>
   </g>
  </g>
 </g>
 <defs>
  <clipPath id="pea7099f7cf">
   <rect height="221.76" width="446.4" x="32.809375" y="26.105371"/>
  </clipPath>
 </defs>
</svg>
