<?xml version="1.0" encoding="utf-8" standalone="no"?>
<!DOCTYPE svg PUBLIC "-//W3C//DTD SVG 1.1//EN"
  "http://www.w3.org/Graphics/SVG/1.1/DTD/svg11.dtd">
<svg height="394.458058pt" version="1.1" viewBox="0 0 487.437188 394.458058" width="487.437188pt" xmlns="http://www.w3.org/2000/svg" xmlns:xlink="http://www.w3.org/1999/xlink">
 <metadata>
  <rdf:RDF xmlns:cc="http://creativecommons.org/ns#" xmlns:dc="http://purl.org/dc/elements/1.1/" xmlns:rdf="http://www.w3.org/1999/02/22-rdf-syntax-ns#">
   <cc:Work>
    <dc:type rdf:resource="http://purl.org/dc/dcmitype/StillImage"/>
    <dc:date>2021-10-09T21:09:44.316968</dc:date>
    <dc:format>image/svg+xml</dc:format>
    <dc:creator>
     <cc:Agent>
      <dc:title>Matplotlib v3.4.3, https://matplotlib.org/</dc:title>
     </cc:Agent>
    </dc:creator>
   </cc:Work>
  </rdf:RDF>
 </metadata>
 <defs>
  <style type="text/css">*{stroke-linecap:butt;stroke-linejoin:round;}</style>
 </defs>
 <g id="figure_1">
  <g id="patch_1">
   <path d="M 0 394.458058 
L 487.437188 394.458058 
L 487.437188 0 
L 0 0 
z
" style="fill:#ffffff;stroke:#ffffff;stroke-linejoin:miter;"/>
  </g>
  <g id="axes_1">
   <g id="patch_2">
    <path d="M 52.354313 358.745371 
L 387.154313 358.745371 
L 387.154313 26.105371 
L 52.354313 26.105371 
z
" style="fill:#ffffff;stroke:#7f7f7f;stroke-linejoin:miter;"/>
   </g>
   <g id="matplotlib.axis_1">
    <g id="xtick_1">
     <g id="line2d_1">
      <path clip-path="url(#pd52957667f)" d="M 67.572494 358.745371 
L 67.572494 26.105371 
" style="fill:none;stroke:#e5e5e5;stroke-width:0.8;"/>
     </g>
     <g id="line2d_2">
      <path d="M 67.572494 358.745371 
" style="fill:none;stroke:#333333;stroke-width:1.5;"/>
      <defs>
       <path d="M 0 0 
L 0 2.75 
" id="m405fe6d6c1" style="stroke:#000000;"/>
      </defs>
      <g>
       <use style="fill:#333333;stroke:#000000;" x="67.572494" xlink:href="#m405fe6d6c1" y="358.745371"/>
      </g>
     </g>
     <g id="text_1">
      <!-- 0% -->
      <g style="fill:#4d4d4d;" transform="translate(60.592307 370.381996)scale(0.088 -0.088)">
       <defs>
        <path d="M 2034 4250 
Q 1547 4250 1301 3770 
Q 1056 3291 1056 2328 
Q 1056 1369 1301 889 
Q 1547 409 2034 409 
Q 2525 409 2770 889 
Q 3016 1369 3016 2328 
Q 3016 3291 2770 3770 
Q 2525 4250 2034 4250 
z
M 2034 4750 
Q 2819 4750 3233 4129 
Q 3647 3509 3647 2328 
Q 3647 1150 3233 529 
Q 2819 -91 2034 -91 
Q 1250 -91 836 529 
Q 422 1150 422 2328 
Q 422 3509 836 4129 
Q 1250 4750 2034 4750 
z
" id="DejaVuSans-30" transform="scale(0.015625)"/>
        <path d="M 4653 2053 
Q 4381 2053 4226 1822 
Q 4072 1591 4072 1178 
Q 4072 772 4226 539 
Q 4381 306 4653 306 
Q 4919 306 5073 539 
Q 5228 772 5228 1178 
Q 5228 1588 5073 1820 
Q 4919 2053 4653 2053 
z
M 4653 2450 
Q 5147 2450 5437 2106 
Q 5728 1763 5728 1178 
Q 5728 594 5436 251 
Q 5144 -91 4653 -91 
Q 4153 -91 3862 251 
Q 3572 594 3572 1178 
Q 3572 1766 3864 2108 
Q 4156 2450 4653 2450 
z
M 1428 4353 
Q 1159 4353 1004 4120 
Q 850 3888 850 3481 
Q 850 3069 1003 2837 
Q 1156 2606 1428 2606 
Q 1700 2606 1854 2837 
Q 2009 3069 2009 3481 
Q 2009 3884 1853 4118 
Q 1697 4353 1428 4353 
z
M 4250 4750 
L 4750 4750 
L 1831 -91 
L 1331 -91 
L 4250 4750 
z
M 1428 4750 
Q 1922 4750 2215 4408 
Q 2509 4066 2509 3481 
Q 2509 2891 2217 2550 
Q 1925 2209 1428 2209 
Q 931 2209 642 2551 
Q 353 2894 353 3481 
Q 353 4063 643 4406 
Q 934 4750 1428 4750 
z
" id="DejaVuSans-25" transform="scale(0.015625)"/>
       </defs>
       <use xlink:href="#DejaVuSans-30"/>
       <use x="63.623047" xlink:href="#DejaVuSans-25"/>
      </g>
     </g>
    </g>
    <g id="xtick_2">
     <g id="line2d_3">
      <path clip-path="url(#pd52957667f)" d="M 143.663403 358.745371 
L 143.663403 26.105371 
" style="fill:none;stroke:#e5e5e5;stroke-width:0.8;"/>
     </g>
     <g id="line2d_4">
      <path d="M 143.663403 358.745371 
" style="fill:none;stroke:#333333;stroke-width:1.5;"/>
      <g>
       <use style="fill:#333333;stroke:#000000;" x="143.663403" xlink:href="#m405fe6d6c1" y="358.745371"/>
      </g>
     </g>
     <g id="text_2">
      <!-- 25% -->
      <g style="fill:#4d4d4d;" transform="translate(133.883716 370.381996)scale(0.088 -0.088)">
       <defs>
        <path d="M 1228 531 
L 3431 531 
L 3431 0 
L 469 0 
L 469 531 
Q 828 903 1448 1529 
Q 2069 2156 2228 2338 
Q 2531 2678 2651 2914 
Q 2772 3150 2772 3378 
Q 2772 3750 2511 3984 
Q 2250 4219 1831 4219 
Q 1534 4219 1204 4116 
Q 875 4013 500 3803 
L 500 4441 
Q 881 4594 1212 4672 
Q 1544 4750 1819 4750 
Q 2544 4750 2975 4387 
Q 3406 4025 3406 3419 
Q 3406 3131 3298 2873 
Q 3191 2616 2906 2266 
Q 2828 2175 2409 1742 
Q 1991 1309 1228 531 
z
" id="DejaVuSans-32" transform="scale(0.015625)"/>
        <path d="M 691 4666 
L 3169 4666 
L 3169 4134 
L 1269 4134 
L 1269 2991 
Q 1406 3038 1543 3061 
Q 1681 3084 1819 3084 
Q 2600 3084 3056 2656 
Q 3513 2228 3513 1497 
Q 3513 744 3044 326 
Q 2575 -91 1722 -91 
Q 1428 -91 1123 -41 
Q 819 9 494 109 
L 494 744 
Q 775 591 1075 516 
Q 1375 441 1709 441 
Q 2250 441 2565 725 
Q 2881 1009 2881 1497 
Q 2881 1984 2565 2268 
Q 2250 2553 1709 2553 
Q 1456 2553 1204 2497 
Q 953 2441 691 2322 
L 691 4666 
z
" id="DejaVuSans-35" transform="scale(0.015625)"/>
       </defs>
       <use xlink:href="#DejaVuSans-32"/>
       <use x="63.623047" xlink:href="#DejaVuSans-35"/>
       <use x="127.246094" xlink:href="#DejaVuSans-25"/>
      </g>
     </g>
    </g>
    <g id="xtick_3">
     <g id="line2d_5">
      <path clip-path="url(#pd52957667f)" d="M 219.754313 358.745371 
L 219.754313 26.105371 
" style="fill:none;stroke:#e5e5e5;stroke-width:0.8;"/>
     </g>
     <g id="line2d_6">
      <path d="M 219.754313 358.745371 
" style="fill:none;stroke:#333333;stroke-width:1.5;"/>
      <g>
       <use style="fill:#333333;stroke:#000000;" x="219.754313" xlink:href="#m405fe6d6c1" y="358.745371"/>
      </g>
     </g>
     <g id="text_3">
      <!-- 50% -->
      <g style="fill:#4d4d4d;" transform="translate(209.974625 370.381996)scale(0.088 -0.088)">
       <use xlink:href="#DejaVuSans-35"/>
       <use x="63.623047" xlink:href="#DejaVuSans-30"/>
       <use x="127.246094" xlink:href="#DejaVuSans-25"/>
      </g>
     </g>
    </g>
    <g id="xtick_4">
     <g id="line2d_7">
      <path clip-path="url(#pd52957667f)" d="M 295.845222 358.745371 
L 295.845222 26.105371 
" style="fill:none;stroke:#e5e5e5;stroke-width:0.8;"/>
     </g>
     <g id="line2d_8">
      <path d="M 295.845222 358.745371 
" style="fill:none;stroke:#333333;stroke-width:1.5;"/>
      <g>
       <use style="fill:#333333;stroke:#000000;" x="295.845222" xlink:href="#m405fe6d6c1" y="358.745371"/>
      </g>
     </g>
     <g id="text_4">
      <!-- 75% -->
      <g style="fill:#4d4d4d;" transform="translate(286.065534 370.381996)scale(0.088 -0.088)">
       <defs>
        <path d="M 525 4666 
L 3525 4666 
L 3525 4397 
L 1831 0 
L 1172 0 
L 2766 4134 
L 525 4134 
L 525 4666 
z
" id="DejaVuSans-37" transform="scale(0.015625)"/>
       </defs>
       <use xlink:href="#DejaVuSans-37"/>
       <use x="63.623047" xlink:href="#DejaVuSans-35"/>
       <use x="127.246094" xlink:href="#DejaVuSans-25"/>
      </g>
     </g>
    </g>
    <g id="xtick_5">
     <g id="line2d_9">
      <path clip-path="url(#pd52957667f)" d="M 371.936131 358.745371 
L 371.936131 26.105371 
" style="fill:none;stroke:#e5e5e5;stroke-width:0.8;"/>
     </g>
     <g id="line2d_10">
      <path d="M 371.936131 358.745371 
" style="fill:none;stroke:#333333;stroke-width:1.5;"/>
      <g>
       <use style="fill:#333333;stroke:#000000;" x="371.936131" xlink:href="#m405fe6d6c1" y="358.745371"/>
      </g>
     </g>
     <g id="text_5">
      <!-- 100% -->
      <g style="fill:#4d4d4d;" transform="translate(359.356943 370.381996)scale(0.088 -0.088)">
       <defs>
        <path d="M 794 531 
L 1825 531 
L 1825 4091 
L 703 3866 
L 703 4441 
L 1819 4666 
L 2450 4666 
L 2450 531 
L 3481 531 
L 3481 0 
L 794 0 
L 794 531 
z
" id="DejaVuSans-31" transform="scale(0.015625)"/>
       </defs>
       <use xlink:href="#DejaVuSans-31"/>
       <use x="63.623047" xlink:href="#DejaVuSans-30"/>
       <use x="127.246094" xlink:href="#DejaVuSans-30"/>
       <use x="190.869141" xlink:href="#DejaVuSans-25"/>
      </g>
     </g>
    </g>
    <g id="xtick_6">
     <g id="line2d_11">
      <path clip-path="url(#pd52957667f)" d="M 105.617949 358.745371 
L 105.617949 26.105371 
" style="fill:none;stroke:#fafafa;"/>
     </g>
    </g>
    <g id="xtick_7">
     <g id="line2d_12">
      <path clip-path="url(#pd52957667f)" d="M 181.708858 358.745371 
L 181.708858 26.105371 
" style="fill:none;stroke:#fafafa;"/>
     </g>
    </g>
    <g id="xtick_8">
     <g id="line2d_13">
      <path clip-path="url(#pd52957667f)" d="M 257.799767 358.745371 
L 257.799767 26.105371 
" style="fill:none;stroke:#fafafa;"/>
     </g>
    </g>
    <g id="xtick_9">
     <g id="line2d_14">
      <path clip-path="url(#pd52957667f)" d="M 333.890676 358.745371 
L 333.890676 26.105371 
" style="fill:none;stroke:#fafafa;"/>
     </g>
    </g>
    <g id="text_6">
     <!-- % of Service -->
     <g transform="translate(180.002516 384.970402)scale(0.11 -0.11)">
      <defs>
       <path id="DejaVuSans-20" transform="scale(0.015625)"/>
       <path d="M 1959 3097 
Q 1497 3097 1228 2736 
Q 959 2375 959 1747 
Q 959 1119 1226 758 
Q 1494 397 1959 397 
Q 2419 397 2687 759 
Q 2956 1122 2956 1747 
Q 2956 2369 2687 2733 
Q 2419 3097 1959 3097 
z
M 1959 3584 
Q 2709 3584 3137 3096 
Q 3566 2609 3566 1747 
Q 3566 888 3137 398 
Q 2709 -91 1959 -91 
Q 1206 -91 779 398 
Q 353 888 353 1747 
Q 353 2609 779 3096 
Q 1206 3584 1959 3584 
z
" id="DejaVuSans-6f" transform="scale(0.015625)"/>
       <path d="M 2375 4863 
L 2375 4384 
L 1825 4384 
Q 1516 4384 1395 4259 
Q 1275 4134 1275 3809 
L 1275 3500 
L 2222 3500 
L 2222 3053 
L 1275 3053 
L 1275 0 
L 697 0 
L 697 3053 
L 147 3053 
L 147 3500 
L 697 3500 
L 697 3744 
Q 697 4328 969 4595 
Q 1241 4863 1831 4863 
L 2375 4863 
z
" id="DejaVuSans-66" transform="scale(0.015625)"/>
       <path d="M 3425 4513 
L 3425 3897 
Q 3066 4069 2747 4153 
Q 2428 4238 2131 4238 
Q 1616 4238 1336 4038 
Q 1056 3838 1056 3469 
Q 1056 3159 1242 3001 
Q 1428 2844 1947 2747 
L 2328 2669 
Q 3034 2534 3370 2195 
Q 3706 1856 3706 1288 
Q 3706 609 3251 259 
Q 2797 -91 1919 -91 
Q 1588 -91 1214 -16 
Q 841 59 441 206 
L 441 856 
Q 825 641 1194 531 
Q 1563 422 1919 422 
Q 2459 422 2753 634 
Q 3047 847 3047 1241 
Q 3047 1584 2836 1778 
Q 2625 1972 2144 2069 
L 1759 2144 
Q 1053 2284 737 2584 
Q 422 2884 422 3419 
Q 422 4038 858 4394 
Q 1294 4750 2059 4750 
Q 2388 4750 2728 4690 
Q 3069 4631 3425 4513 
z
" id="DejaVuSans-53" transform="scale(0.015625)"/>
       <path d="M 3597 1894 
L 3597 1613 
L 953 1613 
Q 991 1019 1311 708 
Q 1631 397 2203 397 
Q 2534 397 2845 478 
Q 3156 559 3463 722 
L 3463 178 
Q 3153 47 2828 -22 
Q 2503 -91 2169 -91 
Q 1331 -91 842 396 
Q 353 884 353 1716 
Q 353 2575 817 3079 
Q 1281 3584 2069 3584 
Q 2775 3584 3186 3129 
Q 3597 2675 3597 1894 
z
M 3022 2063 
Q 3016 2534 2758 2815 
Q 2500 3097 2075 3097 
Q 1594 3097 1305 2825 
Q 1016 2553 972 2059 
L 3022 2063 
z
" id="DejaVuSans-65" transform="scale(0.015625)"/>
       <path d="M 2631 2963 
Q 2534 3019 2420 3045 
Q 2306 3072 2169 3072 
Q 1681 3072 1420 2755 
Q 1159 2438 1159 1844 
L 1159 0 
L 581 0 
L 581 3500 
L 1159 3500 
L 1159 2956 
Q 1341 3275 1631 3429 
Q 1922 3584 2338 3584 
Q 2397 3584 2469 3576 
Q 2541 3569 2628 3553 
L 2631 2963 
z
" id="DejaVuSans-72" transform="scale(0.015625)"/>
       <path d="M 191 3500 
L 800 3500 
L 1894 563 
L 2988 3500 
L 3597 3500 
L 2284 0 
L 1503 0 
L 191 3500 
z
" id="DejaVuSans-76" transform="scale(0.015625)"/>
       <path d="M 603 3500 
L 1178 3500 
L 1178 0 
L 603 0 
L 603 3500 
z
M 603 4863 
L 1178 4863 
L 1178 4134 
L 603 4134 
L 603 4863 
z
" id="DejaVuSans-69" transform="scale(0.015625)"/>
       <path d="M 3122 3366 
L 3122 2828 
Q 2878 2963 2633 3030 
Q 2388 3097 2138 3097 
Q 1578 3097 1268 2742 
Q 959 2388 959 1747 
Q 959 1106 1268 751 
Q 1578 397 2138 397 
Q 2388 397 2633 464 
Q 2878 531 3122 666 
L 3122 134 
Q 2881 22 2623 -34 
Q 2366 -91 2075 -91 
Q 1284 -91 818 406 
Q 353 903 353 1747 
Q 353 2603 823 3093 
Q 1294 3584 2113 3584 
Q 2378 3584 2631 3529 
Q 2884 3475 3122 3366 
z
" id="DejaVuSans-63" transform="scale(0.015625)"/>
      </defs>
      <use xlink:href="#DejaVuSans-25"/>
      <use x="95.019531" xlink:href="#DejaVuSans-20"/>
      <use x="126.806641" xlink:href="#DejaVuSans-6f"/>
      <use x="187.988281" xlink:href="#DejaVuSans-66"/>
      <use x="223.193359" xlink:href="#DejaVuSans-20"/>
      <use x="254.980469" xlink:href="#DejaVuSans-53"/>
      <use x="318.457031" xlink:href="#DejaVuSans-65"/>
      <use x="379.980469" xlink:href="#DejaVuSans-72"/>
      <use x="421.09375" xlink:href="#DejaVuSans-76"/>
      <use x="480.273438" xlink:href="#DejaVuSans-69"/>
      <use x="508.056641" xlink:href="#DejaVuSans-63"/>
      <use x="563.037109" xlink:href="#DejaVuSans-65"/>
     </g>
    </g>
   </g>
   <g id="matplotlib.axis_2">
    <g id="ytick_1">
     <g id="line2d_15">
      <path clip-path="url(#pd52957667f)" d="M 52.354313 343.625371 
L 387.154313 343.625371 
" style="fill:none;stroke:#e5e5e5;stroke-width:0.8;"/>
     </g>
     <g id="line2d_16">
      <path d="M 52.354313 343.625371 
" style="fill:none;stroke:#333333;stroke-width:1.5;"/>
      <defs>
       <path d="M 0 0 
L -2.75 0 
" id="m846e0a2e20" style="stroke:#000000;"/>
      </defs>
      <g>
       <use style="fill:#333333;stroke:#000000;" x="52.354313" xlink:href="#m846e0a2e20" y="343.625371"/>
      </g>
     </g>
     <g id="text_7">
      <!-- 0% -->
      <g style="fill:#4d4d4d;" transform="translate(33.443938 346.053621)scale(0.088 -0.088)">
       <use xlink:href="#DejaVuSans-30"/>
       <use x="63.623047" xlink:href="#DejaVuSans-25"/>
      </g>
     </g>
    </g>
    <g id="ytick_2">
     <g id="line2d_17">
      <path clip-path="url(#pd52957667f)" d="M 52.354313 268.025371 
L 387.154313 268.025371 
" style="fill:none;stroke:#e5e5e5;stroke-width:0.8;"/>
     </g>
     <g id="line2d_18">
      <path d="M 52.354313 268.025371 
" style="fill:none;stroke:#333333;stroke-width:1.5;"/>
      <g>
       <use style="fill:#333333;stroke:#000000;" x="52.354313" xlink:href="#m846e0a2e20" y="268.025371"/>
      </g>
     </g>
     <g id="text_8">
      <!-- 25% -->
      <g style="fill:#4d4d4d;" transform="translate(27.844938 270.453621)scale(0.088 -0.088)">
       <use xlink:href="#DejaVuSans-32"/>
       <use x="63.623047" xlink:href="#DejaVuSans-35"/>
       <use x="127.246094" xlink:href="#DejaVuSans-25"/>
      </g>
     </g>
    </g>
    <g id="ytick_3">
     <g id="line2d_19">
      <path clip-path="url(#pd52957667f)" d="M 52.354313 192.425371 
L 387.154313 192.425371 
" style="fill:none;stroke:#e5e5e5;stroke-width:0.8;"/>
     </g>
     <g id="line2d_20">
      <path d="M 52.354313 192.425371 
" style="fill:none;stroke:#333333;stroke-width:1.5;"/>
      <g>
       <use style="fill:#333333;stroke:#000000;" x="52.354313" xlink:href="#m846e0a2e20" y="192.425371"/>
      </g>
     </g>
     <g id="text_9">
      <!-- 50% -->
      <g style="fill:#4d4d4d;" transform="translate(27.844938 194.853621)scale(0.088 -0.088)">
       <use xlink:href="#DejaVuSans-35"/>
       <use x="63.623047" xlink:href="#DejaVuSans-30"/>
       <use x="127.246094" xlink:href="#DejaVuSans-25"/>
      </g>
     </g>
    </g>
    <g id="ytick_4">
     <g id="line2d_21">
      <path clip-path="url(#pd52957667f)" d="M 52.354313 116.825371 
L 387.154313 116.825371 
" style="fill:none;stroke:#e5e5e5;stroke-width:0.8;"/>
     </g>
     <g id="line2d_22">
      <path d="M 52.354313 116.825371 
" style="fill:none;stroke:#333333;stroke-width:1.5;"/>
      <g>
       <use style="fill:#333333;stroke:#000000;" x="52.354313" xlink:href="#m846e0a2e20" y="116.825371"/>
      </g>
     </g>
     <g id="text_10">
      <!-- 75% -->
      <g style="fill:#4d4d4d;" transform="translate(27.844938 119.253621)scale(0.088 -0.088)">
       <use xlink:href="#DejaVuSans-37"/>
       <use x="63.623047" xlink:href="#DejaVuSans-35"/>
       <use x="127.246094" xlink:href="#DejaVuSans-25"/>
      </g>
     </g>
    </g>
    <g id="ytick_5">
     <g id="line2d_23">
      <path clip-path="url(#pd52957667f)" d="M 52.354313 41.225371 
L 387.154313 41.225371 
" style="fill:none;stroke:#e5e5e5;stroke-width:0.8;"/>
     </g>
     <g id="line2d_24">
      <path d="M 52.354313 41.225371 
" style="fill:none;stroke:#333333;stroke-width:1.5;"/>
      <g>
       <use style="fill:#333333;stroke:#000000;" x="52.354313" xlink:href="#m846e0a2e20" y="41.225371"/>
      </g>
     </g>
     <g id="text_11">
      <!-- 100% -->
      <g style="fill:#4d4d4d;" transform="translate(22.245938 43.653621)scale(0.088 -0.088)">
       <use xlink:href="#DejaVuSans-31"/>
       <use x="63.623047" xlink:href="#DejaVuSans-30"/>
       <use x="127.246094" xlink:href="#DejaVuSans-30"/>
       <use x="190.869141" xlink:href="#DejaVuSans-25"/>
      </g>
     </g>
    </g>
    <g id="ytick_6">
     <g id="line2d_25">
      <path clip-path="url(#pd52957667f)" d="M 52.354313 305.825371 
L 387.154313 305.825371 
" style="fill:none;stroke:#fafafa;"/>
     </g>
    </g>
    <g id="ytick_7">
     <g id="line2d_26">
      <path clip-path="url(#pd52957667f)" d="M 52.354313 230.225371 
L 387.154313 230.225371 
" style="fill:none;stroke:#fafafa;"/>
     </g>
    </g>
    <g id="ytick_8">
     <g id="line2d_27">
      <path clip-path="url(#pd52957667f)" d="M 52.354313 154.625371 
L 387.154313 154.625371 
" style="fill:none;stroke:#fafafa;"/>
     </g>
    </g>
    <g id="ytick_9">
     <g id="line2d_28">
      <path clip-path="url(#pd52957667f)" d="M 52.354313 79.025371 
L 387.154313 79.025371 
" style="fill:none;stroke:#fafafa;"/>
     </g>
    </g>
    <g id="text_12">
     <!-- % of Hours -->
     <g transform="translate(15.558281 220.401933)rotate(-90)scale(0.11 -0.11)">
      <defs>
       <path d="M 628 4666 
L 1259 4666 
L 1259 2753 
L 3553 2753 
L 3553 4666 
L 4184 4666 
L 4184 0 
L 3553 0 
L 3553 2222 
L 1259 2222 
L 1259 0 
L 628 0 
L 628 4666 
z
" id="DejaVuSans-48" transform="scale(0.015625)"/>
       <path d="M 544 1381 
L 544 3500 
L 1119 3500 
L 1119 1403 
Q 1119 906 1312 657 
Q 1506 409 1894 409 
Q 2359 409 2629 706 
Q 2900 1003 2900 1516 
L 2900 3500 
L 3475 3500 
L 3475 0 
L 2900 0 
L 2900 538 
Q 2691 219 2414 64 
Q 2138 -91 1772 -91 
Q 1169 -91 856 284 
Q 544 659 544 1381 
z
M 1991 3584 
L 1991 3584 
z
" id="DejaVuSans-75" transform="scale(0.015625)"/>
       <path d="M 2834 3397 
L 2834 2853 
Q 2591 2978 2328 3040 
Q 2066 3103 1784 3103 
Q 1356 3103 1142 2972 
Q 928 2841 928 2578 
Q 928 2378 1081 2264 
Q 1234 2150 1697 2047 
L 1894 2003 
Q 2506 1872 2764 1633 
Q 3022 1394 3022 966 
Q 3022 478 2636 193 
Q 2250 -91 1575 -91 
Q 1294 -91 989 -36 
Q 684 19 347 128 
L 347 722 
Q 666 556 975 473 
Q 1284 391 1588 391 
Q 1994 391 2212 530 
Q 2431 669 2431 922 
Q 2431 1156 2273 1281 
Q 2116 1406 1581 1522 
L 1381 1569 
Q 847 1681 609 1914 
Q 372 2147 372 2553 
Q 372 3047 722 3315 
Q 1072 3584 1716 3584 
Q 2034 3584 2315 3537 
Q 2597 3491 2834 3397 
z
" id="DejaVuSans-73" transform="scale(0.015625)"/>
      </defs>
      <use xlink:href="#DejaVuSans-25"/>
      <use x="95.019531" xlink:href="#DejaVuSans-20"/>
      <use x="126.806641" xlink:href="#DejaVuSans-6f"/>
      <use x="187.988281" xlink:href="#DejaVuSans-66"/>
      <use x="223.193359" xlink:href="#DejaVuSans-20"/>
      <use x="254.980469" xlink:href="#DejaVuSans-48"/>
      <use x="330.175781" xlink:href="#DejaVuSans-6f"/>
      <use x="391.357422" xlink:href="#DejaVuSans-75"/>
      <use x="454.736328" xlink:href="#DejaVuSans-72"/>
      <use x="495.849609" xlink:href="#DejaVuSans-73"/>
     </g>
    </g>
   </g>
   <g id="line2d_29">
    <path clip-path="url(#pd52957667f)" d="M 67.572494 41.225371 
L 70.616131 41.225371 
L 73.659767 41.225371 
L 76.703403 41.225371 
L 79.74704 41.225371 
L 82.790676 41.225371 
L 85.834313 41.225371 
L 88.877949 41.225371 
L 91.921585 41.225371 
L 94.965222 41.225371 
L 98.008858 41.225371 
L 101.052494 41.225371 
L 104.096131 41.225371 
L 107.139767 41.225371 
L 110.183403 41.225371 
L 113.22704 41.225371 
L 116.270676 41.225371 
L 119.314313 41.225371 
L 122.357949 41.225371 
L 125.401585 41.225371 
L 128.445222 41.225371 
L 131.488858 41.225371 
L 134.532494 41.225371 
L 137.576131 41.225371 
L 140.619767 41.225371 
L 143.663403 41.225371 
L 146.70704 41.225371 
L 149.750676 41.225371 
L 152.794313 41.225371 
L 155.837949 42.012871 
L 158.881585 42.012871 
L 161.925222 42.012871 
L 164.968858 42.012871 
L 168.012494 42.012871 
L 171.056131 42.012871 
L 174.099767 42.406621 
L 177.143403 42.406621 
L 180.18704 42.406621 
L 183.230676 42.406621 
L 186.274313 42.406621 
L 189.317949 42.406621 
L 192.361585 42.406621 
L 195.405222 42.406621 
L 198.448858 42.406621 
L 201.492494 42.406621 
L 204.536131 42.406621 
L 207.579767 42.406621 
L 210.623403 42.800371 
L 213.66704 42.800371 
L 216.710676 42.800371 
L 219.754313 42.800371 
L 222.797949 43.587871 
L 225.841585 43.981621 
L 228.885222 44.375371 
L 231.928858 44.375371 
L 234.972494 44.375371 
L 238.016131 44.375371 
L 241.059767 44.375371 
L 244.103403 44.769121 
L 247.14704 44.769121 
L 250.190676 45.162871 
L 253.234313 45.950371 
L 256.277949 46.737871 
L 259.321585 47.131621 
L 262.365222 47.525371 
L 265.408858 49.100371 
L 268.452494 49.100371 
L 271.496131 49.100371 
L 274.539767 51.069121 
L 277.583403 51.462871 
L 280.62704 51.856621 
L 283.670676 53.431621 
L 286.714313 55.006621 
L 289.757949 55.794121 
L 292.801585 58.944121 
L 295.845222 62.881621 
L 298.888858 64.850371 
L 301.932494 66.031621 
L 304.976131 68.787871 
L 308.019767 69.575371 
L 311.063403 70.756621 
L 314.10704 73.119121 
L 317.150676 73.906621 
L 320.194313 77.844121 
L 323.237949 80.600371 
L 326.281585 84.537871 
L 329.325222 88.081621 
L 332.368858 91.625371 
L 335.412494 97.531621 
L 338.456131 109.737871 
L 341.499767 131.000371 
L 344.543403 136.906621 
L 347.58704 141.237871 
L 350.630676 145.962871 
L 353.674313 149.900371 
L 356.717949 153.050371 
L 359.761585 158.956621 
L 362.805222 166.831621 
L 365.848858 173.525371 
L 368.892494 186.912871 
L 371.936131 212.506621 
" style="fill:none;stroke:#db5f57;stroke-width:3.544908;"/>
   </g>
   <g id="line2d_30">
    <path clip-path="url(#pd52957667f)" d="M 67.572494 41.225371 
L 70.616131 41.225371 
L 73.659767 41.225371 
L 76.703403 41.225371 
L 79.74704 41.225371 
L 82.790676 41.225371 
L 85.834313 41.225371 
L 88.877949 41.225371 
L 91.921585 41.225371 
L 94.965222 41.225371 
L 98.008858 41.225371 
L 101.052494 41.225371 
L 104.096131 41.225371 
L 107.139767 41.225371 
L 110.183403 41.225371 
L 113.22704 41.225371 
L 116.270676 41.225371 
L 119.314313 41.225371 
L 122.357949 41.559884 
L 125.401585 41.559884 
L 128.445222 41.559884 
L 131.488858 41.894397 
L 134.532494 42.228911 
L 137.576131 42.228911 
L 140.619767 42.563424 
L 143.663403 42.563424 
L 146.70704 43.566964 
L 149.750676 43.566964 
L 152.794313 43.901477 
L 155.837949 44.570503 
L 158.881585 45.23953 
L 161.925222 45.23953 
L 164.968858 46.24307 
L 168.012494 46.24307 
L 171.056131 47.24661 
L 174.099767 47.581123 
L 177.143403 48.250149 
L 180.18704 48.919176 
L 183.230676 49.253689 
L 186.274313 49.922716 
L 189.317949 50.591742 
L 192.361585 52.264309 
L 195.405222 53.936875 
L 198.448858 57.282008 
L 201.492494 64.975813 
L 204.536131 75.345725 
L 207.579767 105.786433 
L 210.623403 111.473158 
L 213.66704 111.807672 
L 216.710676 112.142185 
L 219.754313 112.476698 
L 222.797949 112.476698 
L 225.841585 112.811211 
L 228.885222 112.811211 
L 231.928858 112.811211 
L 234.972494 112.811211 
L 238.016131 112.811211 
L 241.059767 112.811211 
L 244.103403 113.145725 
L 247.14704 113.480238 
L 250.190676 113.814751 
L 253.234313 115.487318 
L 256.277949 116.490857 
L 259.321585 116.490857 
L 262.365222 116.490857 
L 265.408858 117.159884 
L 268.452494 117.494397 
L 271.496131 118.497937 
L 274.539767 118.83245 
L 277.583403 119.166964 
L 280.62704 119.501477 
L 283.670676 119.501477 
L 286.714313 120.170503 
L 289.757949 120.170503 
L 292.801585 120.505017 
L 295.845222 121.174043 
L 298.888858 121.174043 
L 301.932494 121.508557 
L 304.976131 121.508557 
L 308.019767 122.512096 
L 311.063403 123.515636 
L 314.10704 125.188203 
L 317.150676 125.522716 
L 320.194313 126.526256 
L 323.237949 127.195282 
L 326.281585 129.202362 
L 329.325222 130.540415 
L 332.368858 131.878468 
L 335.412494 133.551034 
L 338.456131 135.223601 
L 341.499767 138.568734 
L 344.543403 141.24484 
L 347.58704 144.924486 
L 350.630676 148.269619 
L 353.674313 153.287318 
L 356.717949 157.970503 
L 359.761585 161.984663 
L 362.805222 166.667849 
L 365.848858 174.696167 
L 368.892494 180.04838 
L 371.936131 192.425371 
" style="fill:none;stroke:#57d3db;stroke-width:3.544908;"/>
   </g>
   <g id="patch_3">
    <path d="M 394.354313 226.828339 
L 480.237188 226.828339 
L 480.237188 153.702402 
L 394.354313 153.702402 
z
" style="fill:#ffffff;"/>
   </g>
   <g id="text_13">
    <!-- provider -->
    <g transform="translate(406.554313 177.295996)scale(0.11 -0.11)">
     <defs>
      <path d="M 1159 525 
L 1159 -1331 
L 581 -1331 
L 581 3500 
L 1159 3500 
L 1159 2969 
Q 1341 3281 1617 3432 
Q 1894 3584 2278 3584 
Q 2916 3584 3314 3078 
Q 3713 2572 3713 1747 
Q 3713 922 3314 415 
Q 2916 -91 2278 -91 
Q 1894 -91 1617 61 
Q 1341 213 1159 525 
z
M 3116 1747 
Q 3116 2381 2855 2742 
Q 2594 3103 2138 3103 
Q 1681 3103 1420 2742 
Q 1159 2381 1159 1747 
Q 1159 1113 1420 752 
Q 1681 391 2138 391 
Q 2594 391 2855 752 
Q 3116 1113 3116 1747 
z
" id="DejaVuSans-70" transform="scale(0.015625)"/>
      <path d="M 2906 2969 
L 2906 4863 
L 3481 4863 
L 3481 0 
L 2906 0 
L 2906 525 
Q 2725 213 2448 61 
Q 2172 -91 1784 -91 
Q 1150 -91 751 415 
Q 353 922 353 1747 
Q 353 2572 751 3078 
Q 1150 3584 1784 3584 
Q 2172 3584 2448 3432 
Q 2725 3281 2906 2969 
z
M 947 1747 
Q 947 1113 1208 752 
Q 1469 391 1925 391 
Q 2381 391 2643 752 
Q 2906 1113 2906 1747 
Q 2906 2381 2643 2742 
Q 2381 3103 1925 3103 
Q 1469 3103 1208 2742 
Q 947 2381 947 1747 
z
" id="DejaVuSans-64" transform="scale(0.015625)"/>
     </defs>
     <use xlink:href="#DejaVuSans-70"/>
     <use x="63.476562" xlink:href="#DejaVuSans-72"/>
     <use x="102.339844" xlink:href="#DejaVuSans-6f"/>
     <use x="163.521484" xlink:href="#DejaVuSans-76"/>
     <use x="222.701172" xlink:href="#DejaVuSans-69"/>
     <use x="250.484375" xlink:href="#DejaVuSans-64"/>
     <use x="313.960938" xlink:href="#DejaVuSans-65"/>
     <use x="375.484375" xlink:href="#DejaVuSans-72"/>
    </g>
   </g>
   <g id="patch_4">
    <path clip-path="url(#p45b9790d83)" d="M 406.554313 196.788339 
L 422.394313 196.788339 
L 422.394313 180.948339 
L 406.554313 180.948339 
z
" style="fill:#f2f2f2;stroke:#cccccc;stroke-linejoin:miter;"/>
   </g>
   <g id="line2d_31">
    <path clip-path="url(#p45b9790d83)" d="M 406.554313 188.868339 
L 422.394313 188.868339 
" style="fill:none;stroke:#db5f57;stroke-width:3.544908;"/>
   </g>
   <g id="text_14">
    <!-- Fios -->
    <g transform="translate(425.394313 191.296589)scale(0.088 -0.088)">
     <defs>
      <path d="M 628 4666 
L 3309 4666 
L 3309 4134 
L 1259 4134 
L 1259 2759 
L 3109 2759 
L 3109 2228 
L 1259 2228 
L 1259 0 
L 628 0 
L 628 4666 
z
" id="DejaVuSans-46" transform="scale(0.015625)"/>
     </defs>
     <use xlink:href="#DejaVuSans-46"/>
     <use x="50.269531" xlink:href="#DejaVuSans-69"/>
     <use x="78.052734" xlink:href="#DejaVuSans-6f"/>
     <use x="139.234375" xlink:href="#DejaVuSans-73"/>
    </g>
   </g>
   <g id="patch_5">
    <path clip-path="url(#p459634d34d)" d="M 406.554313 214.628339 
L 422.394313 214.628339 
L 422.394313 198.788339 
L 406.554313 198.788339 
z
" style="fill:#f2f2f2;stroke:#cccccc;stroke-linejoin:miter;"/>
   </g>
   <g id="line2d_32">
    <path clip-path="url(#p459634d34d)" d="M 406.554313 206.708339 
L 422.394313 206.708339 
" style="fill:none;stroke:#57d3db;stroke-width:3.544908;"/>
   </g>
   <g id="text_15">
    <!-- Spectrum -->
    <g transform="translate(425.394313 209.136589)scale(0.088 -0.088)">
     <defs>
      <path d="M 1172 4494 
L 1172 3500 
L 2356 3500 
L 2356 3053 
L 1172 3053 
L 1172 1153 
Q 1172 725 1289 603 
Q 1406 481 1766 481 
L 2356 481 
L 2356 0 
L 1766 0 
Q 1100 0 847 248 
Q 594 497 594 1153 
L 594 3053 
L 172 3053 
L 172 3500 
L 594 3500 
L 594 4494 
L 1172 4494 
z
" id="DejaVuSans-74" transform="scale(0.015625)"/>
      <path d="M 3328 2828 
Q 3544 3216 3844 3400 
Q 4144 3584 4550 3584 
Q 5097 3584 5394 3201 
Q 5691 2819 5691 2113 
L 5691 0 
L 5113 0 
L 5113 2094 
Q 5113 2597 4934 2840 
Q 4756 3084 4391 3084 
Q 3944 3084 3684 2787 
Q 3425 2491 3425 1978 
L 3425 0 
L 2847 0 
L 2847 2094 
Q 2847 2600 2669 2842 
Q 2491 3084 2119 3084 
Q 1678 3084 1418 2786 
Q 1159 2488 1159 1978 
L 1159 0 
L 581 0 
L 581 3500 
L 1159 3500 
L 1159 2956 
Q 1356 3278 1631 3431 
Q 1906 3584 2284 3584 
Q 2666 3584 2933 3390 
Q 3200 3197 3328 2828 
z
" id="DejaVuSans-6d" transform="scale(0.015625)"/>
     </defs>
     <use xlink:href="#DejaVuSans-53"/>
     <use x="63.476562" xlink:href="#DejaVuSans-70"/>
     <use x="126.953125" xlink:href="#DejaVuSans-65"/>
     <use x="188.476562" xlink:href="#DejaVuSans-63"/>
     <use x="243.457031" xlink:href="#DejaVuSans-74"/>
     <use x="282.666016" xlink:href="#DejaVuSans-72"/>
     <use x="323.779297" xlink:href="#DejaVuSans-75"/>
     <use x="387.158203" xlink:href="#DejaVuSans-6d"/>
    </g>
   </g>
  </g>
  <g id="text_16">
   <!-- % of Hours Performing Over % of Service -->
   <g transform="translate(78.690281 17.229937)scale(0.132 -0.132)">
    <defs>
     <path d="M 1259 4147 
L 1259 2394 
L 2053 2394 
Q 2494 2394 2734 2622 
Q 2975 2850 2975 3272 
Q 2975 3691 2734 3919 
Q 2494 4147 2053 4147 
L 1259 4147 
z
M 628 4666 
L 2053 4666 
Q 2838 4666 3239 4311 
Q 3641 3956 3641 3272 
Q 3641 2581 3239 2228 
Q 2838 1875 2053 1875 
L 1259 1875 
L 1259 0 
L 628 0 
L 628 4666 
z
" id="DejaVuSans-50" transform="scale(0.015625)"/>
     <path d="M 3513 2113 
L 3513 0 
L 2938 0 
L 2938 2094 
Q 2938 2591 2744 2837 
Q 2550 3084 2163 3084 
Q 1697 3084 1428 2787 
Q 1159 2491 1159 1978 
L 1159 0 
L 581 0 
L 581 3500 
L 1159 3500 
L 1159 2956 
Q 1366 3272 1645 3428 
Q 1925 3584 2291 3584 
Q 2894 3584 3203 3211 
Q 3513 2838 3513 2113 
z
" id="DejaVuSans-6e" transform="scale(0.015625)"/>
     <path d="M 2906 1791 
Q 2906 2416 2648 2759 
Q 2391 3103 1925 3103 
Q 1463 3103 1205 2759 
Q 947 2416 947 1791 
Q 947 1169 1205 825 
Q 1463 481 1925 481 
Q 2391 481 2648 825 
Q 2906 1169 2906 1791 
z
M 3481 434 
Q 3481 -459 3084 -895 
Q 2688 -1331 1869 -1331 
Q 1566 -1331 1297 -1286 
Q 1028 -1241 775 -1147 
L 775 -588 
Q 1028 -725 1275 -790 
Q 1522 -856 1778 -856 
Q 2344 -856 2625 -561 
Q 2906 -266 2906 331 
L 2906 616 
Q 2728 306 2450 153 
Q 2172 0 1784 0 
Q 1141 0 747 490 
Q 353 981 353 1791 
Q 353 2603 747 3093 
Q 1141 3584 1784 3584 
Q 2172 3584 2450 3431 
Q 2728 3278 2906 2969 
L 2906 3500 
L 3481 3500 
L 3481 434 
z
" id="DejaVuSans-67" transform="scale(0.015625)"/>
     <path d="M 2522 4238 
Q 1834 4238 1429 3725 
Q 1025 3213 1025 2328 
Q 1025 1447 1429 934 
Q 1834 422 2522 422 
Q 3209 422 3611 934 
Q 4013 1447 4013 2328 
Q 4013 3213 3611 3725 
Q 3209 4238 2522 4238 
z
M 2522 4750 
Q 3503 4750 4090 4092 
Q 4678 3434 4678 2328 
Q 4678 1225 4090 567 
Q 3503 -91 2522 -91 
Q 1538 -91 948 565 
Q 359 1222 359 2328 
Q 359 3434 948 4092 
Q 1538 4750 2522 4750 
z
" id="DejaVuSans-4f" transform="scale(0.015625)"/>
    </defs>
    <use xlink:href="#DejaVuSans-25"/>
    <use x="95.019531" xlink:href="#DejaVuSans-20"/>
    <use x="126.806641" xlink:href="#DejaVuSans-6f"/>
    <use x="187.988281" xlink:href="#DejaVuSans-66"/>
    <use x="223.193359" xlink:href="#DejaVuSans-20"/>
    <use x="254.980469" xlink:href="#DejaVuSans-48"/>
    <use x="330.175781" xlink:href="#DejaVuSans-6f"/>
    <use x="391.357422" xlink:href="#DejaVuSans-75"/>
    <use x="454.736328" xlink:href="#DejaVuSans-72"/>
    <use x="495.849609" xlink:href="#DejaVuSans-73"/>
    <use x="547.949219" xlink:href="#DejaVuSans-20"/>
    <use x="579.736328" xlink:href="#DejaVuSans-50"/>
    <use x="636.414062" xlink:href="#DejaVuSans-65"/>
    <use x="697.9375" xlink:href="#DejaVuSans-72"/>
    <use x="739.050781" xlink:href="#DejaVuSans-66"/>
    <use x="774.255859" xlink:href="#DejaVuSans-6f"/>
    <use x="835.4375" xlink:href="#DejaVuSans-72"/>
    <use x="874.800781" xlink:href="#DejaVuSans-6d"/>
    <use x="972.212891" xlink:href="#DejaVuSans-69"/>
    <use x="999.996094" xlink:href="#DejaVuSans-6e"/>
    <use x="1063.375" xlink:href="#DejaVuSans-67"/>
    <use x="1126.851562" xlink:href="#DejaVuSans-20"/>
    <use x="1158.638672" xlink:href="#DejaVuSans-4f"/>
    <use x="1237.349609" xlink:href="#DejaVuSans-76"/>
    <use x="1296.529297" xlink:href="#DejaVuSans-65"/>
    <use x="1358.052734" xlink:href="#DejaVuSans-72"/>
    <use x="1399.166016" xlink:href="#DejaVuSans-20"/>
    <use x="1430.953125" xlink:href="#DejaVuSans-25"/>
    <use x="1525.972656" xlink:href="#DejaVuSans-20"/>
    <use x="1557.759766" xlink:href="#DejaVuSans-6f"/>
    <use x="1618.941406" xlink:href="#DejaVuSans-66"/>
    <use x="1654.146484" xlink:href="#DejaVuSans-20"/>
    <use x="1685.933594" xlink:href="#DejaVuSans-53"/>
    <use x="1749.410156" xlink:href="#DejaVuSans-65"/>
    <use x="1810.933594" xlink:href="#DejaVuSans-72"/>
    <use x="1852.046875" xlink:href="#DejaVuSans-76"/>
    <use x="1911.226562" xlink:href="#DejaVuSans-69"/>
    <use x="1939.009766" xlink:href="#DejaVuSans-63"/>
    <use x="1993.990234" xlink:href="#DejaVuSans-65"/>
   </g>
  </g>
 </g>
 <defs>
  <clipPath id="pd52957667f">
   <rect height="332.64" width="334.8" x="52.354313" y="26.105371"/>
  </clipPath>
  <clipPath id="p45b9790d83">
   <path d="M 406.554313 196.788339 
L 406.554313 180.948339 
L 422.394313 180.948339 
L 422.394313 196.788339 
"/>
  </clipPath>
  <clipPath id="p459634d34d">
   <path d="M 406.554313 214.628339 
L 406.554313 198.788339 
L 422.394313 198.788339 
L 422.394313 214.628339 
"/>
  </clipPath>
 </defs>
</svg>
