<?xml version="1.0" encoding="utf-8" standalone="no"?>
<!DOCTYPE svg PUBLIC "-//W3C//DTD SVG 1.1//EN"
  "http://www.w3.org/Graphics/SVG/1.1/DTD/svg11.dtd">
<!-- Created with matplotlib (https://matplotlib.org/) -->
<svg height="339.018058pt" version="1.1" viewBox="0 0 410.397562 339.018058" width="410.397562pt" xmlns="http://www.w3.org/2000/svg" xmlns:xlink="http://www.w3.org/1999/xlink">
 <metadata>
  <rdf:RDF xmlns:cc="http://creativecommons.org/ns#" xmlns:dc="http://purl.org/dc/elements/1.1/" xmlns:rdf="http://www.w3.org/1999/02/22-rdf-syntax-ns#">
   <cc:Work>
    <dc:type rdf:resource="http://purl.org/dc/dcmitype/StillImage"/>
    <dc:date>2020-12-31T21:41:12.053572</dc:date>
    <dc:format>image/svg+xml</dc:format>
    <dc:creator>
     <cc:Agent>
      <dc:title>Matplotlib v3.3.3, https://matplotlib.org/</dc:title>
     </cc:Agent>
    </dc:creator>
   </cc:Work>
  </rdf:RDF>
 </metadata>
 <defs>
  <style type="text/css">*{stroke-linecap:butt;stroke-linejoin:round;}</style>
 </defs>
 <g id="figure_1">
  <g id="patch_1">
   <path d="M 0 339.018058 
L 410.397562 339.018058 
L 410.397562 0 
L 0 0 
z
" style="fill:#ffffff;stroke:#ffffff;stroke-linejoin:miter;"/>
  </g>
  <g id="axes_1">
   <g id="patch_2">
    <path d="M 54.163813 303.305371 
L 333.163813 303.305371 
L 333.163813 26.105371 
L 54.163813 26.105371 
z
" style="fill:#ffffff;stroke:#000000;stroke-linejoin:miter;"/>
   </g>
   <g id="matplotlib.axis_1">
    <g id="xtick_1">
     <g id="line2d_1">
      <path clip-path="url(#p403db9f280)" d="M 120.525284 303.305371 
L 120.525284 26.105371 
" style="fill:none;stroke:#000000;stroke-width:0.1;"/>
     </g>
     <g id="line2d_2">
      <path d="M 120.525284 303.305371 
" style="fill:none;stroke:#000000;stroke-width:1.5;"/>
      <defs>
       <path d="M 0 0 
L 0 2.75 
" id="m43f3f2f479" style="stroke:#000000;stroke-width:0.5;"/>
      </defs>
      <g>
       <use style="stroke:#000000;stroke-width:0.5;" x="120.525284" xlink:href="#m43f3f2f479" y="303.305371"/>
      </g>
     </g>
     <g id="text_1">
      <!-- 50 -->
      <g transform="translate(114.926284 314.941996)scale(0.088 -0.088)">
       <defs>
        <path d="M 10.796875 72.90625 
L 49.515625 72.90625 
L 49.515625 64.59375 
L 19.828125 64.59375 
L 19.828125 46.734375 
Q 21.96875 47.46875 24.109375 47.828125 
Q 26.265625 48.1875 28.421875 48.1875 
Q 40.625 48.1875 47.75 41.5 
Q 54.890625 34.8125 54.890625 23.390625 
Q 54.890625 11.625 47.5625 5.09375 
Q 40.234375 -1.421875 26.90625 -1.421875 
Q 22.3125 -1.421875 17.546875 -0.640625 
Q 12.796875 0.140625 7.71875 1.703125 
L 7.71875 11.625 
Q 12.109375 9.234375 16.796875 8.0625 
Q 21.484375 6.890625 26.703125 6.890625 
Q 35.15625 6.890625 40.078125 11.328125 
Q 45.015625 15.765625 45.015625 23.390625 
Q 45.015625 31 40.078125 35.4375 
Q 35.15625 39.890625 26.703125 39.890625 
Q 22.75 39.890625 18.8125 39.015625 
Q 14.890625 38.140625 10.796875 36.28125 
z
" id="DejaVuSans-53"/>
        <path d="M 31.78125 66.40625 
Q 24.171875 66.40625 20.328125 58.90625 
Q 16.5 51.421875 16.5 36.375 
Q 16.5 21.390625 20.328125 13.890625 
Q 24.171875 6.390625 31.78125 6.390625 
Q 39.453125 6.390625 43.28125 13.890625 
Q 47.125 21.390625 47.125 36.375 
Q 47.125 51.421875 43.28125 58.90625 
Q 39.453125 66.40625 31.78125 66.40625 
z
M 31.78125 74.21875 
Q 44.046875 74.21875 50.515625 64.515625 
Q 56.984375 54.828125 56.984375 36.375 
Q 56.984375 17.96875 50.515625 8.265625 
Q 44.046875 -1.421875 31.78125 -1.421875 
Q 19.53125 -1.421875 13.0625 8.265625 
Q 6.59375 17.96875 6.59375 36.375 
Q 6.59375 54.828125 13.0625 64.515625 
Q 19.53125 74.21875 31.78125 74.21875 
z
" id="DejaVuSans-48"/>
       </defs>
       <use xlink:href="#DejaVuSans-53"/>
       <use x="63.623047" xlink:href="#DejaVuSans-48"/>
      </g>
     </g>
    </g>
    <g id="xtick_2">
     <g id="line2d_3">
      <path clip-path="url(#p403db9f280)" d="M 187.624851 303.305371 
L 187.624851 26.105371 
" style="fill:none;stroke:#000000;stroke-width:0.1;"/>
     </g>
     <g id="line2d_4">
      <path d="M 187.624851 303.305371 
" style="fill:none;stroke:#000000;stroke-width:1.5;"/>
      <g>
       <use style="stroke:#000000;stroke-width:0.5;" x="187.624851" xlink:href="#m43f3f2f479" y="303.305371"/>
      </g>
     </g>
     <g id="text_2">
      <!-- 100 -->
      <g transform="translate(179.226351 314.941996)scale(0.088 -0.088)">
       <defs>
        <path d="M 12.40625 8.296875 
L 28.515625 8.296875 
L 28.515625 63.921875 
L 10.984375 60.40625 
L 10.984375 69.390625 
L 28.421875 72.90625 
L 38.28125 72.90625 
L 38.28125 8.296875 
L 54.390625 8.296875 
L 54.390625 0 
L 12.40625 0 
z
" id="DejaVuSans-49"/>
       </defs>
       <use xlink:href="#DejaVuSans-49"/>
       <use x="63.623047" xlink:href="#DejaVuSans-48"/>
       <use x="127.246094" xlink:href="#DejaVuSans-48"/>
      </g>
     </g>
    </g>
    <g id="xtick_3">
     <g id="line2d_5">
      <path clip-path="url(#p403db9f280)" d="M 254.724419 303.305371 
L 254.724419 26.105371 
" style="fill:none;stroke:#000000;stroke-width:0.1;"/>
     </g>
     <g id="line2d_6">
      <path d="M 254.724419 303.305371 
" style="fill:none;stroke:#000000;stroke-width:1.5;"/>
      <g>
       <use style="stroke:#000000;stroke-width:0.5;" x="254.724419" xlink:href="#m43f3f2f479" y="303.305371"/>
      </g>
     </g>
     <g id="text_3">
      <!-- 150 -->
      <g transform="translate(246.325919 314.941996)scale(0.088 -0.088)">
       <use xlink:href="#DejaVuSans-49"/>
       <use x="63.623047" xlink:href="#DejaVuSans-53"/>
       <use x="127.246094" xlink:href="#DejaVuSans-48"/>
      </g>
     </g>
    </g>
    <g id="xtick_4">
     <g id="line2d_7">
      <path clip-path="url(#p403db9f280)" d="M 321.823986 303.305371 
L 321.823986 26.105371 
" style="fill:none;stroke:#000000;stroke-width:0.1;"/>
     </g>
     <g id="line2d_8">
      <path d="M 321.823986 303.305371 
" style="fill:none;stroke:#000000;stroke-width:1.5;"/>
      <g>
       <use style="stroke:#000000;stroke-width:0.5;" x="321.823986" xlink:href="#m43f3f2f479" y="303.305371"/>
      </g>
     </g>
     <g id="text_4">
      <!-- 200 -->
      <g transform="translate(313.425486 314.941996)scale(0.088 -0.088)">
       <defs>
        <path d="M 19.1875 8.296875 
L 53.609375 8.296875 
L 53.609375 0 
L 7.328125 0 
L 7.328125 8.296875 
Q 12.9375 14.109375 22.625 23.890625 
Q 32.328125 33.6875 34.8125 36.53125 
Q 39.546875 41.84375 41.421875 45.53125 
Q 43.3125 49.21875 43.3125 52.78125 
Q 43.3125 58.59375 39.234375 62.25 
Q 35.15625 65.921875 28.609375 65.921875 
Q 23.96875 65.921875 18.8125 64.3125 
Q 13.671875 62.703125 7.8125 59.421875 
L 7.8125 69.390625 
Q 13.765625 71.78125 18.9375 73 
Q 24.125 74.21875 28.421875 74.21875 
Q 39.75 74.21875 46.484375 68.546875 
Q 53.21875 62.890625 53.21875 53.421875 
Q 53.21875 48.921875 51.53125 44.890625 
Q 49.859375 40.875 45.40625 35.40625 
Q 44.1875 33.984375 37.640625 27.21875 
Q 31.109375 20.453125 19.1875 8.296875 
z
" id="DejaVuSans-50"/>
       </defs>
       <use xlink:href="#DejaVuSans-50"/>
       <use x="63.623047" xlink:href="#DejaVuSans-48"/>
       <use x="127.246094" xlink:href="#DejaVuSans-48"/>
      </g>
     </g>
    </g>
    <g id="xtick_5">
     <g id="line2d_9">
      <path clip-path="url(#p403db9f280)" d="M 86.975501 303.305371 
L 86.975501 26.105371 
" style="fill:none;stroke:#000000;stroke-width:0.02;"/>
     </g>
    </g>
    <g id="xtick_6">
     <g id="line2d_10">
      <path clip-path="url(#p403db9f280)" d="M 154.075068 303.305371 
L 154.075068 26.105371 
" style="fill:none;stroke:#000000;stroke-width:0.02;"/>
     </g>
    </g>
    <g id="xtick_7">
     <g id="line2d_11">
      <path clip-path="url(#p403db9f280)" d="M 221.174635 303.305371 
L 221.174635 26.105371 
" style="fill:none;stroke:#000000;stroke-width:0.02;"/>
     </g>
    </g>
    <g id="xtick_8">
     <g id="line2d_12">
      <path clip-path="url(#p403db9f280)" d="M 288.274202 303.305371 
L 288.274202 26.105371 
" style="fill:none;stroke:#000000;stroke-width:0.02;"/>
     </g>
    </g>
    <g id="text_5">
     <!-- N -->
     <g transform="translate(185.049125 329.530402)scale(0.11 -0.11)">
      <defs>
       <path d="M 9.8125 72.90625 
L 23.09375 72.90625 
L 55.421875 11.921875 
L 55.421875 72.90625 
L 64.984375 72.90625 
L 64.984375 0 
L 51.703125 0 
L 19.390625 60.984375 
L 19.390625 0 
L 9.8125 0 
z
" id="DejaVuSans-78"/>
      </defs>
      <use xlink:href="#DejaVuSans-78"/>
     </g>
    </g>
   </g>
   <g id="matplotlib.axis_2">
    <g id="ytick_1">
     <g id="line2d_13">
      <path clip-path="url(#p403db9f280)" d="M 54.163813 290.705371 
L 333.163813 290.705371 
" style="fill:none;stroke:#000000;stroke-width:0.1;"/>
     </g>
     <g id="line2d_14">
      <path d="M 54.163813 290.705371 
" style="fill:none;stroke:#000000;stroke-width:1.5;"/>
      <defs>
       <path d="M 0 0 
L -2.75 0 
" id="m83e6e6ea2e" style="stroke:#000000;stroke-width:0.5;"/>
      </defs>
      <g>
       <use style="stroke:#000000;stroke-width:0.5;" x="54.163813" xlink:href="#m83e6e6ea2e" y="290.705371"/>
      </g>
     </g>
     <g id="text_6">
      <!-- −0.10 -->
      <g transform="translate(22.245938 293.133621)scale(0.088 -0.088)">
       <defs>
        <path d="M 10.59375 35.5 
L 73.1875 35.5 
L 73.1875 27.203125 
L 10.59375 27.203125 
z
" id="DejaVuSans-8722"/>
        <path d="M 10.6875 12.40625 
L 21 12.40625 
L 21 0 
L 10.6875 0 
z
" id="DejaVuSans-46"/>
       </defs>
       <use xlink:href="#DejaVuSans-8722"/>
       <use x="83.789062" xlink:href="#DejaVuSans-48"/>
       <use x="147.412109" xlink:href="#DejaVuSans-46"/>
       <use x="179.199219" xlink:href="#DejaVuSans-49"/>
       <use x="242.822266" xlink:href="#DejaVuSans-48"/>
      </g>
     </g>
    </g>
    <g id="ytick_2">
     <g id="line2d_15">
      <path clip-path="url(#p403db9f280)" d="M 54.163813 227.705371 
L 333.163813 227.705371 
" style="fill:none;stroke:#000000;stroke-width:0.1;"/>
     </g>
     <g id="line2d_16">
      <path d="M 54.163813 227.705371 
" style="fill:none;stroke:#000000;stroke-width:1.5;"/>
      <g>
       <use style="stroke:#000000;stroke-width:0.5;" x="54.163813" xlink:href="#m83e6e6ea2e" y="227.705371"/>
      </g>
     </g>
     <g id="text_7">
      <!-- −0.05 -->
      <g transform="translate(22.245938 230.133621)scale(0.088 -0.088)">
       <use xlink:href="#DejaVuSans-8722"/>
       <use x="83.789062" xlink:href="#DejaVuSans-48"/>
       <use x="147.412109" xlink:href="#DejaVuSans-46"/>
       <use x="179.199219" xlink:href="#DejaVuSans-48"/>
       <use x="242.822266" xlink:href="#DejaVuSans-53"/>
      </g>
     </g>
    </g>
    <g id="ytick_3">
     <g id="line2d_17">
      <path clip-path="url(#p403db9f280)" d="M 54.163813 164.705371 
L 333.163813 164.705371 
" style="fill:none;stroke:#000000;stroke-width:0.1;"/>
     </g>
     <g id="line2d_18">
      <path d="M 54.163813 164.705371 
" style="fill:none;stroke:#000000;stroke-width:1.5;"/>
      <g>
       <use style="stroke:#000000;stroke-width:0.5;" x="54.163813" xlink:href="#m83e6e6ea2e" y="164.705371"/>
      </g>
     </g>
     <g id="text_8">
      <!-- 0 -->
      <g transform="translate(43.614812 167.133621)scale(0.088 -0.088)">
       <use xlink:href="#DejaVuSans-48"/>
      </g>
     </g>
    </g>
    <g id="ytick_4">
     <g id="line2d_19">
      <path clip-path="url(#p403db9f280)" d="M 54.163813 101.705371 
L 333.163813 101.705371 
" style="fill:none;stroke:#000000;stroke-width:0.1;"/>
     </g>
     <g id="line2d_20">
      <path d="M 54.163813 101.705371 
" style="fill:none;stroke:#000000;stroke-width:1.5;"/>
      <g>
       <use style="stroke:#000000;stroke-width:0.5;" x="54.163813" xlink:href="#m83e6e6ea2e" y="101.705371"/>
      </g>
     </g>
     <g id="text_9">
      <!-- 0.05 -->
      <g transform="translate(29.620062 104.133621)scale(0.088 -0.088)">
       <use xlink:href="#DejaVuSans-48"/>
       <use x="63.623047" xlink:href="#DejaVuSans-46"/>
       <use x="95.410156" xlink:href="#DejaVuSans-48"/>
       <use x="159.033203" xlink:href="#DejaVuSans-53"/>
      </g>
     </g>
    </g>
    <g id="ytick_5">
     <g id="line2d_21">
      <path clip-path="url(#p403db9f280)" d="M 54.163813 38.705371 
L 333.163813 38.705371 
" style="fill:none;stroke:#000000;stroke-width:0.1;"/>
     </g>
     <g id="line2d_22">
      <path d="M 54.163813 38.705371 
" style="fill:none;stroke:#000000;stroke-width:1.5;"/>
      <g>
       <use style="stroke:#000000;stroke-width:0.5;" x="54.163813" xlink:href="#m83e6e6ea2e" y="38.705371"/>
      </g>
     </g>
     <g id="text_10">
      <!-- 0.10 -->
      <g transform="translate(29.620062 41.133621)scale(0.088 -0.088)">
       <use xlink:href="#DejaVuSans-48"/>
       <use x="63.623047" xlink:href="#DejaVuSans-46"/>
       <use x="95.410156" xlink:href="#DejaVuSans-49"/>
       <use x="159.033203" xlink:href="#DejaVuSans-48"/>
      </g>
     </g>
    </g>
    <g id="ytick_6">
     <g id="line2d_23">
      <path clip-path="url(#p403db9f280)" d="M 54.163813 259.205371 
L 333.163813 259.205371 
" style="fill:none;stroke:#000000;stroke-width:0.02;"/>
     </g>
    </g>
    <g id="ytick_7">
     <g id="line2d_24">
      <path clip-path="url(#p403db9f280)" d="M 54.163813 196.205371 
L 333.163813 196.205371 
" style="fill:none;stroke:#000000;stroke-width:0.02;"/>
     </g>
    </g>
    <g id="ytick_8">
     <g id="line2d_25">
      <path clip-path="url(#p403db9f280)" d="M 54.163813 133.205371 
L 333.163813 133.205371 
" style="fill:none;stroke:#000000;stroke-width:0.02;"/>
     </g>
    </g>
    <g id="ytick_9">
     <g id="line2d_26">
      <path clip-path="url(#p403db9f280)" d="M 54.163813 70.205371 
L 333.163813 70.205371 
" style="fill:none;stroke:#000000;stroke-width:0.02;"/>
     </g>
    </g>
    <g id="text_11">
     <!-- Lower Bound -->
     <g transform="translate(15.558281 198.731855)rotate(-90)scale(0.11 -0.11)">
      <defs>
       <path d="M 9.8125 72.90625 
L 19.671875 72.90625 
L 19.671875 8.296875 
L 55.171875 8.296875 
L 55.171875 0 
L 9.8125 0 
z
" id="DejaVuSans-76"/>
       <path d="M 30.609375 48.390625 
Q 23.390625 48.390625 19.1875 42.75 
Q 14.984375 37.109375 14.984375 27.296875 
Q 14.984375 17.484375 19.15625 11.84375 
Q 23.34375 6.203125 30.609375 6.203125 
Q 37.796875 6.203125 41.984375 11.859375 
Q 46.1875 17.53125 46.1875 27.296875 
Q 46.1875 37.015625 41.984375 42.703125 
Q 37.796875 48.390625 30.609375 48.390625 
z
M 30.609375 56 
Q 42.328125 56 49.015625 48.375 
Q 55.71875 40.765625 55.71875 27.296875 
Q 55.71875 13.875 49.015625 6.21875 
Q 42.328125 -1.421875 30.609375 -1.421875 
Q 18.84375 -1.421875 12.171875 6.21875 
Q 5.515625 13.875 5.515625 27.296875 
Q 5.515625 40.765625 12.171875 48.375 
Q 18.84375 56 30.609375 56 
z
" id="DejaVuSans-111"/>
       <path d="M 4.203125 54.6875 
L 13.1875 54.6875 
L 24.421875 12.015625 
L 35.59375 54.6875 
L 46.1875 54.6875 
L 57.421875 12.015625 
L 68.609375 54.6875 
L 77.59375 54.6875 
L 63.28125 0 
L 52.6875 0 
L 40.921875 44.828125 
L 29.109375 0 
L 18.5 0 
z
" id="DejaVuSans-119"/>
       <path d="M 56.203125 29.59375 
L 56.203125 25.203125 
L 14.890625 25.203125 
Q 15.484375 15.921875 20.484375 11.0625 
Q 25.484375 6.203125 34.421875 6.203125 
Q 39.59375 6.203125 44.453125 7.46875 
Q 49.3125 8.734375 54.109375 11.28125 
L 54.109375 2.78125 
Q 49.265625 0.734375 44.1875 -0.34375 
Q 39.109375 -1.421875 33.890625 -1.421875 
Q 20.796875 -1.421875 13.15625 6.1875 
Q 5.515625 13.8125 5.515625 26.8125 
Q 5.515625 40.234375 12.765625 48.109375 
Q 20.015625 56 32.328125 56 
Q 43.359375 56 49.78125 48.890625 
Q 56.203125 41.796875 56.203125 29.59375 
z
M 47.21875 32.234375 
Q 47.125 39.59375 43.09375 43.984375 
Q 39.0625 48.390625 32.421875 48.390625 
Q 24.90625 48.390625 20.390625 44.140625 
Q 15.875 39.890625 15.1875 32.171875 
z
" id="DejaVuSans-101"/>
       <path d="M 41.109375 46.296875 
Q 39.59375 47.171875 37.8125 47.578125 
Q 36.03125 48 33.890625 48 
Q 26.265625 48 22.1875 43.046875 
Q 18.109375 38.09375 18.109375 28.8125 
L 18.109375 0 
L 9.078125 0 
L 9.078125 54.6875 
L 18.109375 54.6875 
L 18.109375 46.1875 
Q 20.953125 51.171875 25.484375 53.578125 
Q 30.03125 56 36.53125 56 
Q 37.453125 56 38.578125 55.875 
Q 39.703125 55.765625 41.0625 55.515625 
z
" id="DejaVuSans-114"/>
       <path id="DejaVuSans-32"/>
       <path d="M 19.671875 34.8125 
L 19.671875 8.109375 
L 35.5 8.109375 
Q 43.453125 8.109375 47.28125 11.40625 
Q 51.125 14.703125 51.125 21.484375 
Q 51.125 28.328125 47.28125 31.5625 
Q 43.453125 34.8125 35.5 34.8125 
z
M 19.671875 64.796875 
L 19.671875 42.828125 
L 34.28125 42.828125 
Q 41.5 42.828125 45.03125 45.53125 
Q 48.578125 48.25 48.578125 53.8125 
Q 48.578125 59.328125 45.03125 62.0625 
Q 41.5 64.796875 34.28125 64.796875 
z
M 9.8125 72.90625 
L 35.015625 72.90625 
Q 46.296875 72.90625 52.390625 68.21875 
Q 58.5 63.53125 58.5 54.890625 
Q 58.5 48.1875 55.375 44.234375 
Q 52.25 40.28125 46.1875 39.3125 
Q 53.46875 37.75 57.5 32.78125 
Q 61.53125 27.828125 61.53125 20.40625 
Q 61.53125 10.640625 54.890625 5.3125 
Q 48.25 0 35.984375 0 
L 9.8125 0 
z
" id="DejaVuSans-66"/>
       <path d="M 8.5 21.578125 
L 8.5 54.6875 
L 17.484375 54.6875 
L 17.484375 21.921875 
Q 17.484375 14.15625 20.5 10.265625 
Q 23.53125 6.390625 29.59375 6.390625 
Q 36.859375 6.390625 41.078125 11.03125 
Q 45.3125 15.671875 45.3125 23.6875 
L 45.3125 54.6875 
L 54.296875 54.6875 
L 54.296875 0 
L 45.3125 0 
L 45.3125 8.40625 
Q 42.046875 3.421875 37.71875 1 
Q 33.40625 -1.421875 27.6875 -1.421875 
Q 18.265625 -1.421875 13.375 4.4375 
Q 8.5 10.296875 8.5 21.578125 
z
M 31.109375 56 
z
" id="DejaVuSans-117"/>
       <path d="M 54.890625 33.015625 
L 54.890625 0 
L 45.90625 0 
L 45.90625 32.71875 
Q 45.90625 40.484375 42.875 44.328125 
Q 39.84375 48.1875 33.796875 48.1875 
Q 26.515625 48.1875 22.3125 43.546875 
Q 18.109375 38.921875 18.109375 30.90625 
L 18.109375 0 
L 9.078125 0 
L 9.078125 54.6875 
L 18.109375 54.6875 
L 18.109375 46.1875 
Q 21.34375 51.125 25.703125 53.5625 
Q 30.078125 56 35.796875 56 
Q 45.21875 56 50.046875 50.171875 
Q 54.890625 44.34375 54.890625 33.015625 
z
" id="DejaVuSans-110"/>
       <path d="M 45.40625 46.390625 
L 45.40625 75.984375 
L 54.390625 75.984375 
L 54.390625 0 
L 45.40625 0 
L 45.40625 8.203125 
Q 42.578125 3.328125 38.25 0.953125 
Q 33.9375 -1.421875 27.875 -1.421875 
Q 17.96875 -1.421875 11.734375 6.484375 
Q 5.515625 14.40625 5.515625 27.296875 
Q 5.515625 40.1875 11.734375 48.09375 
Q 17.96875 56 27.875 56 
Q 33.9375 56 38.25 53.625 
Q 42.578125 51.265625 45.40625 46.390625 
z
M 14.796875 27.296875 
Q 14.796875 17.390625 18.875 11.75 
Q 22.953125 6.109375 30.078125 6.109375 
Q 37.203125 6.109375 41.296875 11.75 
Q 45.40625 17.390625 45.40625 27.296875 
Q 45.40625 37.203125 41.296875 42.84375 
Q 37.203125 48.484375 30.078125 48.484375 
Q 22.953125 48.484375 18.875 42.84375 
Q 14.796875 37.203125 14.796875 27.296875 
z
" id="DejaVuSans-100"/>
      </defs>
      <use xlink:href="#DejaVuSans-76"/>
      <use x="53.962891" xlink:href="#DejaVuSans-111"/>
      <use x="115.144531" xlink:href="#DejaVuSans-119"/>
      <use x="196.931641" xlink:href="#DejaVuSans-101"/>
      <use x="258.455078" xlink:href="#DejaVuSans-114"/>
      <use x="299.568359" xlink:href="#DejaVuSans-32"/>
      <use x="331.355469" xlink:href="#DejaVuSans-66"/>
      <use x="399.958984" xlink:href="#DejaVuSans-111"/>
      <use x="461.140625" xlink:href="#DejaVuSans-117"/>
      <use x="524.519531" xlink:href="#DejaVuSans-110"/>
      <use x="587.898438" xlink:href="#DejaVuSans-100"/>
     </g>
    </g>
   </g>
   <g id="line2d_27">
    <path clip-path="url(#p403db9f280)" d="M 66.845631 229.809521 
L 68.187622 226.193371 
L 69.529613 223.03923 
L 70.871605 220.256419 
L 72.213596 217.777364 
L 74.897579 213.535895 
L 77.581561 210.022625 
L 80.265544 207.050502 
L 82.949527 204.493498 
L 85.633509 202.263184 
L 88.317492 200.295439 
L 91.001475 198.542482 
L 95.027449 196.238362 
L 99.053423 194.246363 
L 103.079397 192.501835 
L 108.447362 190.480715 
L 113.815328 188.735458 
L 119.183293 187.208528 
L 125.89325 185.543913 
L 132.603206 184.095663 
L 140.655154 182.583446 
L 150.049094 181.063998 
L 160.785025 179.577936 
L 172.862947 178.151861 
L 186.28286 176.801371 
L 201.044765 175.534053 
L 218.490652 174.261386 
L 238.620522 173.022625 
L 261.434375 171.842245 
L 288.274202 170.680215 
L 319.140003 169.56808 
L 320.481994 169.524148 
L 320.481994 169.524148 
" style="fill:none;stroke:#db5f57;stroke-width:1.772454;"/>
   </g>
   <g id="line2d_28">
    <path clip-path="url(#p403db9f280)" d="M 66.845631 271.910805 
L 68.187622 263.989885 
L 69.529613 257.080963 
L 70.871605 250.985412 
L 72.213596 245.555217 
L 73.555587 240.677526 
L 74.897579 236.264581 
L 77.581561 228.569011 
L 80.265544 222.058787 
L 82.949527 216.457851 
L 85.633509 211.572506 
L 88.317492 207.2623 
L 91.001475 203.422573 
L 93.685458 199.973524 
L 96.36944 196.853101 
L 99.053423 194.012228 
L 101.737406 191.411511 
L 105.76338 187.892242 
L 109.789354 184.757118 
L 113.815328 181.940982 
L 117.841302 179.393167 
L 121.867276 177.073604 
L 127.235241 174.281212 
L 132.603206 171.777839 
L 137.971172 169.516839 
L 144.681129 166.976175 
L 151.391085 164.701228 
L 158.101042 162.648692 
L 166.15299 160.431825 
L 174.204938 158.440515 
L 183.598877 156.355042 
L 194.334808 154.231908 
L 205.070739 152.338434 
L 217.148661 150.435045 
L 230.568574 148.552875 
L 245.330479 146.714997 
L 261.434375 144.937594 
L 278.880263 143.231245 
L 299.010133 141.492983 
L 320.481994 139.859969 
L 320.481994 139.859969 
" style="fill:none;stroke:#57db5f;stroke-width:1.772454;"/>
   </g>
   <g id="line2d_29">
    <path clip-path="url(#p403db9f280)" d="M 66.845631 272.992198 
L 68.187622 262.089096 
L 69.529613 252.579004 
L 70.871605 244.188511 
L 72.213596 236.71388 
L 73.555587 229.999764 
L 74.897579 223.925371 
L 77.581561 213.332461 
L 80.265544 204.371175 
L 82.949527 196.661517 
L 85.633509 189.936867 
L 88.317492 184.003893 
L 91.001475 178.71853 
L 93.685458 173.970934 
L 96.36944 169.675689 
L 99.053423 165.765242 
L 101.737406 162.185371 
L 104.421388 158.891977 
L 107.105371 155.848784 
L 111.131345 151.688512 
L 115.157319 147.942167 
L 119.183293 144.545371 
L 123.209267 141.446941 
L 127.235241 138.60561 
L 131.261215 135.987681 
L 136.62918 132.797225 
L 141.997146 129.901395 
L 147.365111 127.257468 
L 152.733077 124.830921 
L 159.443033 122.060883 
L 166.15299 119.542006 
L 172.862947 117.238494 
L 180.914895 114.718055 
L 188.966843 112.425686 
L 198.360782 109.996582 
L 207.754722 107.792787 
L 218.490652 105.508271 
L 230.568574 103.190698 
L 242.646496 101.098722 
L 256.06641 98.99733 
L 270.828315 96.914401 
L 286.932211 94.871339 
L 304.378098 92.883882 
L 320.481994 91.224961 
L 320.481994 91.224961 
" style="fill:none;stroke:#5f57db;stroke-width:1.772454;"/>
   </g>
   <g id="text_12">
    <g clip-path="url(#p403db9f280)">
     <!-- 😞 Lower CI &lt; 0 -->
     <g transform="translate(144.85118 281.140683)scale(0.11 -0.11)">
      <defs>
       <path d="M 76.125 51.078125 
L 59.328125 62.796875 
L 63.09375 68.21875 
L 79.890625 56.453125 
z
M 28.171875 51.078125 
L 24.421875 56.453125 
L 41.21875 68.21875 
L 44.96875 62.796875 
z
M 31.34375 46.34375 
Q 31.34375 49.21875 33.3125 51.1875 
Q 35.296875 53.171875 38.1875 53.171875 
Q 41.015625 53.171875 43.015625 51.1875 
Q 45.015625 49.21875 45.015625 46.328125 
Q 45.015625 43.453125 43.015625 41.453125 
Q 41.015625 39.453125 38.1875 39.453125 
Q 35.296875 39.453125 33.3125 41.46875 
Q 31.34375 43.5 31.34375 46.34375 
z
M 59.578125 46.34375 
Q 59.578125 49.21875 61.578125 51.1875 
Q 63.578125 53.171875 66.40625 53.171875 
Q 69.234375 53.171875 71.265625 51.1875 
Q 73.296875 49.21875 73.296875 46.34375 
Q 73.296875 43.5 71.265625 41.46875 
Q 69.234375 39.453125 66.40625 39.453125 
Q 63.53125 39.453125 61.546875 41.46875 
Q 59.578125 43.5 59.578125 46.34375 
z
M 8.296875 36.421875 
Q 8.296875 54.640625 21.140625 67.5 
Q 33.984375 80.375 52.15625 80.375 
Q 70.359375 80.375 83.15625 67.5 
Q 95.953125 54.640625 95.953125 36.421875 
Q 95.953125 18.265625 83.15625 5.46875 
Q 70.359375 -7.328125 52.15625 -7.328125 
Q 33.984375 -7.328125 21.140625 5.46875 
Q 8.296875 18.265625 8.296875 36.421875 
z
M 14.890625 36.421875 
Q 14.890625 21 25.796875 10.125 
Q 36.71875 -0.734375 52.15625 -0.734375 
Q 67.625 -0.734375 78.484375 10.125 
Q 89.359375 21 89.359375 36.421875 
Q 89.359375 51.90625 78.484375 62.84375 
Q 67.625 73.78125 52.15625 73.78125 
Q 36.71875 73.78125 25.796875 62.84375 
Q 14.890625 51.90625 14.890625 36.421875 
z
M 26.421875 16.21875 
Q 28.21875 18.953125 30.671875 21.4375 
Q 39.546875 30.28125 52.140625 30.28125 
Q 64.75 30.28125 73.640625 21.4375 
Q 76.125 18.953125 77.875 16.21875 
L 72.265625 12.703125 
Q 70.90625 14.84375 68.953125 16.75 
Q 62.015625 23.6875 52.15625 23.6875 
Q 42.28125 23.734375 35.359375 16.796875 
Q 33.453125 14.890625 32.03125 12.75 
z
" id="DejaVuSans-128542"/>
       <path d="M 64.40625 67.28125 
L 64.40625 56.890625 
Q 59.421875 61.53125 53.78125 63.8125 
Q 48.140625 66.109375 41.796875 66.109375 
Q 29.296875 66.109375 22.65625 58.46875 
Q 16.015625 50.828125 16.015625 36.375 
Q 16.015625 21.96875 22.65625 14.328125 
Q 29.296875 6.6875 41.796875 6.6875 
Q 48.140625 6.6875 53.78125 8.984375 
Q 59.421875 11.28125 64.40625 15.921875 
L 64.40625 5.609375 
Q 59.234375 2.09375 53.4375 0.328125 
Q 47.65625 -1.421875 41.21875 -1.421875 
Q 24.65625 -1.421875 15.125 8.703125 
Q 5.609375 18.84375 5.609375 36.375 
Q 5.609375 53.953125 15.125 64.078125 
Q 24.65625 74.21875 41.21875 74.21875 
Q 47.75 74.21875 53.53125 72.484375 
Q 59.328125 70.75 64.40625 67.28125 
z
" id="DejaVuSans-67"/>
       <path d="M 9.8125 72.90625 
L 19.671875 72.90625 
L 19.671875 0 
L 9.8125 0 
z
" id="DejaVuSans-73"/>
       <path d="M 73.1875 49.21875 
L 22.796875 31.296875 
L 73.1875 13.484375 
L 73.1875 4.59375 
L 10.59375 27.296875 
L 10.59375 35.40625 
L 73.1875 58.109375 
z
" id="DejaVuSans-60"/>
      </defs>
      <use xlink:href="#DejaVuSans-128542"/>
      <use x="104.248047" xlink:href="#DejaVuSans-32"/>
      <use x="136.035156" xlink:href="#DejaVuSans-76"/>
      <use x="189.998047" xlink:href="#DejaVuSans-111"/>
      <use x="251.179688" xlink:href="#DejaVuSans-119"/>
      <use x="332.966797" xlink:href="#DejaVuSans-101"/>
      <use x="394.490234" xlink:href="#DejaVuSans-114"/>
      <use x="435.603516" xlink:href="#DejaVuSans-32"/>
      <use x="467.390625" xlink:href="#DejaVuSans-67"/>
      <use x="537.214844" xlink:href="#DejaVuSans-73"/>
      <use x="566.707031" xlink:href="#DejaVuSans-32"/>
      <use x="598.494141" xlink:href="#DejaVuSans-60"/>
      <use x="682.283203" xlink:href="#DejaVuSans-32"/>
      <use x="714.070312" xlink:href="#DejaVuSans-48"/>
     </g>
    </g>
   </g>
   <g id="PolyCollection_1">
    <path clip-path="url(#p403db9f280)" d="M 66.845631 164.705371 
L 66.845631 290.705371 
L 66.845631 290.705371 
L 66.845631 290.705371 
L 68.187622 290.705371 
L 68.187622 290.705371 
L 68.187622 290.705371 
L 69.529613 290.705371 
L 69.529613 290.705371 
L 69.529613 290.705371 
L 70.871605 290.705371 
L 70.871605 290.705371 
L 70.871605 290.705371 
L 72.213596 290.705371 
L 72.213596 290.705371 
L 72.213596 290.705371 
L 73.555587 290.705371 
L 73.555587 290.705371 
L 73.555587 290.705371 
L 74.897579 290.705371 
L 74.897579 290.705371 
L 74.897579 290.705371 
L 76.23957 290.705371 
L 76.23957 290.705371 
L 76.23957 290.705371 
L 77.581561 290.705371 
L 77.581561 290.705371 
L 77.581561 290.705371 
L 78.923553 290.705371 
L 78.923553 290.705371 
L 78.923553 290.705371 
L 80.265544 290.705371 
L 80.265544 290.705371 
L 80.265544 290.705371 
L 81.607535 290.705371 
L 81.607535 290.705371 
L 81.607535 290.705371 
L 82.949527 290.705371 
L 82.949527 290.705371 
L 82.949527 290.705371 
L 84.291518 290.705371 
L 84.291518 290.705371 
L 84.291518 290.705371 
L 85.633509 290.705371 
L 85.633509 290.705371 
L 85.633509 290.705371 
L 86.975501 290.705371 
L 86.975501 290.705371 
L 86.975501 290.705371 
L 88.317492 290.705371 
L 88.317492 290.705371 
L 88.317492 290.705371 
L 89.659483 290.705371 
L 89.659483 290.705371 
L 89.659483 290.705371 
L 91.001475 290.705371 
L 91.001475 290.705371 
L 91.001475 290.705371 
L 92.343466 290.705371 
L 92.343466 290.705371 
L 92.343466 290.705371 
L 93.685458 290.705371 
L 93.685458 290.705371 
L 93.685458 290.705371 
L 95.027449 290.705371 
L 95.027449 290.705371 
L 95.027449 290.705371 
L 96.36944 290.705371 
L 96.36944 290.705371 
L 96.36944 290.705371 
L 97.711432 290.705371 
L 97.711432 290.705371 
L 97.711432 290.705371 
L 99.053423 290.705371 
L 99.053423 290.705371 
L 99.053423 290.705371 
L 100.395414 290.705371 
L 100.395414 290.705371 
L 100.395414 290.705371 
L 101.737406 290.705371 
L 101.737406 290.705371 
L 101.737406 290.705371 
L 103.079397 290.705371 
L 103.079397 290.705371 
L 103.079397 290.705371 
L 104.421388 290.705371 
L 104.421388 290.705371 
L 104.421388 290.705371 
L 105.76338 290.705371 
L 105.76338 290.705371 
L 105.76338 290.705371 
L 107.105371 290.705371 
L 107.105371 290.705371 
L 107.105371 290.705371 
L 108.447362 290.705371 
L 108.447362 290.705371 
L 108.447362 290.705371 
L 109.789354 290.705371 
L 109.789354 290.705371 
L 109.789354 290.705371 
L 111.131345 290.705371 
L 111.131345 290.705371 
L 111.131345 290.705371 
L 112.473336 290.705371 
L 112.473336 290.705371 
L 112.473336 290.705371 
L 113.815328 290.705371 
L 113.815328 290.705371 
L 113.815328 290.705371 
L 115.157319 290.705371 
L 115.157319 290.705371 
L 115.157319 290.705371 
L 116.49931 290.705371 
L 116.49931 290.705371 
L 116.49931 290.705371 
L 117.841302 290.705371 
L 117.841302 290.705371 
L 117.841302 290.705371 
L 119.183293 290.705371 
L 119.183293 290.705371 
L 119.183293 290.705371 
L 120.525284 290.705371 
L 120.525284 290.705371 
L 120.525284 290.705371 
L 121.867276 290.705371 
L 121.867276 290.705371 
L 121.867276 290.705371 
L 123.209267 290.705371 
L 123.209267 290.705371 
L 123.209267 290.705371 
L 124.551258 290.705371 
L 124.551258 290.705371 
L 124.551258 290.705371 
L 125.89325 290.705371 
L 125.89325 290.705371 
L 125.89325 290.705371 
L 127.235241 290.705371 
L 127.235241 290.705371 
L 127.235241 290.705371 
L 128.577232 290.705371 
L 128.577232 290.705371 
L 128.577232 290.705371 
L 129.919224 290.705371 
L 129.919224 290.705371 
L 129.919224 290.705371 
L 131.261215 290.705371 
L 131.261215 290.705371 
L 131.261215 290.705371 
L 132.603206 290.705371 
L 132.603206 290.705371 
L 132.603206 290.705371 
L 133.945198 290.705371 
L 133.945198 290.705371 
L 133.945198 290.705371 
L 135.287189 290.705371 
L 135.287189 290.705371 
L 135.287189 290.705371 
L 136.62918 290.705371 
L 136.62918 290.705371 
L 136.62918 290.705371 
L 137.971172 290.705371 
L 137.971172 290.705371 
L 137.971172 290.705371 
L 139.313163 290.705371 
L 139.313163 290.705371 
L 139.313163 290.705371 
L 140.655154 290.705371 
L 140.655154 290.705371 
L 140.655154 290.705371 
L 141.997146 290.705371 
L 141.997146 290.705371 
L 141.997146 290.705371 
L 143.339137 290.705371 
L 143.339137 290.705371 
L 143.339137 290.705371 
L 144.681129 290.705371 
L 144.681129 290.705371 
L 144.681129 290.705371 
L 146.02312 290.705371 
L 146.02312 290.705371 
L 146.02312 290.705371 
L 147.365111 290.705371 
L 147.365111 290.705371 
L 147.365111 290.705371 
L 148.707103 290.705371 
L 148.707103 290.705371 
L 148.707103 290.705371 
L 150.049094 290.705371 
L 150.049094 290.705371 
L 150.049094 290.705371 
L 151.391085 290.705371 
L 151.391085 290.705371 
L 151.391085 290.705371 
L 152.733077 290.705371 
L 152.733077 290.705371 
L 152.733077 290.705371 
L 154.075068 290.705371 
L 154.075068 290.705371 
L 154.075068 290.705371 
L 155.417059 290.705371 
L 155.417059 290.705371 
L 155.417059 290.705371 
L 156.759051 290.705371 
L 156.759051 290.705371 
L 156.759051 290.705371 
L 158.101042 290.705371 
L 158.101042 290.705371 
L 158.101042 290.705371 
L 159.443033 290.705371 
L 159.443033 290.705371 
L 159.443033 290.705371 
L 160.785025 290.705371 
L 160.785025 290.705371 
L 160.785025 290.705371 
L 162.127016 290.705371 
L 162.127016 290.705371 
L 162.127016 290.705371 
L 163.469007 290.705371 
L 163.469007 290.705371 
L 163.469007 290.705371 
L 164.810999 290.705371 
L 164.810999 290.705371 
L 164.810999 290.705371 
L 166.15299 290.705371 
L 166.15299 290.705371 
L 166.15299 290.705371 
L 167.494981 290.705371 
L 167.494981 290.705371 
L 167.494981 290.705371 
L 168.836973 290.705371 
L 168.836973 290.705371 
L 168.836973 290.705371 
L 170.178964 290.705371 
L 170.178964 290.705371 
L 170.178964 290.705371 
L 171.520955 290.705371 
L 171.520955 290.705371 
L 171.520955 290.705371 
L 172.862947 290.705371 
L 172.862947 290.705371 
L 172.862947 290.705371 
L 174.204938 290.705371 
L 174.204938 290.705371 
L 174.204938 290.705371 
L 175.546929 290.705371 
L 175.546929 290.705371 
L 175.546929 290.705371 
L 176.888921 290.705371 
L 176.888921 290.705371 
L 176.888921 290.705371 
L 178.230912 290.705371 
L 178.230912 290.705371 
L 178.230912 290.705371 
L 179.572903 290.705371 
L 179.572903 290.705371 
L 179.572903 290.705371 
L 180.914895 290.705371 
L 180.914895 290.705371 
L 180.914895 290.705371 
L 182.256886 290.705371 
L 182.256886 290.705371 
L 182.256886 290.705371 
L 183.598877 290.705371 
L 183.598877 290.705371 
L 183.598877 290.705371 
L 184.940869 290.705371 
L 184.940869 290.705371 
L 184.940869 290.705371 
L 186.28286 290.705371 
L 186.28286 290.705371 
L 186.28286 290.705371 
L 187.624851 290.705371 
L 187.624851 290.705371 
L 187.624851 290.705371 
L 188.966843 290.705371 
L 188.966843 290.705371 
L 188.966843 290.705371 
L 190.308834 290.705371 
L 190.308834 290.705371 
L 190.308834 290.705371 
L 191.650825 290.705371 
L 191.650825 290.705371 
L 191.650825 290.705371 
L 192.992817 290.705371 
L 192.992817 290.705371 
L 192.992817 290.705371 
L 194.334808 290.705371 
L 194.334808 290.705371 
L 194.334808 290.705371 
L 195.6768 290.705371 
L 195.6768 290.705371 
L 195.6768 290.705371 
L 197.018791 290.705371 
L 197.018791 290.705371 
L 197.018791 290.705371 
L 198.360782 290.705371 
L 198.360782 290.705371 
L 198.360782 290.705371 
L 199.702774 290.705371 
L 199.702774 290.705371 
L 199.702774 290.705371 
L 201.044765 290.705371 
L 201.044765 290.705371 
L 201.044765 290.705371 
L 202.386756 290.705371 
L 202.386756 290.705371 
L 202.386756 290.705371 
L 203.728748 290.705371 
L 203.728748 290.705371 
L 203.728748 290.705371 
L 205.070739 290.705371 
L 205.070739 290.705371 
L 205.070739 290.705371 
L 206.41273 290.705371 
L 206.41273 290.705371 
L 206.41273 290.705371 
L 207.754722 290.705371 
L 207.754722 290.705371 
L 207.754722 290.705371 
L 209.096713 290.705371 
L 209.096713 290.705371 
L 209.096713 290.705371 
L 210.438704 290.705371 
L 210.438704 290.705371 
L 210.438704 290.705371 
L 211.780696 290.705371 
L 211.780696 290.705371 
L 211.780696 290.705371 
L 213.122687 290.705371 
L 213.122687 290.705371 
L 213.122687 290.705371 
L 214.464678 290.705371 
L 214.464678 290.705371 
L 214.464678 290.705371 
L 215.80667 290.705371 
L 215.80667 290.705371 
L 215.80667 290.705371 
L 217.148661 290.705371 
L 217.148661 290.705371 
L 217.148661 290.705371 
L 218.490652 290.705371 
L 218.490652 290.705371 
L 218.490652 290.705371 
L 219.832644 290.705371 
L 219.832644 290.705371 
L 219.832644 290.705371 
L 221.174635 290.705371 
L 221.174635 290.705371 
L 221.174635 290.705371 
L 222.516626 290.705371 
L 222.516626 290.705371 
L 222.516626 290.705371 
L 223.858618 290.705371 
L 223.858618 290.705371 
L 223.858618 290.705371 
L 225.200609 290.705371 
L 225.200609 290.705371 
L 225.200609 290.705371 
L 226.5426 290.705371 
L 226.5426 290.705371 
L 226.5426 290.705371 
L 227.884592 290.705371 
L 227.884592 290.705371 
L 227.884592 290.705371 
L 229.226583 290.705371 
L 229.226583 290.705371 
L 229.226583 290.705371 
L 230.568574 290.705371 
L 230.568574 290.705371 
L 230.568574 290.705371 
L 231.910566 290.705371 
L 231.910566 290.705371 
L 231.910566 290.705371 
L 233.252557 290.705371 
L 233.252557 290.705371 
L 233.252557 290.705371 
L 234.594548 290.705371 
L 234.594548 290.705371 
L 234.594548 290.705371 
L 235.93654 290.705371 
L 235.93654 290.705371 
L 235.93654 290.705371 
L 237.278531 290.705371 
L 237.278531 290.705371 
L 237.278531 290.705371 
L 238.620522 290.705371 
L 238.620522 290.705371 
L 238.620522 290.705371 
L 239.962514 290.705371 
L 239.962514 290.705371 
L 239.962514 290.705371 
L 241.304505 290.705371 
L 241.304505 290.705371 
L 241.304505 290.705371 
L 242.646496 290.705371 
L 242.646496 290.705371 
L 242.646496 290.705371 
L 243.988488 290.705371 
L 243.988488 290.705371 
L 243.988488 290.705371 
L 245.330479 290.705371 
L 245.330479 290.705371 
L 245.330479 290.705371 
L 246.672471 290.705371 
L 246.672471 290.705371 
L 246.672471 290.705371 
L 248.014462 290.705371 
L 248.014462 290.705371 
L 248.014462 290.705371 
L 249.356453 290.705371 
L 249.356453 290.705371 
L 249.356453 290.705371 
L 250.698445 290.705371 
L 250.698445 290.705371 
L 250.698445 290.705371 
L 252.040436 290.705371 
L 252.040436 290.705371 
L 252.040436 290.705371 
L 253.382427 290.705371 
L 253.382427 290.705371 
L 253.382427 290.705371 
L 254.724419 290.705371 
L 254.724419 290.705371 
L 254.724419 290.705371 
L 256.06641 290.705371 
L 256.06641 290.705371 
L 256.06641 290.705371 
L 257.408401 290.705371 
L 257.408401 290.705371 
L 257.408401 290.705371 
L 258.750393 290.705371 
L 258.750393 290.705371 
L 258.750393 290.705371 
L 260.092384 290.705371 
L 260.092384 290.705371 
L 260.092384 290.705371 
L 261.434375 290.705371 
L 261.434375 290.705371 
L 261.434375 290.705371 
L 262.776367 290.705371 
L 262.776367 290.705371 
L 262.776367 290.705371 
L 264.118358 290.705371 
L 264.118358 290.705371 
L 264.118358 290.705371 
L 265.460349 290.705371 
L 265.460349 290.705371 
L 265.460349 290.705371 
L 266.802341 290.705371 
L 266.802341 290.705371 
L 266.802341 290.705371 
L 268.144332 290.705371 
L 268.144332 290.705371 
L 268.144332 290.705371 
L 269.486323 290.705371 
L 269.486323 290.705371 
L 269.486323 290.705371 
L 270.828315 290.705371 
L 270.828315 290.705371 
L 270.828315 290.705371 
L 272.170306 290.705371 
L 272.170306 290.705371 
L 272.170306 290.705371 
L 273.512297 290.705371 
L 273.512297 290.705371 
L 273.512297 290.705371 
L 274.854289 290.705371 
L 274.854289 290.705371 
L 274.854289 290.705371 
L 276.19628 290.705371 
L 276.19628 290.705371 
L 276.19628 290.705371 
L 277.538271 290.705371 
L 277.538271 290.705371 
L 277.538271 290.705371 
L 278.880263 290.705371 
L 278.880263 290.705371 
L 278.880263 290.705371 
L 280.222254 290.705371 
L 280.222254 290.705371 
L 280.222254 290.705371 
L 281.564245 290.705371 
L 281.564245 290.705371 
L 281.564245 290.705371 
L 282.906237 290.705371 
L 282.906237 290.705371 
L 282.906237 290.705371 
L 284.248228 290.705371 
L 284.248228 290.705371 
L 284.248228 290.705371 
L 285.590219 290.705371 
L 285.590219 290.705371 
L 285.590219 290.705371 
L 286.932211 290.705371 
L 286.932211 290.705371 
L 286.932211 290.705371 
L 288.274202 290.705371 
L 288.274202 290.705371 
L 288.274202 290.705371 
L 289.616193 290.705371 
L 289.616193 290.705371 
L 289.616193 290.705371 
L 290.958185 290.705371 
L 290.958185 290.705371 
L 290.958185 290.705371 
L 292.300176 290.705371 
L 292.300176 290.705371 
L 292.300176 290.705371 
L 293.642167 290.705371 
L 293.642167 290.705371 
L 293.642167 290.705371 
L 294.984159 290.705371 
L 294.984159 290.705371 
L 294.984159 290.705371 
L 296.32615 290.705371 
L 296.32615 290.705371 
L 296.32615 290.705371 
L 297.668142 290.705371 
L 297.668142 290.705371 
L 297.668142 290.705371 
L 299.010133 290.705371 
L 299.010133 290.705371 
L 299.010133 290.705371 
L 300.352124 290.705371 
L 300.352124 290.705371 
L 300.352124 290.705371 
L 301.694116 290.705371 
L 301.694116 290.705371 
L 301.694116 290.705371 
L 303.036107 290.705371 
L 303.036107 290.705371 
L 303.036107 290.705371 
L 304.378098 290.705371 
L 304.378098 290.705371 
L 304.378098 290.705371 
L 305.72009 290.705371 
L 305.72009 290.705371 
L 305.72009 290.705371 
L 307.062081 290.705371 
L 307.062081 290.705371 
L 307.062081 290.705371 
L 308.404072 290.705371 
L 308.404072 290.705371 
L 308.404072 290.705371 
L 309.746064 290.705371 
L 309.746064 290.705371 
L 309.746064 290.705371 
L 311.088055 290.705371 
L 311.088055 290.705371 
L 311.088055 290.705371 
L 312.430046 290.705371 
L 312.430046 290.705371 
L 312.430046 290.705371 
L 313.772038 290.705371 
L 313.772038 290.705371 
L 313.772038 290.705371 
L 315.114029 290.705371 
L 315.114029 290.705371 
L 315.114029 290.705371 
L 316.45602 290.705371 
L 316.45602 290.705371 
L 316.45602 290.705371 
L 317.798012 290.705371 
L 317.798012 290.705371 
L 317.798012 290.705371 
L 319.140003 290.705371 
L 319.140003 290.705371 
L 319.140003 290.705371 
L 320.481994 290.705371 
L 320.481994 290.705371 
L 320.481994 290.705371 
L 320.481994 164.705371 
L 320.481994 164.705371 
L 320.481994 164.705371 
L 320.481994 164.705371 
L 319.140003 164.705371 
L 319.140003 164.705371 
L 319.140003 164.705371 
L 317.798012 164.705371 
L 317.798012 164.705371 
L 317.798012 164.705371 
L 316.45602 164.705371 
L 316.45602 164.705371 
L 316.45602 164.705371 
L 315.114029 164.705371 
L 315.114029 164.705371 
L 315.114029 164.705371 
L 313.772038 164.705371 
L 313.772038 164.705371 
L 313.772038 164.705371 
L 312.430046 164.705371 
L 312.430046 164.705371 
L 312.430046 164.705371 
L 311.088055 164.705371 
L 311.088055 164.705371 
L 311.088055 164.705371 
L 309.746064 164.705371 
L 309.746064 164.705371 
L 309.746064 164.705371 
L 308.404072 164.705371 
L 308.404072 164.705371 
L 308.404072 164.705371 
L 307.062081 164.705371 
L 307.062081 164.705371 
L 307.062081 164.705371 
L 305.72009 164.705371 
L 305.72009 164.705371 
L 305.72009 164.705371 
L 304.378098 164.705371 
L 304.378098 164.705371 
L 304.378098 164.705371 
L 303.036107 164.705371 
L 303.036107 164.705371 
L 303.036107 164.705371 
L 301.694116 164.705371 
L 301.694116 164.705371 
L 301.694116 164.705371 
L 300.352124 164.705371 
L 300.352124 164.705371 
L 300.352124 164.705371 
L 299.010133 164.705371 
L 299.010133 164.705371 
L 299.010133 164.705371 
L 297.668142 164.705371 
L 297.668142 164.705371 
L 297.668142 164.705371 
L 296.32615 164.705371 
L 296.32615 164.705371 
L 296.32615 164.705371 
L 294.984159 164.705371 
L 294.984159 164.705371 
L 294.984159 164.705371 
L 293.642167 164.705371 
L 293.642167 164.705371 
L 293.642167 164.705371 
L 292.300176 164.705371 
L 292.300176 164.705371 
L 292.300176 164.705371 
L 290.958185 164.705371 
L 290.958185 164.705371 
L 290.958185 164.705371 
L 289.616193 164.705371 
L 289.616193 164.705371 
L 289.616193 164.705371 
L 288.274202 164.705371 
L 288.274202 164.705371 
L 288.274202 164.705371 
L 286.932211 164.705371 
L 286.932211 164.705371 
L 286.932211 164.705371 
L 285.590219 164.705371 
L 285.590219 164.705371 
L 285.590219 164.705371 
L 284.248228 164.705371 
L 284.248228 164.705371 
L 284.248228 164.705371 
L 282.906237 164.705371 
L 282.906237 164.705371 
L 282.906237 164.705371 
L 281.564245 164.705371 
L 281.564245 164.705371 
L 281.564245 164.705371 
L 280.222254 164.705371 
L 280.222254 164.705371 
L 280.222254 164.705371 
L 278.880263 164.705371 
L 278.880263 164.705371 
L 278.880263 164.705371 
L 277.538271 164.705371 
L 277.538271 164.705371 
L 277.538271 164.705371 
L 276.19628 164.705371 
L 276.19628 164.705371 
L 276.19628 164.705371 
L 274.854289 164.705371 
L 274.854289 164.705371 
L 274.854289 164.705371 
L 273.512297 164.705371 
L 273.512297 164.705371 
L 273.512297 164.705371 
L 272.170306 164.705371 
L 272.170306 164.705371 
L 272.170306 164.705371 
L 270.828315 164.705371 
L 270.828315 164.705371 
L 270.828315 164.705371 
L 269.486323 164.705371 
L 269.486323 164.705371 
L 269.486323 164.705371 
L 268.144332 164.705371 
L 268.144332 164.705371 
L 268.144332 164.705371 
L 266.802341 164.705371 
L 266.802341 164.705371 
L 266.802341 164.705371 
L 265.460349 164.705371 
L 265.460349 164.705371 
L 265.460349 164.705371 
L 264.118358 164.705371 
L 264.118358 164.705371 
L 264.118358 164.705371 
L 262.776367 164.705371 
L 262.776367 164.705371 
L 262.776367 164.705371 
L 261.434375 164.705371 
L 261.434375 164.705371 
L 261.434375 164.705371 
L 260.092384 164.705371 
L 260.092384 164.705371 
L 260.092384 164.705371 
L 258.750393 164.705371 
L 258.750393 164.705371 
L 258.750393 164.705371 
L 257.408401 164.705371 
L 257.408401 164.705371 
L 257.408401 164.705371 
L 256.06641 164.705371 
L 256.06641 164.705371 
L 256.06641 164.705371 
L 254.724419 164.705371 
L 254.724419 164.705371 
L 254.724419 164.705371 
L 253.382427 164.705371 
L 253.382427 164.705371 
L 253.382427 164.705371 
L 252.040436 164.705371 
L 252.040436 164.705371 
L 252.040436 164.705371 
L 250.698445 164.705371 
L 250.698445 164.705371 
L 250.698445 164.705371 
L 249.356453 164.705371 
L 249.356453 164.705371 
L 249.356453 164.705371 
L 248.014462 164.705371 
L 248.014462 164.705371 
L 248.014462 164.705371 
L 246.672471 164.705371 
L 246.672471 164.705371 
L 246.672471 164.705371 
L 245.330479 164.705371 
L 245.330479 164.705371 
L 245.330479 164.705371 
L 243.988488 164.705371 
L 243.988488 164.705371 
L 243.988488 164.705371 
L 242.646496 164.705371 
L 242.646496 164.705371 
L 242.646496 164.705371 
L 241.304505 164.705371 
L 241.304505 164.705371 
L 241.304505 164.705371 
L 239.962514 164.705371 
L 239.962514 164.705371 
L 239.962514 164.705371 
L 238.620522 164.705371 
L 238.620522 164.705371 
L 238.620522 164.705371 
L 237.278531 164.705371 
L 237.278531 164.705371 
L 237.278531 164.705371 
L 235.93654 164.705371 
L 235.93654 164.705371 
L 235.93654 164.705371 
L 234.594548 164.705371 
L 234.594548 164.705371 
L 234.594548 164.705371 
L 233.252557 164.705371 
L 233.252557 164.705371 
L 233.252557 164.705371 
L 231.910566 164.705371 
L 231.910566 164.705371 
L 231.910566 164.705371 
L 230.568574 164.705371 
L 230.568574 164.705371 
L 230.568574 164.705371 
L 229.226583 164.705371 
L 229.226583 164.705371 
L 229.226583 164.705371 
L 227.884592 164.705371 
L 227.884592 164.705371 
L 227.884592 164.705371 
L 226.5426 164.705371 
L 226.5426 164.705371 
L 226.5426 164.705371 
L 225.200609 164.705371 
L 225.200609 164.705371 
L 225.200609 164.705371 
L 223.858618 164.705371 
L 223.858618 164.705371 
L 223.858618 164.705371 
L 222.516626 164.705371 
L 222.516626 164.705371 
L 222.516626 164.705371 
L 221.174635 164.705371 
L 221.174635 164.705371 
L 221.174635 164.705371 
L 219.832644 164.705371 
L 219.832644 164.705371 
L 219.832644 164.705371 
L 218.490652 164.705371 
L 218.490652 164.705371 
L 218.490652 164.705371 
L 217.148661 164.705371 
L 217.148661 164.705371 
L 217.148661 164.705371 
L 215.80667 164.705371 
L 215.80667 164.705371 
L 215.80667 164.705371 
L 214.464678 164.705371 
L 214.464678 164.705371 
L 214.464678 164.705371 
L 213.122687 164.705371 
L 213.122687 164.705371 
L 213.122687 164.705371 
L 211.780696 164.705371 
L 211.780696 164.705371 
L 211.780696 164.705371 
L 210.438704 164.705371 
L 210.438704 164.705371 
L 210.438704 164.705371 
L 209.096713 164.705371 
L 209.096713 164.705371 
L 209.096713 164.705371 
L 207.754722 164.705371 
L 207.754722 164.705371 
L 207.754722 164.705371 
L 206.41273 164.705371 
L 206.41273 164.705371 
L 206.41273 164.705371 
L 205.070739 164.705371 
L 205.070739 164.705371 
L 205.070739 164.705371 
L 203.728748 164.705371 
L 203.728748 164.705371 
L 203.728748 164.705371 
L 202.386756 164.705371 
L 202.386756 164.705371 
L 202.386756 164.705371 
L 201.044765 164.705371 
L 201.044765 164.705371 
L 201.044765 164.705371 
L 199.702774 164.705371 
L 199.702774 164.705371 
L 199.702774 164.705371 
L 198.360782 164.705371 
L 198.360782 164.705371 
L 198.360782 164.705371 
L 197.018791 164.705371 
L 197.018791 164.705371 
L 197.018791 164.705371 
L 195.6768 164.705371 
L 195.6768 164.705371 
L 195.6768 164.705371 
L 194.334808 164.705371 
L 194.334808 164.705371 
L 194.334808 164.705371 
L 192.992817 164.705371 
L 192.992817 164.705371 
L 192.992817 164.705371 
L 191.650825 164.705371 
L 191.650825 164.705371 
L 191.650825 164.705371 
L 190.308834 164.705371 
L 190.308834 164.705371 
L 190.308834 164.705371 
L 188.966843 164.705371 
L 188.966843 164.705371 
L 188.966843 164.705371 
L 187.624851 164.705371 
L 187.624851 164.705371 
L 187.624851 164.705371 
L 186.28286 164.705371 
L 186.28286 164.705371 
L 186.28286 164.705371 
L 184.940869 164.705371 
L 184.940869 164.705371 
L 184.940869 164.705371 
L 183.598877 164.705371 
L 183.598877 164.705371 
L 183.598877 164.705371 
L 182.256886 164.705371 
L 182.256886 164.705371 
L 182.256886 164.705371 
L 180.914895 164.705371 
L 180.914895 164.705371 
L 180.914895 164.705371 
L 179.572903 164.705371 
L 179.572903 164.705371 
L 179.572903 164.705371 
L 178.230912 164.705371 
L 178.230912 164.705371 
L 178.230912 164.705371 
L 176.888921 164.705371 
L 176.888921 164.705371 
L 176.888921 164.705371 
L 175.546929 164.705371 
L 175.546929 164.705371 
L 175.546929 164.705371 
L 174.204938 164.705371 
L 174.204938 164.705371 
L 174.204938 164.705371 
L 172.862947 164.705371 
L 172.862947 164.705371 
L 172.862947 164.705371 
L 171.520955 164.705371 
L 171.520955 164.705371 
L 171.520955 164.705371 
L 170.178964 164.705371 
L 170.178964 164.705371 
L 170.178964 164.705371 
L 168.836973 164.705371 
L 168.836973 164.705371 
L 168.836973 164.705371 
L 167.494981 164.705371 
L 167.494981 164.705371 
L 167.494981 164.705371 
L 166.15299 164.705371 
L 166.15299 164.705371 
L 166.15299 164.705371 
L 164.810999 164.705371 
L 164.810999 164.705371 
L 164.810999 164.705371 
L 163.469007 164.705371 
L 163.469007 164.705371 
L 163.469007 164.705371 
L 162.127016 164.705371 
L 162.127016 164.705371 
L 162.127016 164.705371 
L 160.785025 164.705371 
L 160.785025 164.705371 
L 160.785025 164.705371 
L 159.443033 164.705371 
L 159.443033 164.705371 
L 159.443033 164.705371 
L 158.101042 164.705371 
L 158.101042 164.705371 
L 158.101042 164.705371 
L 156.759051 164.705371 
L 156.759051 164.705371 
L 156.759051 164.705371 
L 155.417059 164.705371 
L 155.417059 164.705371 
L 155.417059 164.705371 
L 154.075068 164.705371 
L 154.075068 164.705371 
L 154.075068 164.705371 
L 152.733077 164.705371 
L 152.733077 164.705371 
L 152.733077 164.705371 
L 151.391085 164.705371 
L 151.391085 164.705371 
L 151.391085 164.705371 
L 150.049094 164.705371 
L 150.049094 164.705371 
L 150.049094 164.705371 
L 148.707103 164.705371 
L 148.707103 164.705371 
L 148.707103 164.705371 
L 147.365111 164.705371 
L 147.365111 164.705371 
L 147.365111 164.705371 
L 146.02312 164.705371 
L 146.02312 164.705371 
L 146.02312 164.705371 
L 144.681129 164.705371 
L 144.681129 164.705371 
L 144.681129 164.705371 
L 143.339137 164.705371 
L 143.339137 164.705371 
L 143.339137 164.705371 
L 141.997146 164.705371 
L 141.997146 164.705371 
L 141.997146 164.705371 
L 140.655154 164.705371 
L 140.655154 164.705371 
L 140.655154 164.705371 
L 139.313163 164.705371 
L 139.313163 164.705371 
L 139.313163 164.705371 
L 137.971172 164.705371 
L 137.971172 164.705371 
L 137.971172 164.705371 
L 136.62918 164.705371 
L 136.62918 164.705371 
L 136.62918 164.705371 
L 135.287189 164.705371 
L 135.287189 164.705371 
L 135.287189 164.705371 
L 133.945198 164.705371 
L 133.945198 164.705371 
L 133.945198 164.705371 
L 132.603206 164.705371 
L 132.603206 164.705371 
L 132.603206 164.705371 
L 131.261215 164.705371 
L 131.261215 164.705371 
L 131.261215 164.705371 
L 129.919224 164.705371 
L 129.919224 164.705371 
L 129.919224 164.705371 
L 128.577232 164.705371 
L 128.577232 164.705371 
L 128.577232 164.705371 
L 127.235241 164.705371 
L 127.235241 164.705371 
L 127.235241 164.705371 
L 125.89325 164.705371 
L 125.89325 164.705371 
L 125.89325 164.705371 
L 124.551258 164.705371 
L 124.551258 164.705371 
L 124.551258 164.705371 
L 123.209267 164.705371 
L 123.209267 164.705371 
L 123.209267 164.705371 
L 121.867276 164.705371 
L 121.867276 164.705371 
L 121.867276 164.705371 
L 120.525284 164.705371 
L 120.525284 164.705371 
L 120.525284 164.705371 
L 119.183293 164.705371 
L 119.183293 164.705371 
L 119.183293 164.705371 
L 117.841302 164.705371 
L 117.841302 164.705371 
L 117.841302 164.705371 
L 116.49931 164.705371 
L 116.49931 164.705371 
L 116.49931 164.705371 
L 115.157319 164.705371 
L 115.157319 164.705371 
L 115.157319 164.705371 
L 113.815328 164.705371 
L 113.815328 164.705371 
L 113.815328 164.705371 
L 112.473336 164.705371 
L 112.473336 164.705371 
L 112.473336 164.705371 
L 111.131345 164.705371 
L 111.131345 164.705371 
L 111.131345 164.705371 
L 109.789354 164.705371 
L 109.789354 164.705371 
L 109.789354 164.705371 
L 108.447362 164.705371 
L 108.447362 164.705371 
L 108.447362 164.705371 
L 107.105371 164.705371 
L 107.105371 164.705371 
L 107.105371 164.705371 
L 105.76338 164.705371 
L 105.76338 164.705371 
L 105.76338 164.705371 
L 104.421388 164.705371 
L 104.421388 164.705371 
L 104.421388 164.705371 
L 103.079397 164.705371 
L 103.079397 164.705371 
L 103.079397 164.705371 
L 101.737406 164.705371 
L 101.737406 164.705371 
L 101.737406 164.705371 
L 100.395414 164.705371 
L 100.395414 164.705371 
L 100.395414 164.705371 
L 99.053423 164.705371 
L 99.053423 164.705371 
L 99.053423 164.705371 
L 97.711432 164.705371 
L 97.711432 164.705371 
L 97.711432 164.705371 
L 96.36944 164.705371 
L 96.36944 164.705371 
L 96.36944 164.705371 
L 95.027449 164.705371 
L 95.027449 164.705371 
L 95.027449 164.705371 
L 93.685458 164.705371 
L 93.685458 164.705371 
L 93.685458 164.705371 
L 92.343466 164.705371 
L 92.343466 164.705371 
L 92.343466 164.705371 
L 91.001475 164.705371 
L 91.001475 164.705371 
L 91.001475 164.705371 
L 89.659483 164.705371 
L 89.659483 164.705371 
L 89.659483 164.705371 
L 88.317492 164.705371 
L 88.317492 164.705371 
L 88.317492 164.705371 
L 86.975501 164.705371 
L 86.975501 164.705371 
L 86.975501 164.705371 
L 85.633509 164.705371 
L 85.633509 164.705371 
L 85.633509 164.705371 
L 84.291518 164.705371 
L 84.291518 164.705371 
L 84.291518 164.705371 
L 82.949527 164.705371 
L 82.949527 164.705371 
L 82.949527 164.705371 
L 81.607535 164.705371 
L 81.607535 164.705371 
L 81.607535 164.705371 
L 80.265544 164.705371 
L 80.265544 164.705371 
L 80.265544 164.705371 
L 78.923553 164.705371 
L 78.923553 164.705371 
L 78.923553 164.705371 
L 77.581561 164.705371 
L 77.581561 164.705371 
L 77.581561 164.705371 
L 76.23957 164.705371 
L 76.23957 164.705371 
L 76.23957 164.705371 
L 74.897579 164.705371 
L 74.897579 164.705371 
L 74.897579 164.705371 
L 73.555587 164.705371 
L 73.555587 164.705371 
L 73.555587 164.705371 
L 72.213596 164.705371 
L 72.213596 164.705371 
L 72.213596 164.705371 
L 70.871605 164.705371 
L 70.871605 164.705371 
L 70.871605 164.705371 
L 69.529613 164.705371 
L 69.529613 164.705371 
L 69.529613 164.705371 
L 68.187622 164.705371 
L 68.187622 164.705371 
L 68.187622 164.705371 
L 66.845631 164.705371 
L 66.845631 164.705371 
L 66.845631 164.705371 
z
" style="fill:#fccdd5;fill-opacity:0.2;stroke:#000000;stroke-dasharray:3.27904,1.417963;stroke-dashoffset:0;stroke-width:0.886227;"/>
   </g>
   <g id="patch_3">
    <path d="M 340.363812 208.388339 
L 403.197563 208.388339 
L 403.197563 117.422402 
L 340.363812 117.422402 
z
" style="fill:#ffffff;"/>
   </g>
   <g id="text_13">
    <!-- p -->
    <g transform="translate(352.563812 141.015996)scale(0.11 -0.11)">
     <defs>
      <path d="M 18.109375 8.203125 
L 18.109375 -20.796875 
L 9.078125 -20.796875 
L 9.078125 54.6875 
L 18.109375 54.6875 
L 18.109375 46.390625 
Q 20.953125 51.265625 25.265625 53.625 
Q 29.59375 56 35.59375 56 
Q 45.5625 56 51.78125 48.09375 
Q 58.015625 40.1875 58.015625 27.296875 
Q 58.015625 14.40625 51.78125 6.484375 
Q 45.5625 -1.421875 35.59375 -1.421875 
Q 29.59375 -1.421875 25.265625 0.953125 
Q 20.953125 3.328125 18.109375 8.203125 
z
M 48.6875 27.296875 
Q 48.6875 37.203125 44.609375 42.84375 
Q 40.53125 48.484375 33.40625 48.484375 
Q 26.265625 48.484375 22.1875 42.84375 
Q 18.109375 37.203125 18.109375 27.296875 
Q 18.109375 17.390625 22.1875 11.75 
Q 26.265625 6.109375 33.40625 6.109375 
Q 40.53125 6.109375 44.609375 11.75 
Q 48.6875 17.390625 48.6875 27.296875 
z
" id="DejaVuSans-112"/>
     </defs>
     <use xlink:href="#DejaVuSans-112"/>
    </g>
   </g>
   <g id="patch_4">
    <path clip-path="url(#p0b94444038)" d="M 352.563812 160.508339 
L 368.403812 160.508339 
L 368.403812 144.668339 
L 352.563812 144.668339 
z
" style="fill:#f2f2f2;stroke:#000000;stroke-linejoin:miter;stroke-width:0.5;"/>
   </g>
   <g id="line2d_30">
    <path clip-path="url(#p0b94444038)" d="M 352.563812 152.588339 
L 368.403812 152.588339 
" style="fill:none;stroke:#db5f57;stroke-width:1.772454;"/>
   </g>
   <g id="text_14">
    <!-- 0.01 -->
    <g transform="translate(371.403812 155.016589)scale(0.088 -0.088)">
     <use xlink:href="#DejaVuSans-48"/>
     <use x="63.623047" xlink:href="#DejaVuSans-46"/>
     <use x="95.410156" xlink:href="#DejaVuSans-48"/>
     <use x="159.033203" xlink:href="#DejaVuSans-49"/>
    </g>
   </g>
   <g id="patch_5">
    <path clip-path="url(#pa8a20bc1d3)" d="M 352.563812 178.348339 
L 368.403812 178.348339 
L 368.403812 162.508339 
L 352.563812 162.508339 
z
" style="fill:#f2f2f2;stroke:#000000;stroke-linejoin:miter;stroke-width:0.5;"/>
   </g>
   <g id="line2d_31">
    <path clip-path="url(#pa8a20bc1d3)" d="M 352.563812 170.428339 
L 368.403812 170.428339 
" style="fill:none;stroke:#57db5f;stroke-width:1.772454;"/>
   </g>
   <g id="text_15">
    <!-- 0.05 -->
    <g transform="translate(371.403812 172.856589)scale(0.088 -0.088)">
     <use xlink:href="#DejaVuSans-48"/>
     <use x="63.623047" xlink:href="#DejaVuSans-46"/>
     <use x="95.410156" xlink:href="#DejaVuSans-48"/>
     <use x="159.033203" xlink:href="#DejaVuSans-53"/>
    </g>
   </g>
   <g id="patch_6">
    <path clip-path="url(#p1123b2c6e9)" d="M 352.563812 196.188339 
L 368.403812 196.188339 
L 368.403812 180.348339 
L 352.563812 180.348339 
z
" style="fill:#f2f2f2;stroke:#000000;stroke-linejoin:miter;stroke-width:0.5;"/>
   </g>
   <g id="line2d_32">
    <path clip-path="url(#p1123b2c6e9)" d="M 352.563812 188.268339 
L 368.403812 188.268339 
" style="fill:none;stroke:#5f57db;stroke-width:1.772454;"/>
   </g>
   <g id="text_16">
    <!-- 0.1 -->
    <g transform="translate(371.403812 190.696589)scale(0.088 -0.088)">
     <use xlink:href="#DejaVuSans-48"/>
     <use x="63.623047" xlink:href="#DejaVuSans-46"/>
     <use x="95.410156" xlink:href="#DejaVuSans-49"/>
    </g>
   </g>
  </g>
  <g id="text_17">
   <!-- Lower Bound of 95% Confidence -->
   <g transform="translate(81.737469 17.229938)scale(0.132 -0.132)">
    <defs>
     <path d="M 37.109375 75.984375 
L 37.109375 68.5 
L 28.515625 68.5 
Q 23.6875 68.5 21.796875 66.546875 
Q 19.921875 64.59375 19.921875 59.515625 
L 19.921875 54.6875 
L 34.71875 54.6875 
L 34.71875 47.703125 
L 19.921875 47.703125 
L 19.921875 0 
L 10.890625 0 
L 10.890625 47.703125 
L 2.296875 47.703125 
L 2.296875 54.6875 
L 10.890625 54.6875 
L 10.890625 58.5 
Q 10.890625 67.625 15.140625 71.796875 
Q 19.390625 75.984375 28.609375 75.984375 
z
" id="DejaVuSans-102"/>
     <path d="M 10.984375 1.515625 
L 10.984375 10.5 
Q 14.703125 8.734375 18.5 7.8125 
Q 22.3125 6.890625 25.984375 6.890625 
Q 35.75 6.890625 40.890625 13.453125 
Q 46.046875 20.015625 46.78125 33.40625 
Q 43.953125 29.203125 39.59375 26.953125 
Q 35.25 24.703125 29.984375 24.703125 
Q 19.046875 24.703125 12.671875 31.3125 
Q 6.296875 37.9375 6.296875 49.421875 
Q 6.296875 60.640625 12.9375 67.421875 
Q 19.578125 74.21875 30.609375 74.21875 
Q 43.265625 74.21875 49.921875 64.515625 
Q 56.59375 54.828125 56.59375 36.375 
Q 56.59375 19.140625 48.40625 8.859375 
Q 40.234375 -1.421875 26.421875 -1.421875 
Q 22.703125 -1.421875 18.890625 -0.6875 
Q 15.09375 0.046875 10.984375 1.515625 
z
M 30.609375 32.421875 
Q 37.25 32.421875 41.125 36.953125 
Q 45.015625 41.5 45.015625 49.421875 
Q 45.015625 57.28125 41.125 61.84375 
Q 37.25 66.40625 30.609375 66.40625 
Q 23.96875 66.40625 20.09375 61.84375 
Q 16.21875 57.28125 16.21875 49.421875 
Q 16.21875 41.5 20.09375 36.953125 
Q 23.96875 32.421875 30.609375 32.421875 
z
" id="DejaVuSans-57"/>
     <path d="M 72.703125 32.078125 
Q 68.453125 32.078125 66.03125 28.46875 
Q 63.625 24.859375 63.625 18.40625 
Q 63.625 12.0625 66.03125 8.421875 
Q 68.453125 4.78125 72.703125 4.78125 
Q 76.859375 4.78125 79.265625 8.421875 
Q 81.6875 12.0625 81.6875 18.40625 
Q 81.6875 24.8125 79.265625 28.4375 
Q 76.859375 32.078125 72.703125 32.078125 
z
M 72.703125 38.28125 
Q 80.421875 38.28125 84.953125 32.90625 
Q 89.5 27.546875 89.5 18.40625 
Q 89.5 9.28125 84.9375 3.921875 
Q 80.375 -1.421875 72.703125 -1.421875 
Q 64.890625 -1.421875 60.34375 3.921875 
Q 55.8125 9.28125 55.8125 18.40625 
Q 55.8125 27.59375 60.375 32.9375 
Q 64.9375 38.28125 72.703125 38.28125 
z
M 22.3125 68.015625 
Q 18.109375 68.015625 15.6875 64.375 
Q 13.28125 60.75 13.28125 54.390625 
Q 13.28125 47.953125 15.671875 44.328125 
Q 18.0625 40.71875 22.3125 40.71875 
Q 26.5625 40.71875 28.96875 44.328125 
Q 31.390625 47.953125 31.390625 54.390625 
Q 31.390625 60.6875 28.953125 64.34375 
Q 26.515625 68.015625 22.3125 68.015625 
z
M 66.40625 74.21875 
L 74.21875 74.21875 
L 28.609375 -1.421875 
L 20.796875 -1.421875 
z
M 22.3125 74.21875 
Q 30.03125 74.21875 34.609375 68.875 
Q 39.203125 63.53125 39.203125 54.390625 
Q 39.203125 45.171875 34.640625 39.84375 
Q 30.078125 34.515625 22.3125 34.515625 
Q 14.546875 34.515625 10.03125 39.859375 
Q 5.515625 45.21875 5.515625 54.390625 
Q 5.515625 63.484375 10.046875 68.84375 
Q 14.59375 74.21875 22.3125 74.21875 
z
" id="DejaVuSans-37"/>
     <path d="M 9.421875 54.6875 
L 18.40625 54.6875 
L 18.40625 0 
L 9.421875 0 
z
M 9.421875 75.984375 
L 18.40625 75.984375 
L 18.40625 64.59375 
L 9.421875 64.59375 
z
" id="DejaVuSans-105"/>
     <path d="M 48.78125 52.59375 
L 48.78125 44.1875 
Q 44.96875 46.296875 41.140625 47.34375 
Q 37.3125 48.390625 33.40625 48.390625 
Q 24.65625 48.390625 19.8125 42.84375 
Q 14.984375 37.3125 14.984375 27.296875 
Q 14.984375 17.28125 19.8125 11.734375 
Q 24.65625 6.203125 33.40625 6.203125 
Q 37.3125 6.203125 41.140625 7.25 
Q 44.96875 8.296875 48.78125 10.40625 
L 48.78125 2.09375 
Q 45.015625 0.34375 40.984375 -0.53125 
Q 36.96875 -1.421875 32.421875 -1.421875 
Q 20.0625 -1.421875 12.78125 6.34375 
Q 5.515625 14.109375 5.515625 27.296875 
Q 5.515625 40.671875 12.859375 48.328125 
Q 20.21875 56 33.015625 56 
Q 37.15625 56 41.109375 55.140625 
Q 45.0625 54.296875 48.78125 52.59375 
z
" id="DejaVuSans-99"/>
    </defs>
    <use xlink:href="#DejaVuSans-76"/>
    <use x="53.962891" xlink:href="#DejaVuSans-111"/>
    <use x="115.144531" xlink:href="#DejaVuSans-119"/>
    <use x="196.931641" xlink:href="#DejaVuSans-101"/>
    <use x="258.455078" xlink:href="#DejaVuSans-114"/>
    <use x="299.568359" xlink:href="#DejaVuSans-32"/>
    <use x="331.355469" xlink:href="#DejaVuSans-66"/>
    <use x="399.958984" xlink:href="#DejaVuSans-111"/>
    <use x="461.140625" xlink:href="#DejaVuSans-117"/>
    <use x="524.519531" xlink:href="#DejaVuSans-110"/>
    <use x="587.898438" xlink:href="#DejaVuSans-100"/>
    <use x="651.375" xlink:href="#DejaVuSans-32"/>
    <use x="683.162109" xlink:href="#DejaVuSans-111"/>
    <use x="744.34375" xlink:href="#DejaVuSans-102"/>
    <use x="779.548828" xlink:href="#DejaVuSans-32"/>
    <use x="811.335938" xlink:href="#DejaVuSans-57"/>
    <use x="874.958984" xlink:href="#DejaVuSans-53"/>
    <use x="938.582031" xlink:href="#DejaVuSans-37"/>
    <use x="1033.601562" xlink:href="#DejaVuSans-32"/>
    <use x="1065.388672" xlink:href="#DejaVuSans-67"/>
    <use x="1135.212891" xlink:href="#DejaVuSans-111"/>
    <use x="1196.394531" xlink:href="#DejaVuSans-110"/>
    <use x="1259.773438" xlink:href="#DejaVuSans-102"/>
    <use x="1294.978516" xlink:href="#DejaVuSans-105"/>
    <use x="1322.761719" xlink:href="#DejaVuSans-100"/>
    <use x="1386.238281" xlink:href="#DejaVuSans-101"/>
    <use x="1447.761719" xlink:href="#DejaVuSans-110"/>
    <use x="1511.140625" xlink:href="#DejaVuSans-99"/>
    <use x="1566.121094" xlink:href="#DejaVuSans-101"/>
   </g>
  </g>
 </g>
 <defs>
  <clipPath id="p403db9f280">
   <rect height="277.2" width="279" x="54.163813" y="26.105371"/>
  </clipPath>
  <clipPath id="p0b94444038">
   <path d="M 352.563812 160.508339 
L 352.563812 144.668339 
L 368.403812 144.668339 
L 368.403812 160.508339 
"/>
  </clipPath>
  <clipPath id="pa8a20bc1d3">
   <path d="M 352.563812 178.348339 
L 352.563812 162.508339 
L 368.403812 162.508339 
L 368.403812 178.348339 
"/>
  </clipPath>
  <clipPath id="p1123b2c6e9">
   <path d="M 352.563812 196.188339 
L 352.563812 180.348339 
L 368.403812 180.348339 
L 368.403812 196.188339 
"/>
  </clipPath>
 </defs>
</svg>
