<?xml version="1.0" encoding="utf-8" standalone="no"?>
<!DOCTYPE svg PUBLIC "-//W3C//DTD SVG 1.1//EN"
  "http://www.w3.org/Graphics/SVG/1.1/DTD/svg11.dtd">
<svg height="281.478378pt" version="1.1" viewBox="0 0 556.155312 281.478378" width="556.155312pt" xmlns="http://www.w3.org/2000/svg" xmlns:xlink="http://www.w3.org/1999/xlink">
 <metadata>
  <rdf:RDF xmlns:cc="http://creativecommons.org/ns#" xmlns:dc="http://purl.org/dc/elements/1.1/" xmlns:rdf="http://www.w3.org/1999/02/22-rdf-syntax-ns#">
   <cc:Work>
    <dc:type rdf:resource="http://purl.org/dc/dcmitype/StillImage"/>
    <dc:date>2021-06-19T15:19:14.136996</dc:date>
    <dc:format>image/svg+xml</dc:format>
    <dc:creator>
     <cc:Agent>
      <dc:title>Matplotlib v3.4.1, https://matplotlib.org/</dc:title>
     </cc:Agent>
    </dc:creator>
   </cc:Work>
  </rdf:RDF>
 </metadata>
 <defs>
  <style type="text/css">*{stroke-linecap:butt;stroke-linejoin:round;}</style>
 </defs>
 <g id="figure_1">
  <g id="patch_1">
   <path d="M 0 281.478378 
L 556.155312 281.478378 
L 556.155312 0 
L 0 0 
z
" style="fill:#ffffff;stroke:#ffffff;stroke-linejoin:miter;"/>
  </g>
  <g id="axes_1">
   <g id="patch_2">
    <path d="M 46.755313 247.865371 
L 548.955313 247.865371 
L 548.955313 26.105371 
L 46.755313 26.105371 
z
" style="fill:#ffffff;stroke:#000000;stroke-linejoin:miter;"/>
   </g>
   <g id="matplotlib.axis_1">
    <g id="xtick_1">
     <g id="line2d_1">
      <path clip-path="url(#p913259d3a2)" d="M 69.582585 247.865371 
L 69.582585 26.105371 
" style="fill:none;stroke:#000000;stroke-width:0.1;"/>
     </g>
     <g id="line2d_2">
      <path d="M 69.582585 247.865371 
" style="fill:none;stroke:#000000;stroke-width:1.5;"/>
      <defs>
       <path d="M 0 0 
L 0 2.75 
" id="m7226b12765" style="stroke:#000000;stroke-width:0.5;"/>
      </defs>
      <g>
       <use style="stroke:#000000;stroke-width:0.5;" x="69.582585" xlink:href="#m7226b12765" y="247.865371"/>
      </g>
     </g>
     <g id="text_1">
      <!-- 2021-04-05 -->
      <g transform="translate(45.511494 272.510613)rotate(-15)scale(0.088 -0.088)">
       <defs>
        <path d="M 1228 531 
L 3431 531 
L 3431 0 
L 469 0 
L 469 531 
Q 828 903 1448 1529 
Q 2069 2156 2228 2338 
Q 2531 2678 2651 2914 
Q 2772 3150 2772 3378 
Q 2772 3750 2511 3984 
Q 2250 4219 1831 4219 
Q 1534 4219 1204 4116 
Q 875 4013 500 3803 
L 500 4441 
Q 881 4594 1212 4672 
Q 1544 4750 1819 4750 
Q 2544 4750 2975 4387 
Q 3406 4025 3406 3419 
Q 3406 3131 3298 2873 
Q 3191 2616 2906 2266 
Q 2828 2175 2409 1742 
Q 1991 1309 1228 531 
z
" id="DejaVuSans-32" transform="scale(0.015625)"/>
        <path d="M 2034 4250 
Q 1547 4250 1301 3770 
Q 1056 3291 1056 2328 
Q 1056 1369 1301 889 
Q 1547 409 2034 409 
Q 2525 409 2770 889 
Q 3016 1369 3016 2328 
Q 3016 3291 2770 3770 
Q 2525 4250 2034 4250 
z
M 2034 4750 
Q 2819 4750 3233 4129 
Q 3647 3509 3647 2328 
Q 3647 1150 3233 529 
Q 2819 -91 2034 -91 
Q 1250 -91 836 529 
Q 422 1150 422 2328 
Q 422 3509 836 4129 
Q 1250 4750 2034 4750 
z
" id="DejaVuSans-30" transform="scale(0.015625)"/>
        <path d="M 794 531 
L 1825 531 
L 1825 4091 
L 703 3866 
L 703 4441 
L 1819 4666 
L 2450 4666 
L 2450 531 
L 3481 531 
L 3481 0 
L 794 0 
L 794 531 
z
" id="DejaVuSans-31" transform="scale(0.015625)"/>
        <path d="M 313 2009 
L 1997 2009 
L 1997 1497 
L 313 1497 
L 313 2009 
z
" id="DejaVuSans-2d" transform="scale(0.015625)"/>
        <path d="M 2419 4116 
L 825 1625 
L 2419 1625 
L 2419 4116 
z
M 2253 4666 
L 3047 4666 
L 3047 1625 
L 3713 1625 
L 3713 1100 
L 3047 1100 
L 3047 0 
L 2419 0 
L 2419 1100 
L 313 1100 
L 313 1709 
L 2253 4666 
z
" id="DejaVuSans-34" transform="scale(0.015625)"/>
        <path d="M 691 4666 
L 3169 4666 
L 3169 4134 
L 1269 4134 
L 1269 2991 
Q 1406 3038 1543 3061 
Q 1681 3084 1819 3084 
Q 2600 3084 3056 2656 
Q 3513 2228 3513 1497 
Q 3513 744 3044 326 
Q 2575 -91 1722 -91 
Q 1428 -91 1123 -41 
Q 819 9 494 109 
L 494 744 
Q 775 591 1075 516 
Q 1375 441 1709 441 
Q 2250 441 2565 725 
Q 2881 1009 2881 1497 
Q 2881 1984 2565 2268 
Q 2250 2553 1709 2553 
Q 1456 2553 1204 2497 
Q 953 2441 691 2322 
L 691 4666 
z
" id="DejaVuSans-35" transform="scale(0.015625)"/>
       </defs>
       <use xlink:href="#DejaVuSans-32"/>
       <use x="63.623047" xlink:href="#DejaVuSans-30"/>
       <use x="127.246094" xlink:href="#DejaVuSans-32"/>
       <use x="190.869141" xlink:href="#DejaVuSans-31"/>
       <use x="254.492188" xlink:href="#DejaVuSans-2d"/>
       <use x="290.576172" xlink:href="#DejaVuSans-30"/>
       <use x="354.199219" xlink:href="#DejaVuSans-34"/>
       <use x="417.822266" xlink:href="#DejaVuSans-2d"/>
       <use x="453.90625" xlink:href="#DejaVuSans-30"/>
       <use x="517.529297" xlink:href="#DejaVuSans-35"/>
      </g>
     </g>
    </g>
    <g id="xtick_2">
     <g id="line2d_3">
      <path clip-path="url(#p913259d3a2)" d="M 117.640001 247.865371 
L 117.640001 26.105371 
" style="fill:none;stroke:#000000;stroke-width:0.1;"/>
     </g>
     <g id="line2d_4">
      <path d="M 117.640001 247.865371 
" style="fill:none;stroke:#000000;stroke-width:1.5;"/>
      <g>
       <use style="stroke:#000000;stroke-width:0.5;" x="117.640001" xlink:href="#m7226b12765" y="247.865371"/>
      </g>
     </g>
     <g id="text_2">
      <!-- 2021-04-07 -->
      <g transform="translate(93.56891 272.510613)rotate(-15)scale(0.088 -0.088)">
       <defs>
        <path d="M 525 4666 
L 3525 4666 
L 3525 4397 
L 1831 0 
L 1172 0 
L 2766 4134 
L 525 4134 
L 525 4666 
z
" id="DejaVuSans-37" transform="scale(0.015625)"/>
       </defs>
       <use xlink:href="#DejaVuSans-32"/>
       <use x="63.623047" xlink:href="#DejaVuSans-30"/>
       <use x="127.246094" xlink:href="#DejaVuSans-32"/>
       <use x="190.869141" xlink:href="#DejaVuSans-31"/>
       <use x="254.492188" xlink:href="#DejaVuSans-2d"/>
       <use x="290.576172" xlink:href="#DejaVuSans-30"/>
       <use x="354.199219" xlink:href="#DejaVuSans-34"/>
       <use x="417.822266" xlink:href="#DejaVuSans-2d"/>
       <use x="453.90625" xlink:href="#DejaVuSans-30"/>
       <use x="517.529297" xlink:href="#DejaVuSans-37"/>
      </g>
     </g>
    </g>
    <g id="xtick_3">
     <g id="line2d_5">
      <path clip-path="url(#p913259d3a2)" d="M 165.697418 247.865371 
L 165.697418 26.105371 
" style="fill:none;stroke:#000000;stroke-width:0.1;"/>
     </g>
     <g id="line2d_6">
      <path d="M 165.697418 247.865371 
" style="fill:none;stroke:#000000;stroke-width:1.5;"/>
      <g>
       <use style="stroke:#000000;stroke-width:0.5;" x="165.697418" xlink:href="#m7226b12765" y="247.865371"/>
      </g>
     </g>
     <g id="text_3">
      <!-- 2021-04-09 -->
      <g transform="translate(141.626327 272.510613)rotate(-15)scale(0.088 -0.088)">
       <defs>
        <path d="M 703 97 
L 703 672 
Q 941 559 1184 500 
Q 1428 441 1663 441 
Q 2288 441 2617 861 
Q 2947 1281 2994 2138 
Q 2813 1869 2534 1725 
Q 2256 1581 1919 1581 
Q 1219 1581 811 2004 
Q 403 2428 403 3163 
Q 403 3881 828 4315 
Q 1253 4750 1959 4750 
Q 2769 4750 3195 4129 
Q 3622 3509 3622 2328 
Q 3622 1225 3098 567 
Q 2575 -91 1691 -91 
Q 1453 -91 1209 -44 
Q 966 3 703 97 
z
M 1959 2075 
Q 2384 2075 2632 2365 
Q 2881 2656 2881 3163 
Q 2881 3666 2632 3958 
Q 2384 4250 1959 4250 
Q 1534 4250 1286 3958 
Q 1038 3666 1038 3163 
Q 1038 2656 1286 2365 
Q 1534 2075 1959 2075 
z
" id="DejaVuSans-39" transform="scale(0.015625)"/>
       </defs>
       <use xlink:href="#DejaVuSans-32"/>
       <use x="63.623047" xlink:href="#DejaVuSans-30"/>
       <use x="127.246094" xlink:href="#DejaVuSans-32"/>
       <use x="190.869141" xlink:href="#DejaVuSans-31"/>
       <use x="254.492188" xlink:href="#DejaVuSans-2d"/>
       <use x="290.576172" xlink:href="#DejaVuSans-30"/>
       <use x="354.199219" xlink:href="#DejaVuSans-34"/>
       <use x="417.822266" xlink:href="#DejaVuSans-2d"/>
       <use x="453.90625" xlink:href="#DejaVuSans-30"/>
       <use x="517.529297" xlink:href="#DejaVuSans-39"/>
      </g>
     </g>
    </g>
    <g id="xtick_4">
     <g id="line2d_7">
      <path clip-path="url(#p913259d3a2)" d="M 213.754834 247.865371 
L 213.754834 26.105371 
" style="fill:none;stroke:#000000;stroke-width:0.1;"/>
     </g>
     <g id="line2d_8">
      <path d="M 213.754834 247.865371 
" style="fill:none;stroke:#000000;stroke-width:1.5;"/>
      <g>
       <use style="stroke:#000000;stroke-width:0.5;" x="213.754834" xlink:href="#m7226b12765" y="247.865371"/>
      </g>
     </g>
     <g id="text_4">
      <!-- 2021-04-11 -->
      <g transform="translate(189.683743 272.510613)rotate(-15)scale(0.088 -0.088)">
       <use xlink:href="#DejaVuSans-32"/>
       <use x="63.623047" xlink:href="#DejaVuSans-30"/>
       <use x="127.246094" xlink:href="#DejaVuSans-32"/>
       <use x="190.869141" xlink:href="#DejaVuSans-31"/>
       <use x="254.492188" xlink:href="#DejaVuSans-2d"/>
       <use x="290.576172" xlink:href="#DejaVuSans-30"/>
       <use x="354.199219" xlink:href="#DejaVuSans-34"/>
       <use x="417.822266" xlink:href="#DejaVuSans-2d"/>
       <use x="453.90625" xlink:href="#DejaVuSans-31"/>
       <use x="517.529297" xlink:href="#DejaVuSans-31"/>
      </g>
     </g>
    </g>
    <g id="xtick_5">
     <g id="line2d_9">
      <path clip-path="url(#p913259d3a2)" d="M 261.81225 247.865371 
L 261.81225 26.105371 
" style="fill:none;stroke:#000000;stroke-width:0.1;"/>
     </g>
     <g id="line2d_10">
      <path d="M 261.81225 247.865371 
" style="fill:none;stroke:#000000;stroke-width:1.5;"/>
      <g>
       <use style="stroke:#000000;stroke-width:0.5;" x="261.81225" xlink:href="#m7226b12765" y="247.865371"/>
      </g>
     </g>
     <g id="text_5">
      <!-- 2021-04-13 -->
      <g transform="translate(237.741159 272.510613)rotate(-15)scale(0.088 -0.088)">
       <defs>
        <path d="M 2597 2516 
Q 3050 2419 3304 2112 
Q 3559 1806 3559 1356 
Q 3559 666 3084 287 
Q 2609 -91 1734 -91 
Q 1441 -91 1130 -33 
Q 819 25 488 141 
L 488 750 
Q 750 597 1062 519 
Q 1375 441 1716 441 
Q 2309 441 2620 675 
Q 2931 909 2931 1356 
Q 2931 1769 2642 2001 
Q 2353 2234 1838 2234 
L 1294 2234 
L 1294 2753 
L 1863 2753 
Q 2328 2753 2575 2939 
Q 2822 3125 2822 3475 
Q 2822 3834 2567 4026 
Q 2313 4219 1838 4219 
Q 1578 4219 1281 4162 
Q 984 4106 628 3988 
L 628 4550 
Q 988 4650 1302 4700 
Q 1616 4750 1894 4750 
Q 2613 4750 3031 4423 
Q 3450 4097 3450 3541 
Q 3450 3153 3228 2886 
Q 3006 2619 2597 2516 
z
" id="DejaVuSans-33" transform="scale(0.015625)"/>
       </defs>
       <use xlink:href="#DejaVuSans-32"/>
       <use x="63.623047" xlink:href="#DejaVuSans-30"/>
       <use x="127.246094" xlink:href="#DejaVuSans-32"/>
       <use x="190.869141" xlink:href="#DejaVuSans-31"/>
       <use x="254.492188" xlink:href="#DejaVuSans-2d"/>
       <use x="290.576172" xlink:href="#DejaVuSans-30"/>
       <use x="354.199219" xlink:href="#DejaVuSans-34"/>
       <use x="417.822266" xlink:href="#DejaVuSans-2d"/>
       <use x="453.90625" xlink:href="#DejaVuSans-31"/>
       <use x="517.529297" xlink:href="#DejaVuSans-33"/>
      </g>
     </g>
    </g>
    <g id="xtick_6">
     <g id="line2d_11">
      <path clip-path="url(#p913259d3a2)" d="M 309.869667 247.865371 
L 309.869667 26.105371 
" style="fill:none;stroke:#000000;stroke-width:0.1;"/>
     </g>
     <g id="line2d_12">
      <path d="M 309.869667 247.865371 
" style="fill:none;stroke:#000000;stroke-width:1.5;"/>
      <g>
       <use style="stroke:#000000;stroke-width:0.5;" x="309.869667" xlink:href="#m7226b12765" y="247.865371"/>
      </g>
     </g>
     <g id="text_6">
      <!-- 2021-04-15 -->
      <g transform="translate(285.798575 272.510613)rotate(-15)scale(0.088 -0.088)">
       <use xlink:href="#DejaVuSans-32"/>
       <use x="63.623047" xlink:href="#DejaVuSans-30"/>
       <use x="127.246094" xlink:href="#DejaVuSans-32"/>
       <use x="190.869141" xlink:href="#DejaVuSans-31"/>
       <use x="254.492188" xlink:href="#DejaVuSans-2d"/>
       <use x="290.576172" xlink:href="#DejaVuSans-30"/>
       <use x="354.199219" xlink:href="#DejaVuSans-34"/>
       <use x="417.822266" xlink:href="#DejaVuSans-2d"/>
       <use x="453.90625" xlink:href="#DejaVuSans-31"/>
       <use x="517.529297" xlink:href="#DejaVuSans-35"/>
      </g>
     </g>
    </g>
    <g id="xtick_7">
     <g id="line2d_13">
      <path clip-path="url(#p913259d3a2)" d="M 357.927083 247.865371 
L 357.927083 26.105371 
" style="fill:none;stroke:#000000;stroke-width:0.1;"/>
     </g>
     <g id="line2d_14">
      <path d="M 357.927083 247.865371 
" style="fill:none;stroke:#000000;stroke-width:1.5;"/>
      <g>
       <use style="stroke:#000000;stroke-width:0.5;" x="357.927083" xlink:href="#m7226b12765" y="247.865371"/>
      </g>
     </g>
     <g id="text_7">
      <!-- 2021-04-17 -->
      <g transform="translate(333.855992 272.510613)rotate(-15)scale(0.088 -0.088)">
       <use xlink:href="#DejaVuSans-32"/>
       <use x="63.623047" xlink:href="#DejaVuSans-30"/>
       <use x="127.246094" xlink:href="#DejaVuSans-32"/>
       <use x="190.869141" xlink:href="#DejaVuSans-31"/>
       <use x="254.492188" xlink:href="#DejaVuSans-2d"/>
       <use x="290.576172" xlink:href="#DejaVuSans-30"/>
       <use x="354.199219" xlink:href="#DejaVuSans-34"/>
       <use x="417.822266" xlink:href="#DejaVuSans-2d"/>
       <use x="453.90625" xlink:href="#DejaVuSans-31"/>
       <use x="517.529297" xlink:href="#DejaVuSans-37"/>
      </g>
     </g>
    </g>
    <g id="xtick_8">
     <g id="line2d_15">
      <path clip-path="url(#p913259d3a2)" d="M 405.984499 247.865371 
L 405.984499 26.105371 
" style="fill:none;stroke:#000000;stroke-width:0.1;"/>
     </g>
     <g id="line2d_16">
      <path d="M 405.984499 247.865371 
" style="fill:none;stroke:#000000;stroke-width:1.5;"/>
      <g>
       <use style="stroke:#000000;stroke-width:0.5;" x="405.984499" xlink:href="#m7226b12765" y="247.865371"/>
      </g>
     </g>
     <g id="text_8">
      <!-- 2021-04-19 -->
      <g transform="translate(381.913408 272.510613)rotate(-15)scale(0.088 -0.088)">
       <use xlink:href="#DejaVuSans-32"/>
       <use x="63.623047" xlink:href="#DejaVuSans-30"/>
       <use x="127.246094" xlink:href="#DejaVuSans-32"/>
       <use x="190.869141" xlink:href="#DejaVuSans-31"/>
       <use x="254.492188" xlink:href="#DejaVuSans-2d"/>
       <use x="290.576172" xlink:href="#DejaVuSans-30"/>
       <use x="354.199219" xlink:href="#DejaVuSans-34"/>
       <use x="417.822266" xlink:href="#DejaVuSans-2d"/>
       <use x="453.90625" xlink:href="#DejaVuSans-31"/>
       <use x="517.529297" xlink:href="#DejaVuSans-39"/>
      </g>
     </g>
    </g>
    <g id="xtick_9">
     <g id="line2d_17">
      <path clip-path="url(#p913259d3a2)" d="M 454.041915 247.865371 
L 454.041915 26.105371 
" style="fill:none;stroke:#000000;stroke-width:0.1;"/>
     </g>
     <g id="line2d_18">
      <path d="M 454.041915 247.865371 
" style="fill:none;stroke:#000000;stroke-width:1.5;"/>
      <g>
       <use style="stroke:#000000;stroke-width:0.5;" x="454.041915" xlink:href="#m7226b12765" y="247.865371"/>
      </g>
     </g>
     <g id="text_9">
      <!-- 2021-04-21 -->
      <g transform="translate(429.970824 272.510613)rotate(-15)scale(0.088 -0.088)">
       <use xlink:href="#DejaVuSans-32"/>
       <use x="63.623047" xlink:href="#DejaVuSans-30"/>
       <use x="127.246094" xlink:href="#DejaVuSans-32"/>
       <use x="190.869141" xlink:href="#DejaVuSans-31"/>
       <use x="254.492188" xlink:href="#DejaVuSans-2d"/>
       <use x="290.576172" xlink:href="#DejaVuSans-30"/>
       <use x="354.199219" xlink:href="#DejaVuSans-34"/>
       <use x="417.822266" xlink:href="#DejaVuSans-2d"/>
       <use x="453.90625" xlink:href="#DejaVuSans-32"/>
       <use x="517.529297" xlink:href="#DejaVuSans-31"/>
      </g>
     </g>
    </g>
    <g id="xtick_10">
     <g id="line2d_19">
      <path clip-path="url(#p913259d3a2)" d="M 502.099332 247.865371 
L 502.099332 26.105371 
" style="fill:none;stroke:#000000;stroke-width:0.1;"/>
     </g>
     <g id="line2d_20">
      <path d="M 502.099332 247.865371 
" style="fill:none;stroke:#000000;stroke-width:1.5;"/>
      <g>
       <use style="stroke:#000000;stroke-width:0.5;" x="502.099332" xlink:href="#m7226b12765" y="247.865371"/>
      </g>
     </g>
     <g id="text_10">
      <!-- 2021-04-23 -->
      <g transform="translate(478.02824 272.510613)rotate(-15)scale(0.088 -0.088)">
       <use xlink:href="#DejaVuSans-32"/>
       <use x="63.623047" xlink:href="#DejaVuSans-30"/>
       <use x="127.246094" xlink:href="#DejaVuSans-32"/>
       <use x="190.869141" xlink:href="#DejaVuSans-31"/>
       <use x="254.492188" xlink:href="#DejaVuSans-2d"/>
       <use x="290.576172" xlink:href="#DejaVuSans-30"/>
       <use x="354.199219" xlink:href="#DejaVuSans-34"/>
       <use x="417.822266" xlink:href="#DejaVuSans-2d"/>
       <use x="453.90625" xlink:href="#DejaVuSans-32"/>
       <use x="517.529297" xlink:href="#DejaVuSans-33"/>
      </g>
     </g>
    </g>
    <g id="xtick_11">
     <g id="line2d_21">
      <path clip-path="url(#p913259d3a2)" d="M 93.611293 247.865371 
L 93.611293 26.105371 
" style="fill:none;stroke:#000000;stroke-width:0.02;"/>
     </g>
    </g>
    <g id="xtick_12">
     <g id="line2d_22">
      <path clip-path="url(#p913259d3a2)" d="M 141.66871 247.865371 
L 141.66871 26.105371 
" style="fill:none;stroke:#000000;stroke-width:0.02;"/>
     </g>
    </g>
    <g id="xtick_13">
     <g id="line2d_23">
      <path clip-path="url(#p913259d3a2)" d="M 189.726126 247.865371 
L 189.726126 26.105371 
" style="fill:none;stroke:#000000;stroke-width:0.02;"/>
     </g>
    </g>
    <g id="xtick_14">
     <g id="line2d_24">
      <path clip-path="url(#p913259d3a2)" d="M 237.783542 247.865371 
L 237.783542 26.105371 
" style="fill:none;stroke:#000000;stroke-width:0.02;"/>
     </g>
    </g>
    <g id="xtick_15">
     <g id="line2d_25">
      <path clip-path="url(#p913259d3a2)" d="M 285.840958 247.865371 
L 285.840958 26.105371 
" style="fill:none;stroke:#000000;stroke-width:0.02;"/>
     </g>
    </g>
    <g id="xtick_16">
     <g id="line2d_26">
      <path clip-path="url(#p913259d3a2)" d="M 333.898375 247.865371 
L 333.898375 26.105371 
" style="fill:none;stroke:#000000;stroke-width:0.02;"/>
     </g>
    </g>
    <g id="xtick_17">
     <g id="line2d_27">
      <path clip-path="url(#p913259d3a2)" d="M 381.955791 247.865371 
L 381.955791 26.105371 
" style="fill:none;stroke:#000000;stroke-width:0.02;"/>
     </g>
    </g>
    <g id="xtick_18">
     <g id="line2d_28">
      <path clip-path="url(#p913259d3a2)" d="M 430.013207 247.865371 
L 430.013207 26.105371 
" style="fill:none;stroke:#000000;stroke-width:0.02;"/>
     </g>
    </g>
    <g id="xtick_19">
     <g id="line2d_29">
      <path clip-path="url(#p913259d3a2)" d="M 478.070624 247.865371 
L 478.070624 26.105371 
" style="fill:none;stroke:#000000;stroke-width:0.02;"/>
     </g>
    </g>
    <g id="xtick_20">
     <g id="line2d_30">
      <path clip-path="url(#p913259d3a2)" d="M 526.12804 247.865371 
L 526.12804 26.105371 
" style="fill:none;stroke:#000000;stroke-width:0.02;"/>
     </g>
    </g>
   </g>
   <g id="matplotlib.axis_2">
    <g id="ytick_1">
     <g id="line2d_31">
      <path clip-path="url(#p913259d3a2)" d="M 46.755313 237.785371 
L 548.955313 237.785371 
" style="fill:none;stroke:#000000;stroke-width:0.1;"/>
     </g>
     <g id="line2d_32">
      <path d="M 46.755313 237.785371 
" style="fill:none;stroke:#000000;stroke-width:1.5;"/>
      <defs>
       <path d="M 0 0 
L -2.75 0 
" id="m08de1bc1d8" style="stroke:#000000;stroke-width:0.5;"/>
      </defs>
      <g>
       <use style="stroke:#000000;stroke-width:0.5;" x="46.755313" xlink:href="#m08de1bc1d8" y="237.785371"/>
      </g>
     </g>
     <g id="text_11">
      <!-- 20% -->
      <g transform="translate(22.245938 240.213621)scale(0.088 -0.088)">
       <defs>
        <path d="M 4653 2053 
Q 4381 2053 4226 1822 
Q 4072 1591 4072 1178 
Q 4072 772 4226 539 
Q 4381 306 4653 306 
Q 4919 306 5073 539 
Q 5228 772 5228 1178 
Q 5228 1588 5073 1820 
Q 4919 2053 4653 2053 
z
M 4653 2450 
Q 5147 2450 5437 2106 
Q 5728 1763 5728 1178 
Q 5728 594 5436 251 
Q 5144 -91 4653 -91 
Q 4153 -91 3862 251 
Q 3572 594 3572 1178 
Q 3572 1766 3864 2108 
Q 4156 2450 4653 2450 
z
M 1428 4353 
Q 1159 4353 1004 4120 
Q 850 3888 850 3481 
Q 850 3069 1003 2837 
Q 1156 2606 1428 2606 
Q 1700 2606 1854 2837 
Q 2009 3069 2009 3481 
Q 2009 3884 1853 4118 
Q 1697 4353 1428 4353 
z
M 4250 4750 
L 4750 4750 
L 1831 -91 
L 1331 -91 
L 4250 4750 
z
M 1428 4750 
Q 1922 4750 2215 4408 
Q 2509 4066 2509 3481 
Q 2509 2891 2217 2550 
Q 1925 2209 1428 2209 
Q 931 2209 642 2551 
Q 353 2894 353 3481 
Q 353 4063 643 4406 
Q 934 4750 1428 4750 
z
" id="DejaVuSans-25" transform="scale(0.015625)"/>
       </defs>
       <use xlink:href="#DejaVuSans-32"/>
       <use x="63.623047" xlink:href="#DejaVuSans-30"/>
       <use x="127.246094" xlink:href="#DejaVuSans-25"/>
      </g>
     </g>
    </g>
    <g id="ytick_2">
     <g id="line2d_33">
      <path clip-path="url(#p913259d3a2)" d="M 46.755313 187.385371 
L 548.955313 187.385371 
" style="fill:none;stroke:#000000;stroke-width:0.1;"/>
     </g>
     <g id="line2d_34">
      <path d="M 46.755313 187.385371 
" style="fill:none;stroke:#000000;stroke-width:1.5;"/>
      <g>
       <use style="stroke:#000000;stroke-width:0.5;" x="46.755313" xlink:href="#m08de1bc1d8" y="187.385371"/>
      </g>
     </g>
     <g id="text_12">
      <!-- 25% -->
      <g transform="translate(22.245938 189.813621)scale(0.088 -0.088)">
       <use xlink:href="#DejaVuSans-32"/>
       <use x="63.623047" xlink:href="#DejaVuSans-35"/>
       <use x="127.246094" xlink:href="#DejaVuSans-25"/>
      </g>
     </g>
    </g>
    <g id="ytick_3">
     <g id="line2d_35">
      <path clip-path="url(#p913259d3a2)" d="M 46.755313 136.985371 
L 548.955313 136.985371 
" style="fill:none;stroke:#000000;stroke-width:0.1;"/>
     </g>
     <g id="line2d_36">
      <path d="M 46.755313 136.985371 
" style="fill:none;stroke:#000000;stroke-width:1.5;"/>
      <g>
       <use style="stroke:#000000;stroke-width:0.5;" x="46.755313" xlink:href="#m08de1bc1d8" y="136.985371"/>
      </g>
     </g>
     <g id="text_13">
      <!-- 30% -->
      <g transform="translate(22.245938 139.413621)scale(0.088 -0.088)">
       <use xlink:href="#DejaVuSans-33"/>
       <use x="63.623047" xlink:href="#DejaVuSans-30"/>
       <use x="127.246094" xlink:href="#DejaVuSans-25"/>
      </g>
     </g>
    </g>
    <g id="ytick_4">
     <g id="line2d_37">
      <path clip-path="url(#p913259d3a2)" d="M 46.755313 86.585371 
L 548.955313 86.585371 
" style="fill:none;stroke:#000000;stroke-width:0.1;"/>
     </g>
     <g id="line2d_38">
      <path d="M 46.755313 86.585371 
" style="fill:none;stroke:#000000;stroke-width:1.5;"/>
      <g>
       <use style="stroke:#000000;stroke-width:0.5;" x="46.755313" xlink:href="#m08de1bc1d8" y="86.585371"/>
      </g>
     </g>
     <g id="text_14">
      <!-- 35% -->
      <g transform="translate(22.245938 89.013621)scale(0.088 -0.088)">
       <use xlink:href="#DejaVuSans-33"/>
       <use x="63.623047" xlink:href="#DejaVuSans-35"/>
       <use x="127.246094" xlink:href="#DejaVuSans-25"/>
      </g>
     </g>
    </g>
    <g id="ytick_5">
     <g id="line2d_39">
      <path clip-path="url(#p913259d3a2)" d="M 46.755313 36.185371 
L 548.955313 36.185371 
" style="fill:none;stroke:#000000;stroke-width:0.1;"/>
     </g>
     <g id="line2d_40">
      <path d="M 46.755313 36.185371 
" style="fill:none;stroke:#000000;stroke-width:1.5;"/>
      <g>
       <use style="stroke:#000000;stroke-width:0.5;" x="46.755313" xlink:href="#m08de1bc1d8" y="36.185371"/>
      </g>
     </g>
     <g id="text_15">
      <!-- 40% -->
      <g transform="translate(22.245938 38.613621)scale(0.088 -0.088)">
       <use xlink:href="#DejaVuSans-34"/>
       <use x="63.623047" xlink:href="#DejaVuSans-30"/>
       <use x="127.246094" xlink:href="#DejaVuSans-25"/>
      </g>
     </g>
    </g>
    <g id="ytick_6">
     <g id="line2d_41">
      <path clip-path="url(#p913259d3a2)" d="M 46.755313 212.585371 
L 548.955313 212.585371 
" style="fill:none;stroke:#000000;stroke-width:0.02;"/>
     </g>
    </g>
    <g id="ytick_7">
     <g id="line2d_42">
      <path clip-path="url(#p913259d3a2)" d="M 46.755313 162.185371 
L 548.955313 162.185371 
" style="fill:none;stroke:#000000;stroke-width:0.02;"/>
     </g>
    </g>
    <g id="ytick_8">
     <g id="line2d_43">
      <path clip-path="url(#p913259d3a2)" d="M 46.755313 111.785371 
L 548.955313 111.785371 
" style="fill:none;stroke:#000000;stroke-width:0.02;"/>
     </g>
    </g>
    <g id="ytick_9">
     <g id="line2d_44">
      <path clip-path="url(#p913259d3a2)" d="M 46.755313 61.385371 
L 548.955313 61.385371 
" style="fill:none;stroke:#000000;stroke-width:0.02;"/>
     </g>
    </g>
    <g id="text_16">
     <!-- Proportion in Channel -->
     <g transform="translate(15.558281 195.010683)rotate(-90)scale(0.11 -0.11)">
      <defs>
       <path d="M 1259 4147 
L 1259 2394 
L 2053 2394 
Q 2494 2394 2734 2622 
Q 2975 2850 2975 3272 
Q 2975 3691 2734 3919 
Q 2494 4147 2053 4147 
L 1259 4147 
z
M 628 4666 
L 2053 4666 
Q 2838 4666 3239 4311 
Q 3641 3956 3641 3272 
Q 3641 2581 3239 2228 
Q 2838 1875 2053 1875 
L 1259 1875 
L 1259 0 
L 628 0 
L 628 4666 
z
" id="DejaVuSans-50" transform="scale(0.015625)"/>
       <path d="M 2631 2963 
Q 2534 3019 2420 3045 
Q 2306 3072 2169 3072 
Q 1681 3072 1420 2755 
Q 1159 2438 1159 1844 
L 1159 0 
L 581 0 
L 581 3500 
L 1159 3500 
L 1159 2956 
Q 1341 3275 1631 3429 
Q 1922 3584 2338 3584 
Q 2397 3584 2469 3576 
Q 2541 3569 2628 3553 
L 2631 2963 
z
" id="DejaVuSans-72" transform="scale(0.015625)"/>
       <path d="M 1959 3097 
Q 1497 3097 1228 2736 
Q 959 2375 959 1747 
Q 959 1119 1226 758 
Q 1494 397 1959 397 
Q 2419 397 2687 759 
Q 2956 1122 2956 1747 
Q 2956 2369 2687 2733 
Q 2419 3097 1959 3097 
z
M 1959 3584 
Q 2709 3584 3137 3096 
Q 3566 2609 3566 1747 
Q 3566 888 3137 398 
Q 2709 -91 1959 -91 
Q 1206 -91 779 398 
Q 353 888 353 1747 
Q 353 2609 779 3096 
Q 1206 3584 1959 3584 
z
" id="DejaVuSans-6f" transform="scale(0.015625)"/>
       <path d="M 1159 525 
L 1159 -1331 
L 581 -1331 
L 581 3500 
L 1159 3500 
L 1159 2969 
Q 1341 3281 1617 3432 
Q 1894 3584 2278 3584 
Q 2916 3584 3314 3078 
Q 3713 2572 3713 1747 
Q 3713 922 3314 415 
Q 2916 -91 2278 -91 
Q 1894 -91 1617 61 
Q 1341 213 1159 525 
z
M 3116 1747 
Q 3116 2381 2855 2742 
Q 2594 3103 2138 3103 
Q 1681 3103 1420 2742 
Q 1159 2381 1159 1747 
Q 1159 1113 1420 752 
Q 1681 391 2138 391 
Q 2594 391 2855 752 
Q 3116 1113 3116 1747 
z
" id="DejaVuSans-70" transform="scale(0.015625)"/>
       <path d="M 1172 4494 
L 1172 3500 
L 2356 3500 
L 2356 3053 
L 1172 3053 
L 1172 1153 
Q 1172 725 1289 603 
Q 1406 481 1766 481 
L 2356 481 
L 2356 0 
L 1766 0 
Q 1100 0 847 248 
Q 594 497 594 1153 
L 594 3053 
L 172 3053 
L 172 3500 
L 594 3500 
L 594 4494 
L 1172 4494 
z
" id="DejaVuSans-74" transform="scale(0.015625)"/>
       <path d="M 603 3500 
L 1178 3500 
L 1178 0 
L 603 0 
L 603 3500 
z
M 603 4863 
L 1178 4863 
L 1178 4134 
L 603 4134 
L 603 4863 
z
" id="DejaVuSans-69" transform="scale(0.015625)"/>
       <path d="M 3513 2113 
L 3513 0 
L 2938 0 
L 2938 2094 
Q 2938 2591 2744 2837 
Q 2550 3084 2163 3084 
Q 1697 3084 1428 2787 
Q 1159 2491 1159 1978 
L 1159 0 
L 581 0 
L 581 3500 
L 1159 3500 
L 1159 2956 
Q 1366 3272 1645 3428 
Q 1925 3584 2291 3584 
Q 2894 3584 3203 3211 
Q 3513 2838 3513 2113 
z
" id="DejaVuSans-6e" transform="scale(0.015625)"/>
       <path id="DejaVuSans-20" transform="scale(0.015625)"/>
       <path d="M 4122 4306 
L 4122 3641 
Q 3803 3938 3442 4084 
Q 3081 4231 2675 4231 
Q 1875 4231 1450 3742 
Q 1025 3253 1025 2328 
Q 1025 1406 1450 917 
Q 1875 428 2675 428 
Q 3081 428 3442 575 
Q 3803 722 4122 1019 
L 4122 359 
Q 3791 134 3420 21 
Q 3050 -91 2638 -91 
Q 1578 -91 968 557 
Q 359 1206 359 2328 
Q 359 3453 968 4101 
Q 1578 4750 2638 4750 
Q 3056 4750 3426 4639 
Q 3797 4528 4122 4306 
z
" id="DejaVuSans-43" transform="scale(0.015625)"/>
       <path d="M 3513 2113 
L 3513 0 
L 2938 0 
L 2938 2094 
Q 2938 2591 2744 2837 
Q 2550 3084 2163 3084 
Q 1697 3084 1428 2787 
Q 1159 2491 1159 1978 
L 1159 0 
L 581 0 
L 581 4863 
L 1159 4863 
L 1159 2956 
Q 1366 3272 1645 3428 
Q 1925 3584 2291 3584 
Q 2894 3584 3203 3211 
Q 3513 2838 3513 2113 
z
" id="DejaVuSans-68" transform="scale(0.015625)"/>
       <path d="M 2194 1759 
Q 1497 1759 1228 1600 
Q 959 1441 959 1056 
Q 959 750 1161 570 
Q 1363 391 1709 391 
Q 2188 391 2477 730 
Q 2766 1069 2766 1631 
L 2766 1759 
L 2194 1759 
z
M 3341 1997 
L 3341 0 
L 2766 0 
L 2766 531 
Q 2569 213 2275 61 
Q 1981 -91 1556 -91 
Q 1019 -91 701 211 
Q 384 513 384 1019 
Q 384 1609 779 1909 
Q 1175 2209 1959 2209 
L 2766 2209 
L 2766 2266 
Q 2766 2663 2505 2880 
Q 2244 3097 1772 3097 
Q 1472 3097 1187 3025 
Q 903 2953 641 2809 
L 641 3341 
Q 956 3463 1253 3523 
Q 1550 3584 1831 3584 
Q 2591 3584 2966 3190 
Q 3341 2797 3341 1997 
z
" id="DejaVuSans-61" transform="scale(0.015625)"/>
       <path d="M 3597 1894 
L 3597 1613 
L 953 1613 
Q 991 1019 1311 708 
Q 1631 397 2203 397 
Q 2534 397 2845 478 
Q 3156 559 3463 722 
L 3463 178 
Q 3153 47 2828 -22 
Q 2503 -91 2169 -91 
Q 1331 -91 842 396 
Q 353 884 353 1716 
Q 353 2575 817 3079 
Q 1281 3584 2069 3584 
Q 2775 3584 3186 3129 
Q 3597 2675 3597 1894 
z
M 3022 2063 
Q 3016 2534 2758 2815 
Q 2500 3097 2075 3097 
Q 1594 3097 1305 2825 
Q 1016 2553 972 2059 
L 3022 2063 
z
" id="DejaVuSans-65" transform="scale(0.015625)"/>
       <path d="M 603 4863 
L 1178 4863 
L 1178 0 
L 603 0 
L 603 4863 
z
" id="DejaVuSans-6c" transform="scale(0.015625)"/>
      </defs>
      <use xlink:href="#DejaVuSans-50"/>
      <use x="58.552734" xlink:href="#DejaVuSans-72"/>
      <use x="97.416016" xlink:href="#DejaVuSans-6f"/>
      <use x="158.597656" xlink:href="#DejaVuSans-70"/>
      <use x="222.074219" xlink:href="#DejaVuSans-6f"/>
      <use x="283.255859" xlink:href="#DejaVuSans-72"/>
      <use x="324.369141" xlink:href="#DejaVuSans-74"/>
      <use x="363.578125" xlink:href="#DejaVuSans-69"/>
      <use x="391.361328" xlink:href="#DejaVuSans-6f"/>
      <use x="452.542969" xlink:href="#DejaVuSans-6e"/>
      <use x="515.921875" xlink:href="#DejaVuSans-20"/>
      <use x="547.708984" xlink:href="#DejaVuSans-69"/>
      <use x="575.492188" xlink:href="#DejaVuSans-6e"/>
      <use x="638.871094" xlink:href="#DejaVuSans-20"/>
      <use x="670.658203" xlink:href="#DejaVuSans-43"/>
      <use x="740.482422" xlink:href="#DejaVuSans-68"/>
      <use x="803.861328" xlink:href="#DejaVuSans-61"/>
      <use x="865.140625" xlink:href="#DejaVuSans-6e"/>
      <use x="928.519531" xlink:href="#DejaVuSans-6e"/>
      <use x="991.898438" xlink:href="#DejaVuSans-65"/>
      <use x="1053.421875" xlink:href="#DejaVuSans-6c"/>
     </g>
    </g>
   </g>
   <g id="line2d_45">
    <path clip-path="url(#p913259d3a2)" d="M 69.582585 104.050291 
L 93.611293 103.911366 
L 117.640001 99.249002 
L 141.66871 96.01359 
L 165.697418 97.014628 
L 189.726126 95.880505 
L 213.754834 87.646984 
L 237.783542 85.235201 
L 261.81225 84.917324 
L 285.840958 78.844771 
L 309.869667 78.326706 
L 333.898375 79.157658 
L 357.927083 75.601506 
L 381.955791 73.339517 
L 405.984499 71.300322 
L 430.013207 74.063762 
L 454.041915 71.913739 
L 478.070624 71.418123 
L 502.099332 72.199616 
L 526.12804 73.446241 
" style="fill:none;stroke:#008000;stroke-width:0.886227;"/>
   </g>
   <g id="line2d_46">
    <path clip-path="url(#p913259d3a2)" d="M 69.582585 100.672996 
L 93.611293 92.212619 
L 117.640001 88.144695 
L 141.66871 95.956365 
L 165.697418 80.38585 
L 189.726126 85.084268 
L 213.754834 90.877724 
L 237.783542 85.581625 
L 261.81225 91.085933 
L 285.840958 78.528793 
L 309.869667 90.062446 
L 333.898375 83.48846 
L 357.927083 89.416261 
L 381.955791 87.978741 
L 405.984499 80.01469 
L 430.013207 89.657806 
L 454.041915 97.71394 
L 478.070624 102.141678 
L 502.099332 103.094332 
L 526.12804 89.967693 
" style="fill:none;stroke:#ff0000;stroke-width:0.886227;"/>
   </g>
   <g id="line2d_47">
    <path clip-path="url(#p913259d3a2)" d="M 69.582585 105.432826 
L 93.611293 114.032127 
L 117.640001 122.762415 
L 141.66871 118.186157 
L 165.697418 132.755635 
L 189.726126 129.191339 
L 213.754834 131.631404 
L 237.783542 139.339286 
L 261.81225 134.152855 
L 285.840958 152.782547 
L 309.869667 141.76696 
L 333.898375 147.509994 
L 357.927083 145.138345 
L 381.955791 148.837854 
L 405.984499 158.8411 
L 430.013207 146.434544 
L 454.041915 140.528434 
L 478.070624 136.596311 
L 502.099332 134.862164 
L 526.12804 146.742178 
" style="fill:none;stroke:#0000ff;stroke-width:0.886227;"/>
   </g>
  </g>
  <g id="text_17">
   <!-- Proportion color volume from April 5 to April 24 2021 -->
   <g transform="translate(114.576875 17.229938)scale(0.132 -0.132)">
    <defs>
     <path d="M 3122 3366 
L 3122 2828 
Q 2878 2963 2633 3030 
Q 2388 3097 2138 3097 
Q 1578 3097 1268 2742 
Q 959 2388 959 1747 
Q 959 1106 1268 751 
Q 1578 397 2138 397 
Q 2388 397 2633 464 
Q 2878 531 3122 666 
L 3122 134 
Q 2881 22 2623 -34 
Q 2366 -91 2075 -91 
Q 1284 -91 818 406 
Q 353 903 353 1747 
Q 353 2603 823 3093 
Q 1294 3584 2113 3584 
Q 2378 3584 2631 3529 
Q 2884 3475 3122 3366 
z
" id="DejaVuSans-63" transform="scale(0.015625)"/>
     <path d="M 191 3500 
L 800 3500 
L 1894 563 
L 2988 3500 
L 3597 3500 
L 2284 0 
L 1503 0 
L 191 3500 
z
" id="DejaVuSans-76" transform="scale(0.015625)"/>
     <path d="M 544 1381 
L 544 3500 
L 1119 3500 
L 1119 1403 
Q 1119 906 1312 657 
Q 1506 409 1894 409 
Q 2359 409 2629 706 
Q 2900 1003 2900 1516 
L 2900 3500 
L 3475 3500 
L 3475 0 
L 2900 0 
L 2900 538 
Q 2691 219 2414 64 
Q 2138 -91 1772 -91 
Q 1169 -91 856 284 
Q 544 659 544 1381 
z
M 1991 3584 
L 1991 3584 
z
" id="DejaVuSans-75" transform="scale(0.015625)"/>
     <path d="M 3328 2828 
Q 3544 3216 3844 3400 
Q 4144 3584 4550 3584 
Q 5097 3584 5394 3201 
Q 5691 2819 5691 2113 
L 5691 0 
L 5113 0 
L 5113 2094 
Q 5113 2597 4934 2840 
Q 4756 3084 4391 3084 
Q 3944 3084 3684 2787 
Q 3425 2491 3425 1978 
L 3425 0 
L 2847 0 
L 2847 2094 
Q 2847 2600 2669 2842 
Q 2491 3084 2119 3084 
Q 1678 3084 1418 2786 
Q 1159 2488 1159 1978 
L 1159 0 
L 581 0 
L 581 3500 
L 1159 3500 
L 1159 2956 
Q 1356 3278 1631 3431 
Q 1906 3584 2284 3584 
Q 2666 3584 2933 3390 
Q 3200 3197 3328 2828 
z
" id="DejaVuSans-6d" transform="scale(0.015625)"/>
     <path d="M 2375 4863 
L 2375 4384 
L 1825 4384 
Q 1516 4384 1395 4259 
Q 1275 4134 1275 3809 
L 1275 3500 
L 2222 3500 
L 2222 3053 
L 1275 3053 
L 1275 0 
L 697 0 
L 697 3053 
L 147 3053 
L 147 3500 
L 697 3500 
L 697 3744 
Q 697 4328 969 4595 
Q 1241 4863 1831 4863 
L 2375 4863 
z
" id="DejaVuSans-66" transform="scale(0.015625)"/>
     <path d="M 2188 4044 
L 1331 1722 
L 3047 1722 
L 2188 4044 
z
M 1831 4666 
L 2547 4666 
L 4325 0 
L 3669 0 
L 3244 1197 
L 1141 1197 
L 716 0 
L 50 0 
L 1831 4666 
z
" id="DejaVuSans-41" transform="scale(0.015625)"/>
    </defs>
    <use xlink:href="#DejaVuSans-50"/>
    <use x="58.552734" xlink:href="#DejaVuSans-72"/>
    <use x="97.416016" xlink:href="#DejaVuSans-6f"/>
    <use x="158.597656" xlink:href="#DejaVuSans-70"/>
    <use x="222.074219" xlink:href="#DejaVuSans-6f"/>
    <use x="283.255859" xlink:href="#DejaVuSans-72"/>
    <use x="324.369141" xlink:href="#DejaVuSans-74"/>
    <use x="363.578125" xlink:href="#DejaVuSans-69"/>
    <use x="391.361328" xlink:href="#DejaVuSans-6f"/>
    <use x="452.542969" xlink:href="#DejaVuSans-6e"/>
    <use x="515.921875" xlink:href="#DejaVuSans-20"/>
    <use x="547.708984" xlink:href="#DejaVuSans-63"/>
    <use x="602.689453" xlink:href="#DejaVuSans-6f"/>
    <use x="663.871094" xlink:href="#DejaVuSans-6c"/>
    <use x="691.654297" xlink:href="#DejaVuSans-6f"/>
    <use x="752.835938" xlink:href="#DejaVuSans-72"/>
    <use x="793.949219" xlink:href="#DejaVuSans-20"/>
    <use x="825.736328" xlink:href="#DejaVuSans-76"/>
    <use x="884.916016" xlink:href="#DejaVuSans-6f"/>
    <use x="946.097656" xlink:href="#DejaVuSans-6c"/>
    <use x="973.880859" xlink:href="#DejaVuSans-75"/>
    <use x="1037.259766" xlink:href="#DejaVuSans-6d"/>
    <use x="1134.671875" xlink:href="#DejaVuSans-65"/>
    <use x="1196.195312" xlink:href="#DejaVuSans-20"/>
    <use x="1227.982422" xlink:href="#DejaVuSans-66"/>
    <use x="1263.1875" xlink:href="#DejaVuSans-72"/>
    <use x="1302.050781" xlink:href="#DejaVuSans-6f"/>
    <use x="1363.232422" xlink:href="#DejaVuSans-6d"/>
    <use x="1460.644531" xlink:href="#DejaVuSans-20"/>
    <use x="1492.431641" xlink:href="#DejaVuSans-41"/>
    <use x="1560.839844" xlink:href="#DejaVuSans-70"/>
    <use x="1624.316406" xlink:href="#DejaVuSans-72"/>
    <use x="1665.429688" xlink:href="#DejaVuSans-69"/>
    <use x="1693.212891" xlink:href="#DejaVuSans-6c"/>
    <use x="1720.996094" xlink:href="#DejaVuSans-20"/>
    <use x="1752.783203" xlink:href="#DejaVuSans-35"/>
    <use x="1816.40625" xlink:href="#DejaVuSans-20"/>
    <use x="1848.193359" xlink:href="#DejaVuSans-74"/>
    <use x="1887.402344" xlink:href="#DejaVuSans-6f"/>
    <use x="1948.583984" xlink:href="#DejaVuSans-20"/>
    <use x="1980.371094" xlink:href="#DejaVuSans-41"/>
    <use x="2048.779297" xlink:href="#DejaVuSans-70"/>
    <use x="2112.255859" xlink:href="#DejaVuSans-72"/>
    <use x="2153.369141" xlink:href="#DejaVuSans-69"/>
    <use x="2181.152344" xlink:href="#DejaVuSans-6c"/>
    <use x="2208.935547" xlink:href="#DejaVuSans-20"/>
    <use x="2240.722656" xlink:href="#DejaVuSans-32"/>
    <use x="2304.345703" xlink:href="#DejaVuSans-34"/>
    <use x="2367.96875" xlink:href="#DejaVuSans-20"/>
    <use x="2399.755859" xlink:href="#DejaVuSans-32"/>
    <use x="2463.378906" xlink:href="#DejaVuSans-30"/>
    <use x="2527.001953" xlink:href="#DejaVuSans-32"/>
    <use x="2590.625" xlink:href="#DejaVuSans-31"/>
   </g>
  </g>
 </g>
 <defs>
  <clipPath id="p913259d3a2">
   <rect height="221.76" width="502.2" x="46.755313" y="26.105371"/>
  </clipPath>
 </defs>
</svg>
