<?xml version="1.0" encoding="utf-8" standalone="no"?>
<!DOCTYPE svg PUBLIC "-//W3C//DTD SVG 1.1//EN"
  "http://www.w3.org/Graphics/SVG/1.1/DTD/svg11.dtd">
<!-- Created with matplotlib (https://matplotlib.org/) -->
<svg height="283.581295pt" version="1.1" viewBox="0 0 486.409375 283.581295" width="486.409375pt" xmlns="http://www.w3.org/2000/svg" xmlns:xlink="http://www.w3.org/1999/xlink">
 <defs>
  <style type="text/css">
*{stroke-linecap:butt;stroke-linejoin:round;}
  </style>
 </defs>
 <g id="figure_1">
  <g id="patch_1">
   <path d="M 0 283.581295 
L 486.409375 283.581295 
L 486.409375 0 
L 0 0 
z
" style="fill:#ffffff;stroke:#ffffff;stroke-linejoin:miter;"/>
  </g>
  <g id="axes_1">
   <g id="patch_2">
    <path d="M 32.809375 247.865371 
L 479.209375 247.865371 
L 479.209375 26.105371 
L 32.809375 26.105371 
z
" style="fill:#ffffff;stroke:#b3b3b3;stroke-linejoin:miter;"/>
   </g>
   <g id="matplotlib.axis_1">
    <g id="xtick_1">
     <g id="line2d_1">
      <path d="M 53.077577 247.865371 
" style="fill:none;stroke:#b3b3b3;stroke-width:1.5;"/>
      <defs>
       <path d="M 0 0 
L 0 2.75 
" id="m59a9ac52da" style="stroke:#b3b3b3;stroke-width:0.5;"/>
      </defs>
      <g>
       <use style="fill:#b3b3b3;stroke:#b3b3b3;stroke-width:0.5;" x="53.077577" xlink:href="#m59a9ac52da" y="247.865371"/>
      </g>
     </g>
     <g id="text_1">
      <!-- 12AM -->
      <defs>
       <path d="M 12.40625 8.296875 
L 28.515625 8.296875 
L 28.515625 63.921875 
L 10.984375 60.40625 
L 10.984375 69.390625 
L 28.421875 72.90625 
L 38.28125 72.90625 
L 38.28125 8.296875 
L 54.390625 8.296875 
L 54.390625 0 
L 12.40625 0 
z
" id="DejaVuSans-49"/>
       <path d="M 19.1875 8.296875 
L 53.609375 8.296875 
L 53.609375 0 
L 7.328125 0 
L 7.328125 8.296875 
Q 12.9375 14.109375 22.625 23.890625 
Q 32.328125 33.6875 34.8125 36.53125 
Q 39.546875 41.84375 41.421875 45.53125 
Q 43.3125 49.21875 43.3125 52.78125 
Q 43.3125 58.59375 39.234375 62.25 
Q 35.15625 65.921875 28.609375 65.921875 
Q 23.96875 65.921875 18.8125 64.3125 
Q 13.671875 62.703125 7.8125 59.421875 
L 7.8125 69.390625 
Q 13.765625 71.78125 18.9375 73 
Q 24.125 74.21875 28.421875 74.21875 
Q 39.75 74.21875 46.484375 68.546875 
Q 53.21875 62.890625 53.21875 53.421875 
Q 53.21875 48.921875 51.53125 44.890625 
Q 49.859375 40.875 45.40625 35.40625 
Q 44.1875 33.984375 37.640625 27.21875 
Q 31.109375 20.453125 19.1875 8.296875 
z
" id="DejaVuSans-50"/>
       <path d="M 34.1875 63.1875 
L 20.796875 26.90625 
L 47.609375 26.90625 
z
M 28.609375 72.90625 
L 39.796875 72.90625 
L 67.578125 0 
L 57.328125 0 
L 50.6875 18.703125 
L 17.828125 18.703125 
L 11.1875 0 
L 0.78125 0 
z
" id="DejaVuSans-65"/>
       <path d="M 9.8125 72.90625 
L 24.515625 72.90625 
L 43.109375 23.296875 
L 61.8125 72.90625 
L 76.515625 72.90625 
L 76.515625 0 
L 66.890625 0 
L 66.890625 64.015625 
L 48.09375 14.015625 
L 38.1875 14.015625 
L 19.390625 64.015625 
L 19.390625 0 
L 9.8125 0 
z
" id="DejaVuSans-77"/>
      </defs>
      <g style="fill:#4d4d4d;" transform="translate(46.022772 275.087201)rotate(-45)scale(0.088 -0.088)">
       <use xlink:href="#DejaVuSans-49"/>
       <use x="63.623047" xlink:href="#DejaVuSans-50"/>
       <use x="127.246094" xlink:href="#DejaVuSans-65"/>
       <use x="195.654297" xlink:href="#DejaVuSans-77"/>
      </g>
     </g>
    </g>
    <g id="xtick_2">
     <g id="line2d_2">
      <path d="M 69.998384 247.865371 
" style="fill:none;stroke:#b3b3b3;stroke-width:1.5;"/>
      <g>
       <use style="fill:#b3b3b3;stroke:#b3b3b3;stroke-width:0.5;" x="69.998384" xlink:href="#m59a9ac52da" y="247.865371"/>
      </g>
     </g>
     <g id="text_2">
      <!-- 01AM -->
      <defs>
       <path d="M 31.78125 66.40625 
Q 24.171875 66.40625 20.328125 58.90625 
Q 16.5 51.421875 16.5 36.375 
Q 16.5 21.390625 20.328125 13.890625 
Q 24.171875 6.390625 31.78125 6.390625 
Q 39.453125 6.390625 43.28125 13.890625 
Q 47.125 21.390625 47.125 36.375 
Q 47.125 51.421875 43.28125 58.90625 
Q 39.453125 66.40625 31.78125 66.40625 
z
M 31.78125 74.21875 
Q 44.046875 74.21875 50.515625 64.515625 
Q 56.984375 54.828125 56.984375 36.375 
Q 56.984375 17.96875 50.515625 8.265625 
Q 44.046875 -1.421875 31.78125 -1.421875 
Q 19.53125 -1.421875 13.0625 8.265625 
Q 6.59375 17.96875 6.59375 36.375 
Q 6.59375 54.828125 13.0625 64.515625 
Q 19.53125 74.21875 31.78125 74.21875 
z
" id="DejaVuSans-48"/>
      </defs>
      <g style="fill:#4d4d4d;" transform="translate(62.94358 275.087201)rotate(-45)scale(0.088 -0.088)">
       <use xlink:href="#DejaVuSans-48"/>
       <use x="63.623047" xlink:href="#DejaVuSans-49"/>
       <use x="127.246094" xlink:href="#DejaVuSans-65"/>
       <use x="195.654297" xlink:href="#DejaVuSans-77"/>
      </g>
     </g>
    </g>
    <g id="xtick_3">
     <g id="line2d_3">
      <path d="M 86.919192 247.865371 
" style="fill:none;stroke:#b3b3b3;stroke-width:1.5;"/>
      <g>
       <use style="fill:#b3b3b3;stroke:#b3b3b3;stroke-width:0.5;" x="86.919192" xlink:href="#m59a9ac52da" y="247.865371"/>
      </g>
     </g>
     <g id="text_3">
      <!-- 02AM -->
      <g style="fill:#4d4d4d;" transform="translate(79.864387 275.087201)rotate(-45)scale(0.088 -0.088)">
       <use xlink:href="#DejaVuSans-48"/>
       <use x="63.623047" xlink:href="#DejaVuSans-50"/>
       <use x="127.246094" xlink:href="#DejaVuSans-65"/>
       <use x="195.654297" xlink:href="#DejaVuSans-77"/>
      </g>
     </g>
    </g>
    <g id="xtick_4">
     <g id="line2d_4">
      <path d="M 103.839999 247.865371 
" style="fill:none;stroke:#b3b3b3;stroke-width:1.5;"/>
      <g>
       <use style="fill:#b3b3b3;stroke:#b3b3b3;stroke-width:0.5;" x="103.839999" xlink:href="#m59a9ac52da" y="247.865371"/>
      </g>
     </g>
     <g id="text_4">
      <!-- 03AM -->
      <defs>
       <path d="M 40.578125 39.3125 
Q 47.65625 37.796875 51.625 33 
Q 55.609375 28.21875 55.609375 21.1875 
Q 55.609375 10.40625 48.1875 4.484375 
Q 40.765625 -1.421875 27.09375 -1.421875 
Q 22.515625 -1.421875 17.65625 -0.515625 
Q 12.796875 0.390625 7.625 2.203125 
L 7.625 11.71875 
Q 11.71875 9.328125 16.59375 8.109375 
Q 21.484375 6.890625 26.8125 6.890625 
Q 36.078125 6.890625 40.9375 10.546875 
Q 45.796875 14.203125 45.796875 21.1875 
Q 45.796875 27.640625 41.28125 31.265625 
Q 36.765625 34.90625 28.71875 34.90625 
L 20.21875 34.90625 
L 20.21875 43.015625 
L 29.109375 43.015625 
Q 36.375 43.015625 40.234375 45.921875 
Q 44.09375 48.828125 44.09375 54.296875 
Q 44.09375 59.90625 40.109375 62.90625 
Q 36.140625 65.921875 28.71875 65.921875 
Q 24.65625 65.921875 20.015625 65.03125 
Q 15.375 64.15625 9.8125 62.3125 
L 9.8125 71.09375 
Q 15.4375 72.65625 20.34375 73.4375 
Q 25.25 74.21875 29.59375 74.21875 
Q 40.828125 74.21875 47.359375 69.109375 
Q 53.90625 64.015625 53.90625 55.328125 
Q 53.90625 49.265625 50.4375 45.09375 
Q 46.96875 40.921875 40.578125 39.3125 
z
" id="DejaVuSans-51"/>
      </defs>
      <g style="fill:#4d4d4d;" transform="translate(96.785195 275.087201)rotate(-45)scale(0.088 -0.088)">
       <use xlink:href="#DejaVuSans-48"/>
       <use x="63.623047" xlink:href="#DejaVuSans-51"/>
       <use x="127.246094" xlink:href="#DejaVuSans-65"/>
       <use x="195.654297" xlink:href="#DejaVuSans-77"/>
      </g>
     </g>
    </g>
    <g id="xtick_5">
     <g id="line2d_5">
      <path d="M 120.760807 247.865371 
" style="fill:none;stroke:#b3b3b3;stroke-width:1.5;"/>
      <g>
       <use style="fill:#b3b3b3;stroke:#b3b3b3;stroke-width:0.5;" x="120.760807" xlink:href="#m59a9ac52da" y="247.865371"/>
      </g>
     </g>
     <g id="text_5">
      <!-- 04AM -->
      <defs>
       <path d="M 37.796875 64.3125 
L 12.890625 25.390625 
L 37.796875 25.390625 
z
M 35.203125 72.90625 
L 47.609375 72.90625 
L 47.609375 25.390625 
L 58.015625 25.390625 
L 58.015625 17.1875 
L 47.609375 17.1875 
L 47.609375 0 
L 37.796875 0 
L 37.796875 17.1875 
L 4.890625 17.1875 
L 4.890625 26.703125 
z
" id="DejaVuSans-52"/>
      </defs>
      <g style="fill:#4d4d4d;" transform="translate(113.706002 275.087201)rotate(-45)scale(0.088 -0.088)">
       <use xlink:href="#DejaVuSans-48"/>
       <use x="63.623047" xlink:href="#DejaVuSans-52"/>
       <use x="127.246094" xlink:href="#DejaVuSans-65"/>
       <use x="195.654297" xlink:href="#DejaVuSans-77"/>
      </g>
     </g>
    </g>
    <g id="xtick_6">
     <g id="line2d_6">
      <path d="M 137.681614 247.865371 
" style="fill:none;stroke:#b3b3b3;stroke-width:1.5;"/>
      <g>
       <use style="fill:#b3b3b3;stroke:#b3b3b3;stroke-width:0.5;" x="137.681614" xlink:href="#m59a9ac52da" y="247.865371"/>
      </g>
     </g>
     <g id="text_6">
      <!-- 05AM -->
      <defs>
       <path d="M 10.796875 72.90625 
L 49.515625 72.90625 
L 49.515625 64.59375 
L 19.828125 64.59375 
L 19.828125 46.734375 
Q 21.96875 47.46875 24.109375 47.828125 
Q 26.265625 48.1875 28.421875 48.1875 
Q 40.625 48.1875 47.75 41.5 
Q 54.890625 34.8125 54.890625 23.390625 
Q 54.890625 11.625 47.5625 5.09375 
Q 40.234375 -1.421875 26.90625 -1.421875 
Q 22.3125 -1.421875 17.546875 -0.640625 
Q 12.796875 0.140625 7.71875 1.703125 
L 7.71875 11.625 
Q 12.109375 9.234375 16.796875 8.0625 
Q 21.484375 6.890625 26.703125 6.890625 
Q 35.15625 6.890625 40.078125 11.328125 
Q 45.015625 15.765625 45.015625 23.390625 
Q 45.015625 31 40.078125 35.4375 
Q 35.15625 39.890625 26.703125 39.890625 
Q 22.75 39.890625 18.8125 39.015625 
Q 14.890625 38.140625 10.796875 36.28125 
z
" id="DejaVuSans-53"/>
      </defs>
      <g style="fill:#4d4d4d;" transform="translate(130.62681 275.087201)rotate(-45)scale(0.088 -0.088)">
       <use xlink:href="#DejaVuSans-48"/>
       <use x="63.623047" xlink:href="#DejaVuSans-53"/>
       <use x="127.246094" xlink:href="#DejaVuSans-65"/>
       <use x="195.654297" xlink:href="#DejaVuSans-77"/>
      </g>
     </g>
    </g>
    <g id="xtick_7">
     <g id="line2d_7">
      <path d="M 154.602422 247.865371 
" style="fill:none;stroke:#b3b3b3;stroke-width:1.5;"/>
      <g>
       <use style="fill:#b3b3b3;stroke:#b3b3b3;stroke-width:0.5;" x="154.602422" xlink:href="#m59a9ac52da" y="247.865371"/>
      </g>
     </g>
     <g id="text_7">
      <!-- 06AM -->
      <defs>
       <path d="M 33.015625 40.375 
Q 26.375 40.375 22.484375 35.828125 
Q 18.609375 31.296875 18.609375 23.390625 
Q 18.609375 15.53125 22.484375 10.953125 
Q 26.375 6.390625 33.015625 6.390625 
Q 39.65625 6.390625 43.53125 10.953125 
Q 47.40625 15.53125 47.40625 23.390625 
Q 47.40625 31.296875 43.53125 35.828125 
Q 39.65625 40.375 33.015625 40.375 
z
M 52.59375 71.296875 
L 52.59375 62.3125 
Q 48.875 64.0625 45.09375 64.984375 
Q 41.3125 65.921875 37.59375 65.921875 
Q 27.828125 65.921875 22.671875 59.328125 
Q 17.53125 52.734375 16.796875 39.40625 
Q 19.671875 43.65625 24.015625 45.921875 
Q 28.375 48.1875 33.59375 48.1875 
Q 44.578125 48.1875 50.953125 41.515625 
Q 57.328125 34.859375 57.328125 23.390625 
Q 57.328125 12.15625 50.6875 5.359375 
Q 44.046875 -1.421875 33.015625 -1.421875 
Q 20.359375 -1.421875 13.671875 8.265625 
Q 6.984375 17.96875 6.984375 36.375 
Q 6.984375 53.65625 15.1875 63.9375 
Q 23.390625 74.21875 37.203125 74.21875 
Q 40.921875 74.21875 44.703125 73.484375 
Q 48.484375 72.75 52.59375 71.296875 
z
" id="DejaVuSans-54"/>
      </defs>
      <g style="fill:#4d4d4d;" transform="translate(147.547617 275.087201)rotate(-45)scale(0.088 -0.088)">
       <use xlink:href="#DejaVuSans-48"/>
       <use x="63.623047" xlink:href="#DejaVuSans-54"/>
       <use x="127.246094" xlink:href="#DejaVuSans-65"/>
       <use x="195.654297" xlink:href="#DejaVuSans-77"/>
      </g>
     </g>
    </g>
    <g id="xtick_8">
     <g id="line2d_8">
      <path d="M 171.523229 247.865371 
" style="fill:none;stroke:#b3b3b3;stroke-width:1.5;"/>
      <g>
       <use style="fill:#b3b3b3;stroke:#b3b3b3;stroke-width:0.5;" x="171.523229" xlink:href="#m59a9ac52da" y="247.865371"/>
      </g>
     </g>
     <g id="text_8">
      <!-- 07AM -->
      <defs>
       <path d="M 8.203125 72.90625 
L 55.078125 72.90625 
L 55.078125 68.703125 
L 28.609375 0 
L 18.3125 0 
L 43.21875 64.59375 
L 8.203125 64.59375 
z
" id="DejaVuSans-55"/>
      </defs>
      <g style="fill:#4d4d4d;" transform="translate(164.468425 275.087201)rotate(-45)scale(0.088 -0.088)">
       <use xlink:href="#DejaVuSans-48"/>
       <use x="63.623047" xlink:href="#DejaVuSans-55"/>
       <use x="127.246094" xlink:href="#DejaVuSans-65"/>
       <use x="195.654297" xlink:href="#DejaVuSans-77"/>
      </g>
     </g>
    </g>
    <g id="xtick_9">
     <g id="line2d_9">
      <path d="M 188.444037 247.865371 
" style="fill:none;stroke:#b3b3b3;stroke-width:1.5;"/>
      <g>
       <use style="fill:#b3b3b3;stroke:#b3b3b3;stroke-width:0.5;" x="188.444037" xlink:href="#m59a9ac52da" y="247.865371"/>
      </g>
     </g>
     <g id="text_9">
      <!-- 08AM -->
      <defs>
       <path d="M 31.78125 34.625 
Q 24.75 34.625 20.71875 30.859375 
Q 16.703125 27.09375 16.703125 20.515625 
Q 16.703125 13.921875 20.71875 10.15625 
Q 24.75 6.390625 31.78125 6.390625 
Q 38.8125 6.390625 42.859375 10.171875 
Q 46.921875 13.96875 46.921875 20.515625 
Q 46.921875 27.09375 42.890625 30.859375 
Q 38.875 34.625 31.78125 34.625 
z
M 21.921875 38.8125 
Q 15.578125 40.375 12.03125 44.71875 
Q 8.5 49.078125 8.5 55.328125 
Q 8.5 64.0625 14.71875 69.140625 
Q 20.953125 74.21875 31.78125 74.21875 
Q 42.671875 74.21875 48.875 69.140625 
Q 55.078125 64.0625 55.078125 55.328125 
Q 55.078125 49.078125 51.53125 44.71875 
Q 48 40.375 41.703125 38.8125 
Q 48.828125 37.15625 52.796875 32.3125 
Q 56.78125 27.484375 56.78125 20.515625 
Q 56.78125 9.90625 50.3125 4.234375 
Q 43.84375 -1.421875 31.78125 -1.421875 
Q 19.734375 -1.421875 13.25 4.234375 
Q 6.78125 9.90625 6.78125 20.515625 
Q 6.78125 27.484375 10.78125 32.3125 
Q 14.796875 37.15625 21.921875 38.8125 
z
M 18.3125 54.390625 
Q 18.3125 48.734375 21.84375 45.5625 
Q 25.390625 42.390625 31.78125 42.390625 
Q 38.140625 42.390625 41.71875 45.5625 
Q 45.3125 48.734375 45.3125 54.390625 
Q 45.3125 60.0625 41.71875 63.234375 
Q 38.140625 66.40625 31.78125 66.40625 
Q 25.390625 66.40625 21.84375 63.234375 
Q 18.3125 60.0625 18.3125 54.390625 
z
" id="DejaVuSans-56"/>
      </defs>
      <g style="fill:#4d4d4d;" transform="translate(181.389232 275.087201)rotate(-45)scale(0.088 -0.088)">
       <use xlink:href="#DejaVuSans-48"/>
       <use x="63.623047" xlink:href="#DejaVuSans-56"/>
       <use x="127.246094" xlink:href="#DejaVuSans-65"/>
       <use x="195.654297" xlink:href="#DejaVuSans-77"/>
      </g>
     </g>
    </g>
    <g id="xtick_10">
     <g id="line2d_10">
      <path d="M 205.364844 247.865371 
" style="fill:none;stroke:#b3b3b3;stroke-width:1.5;"/>
      <g>
       <use style="fill:#b3b3b3;stroke:#b3b3b3;stroke-width:0.5;" x="205.364844" xlink:href="#m59a9ac52da" y="247.865371"/>
      </g>
     </g>
     <g id="text_10">
      <!-- 09AM -->
      <defs>
       <path d="M 10.984375 1.515625 
L 10.984375 10.5 
Q 14.703125 8.734375 18.5 7.8125 
Q 22.3125 6.890625 25.984375 6.890625 
Q 35.75 6.890625 40.890625 13.453125 
Q 46.046875 20.015625 46.78125 33.40625 
Q 43.953125 29.203125 39.59375 26.953125 
Q 35.25 24.703125 29.984375 24.703125 
Q 19.046875 24.703125 12.671875 31.3125 
Q 6.296875 37.9375 6.296875 49.421875 
Q 6.296875 60.640625 12.9375 67.421875 
Q 19.578125 74.21875 30.609375 74.21875 
Q 43.265625 74.21875 49.921875 64.515625 
Q 56.59375 54.828125 56.59375 36.375 
Q 56.59375 19.140625 48.40625 8.859375 
Q 40.234375 -1.421875 26.421875 -1.421875 
Q 22.703125 -1.421875 18.890625 -0.6875 
Q 15.09375 0.046875 10.984375 1.515625 
z
M 30.609375 32.421875 
Q 37.25 32.421875 41.125 36.953125 
Q 45.015625 41.5 45.015625 49.421875 
Q 45.015625 57.28125 41.125 61.84375 
Q 37.25 66.40625 30.609375 66.40625 
Q 23.96875 66.40625 20.09375 61.84375 
Q 16.21875 57.28125 16.21875 49.421875 
Q 16.21875 41.5 20.09375 36.953125 
Q 23.96875 32.421875 30.609375 32.421875 
z
" id="DejaVuSans-57"/>
      </defs>
      <g style="fill:#4d4d4d;" transform="translate(198.31004 275.087201)rotate(-45)scale(0.088 -0.088)">
       <use xlink:href="#DejaVuSans-48"/>
       <use x="63.623047" xlink:href="#DejaVuSans-57"/>
       <use x="127.246094" xlink:href="#DejaVuSans-65"/>
       <use x="195.654297" xlink:href="#DejaVuSans-77"/>
      </g>
     </g>
    </g>
    <g id="xtick_11">
     <g id="line2d_11">
      <path d="M 222.285652 247.865371 
" style="fill:none;stroke:#b3b3b3;stroke-width:1.5;"/>
      <g>
       <use style="fill:#b3b3b3;stroke:#b3b3b3;stroke-width:0.5;" x="222.285652" xlink:href="#m59a9ac52da" y="247.865371"/>
      </g>
     </g>
     <g id="text_11">
      <!-- 10AM -->
      <g style="fill:#4d4d4d;" transform="translate(215.230847 275.087201)rotate(-45)scale(0.088 -0.088)">
       <use xlink:href="#DejaVuSans-49"/>
       <use x="63.623047" xlink:href="#DejaVuSans-48"/>
       <use x="127.246094" xlink:href="#DejaVuSans-65"/>
       <use x="195.654297" xlink:href="#DejaVuSans-77"/>
      </g>
     </g>
    </g>
    <g id="xtick_12">
     <g id="line2d_12">
      <path d="M 239.206459 247.865371 
" style="fill:none;stroke:#b3b3b3;stroke-width:1.5;"/>
      <g>
       <use style="fill:#b3b3b3;stroke:#b3b3b3;stroke-width:0.5;" x="239.206459" xlink:href="#m59a9ac52da" y="247.865371"/>
      </g>
     </g>
     <g id="text_12">
      <!-- 11AM -->
      <g style="fill:#4d4d4d;" transform="translate(232.151655 275.087201)rotate(-45)scale(0.088 -0.088)">
       <use xlink:href="#DejaVuSans-49"/>
       <use x="63.623047" xlink:href="#DejaVuSans-49"/>
       <use x="127.246094" xlink:href="#DejaVuSans-65"/>
       <use x="195.654297" xlink:href="#DejaVuSans-77"/>
      </g>
     </g>
    </g>
    <g id="xtick_13">
     <g id="line2d_13">
      <path d="M 256.127267 247.865371 
" style="fill:none;stroke:#b3b3b3;stroke-width:1.5;"/>
      <g>
       <use style="fill:#b3b3b3;stroke:#b3b3b3;stroke-width:0.5;" x="256.127267" xlink:href="#m59a9ac52da" y="247.865371"/>
      </g>
     </g>
     <g id="text_13">
      <!-- 12PM -->
      <defs>
       <path d="M 19.671875 64.796875 
L 19.671875 37.40625 
L 32.078125 37.40625 
Q 38.96875 37.40625 42.71875 40.96875 
Q 46.484375 44.53125 46.484375 51.125 
Q 46.484375 57.671875 42.71875 61.234375 
Q 38.96875 64.796875 32.078125 64.796875 
z
M 9.8125 72.90625 
L 32.078125 72.90625 
Q 44.34375 72.90625 50.609375 67.359375 
Q 56.890625 61.8125 56.890625 51.125 
Q 56.890625 40.328125 50.609375 34.8125 
Q 44.34375 29.296875 32.078125 29.296875 
L 19.671875 29.296875 
L 19.671875 0 
L 9.8125 0 
z
" id="DejaVuSans-80"/>
      </defs>
      <g style="fill:#4d4d4d;" transform="translate(249.324767 274.582592)rotate(-45)scale(0.088 -0.088)">
       <use xlink:href="#DejaVuSans-49"/>
       <use x="63.623047" xlink:href="#DejaVuSans-50"/>
       <use x="127.246094" xlink:href="#DejaVuSans-80"/>
       <use x="187.548828" xlink:href="#DejaVuSans-77"/>
      </g>
     </g>
    </g>
    <g id="xtick_14">
     <g id="line2d_14">
      <path d="M 273.048074 247.865371 
" style="fill:none;stroke:#b3b3b3;stroke-width:1.5;"/>
      <g>
       <use style="fill:#b3b3b3;stroke:#b3b3b3;stroke-width:0.5;" x="273.048074" xlink:href="#m59a9ac52da" y="247.865371"/>
      </g>
     </g>
     <g id="text_14">
      <!-- 01PM -->
      <g style="fill:#4d4d4d;" transform="translate(266.245574 274.582592)rotate(-45)scale(0.088 -0.088)">
       <use xlink:href="#DejaVuSans-48"/>
       <use x="63.623047" xlink:href="#DejaVuSans-49"/>
       <use x="127.246094" xlink:href="#DejaVuSans-80"/>
       <use x="187.548828" xlink:href="#DejaVuSans-77"/>
      </g>
     </g>
    </g>
    <g id="xtick_15">
     <g id="line2d_15">
      <path d="M 289.968882 247.865371 
" style="fill:none;stroke:#b3b3b3;stroke-width:1.5;"/>
      <g>
       <use style="fill:#b3b3b3;stroke:#b3b3b3;stroke-width:0.5;" x="289.968882" xlink:href="#m59a9ac52da" y="247.865371"/>
      </g>
     </g>
     <g id="text_15">
      <!-- 02PM -->
      <g style="fill:#4d4d4d;" transform="translate(283.166382 274.582592)rotate(-45)scale(0.088 -0.088)">
       <use xlink:href="#DejaVuSans-48"/>
       <use x="63.623047" xlink:href="#DejaVuSans-50"/>
       <use x="127.246094" xlink:href="#DejaVuSans-80"/>
       <use x="187.548828" xlink:href="#DejaVuSans-77"/>
      </g>
     </g>
    </g>
    <g id="xtick_16">
     <g id="line2d_16">
      <path d="M 306.889689 247.865371 
" style="fill:none;stroke:#b3b3b3;stroke-width:1.5;"/>
      <g>
       <use style="fill:#b3b3b3;stroke:#b3b3b3;stroke-width:0.5;" x="306.889689" xlink:href="#m59a9ac52da" y="247.865371"/>
      </g>
     </g>
     <g id="text_16">
      <!-- 03PM -->
      <g style="fill:#4d4d4d;" transform="translate(300.08719 274.582592)rotate(-45)scale(0.088 -0.088)">
       <use xlink:href="#DejaVuSans-48"/>
       <use x="63.623047" xlink:href="#DejaVuSans-51"/>
       <use x="127.246094" xlink:href="#DejaVuSans-80"/>
       <use x="187.548828" xlink:href="#DejaVuSans-77"/>
      </g>
     </g>
    </g>
    <g id="xtick_17">
     <g id="line2d_17">
      <path d="M 323.810497 247.865371 
" style="fill:none;stroke:#b3b3b3;stroke-width:1.5;"/>
      <g>
       <use style="fill:#b3b3b3;stroke:#b3b3b3;stroke-width:0.5;" x="323.810497" xlink:href="#m59a9ac52da" y="247.865371"/>
      </g>
     </g>
     <g id="text_17">
      <!-- 04PM -->
      <g style="fill:#4d4d4d;" transform="translate(317.007997 274.582592)rotate(-45)scale(0.088 -0.088)">
       <use xlink:href="#DejaVuSans-48"/>
       <use x="63.623047" xlink:href="#DejaVuSans-52"/>
       <use x="127.246094" xlink:href="#DejaVuSans-80"/>
       <use x="187.548828" xlink:href="#DejaVuSans-77"/>
      </g>
     </g>
    </g>
    <g id="xtick_18">
     <g id="line2d_18">
      <path d="M 340.731304 247.865371 
" style="fill:none;stroke:#b3b3b3;stroke-width:1.5;"/>
      <g>
       <use style="fill:#b3b3b3;stroke:#b3b3b3;stroke-width:0.5;" x="340.731304" xlink:href="#m59a9ac52da" y="247.865371"/>
      </g>
     </g>
     <g id="text_18">
      <!-- 05PM -->
      <g style="fill:#4d4d4d;" transform="translate(333.928805 274.582592)rotate(-45)scale(0.088 -0.088)">
       <use xlink:href="#DejaVuSans-48"/>
       <use x="63.623047" xlink:href="#DejaVuSans-53"/>
       <use x="127.246094" xlink:href="#DejaVuSans-80"/>
       <use x="187.548828" xlink:href="#DejaVuSans-77"/>
      </g>
     </g>
    </g>
    <g id="xtick_19">
     <g id="line2d_19">
      <path d="M 357.652112 247.865371 
" style="fill:none;stroke:#b3b3b3;stroke-width:1.5;"/>
      <g>
       <use style="fill:#b3b3b3;stroke:#b3b3b3;stroke-width:0.5;" x="357.652112" xlink:href="#m59a9ac52da" y="247.865371"/>
      </g>
     </g>
     <g id="text_19">
      <!-- 06PM -->
      <g style="fill:#4d4d4d;" transform="translate(350.849612 274.582592)rotate(-45)scale(0.088 -0.088)">
       <use xlink:href="#DejaVuSans-48"/>
       <use x="63.623047" xlink:href="#DejaVuSans-54"/>
       <use x="127.246094" xlink:href="#DejaVuSans-80"/>
       <use x="187.548828" xlink:href="#DejaVuSans-77"/>
      </g>
     </g>
    </g>
    <g id="xtick_20">
     <g id="line2d_20">
      <path d="M 374.572919 247.865371 
" style="fill:none;stroke:#b3b3b3;stroke-width:1.5;"/>
      <g>
       <use style="fill:#b3b3b3;stroke:#b3b3b3;stroke-width:0.5;" x="374.572919" xlink:href="#m59a9ac52da" y="247.865371"/>
      </g>
     </g>
     <g id="text_20">
      <!-- 07PM -->
      <g style="fill:#4d4d4d;" transform="translate(367.77042 274.582592)rotate(-45)scale(0.088 -0.088)">
       <use xlink:href="#DejaVuSans-48"/>
       <use x="63.623047" xlink:href="#DejaVuSans-55"/>
       <use x="127.246094" xlink:href="#DejaVuSans-80"/>
       <use x="187.548828" xlink:href="#DejaVuSans-77"/>
      </g>
     </g>
    </g>
    <g id="xtick_21">
     <g id="line2d_21">
      <path d="M 391.493727 247.865371 
" style="fill:none;stroke:#b3b3b3;stroke-width:1.5;"/>
      <g>
       <use style="fill:#b3b3b3;stroke:#b3b3b3;stroke-width:0.5;" x="391.493727" xlink:href="#m59a9ac52da" y="247.865371"/>
      </g>
     </g>
     <g id="text_21">
      <!-- 08PM -->
      <g style="fill:#4d4d4d;" transform="translate(384.691227 274.582592)rotate(-45)scale(0.088 -0.088)">
       <use xlink:href="#DejaVuSans-48"/>
       <use x="63.623047" xlink:href="#DejaVuSans-56"/>
       <use x="127.246094" xlink:href="#DejaVuSans-80"/>
       <use x="187.548828" xlink:href="#DejaVuSans-77"/>
      </g>
     </g>
    </g>
    <g id="xtick_22">
     <g id="line2d_22">
      <path d="M 408.414534 247.865371 
" style="fill:none;stroke:#b3b3b3;stroke-width:1.5;"/>
      <g>
       <use style="fill:#b3b3b3;stroke:#b3b3b3;stroke-width:0.5;" x="408.414534" xlink:href="#m59a9ac52da" y="247.865371"/>
      </g>
     </g>
     <g id="text_22">
      <!-- 09PM -->
      <g style="fill:#4d4d4d;" transform="translate(401.612035 274.582592)rotate(-45)scale(0.088 -0.088)">
       <use xlink:href="#DejaVuSans-48"/>
       <use x="63.623047" xlink:href="#DejaVuSans-57"/>
       <use x="127.246094" xlink:href="#DejaVuSans-80"/>
       <use x="187.548828" xlink:href="#DejaVuSans-77"/>
      </g>
     </g>
    </g>
    <g id="xtick_23">
     <g id="line2d_23">
      <path d="M 425.335342 247.865371 
" style="fill:none;stroke:#b3b3b3;stroke-width:1.5;"/>
      <g>
       <use style="fill:#b3b3b3;stroke:#b3b3b3;stroke-width:0.5;" x="425.335342" xlink:href="#m59a9ac52da" y="247.865371"/>
      </g>
     </g>
     <g id="text_23">
      <!-- 10PM -->
      <g style="fill:#4d4d4d;" transform="translate(418.532842 274.582592)rotate(-45)scale(0.088 -0.088)">
       <use xlink:href="#DejaVuSans-49"/>
       <use x="63.623047" xlink:href="#DejaVuSans-48"/>
       <use x="127.246094" xlink:href="#DejaVuSans-80"/>
       <use x="187.548828" xlink:href="#DejaVuSans-77"/>
      </g>
     </g>
    </g>
    <g id="xtick_24">
     <g id="line2d_24">
      <path d="M 442.256149 247.865371 
" style="fill:none;stroke:#b3b3b3;stroke-width:1.5;"/>
      <g>
       <use style="fill:#b3b3b3;stroke:#b3b3b3;stroke-width:0.5;" x="442.256149" xlink:href="#m59a9ac52da" y="247.865371"/>
      </g>
     </g>
     <g id="text_24">
      <!-- 11PM -->
      <g style="fill:#4d4d4d;" transform="translate(435.45365 274.582592)rotate(-45)scale(0.088 -0.088)">
       <use xlink:href="#DejaVuSans-49"/>
       <use x="63.623047" xlink:href="#DejaVuSans-49"/>
       <use x="127.246094" xlink:href="#DejaVuSans-80"/>
       <use x="187.548828" xlink:href="#DejaVuSans-77"/>
      </g>
     </g>
    </g>
    <g id="xtick_25">
     <g id="line2d_25">
      <path d="M 459.176957 247.865371 
" style="fill:none;stroke:#b3b3b3;stroke-width:1.5;"/>
      <g>
       <use style="fill:#b3b3b3;stroke:#b3b3b3;stroke-width:0.5;" x="459.176957" xlink:href="#m59a9ac52da" y="247.865371"/>
      </g>
     </g>
     <g id="text_25">
      <!-- 12AM -->
      <g style="fill:#4d4d4d;" transform="translate(452.122153 275.087201)rotate(-45)scale(0.088 -0.088)">
       <use xlink:href="#DejaVuSans-49"/>
       <use x="63.623047" xlink:href="#DejaVuSans-50"/>
       <use x="127.246094" xlink:href="#DejaVuSans-65"/>
       <use x="195.654297" xlink:href="#DejaVuSans-77"/>
      </g>
     </g>
    </g>
    <g id="xtick_26">
     <g id="line2d_26">
      <path d="M 61.53798 247.865371 
" style="fill:none;stroke:#b3b3b3;stroke-width:1.5;"/>
      <defs>
       <path d="M 0 0 
L 0 1.375 
" id="m8fa7f6dc83" style="stroke:#b3b3b3;stroke-width:0.5;"/>
      </defs>
      <g>
       <use style="fill:#b3b3b3;stroke:#b3b3b3;stroke-width:0.5;" x="61.53798" xlink:href="#m8fa7f6dc83" y="247.865371"/>
      </g>
     </g>
    </g>
    <g id="xtick_27">
     <g id="line2d_27">
      <path d="M 78.458788 247.865371 
" style="fill:none;stroke:#b3b3b3;stroke-width:1.5;"/>
      <g>
       <use style="fill:#b3b3b3;stroke:#b3b3b3;stroke-width:0.5;" x="78.458788" xlink:href="#m8fa7f6dc83" y="247.865371"/>
      </g>
     </g>
    </g>
    <g id="xtick_28">
     <g id="line2d_28">
      <path d="M 95.379595 247.865371 
" style="fill:none;stroke:#b3b3b3;stroke-width:1.5;"/>
      <g>
       <use style="fill:#b3b3b3;stroke:#b3b3b3;stroke-width:0.5;" x="95.379595" xlink:href="#m8fa7f6dc83" y="247.865371"/>
      </g>
     </g>
    </g>
    <g id="xtick_29">
     <g id="line2d_29">
      <path d="M 112.300403 247.865371 
" style="fill:none;stroke:#b3b3b3;stroke-width:1.5;"/>
      <g>
       <use style="fill:#b3b3b3;stroke:#b3b3b3;stroke-width:0.5;" x="112.300403" xlink:href="#m8fa7f6dc83" y="247.865371"/>
      </g>
     </g>
    </g>
    <g id="xtick_30">
     <g id="line2d_30">
      <path d="M 129.22121 247.865371 
" style="fill:none;stroke:#b3b3b3;stroke-width:1.5;"/>
      <g>
       <use style="fill:#b3b3b3;stroke:#b3b3b3;stroke-width:0.5;" x="129.22121" xlink:href="#m8fa7f6dc83" y="247.865371"/>
      </g>
     </g>
    </g>
    <g id="xtick_31">
     <g id="line2d_31">
      <path d="M 146.142018 247.865371 
" style="fill:none;stroke:#b3b3b3;stroke-width:1.5;"/>
      <g>
       <use style="fill:#b3b3b3;stroke:#b3b3b3;stroke-width:0.5;" x="146.142018" xlink:href="#m8fa7f6dc83" y="247.865371"/>
      </g>
     </g>
    </g>
    <g id="xtick_32">
     <g id="line2d_32">
      <path d="M 163.062825 247.865371 
" style="fill:none;stroke:#b3b3b3;stroke-width:1.5;"/>
      <g>
       <use style="fill:#b3b3b3;stroke:#b3b3b3;stroke-width:0.5;" x="163.062825" xlink:href="#m8fa7f6dc83" y="247.865371"/>
      </g>
     </g>
    </g>
    <g id="xtick_33">
     <g id="line2d_33">
      <path d="M 179.983633 247.865371 
" style="fill:none;stroke:#b3b3b3;stroke-width:1.5;"/>
      <g>
       <use style="fill:#b3b3b3;stroke:#b3b3b3;stroke-width:0.5;" x="179.983633" xlink:href="#m8fa7f6dc83" y="247.865371"/>
      </g>
     </g>
    </g>
    <g id="xtick_34">
     <g id="line2d_34">
      <path d="M 196.90444 247.865371 
" style="fill:none;stroke:#b3b3b3;stroke-width:1.5;"/>
      <g>
       <use style="fill:#b3b3b3;stroke:#b3b3b3;stroke-width:0.5;" x="196.90444" xlink:href="#m8fa7f6dc83" y="247.865371"/>
      </g>
     </g>
    </g>
    <g id="xtick_35">
     <g id="line2d_35">
      <path d="M 213.825248 247.865371 
" style="fill:none;stroke:#b3b3b3;stroke-width:1.5;"/>
      <g>
       <use style="fill:#b3b3b3;stroke:#b3b3b3;stroke-width:0.5;" x="213.825248" xlink:href="#m8fa7f6dc83" y="247.865371"/>
      </g>
     </g>
    </g>
    <g id="xtick_36">
     <g id="line2d_36">
      <path d="M 230.746055 247.865371 
" style="fill:none;stroke:#b3b3b3;stroke-width:1.5;"/>
      <g>
       <use style="fill:#b3b3b3;stroke:#b3b3b3;stroke-width:0.5;" x="230.746055" xlink:href="#m8fa7f6dc83" y="247.865371"/>
      </g>
     </g>
    </g>
    <g id="xtick_37">
     <g id="line2d_37">
      <path d="M 247.666863 247.865371 
" style="fill:none;stroke:#b3b3b3;stroke-width:1.5;"/>
      <g>
       <use style="fill:#b3b3b3;stroke:#b3b3b3;stroke-width:0.5;" x="247.666863" xlink:href="#m8fa7f6dc83" y="247.865371"/>
      </g>
     </g>
    </g>
    <g id="xtick_38">
     <g id="line2d_38">
      <path d="M 264.587671 247.865371 
" style="fill:none;stroke:#b3b3b3;stroke-width:1.5;"/>
      <g>
       <use style="fill:#b3b3b3;stroke:#b3b3b3;stroke-width:0.5;" x="264.587671" xlink:href="#m8fa7f6dc83" y="247.865371"/>
      </g>
     </g>
    </g>
    <g id="xtick_39">
     <g id="line2d_39">
      <path d="M 281.508478 247.865371 
" style="fill:none;stroke:#b3b3b3;stroke-width:1.5;"/>
      <g>
       <use style="fill:#b3b3b3;stroke:#b3b3b3;stroke-width:0.5;" x="281.508478" xlink:href="#m8fa7f6dc83" y="247.865371"/>
      </g>
     </g>
    </g>
    <g id="xtick_40">
     <g id="line2d_40">
      <path d="M 298.429286 247.865371 
" style="fill:none;stroke:#b3b3b3;stroke-width:1.5;"/>
      <g>
       <use style="fill:#b3b3b3;stroke:#b3b3b3;stroke-width:0.5;" x="298.429286" xlink:href="#m8fa7f6dc83" y="247.865371"/>
      </g>
     </g>
    </g>
    <g id="xtick_41">
     <g id="line2d_41">
      <path d="M 315.350093 247.865371 
" style="fill:none;stroke:#b3b3b3;stroke-width:1.5;"/>
      <g>
       <use style="fill:#b3b3b3;stroke:#b3b3b3;stroke-width:0.5;" x="315.350093" xlink:href="#m8fa7f6dc83" y="247.865371"/>
      </g>
     </g>
    </g>
    <g id="xtick_42">
     <g id="line2d_42">
      <path d="M 332.270901 247.865371 
" style="fill:none;stroke:#b3b3b3;stroke-width:1.5;"/>
      <g>
       <use style="fill:#b3b3b3;stroke:#b3b3b3;stroke-width:0.5;" x="332.270901" xlink:href="#m8fa7f6dc83" y="247.865371"/>
      </g>
     </g>
    </g>
    <g id="xtick_43">
     <g id="line2d_43">
      <path d="M 349.191708 247.865371 
" style="fill:none;stroke:#b3b3b3;stroke-width:1.5;"/>
      <g>
       <use style="fill:#b3b3b3;stroke:#b3b3b3;stroke-width:0.5;" x="349.191708" xlink:href="#m8fa7f6dc83" y="247.865371"/>
      </g>
     </g>
    </g>
    <g id="xtick_44">
     <g id="line2d_44">
      <path d="M 366.112516 247.865371 
" style="fill:none;stroke:#b3b3b3;stroke-width:1.5;"/>
      <g>
       <use style="fill:#b3b3b3;stroke:#b3b3b3;stroke-width:0.5;" x="366.112516" xlink:href="#m8fa7f6dc83" y="247.865371"/>
      </g>
     </g>
    </g>
    <g id="xtick_45">
     <g id="line2d_45">
      <path d="M 383.033323 247.865371 
" style="fill:none;stroke:#b3b3b3;stroke-width:1.5;"/>
      <g>
       <use style="fill:#b3b3b3;stroke:#b3b3b3;stroke-width:0.5;" x="383.033323" xlink:href="#m8fa7f6dc83" y="247.865371"/>
      </g>
     </g>
    </g>
    <g id="xtick_46">
     <g id="line2d_46">
      <path d="M 399.954131 247.865371 
" style="fill:none;stroke:#b3b3b3;stroke-width:1.5;"/>
      <g>
       <use style="fill:#b3b3b3;stroke:#b3b3b3;stroke-width:0.5;" x="399.954131" xlink:href="#m8fa7f6dc83" y="247.865371"/>
      </g>
     </g>
    </g>
    <g id="xtick_47">
     <g id="line2d_47">
      <path d="M 416.874938 247.865371 
" style="fill:none;stroke:#b3b3b3;stroke-width:1.5;"/>
      <g>
       <use style="fill:#b3b3b3;stroke:#b3b3b3;stroke-width:0.5;" x="416.874938" xlink:href="#m8fa7f6dc83" y="247.865371"/>
      </g>
     </g>
    </g>
    <g id="xtick_48">
     <g id="line2d_48">
      <path d="M 433.795746 247.865371 
" style="fill:none;stroke:#b3b3b3;stroke-width:1.5;"/>
      <g>
       <use style="fill:#b3b3b3;stroke:#b3b3b3;stroke-width:0.5;" x="433.795746" xlink:href="#m8fa7f6dc83" y="247.865371"/>
      </g>
     </g>
    </g>
    <g id="xtick_49">
     <g id="line2d_49">
      <path d="M 450.716553 247.865371 
" style="fill:none;stroke:#b3b3b3;stroke-width:1.5;"/>
      <g>
       <use style="fill:#b3b3b3;stroke:#b3b3b3;stroke-width:0.5;" x="450.716553" xlink:href="#m8fa7f6dc83" y="247.865371"/>
      </g>
     </g>
    </g>
   </g>
   <g id="matplotlib.axis_2">
    <g id="ytick_1">
     <g id="line2d_50">
      <path clip-path="url(#p7667023626)" d="M 32.809375 237.047372 
L 479.209375 237.047372 
" style="fill:none;stroke:#d9d9d9;stroke-width:0.5;"/>
     </g>
     <g id="line2d_51">
      <path d="M 32.809375 237.047372 
" style="fill:none;stroke:#b3b3b3;stroke-width:1.5;"/>
      <defs>
       <path d="M 0 0 
L -2.75 0 
" id="me99558361a" style="stroke:#b3b3b3;stroke-width:0.5;"/>
      </defs>
      <g>
       <use style="fill:#b3b3b3;stroke:#b3b3b3;stroke-width:0.5;" x="32.809375" xlink:href="#me99558361a" y="237.047372"/>
      </g>
     </g>
     <g id="text_26">
      <!-- 62°F -->
      <defs>
       <path d="M 25 67.921875 
Q 21.09375 67.921875 18.40625 65.203125 
Q 15.71875 62.5 15.71875 58.59375 
Q 15.71875 54.734375 18.40625 52.078125 
Q 21.09375 49.421875 25 49.421875 
Q 28.90625 49.421875 31.59375 52.078125 
Q 34.28125 54.734375 34.28125 58.59375 
Q 34.28125 62.453125 31.5625 65.1875 
Q 28.859375 67.921875 25 67.921875 
z
M 25 74.21875 
Q 28.125 74.21875 31 73.015625 
Q 33.890625 71.828125 35.984375 69.578125 
Q 38.234375 67.390625 39.359375 64.59375 
Q 40.484375 61.8125 40.484375 58.59375 
Q 40.484375 52.15625 35.96875 47.6875 
Q 31.453125 43.21875 24.90625 43.21875 
Q 18.3125 43.21875 13.90625 47.609375 
Q 9.515625 52 9.515625 58.59375 
Q 9.515625 65.140625 14 69.671875 
Q 18.5 74.21875 25 74.21875 
z
" id="DejaVuSans-176"/>
       <path d="M 9.8125 72.90625 
L 51.703125 72.90625 
L 51.703125 64.59375 
L 19.671875 64.59375 
L 19.671875 43.109375 
L 48.578125 43.109375 
L 48.578125 34.8125 
L 19.671875 34.8125 
L 19.671875 0 
L 9.8125 0 
z
" id="DejaVuSans-70"/>
      </defs>
      <g style="fill:#4d4d4d;" transform="translate(7.2 239.475622)scale(0.088 -0.088)">
       <use xlink:href="#DejaVuSans-54"/>
       <use x="63.623047" xlink:href="#DejaVuSans-50"/>
       <use x="127.246094" xlink:href="#DejaVuSans-176"/>
       <use x="177.246094" xlink:href="#DejaVuSans-70"/>
      </g>
     </g>
    </g>
    <g id="ytick_2">
     <g id="line2d_52">
      <path clip-path="url(#p7667023626)" d="M 32.809375 216.753156 
L 479.209375 216.753156 
" style="fill:none;stroke:#d9d9d9;stroke-width:0.5;"/>
     </g>
     <g id="line2d_53">
      <path d="M 32.809375 216.753156 
" style="fill:none;stroke:#b3b3b3;stroke-width:1.5;"/>
      <g>
       <use style="fill:#b3b3b3;stroke:#b3b3b3;stroke-width:0.5;" x="32.809375" xlink:href="#me99558361a" y="216.753156"/>
      </g>
     </g>
     <g id="text_27">
      <!-- 64°F -->
      <g style="fill:#4d4d4d;" transform="translate(7.2 219.181406)scale(0.088 -0.088)">
       <use xlink:href="#DejaVuSans-54"/>
       <use x="63.623047" xlink:href="#DejaVuSans-52"/>
       <use x="127.246094" xlink:href="#DejaVuSans-176"/>
       <use x="177.246094" xlink:href="#DejaVuSans-70"/>
      </g>
     </g>
    </g>
    <g id="ytick_3">
     <g id="line2d_54">
      <path clip-path="url(#p7667023626)" d="M 32.809375 196.45894 
L 479.209375 196.45894 
" style="fill:none;stroke:#d9d9d9;stroke-width:0.5;"/>
     </g>
     <g id="line2d_55">
      <path d="M 32.809375 196.45894 
" style="fill:none;stroke:#b3b3b3;stroke-width:1.5;"/>
      <g>
       <use style="fill:#b3b3b3;stroke:#b3b3b3;stroke-width:0.5;" x="32.809375" xlink:href="#me99558361a" y="196.45894"/>
      </g>
     </g>
     <g id="text_28">
      <!-- 66°F -->
      <g style="fill:#4d4d4d;" transform="translate(7.2 198.88719)scale(0.088 -0.088)">
       <use xlink:href="#DejaVuSans-54"/>
       <use x="63.623047" xlink:href="#DejaVuSans-54"/>
       <use x="127.246094" xlink:href="#DejaVuSans-176"/>
       <use x="177.246094" xlink:href="#DejaVuSans-70"/>
      </g>
     </g>
    </g>
    <g id="ytick_4">
     <g id="line2d_56">
      <path clip-path="url(#p7667023626)" d="M 32.809375 176.164724 
L 479.209375 176.164724 
" style="fill:none;stroke:#d9d9d9;stroke-width:0.5;"/>
     </g>
     <g id="line2d_57">
      <path d="M 32.809375 176.164724 
" style="fill:none;stroke:#b3b3b3;stroke-width:1.5;"/>
      <g>
       <use style="fill:#b3b3b3;stroke:#b3b3b3;stroke-width:0.5;" x="32.809375" xlink:href="#me99558361a" y="176.164724"/>
      </g>
     </g>
     <g id="text_29">
      <!-- 68°F -->
      <g style="fill:#4d4d4d;" transform="translate(7.2 178.592974)scale(0.088 -0.088)">
       <use xlink:href="#DejaVuSans-54"/>
       <use x="63.623047" xlink:href="#DejaVuSans-56"/>
       <use x="127.246094" xlink:href="#DejaVuSans-176"/>
       <use x="177.246094" xlink:href="#DejaVuSans-70"/>
      </g>
     </g>
    </g>
    <g id="ytick_5">
     <g id="line2d_58">
      <path clip-path="url(#p7667023626)" d="M 32.809375 155.870508 
L 479.209375 155.870508 
" style="fill:none;stroke:#d9d9d9;stroke-width:0.5;"/>
     </g>
     <g id="line2d_59">
      <path d="M 32.809375 155.870508 
" style="fill:none;stroke:#b3b3b3;stroke-width:1.5;"/>
      <g>
       <use style="fill:#b3b3b3;stroke:#b3b3b3;stroke-width:0.5;" x="32.809375" xlink:href="#me99558361a" y="155.870508"/>
      </g>
     </g>
     <g id="text_30">
      <!-- 70°F -->
      <g style="fill:#4d4d4d;" transform="translate(7.2 158.298758)scale(0.088 -0.088)">
       <use xlink:href="#DejaVuSans-55"/>
       <use x="63.623047" xlink:href="#DejaVuSans-48"/>
       <use x="127.246094" xlink:href="#DejaVuSans-176"/>
       <use x="177.246094" xlink:href="#DejaVuSans-70"/>
      </g>
     </g>
    </g>
    <g id="ytick_6">
     <g id="line2d_60">
      <path clip-path="url(#p7667023626)" d="M 32.809375 135.576293 
L 479.209375 135.576293 
" style="fill:none;stroke:#d9d9d9;stroke-width:0.5;"/>
     </g>
     <g id="line2d_61">
      <path d="M 32.809375 135.576293 
" style="fill:none;stroke:#b3b3b3;stroke-width:1.5;"/>
      <g>
       <use style="fill:#b3b3b3;stroke:#b3b3b3;stroke-width:0.5;" x="32.809375" xlink:href="#me99558361a" y="135.576293"/>
      </g>
     </g>
     <g id="text_31">
      <!-- 72°F -->
      <g style="fill:#4d4d4d;" transform="translate(7.2 138.004543)scale(0.088 -0.088)">
       <use xlink:href="#DejaVuSans-55"/>
       <use x="63.623047" xlink:href="#DejaVuSans-50"/>
       <use x="127.246094" xlink:href="#DejaVuSans-176"/>
       <use x="177.246094" xlink:href="#DejaVuSans-70"/>
      </g>
     </g>
    </g>
    <g id="ytick_7">
     <g id="line2d_62">
      <path clip-path="url(#p7667023626)" d="M 32.809375 115.282077 
L 479.209375 115.282077 
" style="fill:none;stroke:#d9d9d9;stroke-width:0.5;"/>
     </g>
     <g id="line2d_63">
      <path d="M 32.809375 115.282077 
" style="fill:none;stroke:#b3b3b3;stroke-width:1.5;"/>
      <g>
       <use style="fill:#b3b3b3;stroke:#b3b3b3;stroke-width:0.5;" x="32.809375" xlink:href="#me99558361a" y="115.282077"/>
      </g>
     </g>
     <g id="text_32">
      <!-- 74°F -->
      <g style="fill:#4d4d4d;" transform="translate(7.2 117.710327)scale(0.088 -0.088)">
       <use xlink:href="#DejaVuSans-55"/>
       <use x="63.623047" xlink:href="#DejaVuSans-52"/>
       <use x="127.246094" xlink:href="#DejaVuSans-176"/>
       <use x="177.246094" xlink:href="#DejaVuSans-70"/>
      </g>
     </g>
    </g>
    <g id="ytick_8">
     <g id="line2d_64">
      <path clip-path="url(#p7667023626)" d="M 32.809375 94.987861 
L 479.209375 94.987861 
" style="fill:none;stroke:#d9d9d9;stroke-width:0.5;"/>
     </g>
     <g id="line2d_65">
      <path d="M 32.809375 94.987861 
" style="fill:none;stroke:#b3b3b3;stroke-width:1.5;"/>
      <g>
       <use style="fill:#b3b3b3;stroke:#b3b3b3;stroke-width:0.5;" x="32.809375" xlink:href="#me99558361a" y="94.987861"/>
      </g>
     </g>
     <g id="text_33">
      <!-- 76°F -->
      <g style="fill:#4d4d4d;" transform="translate(7.2 97.416111)scale(0.088 -0.088)">
       <use xlink:href="#DejaVuSans-55"/>
       <use x="63.623047" xlink:href="#DejaVuSans-54"/>
       <use x="127.246094" xlink:href="#DejaVuSans-176"/>
       <use x="177.246094" xlink:href="#DejaVuSans-70"/>
      </g>
     </g>
    </g>
    <g id="ytick_9">
     <g id="line2d_66">
      <path clip-path="url(#p7667023626)" d="M 32.809375 74.693645 
L 479.209375 74.693645 
" style="fill:none;stroke:#d9d9d9;stroke-width:0.5;"/>
     </g>
     <g id="line2d_67">
      <path d="M 32.809375 74.693645 
" style="fill:none;stroke:#b3b3b3;stroke-width:1.5;"/>
      <g>
       <use style="fill:#b3b3b3;stroke:#b3b3b3;stroke-width:0.5;" x="32.809375" xlink:href="#me99558361a" y="74.693645"/>
      </g>
     </g>
     <g id="text_34">
      <!-- 78°F -->
      <g style="fill:#4d4d4d;" transform="translate(7.2 77.121895)scale(0.088 -0.088)">
       <use xlink:href="#DejaVuSans-55"/>
       <use x="63.623047" xlink:href="#DejaVuSans-56"/>
       <use x="127.246094" xlink:href="#DejaVuSans-176"/>
       <use x="177.246094" xlink:href="#DejaVuSans-70"/>
      </g>
     </g>
    </g>
    <g id="ytick_10">
     <g id="line2d_68">
      <path clip-path="url(#p7667023626)" d="M 32.809375 54.399429 
L 479.209375 54.399429 
" style="fill:none;stroke:#d9d9d9;stroke-width:0.5;"/>
     </g>
     <g id="line2d_69">
      <path d="M 32.809375 54.399429 
" style="fill:none;stroke:#b3b3b3;stroke-width:1.5;"/>
      <g>
       <use style="fill:#b3b3b3;stroke:#b3b3b3;stroke-width:0.5;" x="32.809375" xlink:href="#me99558361a" y="54.399429"/>
      </g>
     </g>
     <g id="text_35">
      <!-- 80°F -->
      <g style="fill:#4d4d4d;" transform="translate(7.2 56.827679)scale(0.088 -0.088)">
       <use xlink:href="#DejaVuSans-56"/>
       <use x="63.623047" xlink:href="#DejaVuSans-48"/>
       <use x="127.246094" xlink:href="#DejaVuSans-176"/>
       <use x="177.246094" xlink:href="#DejaVuSans-70"/>
      </g>
     </g>
    </g>
    <g id="ytick_11">
     <g id="line2d_70">
      <path clip-path="url(#p7667023626)" d="M 32.809375 34.105214 
L 479.209375 34.105214 
" style="fill:none;stroke:#d9d9d9;stroke-width:0.5;"/>
     </g>
     <g id="line2d_71">
      <path d="M 32.809375 34.105214 
" style="fill:none;stroke:#b3b3b3;stroke-width:1.5;"/>
      <g>
       <use style="fill:#b3b3b3;stroke:#b3b3b3;stroke-width:0.5;" x="32.809375" xlink:href="#me99558361a" y="34.105214"/>
      </g>
     </g>
     <g id="text_36">
      <!-- 82°F -->
      <g style="fill:#4d4d4d;" transform="translate(7.2 36.533464)scale(0.088 -0.088)">
       <use xlink:href="#DejaVuSans-56"/>
       <use x="63.623047" xlink:href="#DejaVuSans-50"/>
       <use x="127.246094" xlink:href="#DejaVuSans-176"/>
       <use x="177.246094" xlink:href="#DejaVuSans-70"/>
      </g>
     </g>
    </g>
    <g id="ytick_12">
     <g id="line2d_72">
      <path clip-path="url(#p7667023626)" d="M 32.809375 247.194479 
L 479.209375 247.194479 
" style="fill:none;stroke:#ededed;stroke-width:0.25;"/>
     </g>
     <g id="line2d_73">
      <path d="M 32.809375 247.194479 
" style="fill:none;stroke:#b3b3b3;stroke-width:1.5;"/>
      <defs>
       <path d="M 0 0 
L -1.375 0 
" id="mcc58ccb55c" style="stroke:#b3b3b3;stroke-width:0.5;"/>
      </defs>
      <g>
       <use style="fill:#b3b3b3;stroke:#b3b3b3;stroke-width:0.5;" x="32.809375" xlink:href="#mcc58ccb55c" y="247.194479"/>
      </g>
     </g>
    </g>
    <g id="ytick_13">
     <g id="line2d_74">
      <path clip-path="url(#p7667023626)" d="M 32.809375 226.900264 
L 479.209375 226.900264 
" style="fill:none;stroke:#ededed;stroke-width:0.25;"/>
     </g>
     <g id="line2d_75">
      <path d="M 32.809375 226.900264 
" style="fill:none;stroke:#b3b3b3;stroke-width:1.5;"/>
      <g>
       <use style="fill:#b3b3b3;stroke:#b3b3b3;stroke-width:0.5;" x="32.809375" xlink:href="#mcc58ccb55c" y="226.900264"/>
      </g>
     </g>
    </g>
    <g id="ytick_14">
     <g id="line2d_76">
      <path clip-path="url(#p7667023626)" d="M 32.809375 206.606048 
L 479.209375 206.606048 
" style="fill:none;stroke:#ededed;stroke-width:0.25;"/>
     </g>
     <g id="line2d_77">
      <path d="M 32.809375 206.606048 
" style="fill:none;stroke:#b3b3b3;stroke-width:1.5;"/>
      <g>
       <use style="fill:#b3b3b3;stroke:#b3b3b3;stroke-width:0.5;" x="32.809375" xlink:href="#mcc58ccb55c" y="206.606048"/>
      </g>
     </g>
    </g>
    <g id="ytick_15">
     <g id="line2d_78">
      <path clip-path="url(#p7667023626)" d="M 32.809375 186.311832 
L 479.209375 186.311832 
" style="fill:none;stroke:#ededed;stroke-width:0.25;"/>
     </g>
     <g id="line2d_79">
      <path d="M 32.809375 186.311832 
" style="fill:none;stroke:#b3b3b3;stroke-width:1.5;"/>
      <g>
       <use style="fill:#b3b3b3;stroke:#b3b3b3;stroke-width:0.5;" x="32.809375" xlink:href="#mcc58ccb55c" y="186.311832"/>
      </g>
     </g>
    </g>
    <g id="ytick_16">
     <g id="line2d_80">
      <path clip-path="url(#p7667023626)" d="M 32.809375 166.017616 
L 479.209375 166.017616 
" style="fill:none;stroke:#ededed;stroke-width:0.25;"/>
     </g>
     <g id="line2d_81">
      <path d="M 32.809375 166.017616 
" style="fill:none;stroke:#b3b3b3;stroke-width:1.5;"/>
      <g>
       <use style="fill:#b3b3b3;stroke:#b3b3b3;stroke-width:0.5;" x="32.809375" xlink:href="#mcc58ccb55c" y="166.017616"/>
      </g>
     </g>
    </g>
    <g id="ytick_17">
     <g id="line2d_82">
      <path clip-path="url(#p7667023626)" d="M 32.809375 145.7234 
L 479.209375 145.7234 
" style="fill:none;stroke:#ededed;stroke-width:0.25;"/>
     </g>
     <g id="line2d_83">
      <path d="M 32.809375 145.7234 
" style="fill:none;stroke:#b3b3b3;stroke-width:1.5;"/>
      <g>
       <use style="fill:#b3b3b3;stroke:#b3b3b3;stroke-width:0.5;" x="32.809375" xlink:href="#mcc58ccb55c" y="145.7234"/>
      </g>
     </g>
    </g>
    <g id="ytick_18">
     <g id="line2d_84">
      <path clip-path="url(#p7667023626)" d="M 32.809375 125.429185 
L 479.209375 125.429185 
" style="fill:none;stroke:#ededed;stroke-width:0.25;"/>
     </g>
     <g id="line2d_85">
      <path d="M 32.809375 125.429185 
" style="fill:none;stroke:#b3b3b3;stroke-width:1.5;"/>
      <g>
       <use style="fill:#b3b3b3;stroke:#b3b3b3;stroke-width:0.5;" x="32.809375" xlink:href="#mcc58ccb55c" y="125.429185"/>
      </g>
     </g>
    </g>
    <g id="ytick_19">
     <g id="line2d_86">
      <path clip-path="url(#p7667023626)" d="M 32.809375 105.134969 
L 479.209375 105.134969 
" style="fill:none;stroke:#ededed;stroke-width:0.25;"/>
     </g>
     <g id="line2d_87">
      <path d="M 32.809375 105.134969 
" style="fill:none;stroke:#b3b3b3;stroke-width:1.5;"/>
      <g>
       <use style="fill:#b3b3b3;stroke:#b3b3b3;stroke-width:0.5;" x="32.809375" xlink:href="#mcc58ccb55c" y="105.134969"/>
      </g>
     </g>
    </g>
    <g id="ytick_20">
     <g id="line2d_88">
      <path clip-path="url(#p7667023626)" d="M 32.809375 84.840753 
L 479.209375 84.840753 
" style="fill:none;stroke:#ededed;stroke-width:0.25;"/>
     </g>
     <g id="line2d_89">
      <path d="M 32.809375 84.840753 
" style="fill:none;stroke:#b3b3b3;stroke-width:1.5;"/>
      <g>
       <use style="fill:#b3b3b3;stroke:#b3b3b3;stroke-width:0.5;" x="32.809375" xlink:href="#mcc58ccb55c" y="84.840753"/>
      </g>
     </g>
    </g>
    <g id="ytick_21">
     <g id="line2d_90">
      <path clip-path="url(#p7667023626)" d="M 32.809375 64.546537 
L 479.209375 64.546537 
" style="fill:none;stroke:#ededed;stroke-width:0.25;"/>
     </g>
     <g id="line2d_91">
      <path d="M 32.809375 64.546537 
" style="fill:none;stroke:#b3b3b3;stroke-width:1.5;"/>
      <g>
       <use style="fill:#b3b3b3;stroke:#b3b3b3;stroke-width:0.5;" x="32.809375" xlink:href="#mcc58ccb55c" y="64.546537"/>
      </g>
     </g>
    </g>
    <g id="ytick_22">
     <g id="line2d_92">
      <path clip-path="url(#p7667023626)" d="M 32.809375 44.252321 
L 479.209375 44.252321 
" style="fill:none;stroke:#ededed;stroke-width:0.25;"/>
     </g>
     <g id="line2d_93">
      <path d="M 32.809375 44.252321 
" style="fill:none;stroke:#b3b3b3;stroke-width:1.5;"/>
      <g>
       <use style="fill:#b3b3b3;stroke:#b3b3b3;stroke-width:0.5;" x="32.809375" xlink:href="#mcc58ccb55c" y="44.252321"/>
      </g>
     </g>
    </g>
   </g>
   <g id="line2d_94">
    <path clip-path="url(#p7667023626)" d="M 53.100284 154.484413 
L 54.228424 154.484413 
L 54.506989 155.616831 
L 55.356398 155.616831 
L 55.634654 156.767513 
L 56.200878 156.767513 
L 56.484089 155.616831 
L 56.767148 156.767513 
L 57.611436 156.767513 
L 57.894579 157.89993 
L 58.456329 157.89993 
L 58.739465 159.050612 
L 59.583965 159.050612 
L 59.867168 160.183029 
L 60.150246 160.183029 
L 60.433336 161.333711 
L 61.277868 161.333711 
L 61.561012 162.466129 
L 61.839326 161.333711 
L 63.533606 161.333711 
L 63.816854 162.466129 
L 64.378584 162.466129 
L 64.661767 163.616811 
L 64.945175 162.466129 
L 66.351558 162.466129 
L 66.634713 163.616811 
L 68.328756 163.616811 
L 68.611774 164.749228 
L 69.173488 164.749228 
L 69.456646 165.89991 
L 69.739788 165.89991 
L 70.01804 167.032327 
L 70.301182 165.89991 
L 70.867467 165.89991 
L 71.145889 167.032327 
L 72.274144 167.032327 
L 72.557467 168.183009 
L 72.840429 167.032327 
L 73.123572 168.183009 
L 74.8131 168.183009 
L 75.096219 169.315426 
L 75.65754 169.315426 
L 75.940696 170.466108 
L 76.507038 170.466108 
L 76.790209 171.598526 
L 79.045475 171.598526 
L 79.323727 172.749208 
L 79.606866 171.598526 
L 79.890063 171.598526 
L 80.173136 173.881625 
L 80.456289 171.598526 
L 80.73453 172.749208 
L 81.017688 171.598526 
L 81.30091 171.598526 
L 81.583966 172.749208 
L 81.862228 172.749208 
L 82.145454 171.598526 
L 82.428572 172.749208 
L 83.839835 172.749208 
L 84.118394 171.598526 
L 84.401744 172.749208 
L 85.246076 172.749208 
L 85.529308 173.881625 
L 87.506344 173.881625 
L 87.785045 175.032307 
L 90.890194 175.032307 
L 91.168755 176.164724 
L 91.451893 176.164724 
L 91.735038 177.315406 
L 92.018167 177.315406 
L 92.296724 176.164724 
L 92.579945 177.315406 
L 94.273824 177.315406 
L 94.556969 178.447823 
L 94.835218 177.315406 
L 95.118368 178.447823 
L 96.529169 178.447823 
L 96.812331 179.598505 
L 97.090582 178.447823 
L 97.373787 178.447823 
L 97.657013 179.598505 
L 99.067687 179.598505 
L 99.350998 180.730923 
L 101.606924 180.730923 
L 102.168404 183.014022 
L 102.451552 181.881605 
L 102.734731 181.881605 
L 103.013327 180.730923 
L 103.29646 181.881605 
L 103.862657 181.881605 
L 104.140912 180.730923 
L 104.707258 180.730923 
L 104.9904 181.881605 
L 105.551728 181.881605 
L 105.834865 183.014022 
L 106.963362 183.014022 
L 107.246525 184.164704 
L 109.219597 184.164704 
L 109.502547 185.297121 
L 111.474857 185.297121 
L 111.757967 186.447803 
L 112.041131 185.297121 
L 112.319768 186.447803 
L 112.602884 185.297121 
L 112.886067 186.447803 
L 113.169227 185.297121 
L 113.447839 186.447803 
L 114.01412 186.447803 
L 114.297286 187.580221 
L 114.575872 186.447803 
L 114.859023 187.580221 
L 116.836027 187.580221 
L 117.114283 188.730903 
L 119.091754 188.730903 
L 119.370009 189.86332 
L 119.653155 188.730903 
L 119.936348 189.86332 
L 121.625797 189.86332 
L 121.908881 191.014002 
L 126.142158 191.014002 
L 126.42088 192.146419 
L 127.270151 192.146419 
L 127.548393 193.297101 
L 127.831621 192.146419 
L 128.114764 193.297101 
L 130.087702 193.297101 
L 130.370862 194.429518 
L 130.653921 193.297101 
L 130.932253 193.297101 
L 131.215439 194.429518 
L 131.498668 193.297101 
L 131.781616 194.429518 
L 133.754189 194.429518 
L 134.320563 196.712618 
L 134.599244 195.5802 
L 136.009997 195.5802 
L 136.293169 197.8633 
L 136.576356 195.5802 
L 136.854461 196.712618 
L 139.959355 196.712618 
L 140.24251 197.8633 
L 142.78088 197.8633 
L 143.059241 198.995717 
L 143.342377 198.995717 
L 143.625533 197.8633 
L 143.908558 198.995717 
L 145.036208 198.995717 
L 145.319454 200.146399 
L 145.598124 198.995717 
L 146.725696 198.995717 
L 147.008818 200.146399 
L 153.215853 200.146399 
L 153.494125 201.278816 
L 154.060298 201.278816 
L 154.343442 200.146399 
L 154.622596 201.278816 
L 154.905591 200.146399 
L 155.471928 200.146399 
L 155.750124 201.278816 
L 156.033269 201.278816 
L 156.316397 200.146399 
L 156.599538 201.278816 
L 158.005939 201.278816 
L 158.289082 202.429498 
L 158.572138 201.278816 
L 158.855351 201.278816 
L 159.133537 202.429498 
L 160.266102 202.429498 
L 160.544354 203.561915 
L 160.827496 202.429498 
L 161.110809 203.561915 
L 161.393789 202.429498 
L 161.672766 203.561915 
L 170.134804 203.561915 
L 170.417974 204.712598 
L 172.390476 204.712598 
L 172.673633 203.561915 
L 172.956772 204.712598 
L 173.235392 203.561915 
L 174.929726 203.561915 
L 175.212879 204.712598 
L 175.491223 203.561915 
L 175.774259 204.712598 
L 176.057337 204.712598 
L 176.340482 203.561915 
L 176.618859 203.561915 
L 176.901978 204.712598 
L 177.185101 203.561915 
L 177.468322 204.712598 
L 178.874849 204.712598 
L 179.158055 203.561915 
L 179.724276 203.561915 
L 180.002529 204.712598 
L 181.135166 204.712598 
L 181.696917 202.429498 
L 181.980001 200.146399 
L 182.541391 197.8633 
L 182.82454 195.5802 
L 185.079896 186.447803 
L 185.363122 186.447803 
L 185.646368 184.164704 
L 185.929797 184.164704 
L 186.491544 181.881605 
L 186.774713 181.881605 
L 187.336407 179.598505 
L 187.61962 179.598505 
L 187.902811 178.447823 
L 188.181368 178.447823 
L 188.747675 176.164724 
L 189.309445 176.164724 
L 189.875741 173.881625 
L 190.158926 173.881625 
L 190.437477 172.749208 
L 190.720612 172.749208 
L 191.003794 171.598526 
L 191.848291 171.598526 
L 192.131513 170.466108 
L 192.414505 170.466108 
L 192.697649 169.315426 
L 193.259046 169.315426 
L 193.542183 167.032327 
L 194.103961 167.032327 
L 194.387248 168.183009 
L 194.670301 165.89991 
L 195.232011 165.89991 
L 195.51515 164.749228 
L 196.359754 164.749228 
L 196.642906 163.616811 
L 196.926063 163.616811 
L 197.209243 162.466129 
L 197.770966 162.466129 
L 198.054114 161.333711 
L 198.89901 161.333711 
L 199.182072 160.183029 
L 199.465273 160.183029 
L 199.743585 159.050612 
L 200.592882 159.050612 
L 200.87604 157.89993 
L 201.437573 157.89993 
L 201.720545 156.767513 
L 202.565917 156.767513 
L 202.849113 155.616831 
L 203.132109 155.616831 
L 203.410401 154.484413 
L 203.693545 155.616831 
L 203.97667 155.616831 
L 204.259808 154.484413 
L 204.538149 154.484413 
L 204.821209 153.333731 
L 205.104413 154.484413 
L 205.387585 154.484413 
L 205.665733 153.333731 
L 205.948899 153.333731 
L 206.232044 152.201314 
L 206.515167 153.333731 
L 206.79838 152.201314 
L 207.642857 152.201314 
L 207.925999 151.050632 
L 208.204341 151.050632 
L 208.487465 149.918215 
L 210.181822 149.918215 
L 210.460046 148.767533 
L 211.592572 148.767533 
L 211.870804 147.635116 
L 212.720236 147.635116 
L 212.99882 146.484434 
L 213.564851 146.484434 
L 213.847958 145.352016 
L 214.126143 146.484434 
L 214.409369 145.352016 
L 214.975578 145.352016 
L 215.258749 144.201334 
L 216.103222 144.201334 
L 216.386387 143.068917 
L 217.792711 143.068917 
L 218.075848 141.918235 
L 218.359099 141.918235 
L 218.642141 140.785818 
L 218.920394 141.918235 
L 219.203519 140.785818 
L 220.614747 140.785818 
L 220.897961 139.635136 
L 221.459668 139.635136 
L 221.742835 138.502718 
L 222.309116 138.502718 
L 222.588132 139.635136 
L 222.871361 138.502718 
L 223.716211 138.502718 
L 223.999367 137.352036 
L 224.282404 138.502718 
L 224.560658 137.352036 
L 225.410612 137.352036 
L 225.689084 136.219619 
L 226.255451 136.219619 
L 226.538627 135.068937 
L 228.510885 135.068937 
L 228.793865 133.93652 
L 230.204833 133.93652 
L 230.483384 132.785838 
L 231.332894 132.785838 
L 231.611358 131.653421 
L 233.022653 131.653421 
L 233.305816 130.502739 
L 234.433534 130.502739 
L 234.717032 129.370321 
L 236.406791 129.370321 
L 236.690232 128.219639 
L 237.534866 128.219639 
L 237.818007 127.087222 
L 239.228808 127.087222 
L 239.511862 125.93654 
L 240.35641 125.93654 
L 240.639568 127.087222 
L 240.91789 125.93654 
L 242.328619 125.93654 
L 242.611882 124.804123 
L 243.739602 124.804123 
L 244.022571 123.653441 
L 244.867569 123.653441 
L 245.150653 122.521024 
L 247.123245 122.521024 
L 247.406448 121.370342 
L 249.096285 121.370342 
L 249.380555 120.237924 
L 250.79141 120.237924 
L 251.07489 119.087242 
L 251.919502 119.087242 
L 252.202489 117.954825 
L 254.736919 117.954825 
L 255.019992 116.804143 
L 256.430919 116.804143 
L 256.714081 115.671726 
L 258.12079 115.671726 
L 258.686965 113.388626 
L 258.970315 114.521044 
L 259.815076 114.521044 
L 260.098265 113.388626 
L 262.070702 113.388626 
L 262.353845 112.237944 
L 263.764651 112.237944 
L 264.042994 111.105527 
L 264.326057 111.105527 
L 264.609208 112.237944 
L 264.892395 111.105527 
L 265.170677 111.105527 
L 265.453784 109.954845 
L 265.736881 111.105527 
L 266.020006 109.954845 
L 266.303167 109.954845 
L 266.581416 112.237944 
L 266.86456 109.954845 
L 267.430837 109.954845 
L 267.709596 108.822428 
L 267.992612 108.822428 
L 268.275859 109.954845 
L 268.558893 108.822428 
L 269.686727 108.822428 
L 269.965286 107.671746 
L 271.376567 107.671746 
L 271.65953 106.539329 
L 271.942815 107.671746 
L 272.221309 107.671746 
L 272.504518 106.539329 
L 273.349736 106.539329 
L 273.632878 105.388647 
L 273.91601 106.539329 
L 274.199148 106.539329 
L 274.477484 105.388647 
L 276.171819 105.388647 
L 276.455028 104.256229 
L 278.427862 104.256229 
L 278.711153 105.388647 
L 279.272777 103.105547 
L 280.400813 103.105547 
L 280.684063 104.256229 
L 280.967185 101.97313 
L 283.784619 101.97313 
L 284.067822 100.822448 
L 285.478948 100.822448 
L 285.762095 99.690031 
L 287.734856 99.690031 
L 288.018 98.539349 
L 290.552235 98.539349 
L 290.835396 97.406932 
L 292.529799 97.406932 
L 292.807903 96.256249 
L 293.091172 97.406932 
L 293.374198 97.406932 
L 293.657406 96.256249 
L 294.501874 96.256249 
L 294.784979 95.123832 
L 295.068151 96.256249 
L 295.346494 96.256249 
L 295.629647 95.123832 
L 297.040861 95.123832 
L 297.324038 93.97315 
L 299.29696 93.97315 
L 299.579998 92.840733 
L 301.269445 92.840733 
L 301.552584 91.690051 
L 302.397125 91.690051 
L 302.680267 92.840733 
L 302.963368 91.690051 
L 303.524894 91.690051 
L 303.807951 90.557634 
L 304.374306 90.557634 
L 304.652859 91.690051 
L 304.936081 90.557634 
L 305.219204 90.557634 
L 305.502392 89.406952 
L 307.475362 89.406952 
L 307.758527 88.274534 
L 308.036625 89.406952 
L 308.319831 88.274534 
L 310.297326 88.274534 
L 310.575516 87.123852 
L 312.831749 87.123852 
L 313.114928 85.991435 
L 313.397898 87.123852 
L 313.681049 85.991435 
L 314.525694 85.991435 
L 314.808802 87.123852 
L 315.087469 85.991435 
L 315.370582 85.991435 
L 315.653706 84.840753 
L 315.936931 85.991435 
L 316.215493 84.840753 
L 316.781693 87.123852 
L 317.064857 84.840753 
L 317.343132 84.840753 
L 317.626332 83.708336 
L 317.909538 84.840753 
L 318.19251 83.708336 
L 318.475653 84.840753 
L 318.753903 83.708336 
L 319.037197 83.708336 
L 319.320188 84.840753 
L 319.60332 83.708336 
L 322.141829 83.708336 
L 322.420238 82.557654 
L 322.986365 82.557654 
L 323.269495 83.708336 
L 323.5482 82.557654 
L 324.397564 82.557654 
L 324.675895 83.708336 
L 324.958963 82.557654 
L 325.242165 82.557654 
L 325.525364 81.425237 
L 326.086993 81.425237 
L 326.370243 82.557654 
L 326.653411 81.425237 
L 328.626616 81.425237 
L 328.909771 80.274555 
L 329.188014 81.425237 
L 330.037569 81.425237 
L 330.316142 80.274555 
L 330.599312 81.425237 
L 330.882479 80.274555 
L 332.572185 80.274555 
L 332.855384 79.142137 
L 333.138577 80.274555 
L 333.983471 80.274555 
L 334.266637 79.142137 
L 334.55004 80.274555 
L 334.828379 79.142137 
L 335.111527 80.274555 
L 335.394731 80.274555 
L 335.677852 79.142137 
L 338.216618 79.142137 
L 338.494914 77.991455 
L 338.778142 80.274555 
L 339.344325 77.991455 
L 339.623036 79.142137 
L 339.906041 79.142137 
L 340.189184 77.991455 
L 340.472314 77.991455 
L 340.75058 80.274555 
L 341.316971 77.991455 
L 343.006771 77.991455 
L 343.289909 76.859038 
L 343.573076 77.991455 
L 344.70113 77.991455 
L 344.984293 76.859038 
L 345.262467 76.859038 
L 345.545548 77.991455 
L 345.828691 77.991455 
L 346.111935 76.859038 
L 346.395121 77.991455 
L 346.673673 76.859038 
L 350.62338 76.859038 
L 350.906559 77.991455 
L 351.184714 76.859038 
L 351.750968 76.859038 
L 352.034135 75.708356 
L 352.317337 76.859038 
L 352.59563 76.859038 
L 352.878626 75.708356 
L 353.161879 76.859038 
L 353.444937 76.859038 
L 353.723222 75.708356 
L 354.006357 76.859038 
L 354.289663 75.708356 
L 354.572672 76.859038 
L 354.85086 75.708356 
L 355.134032 76.859038 
L 355.700305 76.859038 
L 355.983505 75.708356 
L 356.261679 76.859038 
L 360.495057 76.859038 
L 360.773696 77.991455 
L 361.056743 76.859038 
L 361.901673 76.859038 
L 362.184734 77.991455 
L 362.467937 76.859038 
L 363.596018 76.859038 
L 363.879178 77.991455 
L 364.15779 77.991455 
L 364.440928 76.859038 
L 364.724051 77.991455 
L 365.007123 76.859038 
L 365.285362 76.859038 
L 365.568503 77.991455 
L 365.85171 77.991455 
L 366.134973 76.859038 
L 366.417926 77.991455 
L 366.696739 76.859038 
L 366.979872 76.859038 
L 367.262899 77.991455 
L 367.545995 76.859038 
L 367.824623 77.991455 
L 368.952439 77.991455 
L 369.235505 76.859038 
L 369.518578 76.859038 
L 369.801715 77.991455 
L 370.08004 76.859038 
L 370.363204 77.991455 
L 370.646368 76.859038 
L 372.618882 76.859038 
L 372.902117 79.142137 
L 373.468273 76.859038 
L 374.02967 76.859038 
L 374.312812 77.991455 
L 374.595954 76.859038 
L 374.874271 77.991455 
L 375.157428 76.859038 
L 375.440487 77.991455 
L 379.390187 77.991455 
L 379.668432 79.142137 
L 379.951585 77.991455 
L 380.518011 77.991455 
L 380.796489 79.142137 
L 381.645979 79.142137 
L 381.9247 77.991455 
L 382.207734 79.142137 
L 382.490935 77.991455 
L 382.774096 79.142137 
L 383.902782 79.142137 
L 384.181032 77.991455 
L 384.464178 79.142137 
L 384.74731 79.142137 
L 385.030452 80.274555 
L 385.591933 77.991455 
L 386.441456 77.991455 
L 386.719902 79.142137 
L 387.003146 77.991455 
L 387.847944 77.991455 
L 388.131166 79.142137 
L 388.4143 77.991455 
L 389.542419 77.991455 
L 389.821007 79.142137 
L 390.670397 79.142137 
L 390.948755 77.991455 
L 391.231737 79.142137 
L 391.514947 79.142137 
L 391.798008 77.991455 
L 394.336566 77.991455 
L 394.897917 80.274555 
L 395.181122 79.142137 
L 396.308448 79.142137 
L 396.591501 77.991455 
L 397.153267 77.991455 
L 397.436498 79.142137 
L 397.719646 79.142137 
L 398.002772 77.991455 
L 398.280941 79.142137 
L 398.564089 77.991455 
L 398.847231 79.142137 
L 399.130427 79.142137 
L 399.413698 77.991455 
L 399.692205 79.142137 
L 402.231398 79.142137 
L 402.514556 80.274555 
L 402.797705 79.142137 
L 403.07594 80.274555 
L 403.359058 79.142137 
L 404.204151 79.142137 
L 404.487091 80.274555 
L 404.77043 79.142137 
L 405.053391 81.425237 
L 405.331642 79.142137 
L 405.614849 80.274555 
L 405.897932 80.274555 
L 406.181235 79.142137 
L 406.459764 80.274555 
L 406.742929 79.142137 
L 407.026104 81.425237 
L 407.309189 80.274555 
L 408.715905 80.274555 
L 408.999064 81.425237 
L 409.282094 80.274555 
L 410.409939 80.274555 
L 410.693385 79.142137 
L 410.971517 79.142137 
L 411.254731 80.274555 
L 411.537834 79.142137 
L 413.232163 79.142137 
L 413.510939 77.991455 
L 413.793934 79.142137 
L 414.077091 77.991455 
L 418.306621 77.991455 
L 418.589793 76.859038 
L 418.867983 77.991455 
L 420.845036 77.991455 
L 421.128164 80.274555 
L 421.406508 77.991455 
L 424.228584 77.991455 
L 424.51157 76.859038 
L 424.794715 77.991455 
L 425.072962 76.859038 
L 427.05022 76.859038 
L 427.3283 77.991455 
L 428.739145 77.991455 
L 429.022451 79.142137 
L 429.305577 77.991455 
L 430.716352 77.991455 
L 430.994507 79.142137 
L 431.560855 76.859038 
L 431.843937 77.991455 
L 438.895009 77.991455 
L 439.173264 76.859038 
L 440.866847 76.859038 
L 441.150009 79.142137 
L 441.433132 76.859038 
L 444.817087 76.859038 
L 445.095564 75.708356 
L 445.378982 76.859038 
L 450.739589 76.859038 
L 451.017844 77.991455 
L 451.584211 77.991455 
L 451.867419 76.859038 
L 452.145956 77.991455 
L 452.429125 76.859038 
L 452.712244 77.991455 
L 452.995474 76.859038 
L 453.274018 76.859038 
L 453.557175 77.991455 
L 455.529747 77.991455 
L 455.813015 79.142137 
L 457.790417 79.142137 
L 458.068916 80.274555 
L 458.918466 80.274555 
L 458.918466 80.274555 
" style="fill:none;stroke:#000000;stroke-width:1.772454;"/>
   </g>
  </g>
  <g id="text_37">
   <!-- Sep 19, 2019 -->
   <defs>
    <path d="M 53.515625 70.515625 
L 53.515625 60.890625 
Q 47.90625 63.578125 42.921875 64.890625 
Q 37.9375 66.21875 33.296875 66.21875 
Q 25.25 66.21875 20.875 63.09375 
Q 16.5 59.96875 16.5 54.203125 
Q 16.5 49.359375 19.40625 46.890625 
Q 22.3125 44.4375 30.421875 42.921875 
L 36.375 41.703125 
Q 47.40625 39.59375 52.65625 34.296875 
Q 57.90625 29 57.90625 20.125 
Q 57.90625 9.515625 50.796875 4.046875 
Q 43.703125 -1.421875 29.984375 -1.421875 
Q 24.8125 -1.421875 18.96875 -0.25 
Q 13.140625 0.921875 6.890625 3.21875 
L 6.890625 13.375 
Q 12.890625 10.015625 18.65625 8.296875 
Q 24.421875 6.59375 29.984375 6.59375 
Q 38.421875 6.59375 43.015625 9.90625 
Q 47.609375 13.234375 47.609375 19.390625 
Q 47.609375 24.75 44.3125 27.78125 
Q 41.015625 30.8125 33.5 32.328125 
L 27.484375 33.5 
Q 16.453125 35.6875 11.515625 40.375 
Q 6.59375 45.0625 6.59375 53.421875 
Q 6.59375 63.09375 13.40625 68.65625 
Q 20.21875 74.21875 32.171875 74.21875 
Q 37.3125 74.21875 42.625 73.28125 
Q 47.953125 72.359375 53.515625 70.515625 
z
" id="DejaVuSans-83"/>
    <path d="M 56.203125 29.59375 
L 56.203125 25.203125 
L 14.890625 25.203125 
Q 15.484375 15.921875 20.484375 11.0625 
Q 25.484375 6.203125 34.421875 6.203125 
Q 39.59375 6.203125 44.453125 7.46875 
Q 49.3125 8.734375 54.109375 11.28125 
L 54.109375 2.78125 
Q 49.265625 0.734375 44.1875 -0.34375 
Q 39.109375 -1.421875 33.890625 -1.421875 
Q 20.796875 -1.421875 13.15625 6.1875 
Q 5.515625 13.8125 5.515625 26.8125 
Q 5.515625 40.234375 12.765625 48.109375 
Q 20.015625 56 32.328125 56 
Q 43.359375 56 49.78125 48.890625 
Q 56.203125 41.796875 56.203125 29.59375 
z
M 47.21875 32.234375 
Q 47.125 39.59375 43.09375 43.984375 
Q 39.0625 48.390625 32.421875 48.390625 
Q 24.90625 48.390625 20.390625 44.140625 
Q 15.875 39.890625 15.1875 32.171875 
z
" id="DejaVuSans-101"/>
    <path d="M 18.109375 8.203125 
L 18.109375 -20.796875 
L 9.078125 -20.796875 
L 9.078125 54.6875 
L 18.109375 54.6875 
L 18.109375 46.390625 
Q 20.953125 51.265625 25.265625 53.625 
Q 29.59375 56 35.59375 56 
Q 45.5625 56 51.78125 48.09375 
Q 58.015625 40.1875 58.015625 27.296875 
Q 58.015625 14.40625 51.78125 6.484375 
Q 45.5625 -1.421875 35.59375 -1.421875 
Q 29.59375 -1.421875 25.265625 0.953125 
Q 20.953125 3.328125 18.109375 8.203125 
z
M 48.6875 27.296875 
Q 48.6875 37.203125 44.609375 42.84375 
Q 40.53125 48.484375 33.40625 48.484375 
Q 26.265625 48.484375 22.1875 42.84375 
Q 18.109375 37.203125 18.109375 27.296875 
Q 18.109375 17.390625 22.1875 11.75 
Q 26.265625 6.109375 33.40625 6.109375 
Q 40.53125 6.109375 44.609375 11.75 
Q 48.6875 17.390625 48.6875 27.296875 
z
" id="DejaVuSans-112"/>
    <path id="DejaVuSans-32"/>
    <path d="M 11.71875 12.40625 
L 22.015625 12.40625 
L 22.015625 4 
L 14.015625 -11.625 
L 7.71875 -11.625 
L 11.71875 4 
z
" id="DejaVuSans-44"/>
   </defs>
   <g transform="translate(204.880187 17.229938)scale(0.132 -0.132)">
    <use xlink:href="#DejaVuSans-83"/>
    <use x="63.476562" xlink:href="#DejaVuSans-101"/>
    <use x="125" xlink:href="#DejaVuSans-112"/>
    <use x="188.476562" xlink:href="#DejaVuSans-32"/>
    <use x="220.263672" xlink:href="#DejaVuSans-49"/>
    <use x="283.886719" xlink:href="#DejaVuSans-57"/>
    <use x="347.509766" xlink:href="#DejaVuSans-44"/>
    <use x="379.296875" xlink:href="#DejaVuSans-32"/>
    <use x="411.083984" xlink:href="#DejaVuSans-50"/>
    <use x="474.707031" xlink:href="#DejaVuSans-48"/>
    <use x="538.330078" xlink:href="#DejaVuSans-49"/>
    <use x="601.953125" xlink:href="#DejaVuSans-57"/>
   </g>
  </g>
 </g>
 <defs>
  <clipPath id="p7667023626">
   <rect height="221.76" width="446.4" x="32.809375" y="26.105371"/>
  </clipPath>
 </defs>
</svg>
